<svg xmlns="http://www.w3.org/2000/svg" xml:space="preserve" viewBox="0 0 1000 430.569" fill="#fff"><path d="M121.476 117.659v55.966h118.293V290.65H121.476v138.642H0V0h258.212l8.27 117.659z"/><path d="M613.28 65.989c40.3 41.136 60.46 90.793 60.46 148.96 0 58.59-20.163 108.45-60.46 149.59-40.307 41.134-88.92 61.701-145.842 61.701-57.34 0-106.17-20.567-146.468-61.7-40.309-41.14-60.458-91.001-60.458-149.59 0-58.17 20.15-107.825 60.458-148.961 40.297-41.136 89.127-61.704 146.468-61.704 56.92 0 105.535 20.568 145.842 61.704zM432.534 300.96c0 9.566 3.526 17.872 10.596 24.933 7.059 7.07 15.582 10.597 25.553 10.597 9.973 0 18.387-3.528 25.243-10.597 6.858-7.061 10.285-15.367 10.285-24.933V127.07c0-9.971-3.427-18.484-10.285-25.554-6.854-7.059-15.268-10.595-25.243-10.595-9.971 0-18.493 3.536-25.553 10.595-7.072 7.07-10.596 15.583-10.596 25.554V300.96z"/><path d="m863.26 430.569-61.052-108.758-59.147 108.758H609.503l127.2-222.6L616.498 0h137.375l50.244 92.855L854.996 0h132.92L870.257 206.696 1000 430.567H863.26z"/></svg>