<svg xmlns="http://www.w3.org/2000/svg" viewBox="0 0 422.2 173.864" fill="#fff"><path d="M123.878 173.062H77.641v-66.038h-30.01v66.038H.16L0 2.848h47.63v63.314h30.011V2.848h46.237zm211.853.802c47.68-.025 86.482-39.628 86.47-87.32C422.187 37.853 383.41.037 335.73 0c-47.618-.037-71.958 35.017-77.962 49.172.05-21.245-20.887-46.311-45.374-46.348h-78.9V173l73.56.025c29.667 0 50.763-25.696 50.8-47.73 6.77 13.872 30.258 48.58 77.876 48.568zm-134.84-69.245c6.806 0 12.17 6.72 12.17 14.377 0 7.657-5.364 14.389-12.17 14.389h-23.39v-28.766zm.086-63.893c6.806 0 12.17 6.72 12.17 14.376 0 7.657-5.364 14.377-12.17 14.377h-23.39V40.726zm31.146 45.855c5.363-.679 14.29-6.807 17.446-10.727-1.11 4.858-1.196 18.901.1 23.747-3.589-5.536-12.097-12.342-17.546-13.02zm60.317 0c0-23.92 19.395-43.315 43.315-43.315 23.933 0 43.328 19.395 43.328 43.315 0 23.92-19.395 43.314-43.328 43.314-23.92 0-43.315-19.394-43.315-43.314zm43.315 34.055c18.816 0 34.056-15.252 34.056-34.055 0-18.804-15.24-34.056-34.056-34.056-18.803 0-34.055 15.252-34.055 34.056 0 18.803 15.252 34.055 34.055 34.055"/></svg>