<svg fill="#fff" xmlns="http://www.w3.org/2000/svg" xml:space="preserve" viewBox="10.693563461303711 10.424999237060547 545.64990234375 314.1820068359375"><path d="M74.707 99.207c-22.665 20.517-30.914 67.005 9.943 94.181l162.993 111.825-79.031-181.059c-16.56-42.726-61.864-52.043-93.905-24.947"/><path d="M215.012 11.176c-26.494.539-66.277 32.09-48.572 80.268l81.736 192.771 28.723-202.758c6.647-50.381-31.48-73.638-61.887-70.281"/><path d="M289.657 73.725h15.455s8.254 0 9.377 3.893c-6.082 4.967-22.639 5.589-20.441 32.121l25.984 174.45 81.18-193.278c16.605-43.155-18.25-79.196-49.168-80.298-1.443-.104-2.893-.188-4.391-.188-27.752-.001-59.553 20.167-57.996 63.3"/><path d="m397.944 125.795-76.785 178.886 162.947-112.415c37.561-26.642 31.502-69.236 10.477-90.289-8.814-9.909-24.998-17.564-42.143-17.564-20.254-.003-41.931 10.74-54.496 41.382"/><path d="M465.862 217.72 312.835 324.607h188.418c38.656 0 63.498-39.859 52.455-76.434-7.396-22.989-29.279-41.036-54.678-41.062-10.691.005-22.029 3.225-33.168 10.609"/><path d="M70.316 324.607h185.638L102.89 217.72c-35.36-22.72-75.123-9.426-89.477 28.276-12.167 43.16 18.212 78.611 56.903 78.611"/></svg>