<svg fill="#fff" xmlns="http://www.w3.org/2000/svg" xml:space="preserve" viewBox="0 0 500.201 179.174"><path d="M126.833 90.834c0-35.896 13.283-58.527 29.142-60.92C140.117 10.423 113.63 0 89.58 0 63.093 0 39.305 11.5 22.92 29.751c15.635 3.103 20.948 16.226 20.948 36.524H24.743c0-11.986-2.494-18.19-9.592-18.19-3.186 0-5.659 1.622-7.119 4.38-.203.446-.427.913-.628 1.38-.549 1.542-.853 3.325-.853 5.292 0 24.823 40.763 23.586 40.763 61.752 0 14.887-11.417 28.777-24.274 28.777 16.893 18.455 39.972 29.508 66.539 29.508 25.836 0 49.098-10.932 65.442-28.433-15.067-3.793-28.188-25.474-28.188-59.907m-8.519 59.137H97.811V98.988H75.665v50.983H55.122V32.307h20.503v47.394h22.186V32.307h20.503v117.664z"/><path d="M17.708 131.243c5.72 0 9.774-5.029 9.774-12.35 0-15.19-13.264-18.11-27.479-30.947-.203 25.98 7.848 43.297 17.705 43.297"/><path d="M147.208 88.935c0-19.813 5.76-39.627 16.285-39.627 12.513 0 15.677 30.623 15.677 40.295 0 21.233-6.692 40.377-15.677 40.377-10.79.002-16.285-20.175-16.285-41.045"/><path d="M351.967 33.94H265.534l-8.193 67.208h-.324L247.85 33.94h-18.801l-9.958 67.21h-.323l-7.402-67.21h-18.962L207.675 148.4h18.313l10.302-72.5h.305l9.979 72.5h18.961l12.654-96.776h17.725V148.4h20.909V51.624h19.124V148.4h20.909V33.94h-4.889z"/><path d="M367.113 33.94h27.823l9.309 58.67h.324l9.815-58.67h27.154V148.4H422.9V64.482h-.324L408.422 148.4h-11.56L382.87 64.482h-.305V148.4h-15.452l.001-114.46z"/><path d="M451.813 33.94h47.272v17.684h-26.364v29.244h19.429v18.658h-19.429v31.188H500.2V148.4h-48.388V33.94z"/></svg>