<svg xmlns="http://www.w3.org/2000/svg" xml:space="preserve" viewBox="0 0 1000.946 529.883" fill="#fff"><path d="M40.813 337.232c-26.316 0-40.314-16.859-40.471-48.753L0 214.998c0-.815.611-1.476 1.406-1.588l22.936-2.2c.432-.046.863.09 1.205.431.316.25.52.659.52 1.132l.342 72.574c.067 15.947 6.125 24.071 18.058 24.071.931 0 1.884-.047 2.904-.183 13.976-1.363 21.03-10.842 20.963-28.268l-.34-72.574c0-.839.613-1.476 1.43-1.566l23.004-2.246c.477-.043.908.091 1.249.387.318.294.498.748.498 1.178l.341 73.436c.09 19.715-5.876 53.336-46.983 57.33-2.343.205-4.589.32-6.72.32"/><path d="M119.124 326.75c-.363 0-.771-.159-1.065-.454-.295-.248-.477-.68-.477-1.135l-.591-121.166c0-.861.636-1.542 1.452-1.587l24.457-1.679c.522-.045 1.043.18 1.338.59l51.814 68.398-.315-71.212a1.515 1.515 0 0 1 1.452-1.565l19.781-1.407c.432 0 .863.138 1.182.456.34.294.498.68.498 1.133l.567 121.168a1.539 1.539 0 0 1-1.451 1.589l-20.303 1.405c-.521 0-1.067-.18-1.362-.566l-55.967-74.161.365 77.244c0 .84-.636 1.499-1.453 1.544l-19.806 1.405h-.116z"/><path d="M248.234 318.402a1.55 1.55 0 0 1-1.068-.433c-.317-.293-.521-.702-.521-1.111l-.681-120.827c0-.839.635-1.565 1.476-1.587l26.316-1.293a1.59 1.59 0 0 1 1.179.432c.319.249.499.68.499 1.111l.59 120.827c0 .837-.68 1.521-1.521 1.59l-26.179 1.294h-.089l-.001-.003z"/><path d="M345.24 314.318a1.599 1.599 0 0 1-1.454-.955l-51.519-119.306c-.183-.477-.135-1.066.158-1.497a1.473 1.473 0 0 1 1.27-.705l30.083-.907c.748.022 1.248.385 1.497.951l33.507 77.882 34.643-79.968a1.569 1.569 0 0 1 1.361-.954l23.751-.68c.613 0 1.043.227 1.34.68.34.477.362.999.136 1.497L367.222 312.75c-.229.566-.796.908-1.408.929l-20.554.636-.02.003z"/><path d="M438.435 312.029c-.862 0-1.587-.683-1.587-1.546l-.704-120.827c0-.408.159-.816.454-1.133a1.62 1.62 0 0 1 1.112-.455l96.848-.068a1.55 1.55 0 0 1 1.566 1.543l.11 23.525c0 .41-.157.841-.452 1.112-.32.294-.705.453-1.135.453l-67.445.067.088 20.917 45.328-.067c.863 0 1.563.748 1.563 1.589l.116 23.684c0 .455-.158.862-.454 1.158a1.571 1.571 0 0 1-1.111.431l-45.304.067.067 22.663 68.286-.09c.861 0 1.565.747 1.565 1.611l.112 23.661c0 .454-.157.862-.454 1.11a1.514 1.514 0 0 1-1.112.477l-97.437.114h-.022v.004z"/><path d="m595.105 241.223 21.484.658c.979.023 1.907.023 2.795.023 7.914 0 12.544-1.112 15.038-3.652 2.017-2.021 2.902-5.174 2.902-10.255-.064-5.74-1.132-10.958-14.224-11.32l-28.084-.863.089 25.409zm76.636 74.48h-.067l-31.308-.953c-.546 0-1.022-.295-1.291-.796l-26.521-45.597-17.15-.523.201 43.94c0 .434-.157.842-.499 1.137-.25.293-.678.43-1.135.477l-26.404-.816a1.57 1.57 0 0 1-1.544-1.591l-.566-121.164c0-.432.181-.84.497-1.134.25-.272.68-.476 1.134-.454l66.495 1.997c22.051.681 34.756 14.722 34.87 38.589.109 22.982-12.208 32.556-23.347 36.548l27.974 47.979a1.55 1.55 0 0 1 0 1.591c-.249.471-.75.77-1.339.77"/><path d="M740.55 322.759a79.03 79.03 0 0 1-5.084-.159c-18.739-.974-38.293-12.707-43.807-16.291-.477-.247-.749-.746-.749-1.292l-.137-27.948a1.58 1.58 0 0 1 2.45-1.294c16.947 11.32 33.146 18.625 42.289 19.148 8.666.453 14.405-.839 17.287-3.723 1.405-1.405 2.063-3.197 2.063-5.511 0-2.724-2.788-5.377-8.778-8.351-3.54-1.813-7.735-3.538-12.208-5.377-18.873-7.757-44.759-18.351-44.871-46.959-.045-9.529 2.949-17.446 8.938-23.481 7.713-7.735 20.103-11.684 33.984-10.935 16.334.906 35.798 9.256 44.918 14.678.475.273.75.816.75 1.361l.158 27.064c0 .59-.319 1.134-.841 1.385a1.523 1.523 0 0 1-1.609-.045c-5.625-3.696-25.297-15.742-43.398-16.719-6.42-.341-9.619 1.36-11.004 2.767-1.361 1.338-1.542 2.723-1.542 3.448 0 2.927 2.902 5.899 8.847 9.097 3.563 1.906 8.12 3.835 12.953 5.854 18.605 7.849 44.08 18.558 44.193 44.283.067 11.48-3.244 20.621-9.892 27.271-7.711 7.78-19.46 11.729-34.91 11.729"/><path d="m837.466 273.958 21.912 1.589-10.775-29.65-11.137 28.061zm68.375 56.469c-.021 0-.045 0-.112-.022l-26.067-1.906c-.635-.065-1.158-.433-1.36-1.043l-8.782-24.39-42.401-3.132-8.981 22.938a1.54 1.54 0 0 1-1.565.998l-21.846-1.608c-.477-.047-1-.32-1.25-.705-.247-.454-.292-.978-.11-1.43l46.822-118.741a1.63 1.63 0 0 1 1.591-1.021l18.261 1.361c.589.021 1.157.432 1.36 1.044l45.896 125.545c.246.477.137 1.045-.184 1.454a1.557 1.557 0 0 1-1.272.658"/><path d="M999.398 339.067h-.156l-75.139-6.916a1.58 1.58 0 0 1-1.405-1.591l-.728-122.594c0-.476.157-.884.501-1.204.363-.294.748-.43 1.223-.408l22.71 2.111a1.563 1.563 0 0 1 1.433 1.565l.45 97.122 51.136 4.719c.795.065 1.407.748 1.43 1.587l.092 24.024c.021.479-.156.863-.479 1.18a1.556 1.556 0 0 1-1.068.405"/><path d="M554.566 16.787c-12.75-3.109-26.75-.749-26.363-.203-1.36-.455-3.969-1.384-5.441-1.067-.206.023-.32.068-.479.138.272.135.588.271.884.384-.884.341-1.269-.114-2.019-.273.475.657.385.545-.024 1.226.024.09.069.18.139.294 2.04.477 4.036 1.272 6.918.954v-.159c-.612-.612-2.021-.725-2.745-1.293h-.275v-.135c1.887.34 3.475 1.179 4.767 2.041.183-.159.362-.271.591-.384-.5.771-1.021.976-.75 1.769-3.084-.477-5.353-1.588-6.556 1.815.34.295.68.568 1.021.862-.249.09-.497.159-.748.25-.047.273-.114.545-.159.84 1.225 1.133 1.929 1.725 3.473 2.313.065.567.157 1.204.249 1.816.362.318.362.25.884.159.657.635.203 1.112.546 1.521.837 1.087 4.036 2.676 4.741 3.651.248.294.045.93.587 1.271 1.134.772 2.474 1.225 3.472 2.11.365.204.09.022 0 .385 2.271 1.066 5.764.977 7.668 2.132.386.385.182.137.159.68 1.974.545 3.947 1.088 5.943 1.633.113-.023.295-.068.405-.114.139-.521.094-.544-.11-1.021 1.18-.658 1.475-1.95 2.336-2.857-.409-.75-.568-.817-.432-1.862 1.634-.227 2.131-1.112 3.497-1.43-.161-.794-.069-.977-.729-1.294.388-.294.296-.158.887.021.158-.135.272-.294.43-.432-.43-.361-.885-.77-1.316-1.155h-.272v-.159c.773.227 1.589.363 2.452.227.112-.046.226-.067.317-.158-.203-.204-.385-.454-.589-.704.067-.068.11-.09.11-.135 1.137.611 1.816.656 3.497.68.112-.387.226-.727.293-1.112.251-.022.479-.067.748-.092-.271.34-.497.703-.748 1.066.047.113.114.204.137.296 3.405.771 5.739-.545 8.985-1.09v-.839c3.878-1.112 9.416 1.247 13.202.952 1.114-.066-13.862-9.66-29.583-13.518"/><path d="M382.853 336.302c1.724 2.857 3.313 6.782 5.537 9.096 4.696 4.811 12.386 7.42 15.335 13.589 1.429 1.409 2.813 2.792 4.22 4.155a42.471 42.471 0 0 1-.25 1.948c.25 1.929 1.132 4.65.816 6.737-.113.929-.455 2.11-.385 3.153.159.613.318 1.269.455 1.927-.34 1.951-1.158 3.994-1.202 6.398-.589.251-.227.11-1.021 0a63.067 63.067 0 0 1-.114 2.088h.702c-.156 1.293-.34 2.607-.498 3.88.157 1.293.318 2.607.452 3.88-.18.521-.998.726-1.132 1.495.112.477.226 1.021.316 1.452-.249 2.655-.748 4.945-1.497 6.443-.792 1.632.022 3.198-1.405 4.151.273 2.041.929 3.132.793 5.354-.567.183-.318.136-1.022.136-.316 4.878 2.11 7.532.59 11.118.227.112.793 1.518.567 2.086-1.158 3.197-2.631 6.261-2.904 10.028-.138-.09-.273-.203-.432-.295 0 .635.023 1.293.023 1.929-.432-.157-.864-.316-1.294-.452-.044.021-.09.092-.136.136.274 2.675 1.565 5.559 2.654 7.805-.112 3.086-1.928 4.037.385 7.485v.612c-.25-.156-.498-.295-.725-.477-.477 1.43.295 2.932-.112 4.559.498.613 1.067.751 1.904 1.045.113-.065.274-.112.409-.157.341-1.542.158-3.381-.613-4.558.092-.09.205-.157.294-.275.319.159.682.275.999.432h.137c-.067-.635.272-.521-.274-.568.091-.181.182-.385.274-.612.226.317.499.593.748.908-.158.183-.295.387-.477.589.725.477 1.089 2.111.204 2.472.25.229.478.41.726.591-.409 2.497.044 4.22.044 6.874h-.271c-.206-.794-.794-2.994-.455-3.2-.566-.749-1.112-1.246-2.063-1.633-.432.658-.704 1.655-.818 2.653.386.363.748.772 1.158 1.18-.043.68-.09 1.34-.135 2.043h-.999v.134c.158.249.295.57.431.861-.387.296-.772.617-1.132.887v.588c.316.206.678.386.997.568a8.16 8.16 0 0 0 .59-.588c.657.588 1.973.794 2.587 1.475-.182-.067-.364-.092-.566-.137.203.454.158.25.43.568-.136.499-.272.951-.407 1.452-.522-.296-.591-.501-1.452-.591v.181c.135.139.273.296.453.41-.272.158-.498.319-.726.454.771 1.407.953 3.562 1.905 4.811.682.315 1.339.68 2.021 1.043a5.662 5.662 0 0 0-1.158-.318v.137c.159.566.272 1.18.433 1.747.25.092.498.204.725.294.205-.432.384-.861.588-1.316.137.363.273.681.433 1.022h-.591a.899.899 0 0 0-.134.157c.566.841.679 1.248.747 2.45.568-.18 1.137-.364 1.725-.566.364.34.272.387.862.566l-.295.591a33.788 33.788 0 0 0-1.43-.432c-.067.091-.091.183-.134.272.499.931 1.27 1.499 2.176 2.043-.09-.186-.181-.411-.294-.591.839.68 1.61 1.36 2.451 2.041v.136c-.772-.317-1.522-.655-2.314-.997.999 1.226 1.792 1.633 2.904 1.884-.045.362.045.044-.137.409 1.112 1.134 5.786 4.218 7.078 3.898-.046.59.044.16-.135.616 1.36 1.292 5.785 2.947 7.94 3.469v-.137c-.341-.362-.704-.678-1.021-.998 1.567.499 2.564.067 3.608.998v-.588c.658.091 1.338.203 2.02.272h.136c.044-.067.092-.182.136-.272v-.41c-3.948-.499-5.218-3.924-8.396-4.808.159-.184.319-.388.457-.566-.907-.978-2.087-.908-2.882-1.884a1.157 1.157 0 0 0-.294-.139c.135-.112.294-.182.432-.273.725.273 1.452.568 2.132.819v-.116c-1.133-1.473-2.995-2.493-3.2-4.943.067-.092.112-.181.182-.295.657-.159 1.338-.249 1.997-.454.545-.407.363-1.247.249-2.314.93-.61 2.883-1.02 3.609-1.859.227-.34.227-1.271.113-2.203-2.359-1.561-5.83-2.039-5.061-5.531 1.092-.862 2.589-1.159 4.018-.568h.611c-.204-.568 0-.343-.453-.613.271-.613.406-.523.998-.703.114-.908-.181-1.704-.431-2.498.59-.885 1.111-1.271 2.587-1.337-.364-.68-1.225-.818-1.746-1.295-.094-.045-.206-.114-.296-.157.34-.138.657-.319.998-.454.75.521.999.84 1.453 1.611.362.065.771.112 1.179.137.112-.137.272-.251.407-.432 0-.885-.067-1.296-.431-1.746-.114-.114-.205-.274-.294-.434a41.67 41.67 0 0 0-1.589.159c.25.181.476.385.703.568v.136c-.317-.067-.659-.183-.999-.274-.432-.362-.454-.748-1.429-1.021-.5-.884-.523-2.564-.908-3.696 1.089-1.318 3.563 1.405 5.081 1.79 1.136-.065 2.269-.11 3.426-.137.25-.568.477-1.09.726-1.653-.181.111-.387.203-.567.295-.205-.184-.41-.366-.59-.57.681-.998 1.677-2.109 1.111-3.516.206.09.41.182.592.318h.136a8.51 8.51 0 0 0-.296-.886c2.087.839 11.32 2.156 13.861.704.568-.293 2.769-2.994 3.584-3.629v-2.065c-1.223-.43-1.814-.497-1.904-2.065.385-.317.749-.68 1.132-1.043-.59-2.563-3.221-2.837-4.379-4.853.205-.229.409-.477.592-.728.135-.067.27-.112.43-.179.385.631.794.814 1.021 1.651.907.184 1.814.364 2.745.615.818.544 1.816 2.267 2.904 2.473.863.181 1.521-.385 2.474 0 .68.338 1.157 1.177 2.314 1.02 2.926-.317 3.446-1.7 5.172-2.903 1.021-.431 2.019-.885 3.04-1.316.725-.976 1.497-1.949 2.269-2.927 1.929-.839 3.855-1.676 5.761-2.496 2.293-1.518 3.494-4.241 5.604-5.876 2.654-2.067 6.012-2.426 7.056-6.171a2.909 2.909 0 0 1-.612-.135c.409-1.454.499-3.336 1.292-5.334.613-1.566 10.798-6.713 13.43-5.941.568.43 1.134.908 1.725 1.314.09-.318.229-.658.296-.974-.206-.069-.386-.116-.589-.204v-.137c1.291-.319 2.608-2.271 3.9-1.839.454-.454.477-.274 0-.749v-.432c2.743-.021 7.896 1.066 10.458 2.293.248-.387.228-.387.727-.568-.136-2.289 2.607-1.409 4.31-2.201 1.112-.84 1.202-3.54 2.884-4.357 2.72-1.36 2.587-2.222 4.491-3.492.837-.523 1.634-.477 2.155-1.291 1.951-3.133.635-4.538 4.629-5.992.66-2.155 1.182-3.855 2.428-5.42a90.143 90.143 0 0 0 1.882-2.156c.683-1.927.249-3.54.998-5.263.796-1.904 2.452-3.131 2.609-5.559 1.771-.929 3.336-.612 5.061-1.837 2.473-2.132 4.923-4.312 7.397-6.469.861-.179 1.743-.338 2.606-.519 1.112-.86 2.223-1.724 3.336-2.609 3.992-2.585 7.257-4.854 8.823-9.892.022-.976.092-1.951.137-2.949.432-1.837 2.588-13.771 2.563-13.771-111.919-.243-194.905 1.12-194.905 1.12M482.31 23.82c1.814.25 4.22.522 6.217 1.407 2.019.906 2.519 2.2 4.695 2.54-.476.341-.75.136-1.452-.021.521.884 1.066 1.36 2.315 1.519a7.741 7.741 0 0 1-.59.296c.567.522.931.93 1.725 1.27h.589c-.181-.59-.066-.431-.544-.727v-.112c4.176 1.36 8.01 4.31 12.818 5.057.227-.632-.092-.293.589-.407v-.136c-1.407-1.882-4.741-3.901-7.03-4.853-.067-.16-.092-.364-.138-.546.907.477 1.815.953 2.724 1.452v-.567c2.607 1.519 5.602 3.38 8.21 4.877.251-.046.499-.091.728-.113h.271c0-.022.022-.09.022-.135-.931-.612-1.407-.521-2.021-1.452.411.181.774.319 1.182.453.045.022.09.022.158.022.021-.521-.089-.612-.454-1.111a2.96 2.96 0 0 1 .157-.271c.342.226.253.134.432.521.886-.067.611-.159 1.022-.657.229.567.248.567.702.862h.159c-.09-.205-.203-.384-.295-.546h1.022c0-.113 0-.179.024-.294-.864-.521-1.589-1.112-2.746-1.452-.066-.089-.089-.181-.156-.272.295-.022.589-.067.882-.09v-.158c-.792-.681-3.356-2.723-5.193-2.45.045-.84-.409-1.951-1.407-2.225h1.156c.069-.113.092-.18.161-.293a14.534 14.534 0 0 0-.593-.546c1.906.158 3.563 1.656 5.218 1.748-.59 1.884 3.131 2.428 4.426 3.448.974-.137.906-.453 1.609-.544-.135-.092-.273-.205-.407-.295.203-.432.064-.25.432-.521.747.295 1.452.567 2.154.182v.544c.362.023.681.023 1.021.023-.132-.181-.291-.385-.43-.567.454-.227.045-.091.566.022.184-.045.319-.09.456-.114-.184-.294-.364-.589-.593-.86 1.317.317 1.839.271 2.906.044-.364-1.202-1.976-1.701-3.426-1.611-.203-.363.092-.181.407-.363-.477-.022-.951-.068-1.428-.068-.501-.227-.886-1.112-2.449-1.157.293-.295.044-.159.59-.273-.499-.476-1.861-1.202-2.745-1.157-.09-.089-.182-.179-.271-.271.179-.092.385-.182.567-.25-1.522-.317-1.906-.748-2.906-.226-.886-.68-.792-1.112-2.291-1.271.114-.136.206-.272.296-.409-1.155-.293-2.292-.589-3.448-.862v-.159c.272-.066.566-.113.886-.137.022-.521.067-.362-.159-.793 1.088.272 2.133.567 3.2.816.089-.068.179-.158.271-.249-.633-.658-1.611-1.021-2.584-.999.042-.113.111-.25.134-.408.546.158 1.088.294 1.589.408.069-.021.114-.066.159-.09v-.431c-1.271-.954-1.566-.977-3.585-.885.452-.588.611-.431 1.452-.522 0-.045 0-.065.022-.135-1.499-1.089-3.676-.568-5.195-1.431-.022 0-1.338-1.542-1.566-1.657-1.087-.611-4.764-1.383-5.466-1.405.114-.136.204-.273.316-.407-1.407-.636-2.788-1.091-4.31-1.792h1.179v-.135c-.704-1.067-7.237 1.655-8.485 3.289-.43-.25 2.699 2.427 1.839 2.267-.092.136-.206.273-.296.386h-.294c.407.704 3.447.545 4.174.567.046.114.091.181.159.295-.567.272-.725-.181-1.474-.022h-.273c.406 1.02 1.315.794 2.289.432.138.364.275.726.455 1.111-.657-.271-1.021-.271-1.883-.294.296.977 2.042 1.157 3.267 1.271.044-.204.113-.409.16-.568-.477-.09-.979-.205-1.43-.272.067-.295.113-.567.159-.837.863.294 1.271.792 2.428.998.25.704.477 1.452.68 2.157-2.269.271-4.538.544-6.829.77-.045.092-.09.183-.138.273.456.477.955.929 1.407 1.407v.136c-1.587-.477-3.312-.091-4.787-.317-3.153-.546-5.535-2.202-8.687-.32.067.137.133.228.159.408.902 1.627 3.647.99 5.462 1.24m-95.056 101.93c1.044.861 4.128-.909 5.625-.909.658.885 2.042 4.354 2.858 4.514 1.179 2.722-2.133 4.106-1.792 6.193.091.068.182.09.274.135.589-.499.497-.476.34-1.134.089-.09.181-.113.272-.158.271.771-.068.613.725.681-.545.407-1.088.815-1.611 1.226-.25.588.138 1.996.274 3.266.226.135.477.228.725.318.092-.182.181-.431.274-.611.044.113.09.181.158.294-.568.705-.613 1.021-1.044 1.747.364.068.228 0 .613-.159.319.522.477.817.274 1.59.066 2.222 2.359 2.222 1.291 4.561.795 1.201 3.38.43 4.016.498 0-1.792 2.291-3.653 3.063-5.423.998-2.223.047-5.308.047-8.076.271-.092.589-.204.884-.318-.317-2.02-.68-4.107-.976-6.172.727-7.85 7.009-9.777 13.294-11.66 2.95-.885 1.838-3.426 7.282-2.337 1.36-2.563 5.92-2.086 8.597-2.723.069-.113.115-.226.161-.294-.568-.386-.432-.183-.727-.862v-.158c.727-.477 2.926-.84 3.788-.818.294-.431.522-.794.749-1.134-.455-.747-1.497-1.112-2.631-1.157v-.181c.953.181 1.862.317 2.791.453v1.157c.091-.068.408-3.04.499-4.56-.318-.091-.612-.204-.885-.273-.431-.319-.09-.112-.135-.725-.044-.59 1.021-2.064 1.496-2.699-.431-.341-.044-2.677.025-3.402a77.574 77.574 0 0 0 2.063-1.816c-1.656 2.336-.816 2.336-1.36 5.082.431.135.862.272 1.293.454-.84.703-1.702 1.043-2.202 2.131a.556.556 0 0 0-.135.25c.272.227.16.204.727.295.817-1.748 4.219-2.927 5.74-5.378-.931-.952-.544-1.519-.841-2.813.658.611.931 1.132 2.021 1.407-.183.249-.41.476-.59.725v.114c2.245.317 5.287-2.609 6.331-4.174-.182-.566 0-.272-.433-.591-.044-.113-.089-.18-.133-.294 2.607-.317 6.349.453 9.208.135-.25-.295-.499-.567-.726-.884-2.2.316-4.152-.567-6.307-.068 2.586-2.042 10.458.817 13.931-.498.384.93 1.201.863 2.903.93.181-.294.386-.567.588-.862-.134-.204-.27-.477-.43-.704-.341.772-.045.817-.884.817-.386-.023-.795-.114-1.18-.159-.205-.885.112-2.042-1.452-2.313v-.273a89.21 89.21 0 0 1 2.11-.498c-.205-.318-.409-.568-.589-.862.998-1.224 3.04-1.861 3.97-2.768 2.289.454 3.765.408 6.012-.839.361.407.292.295.292.839 2.814-.203 5.514.022 8.487-.771-.137-.294-.273-.568-.41-.862.34-.021 1.839.521 2.313.634 2.224.454 6.534 0 8.396-.611.067.067.158.179.249.294-.68.182-1.361.341-2.041.5-.045.067-.09.18-.136.272.771.158 1.566.363 2.314.521-2.792.431-5.558.883-8.349 1.293l-.136.273c.318-.09.659-.159 1.021-.25-.206.092-.408.16-.592.25-.701.885-.905.907-.905 2.404.272 0 .59 0 .862.021.589.793.229 1.293 1.316 1.316 2.02.092 3.926-1.224 6.194-1.36.272-.611 0-.703.704-.953.135.137.204.273.316.408.185-.158.386-.364.567-.544.206.93.637.93 1.475 1.178 1.226-1.27 9.008.34 11.299-.294.09.022.182.022.295.022-.456-.477-.839-.613-1.771-.637.387-.25.477-.137.727-.567 1.815.636 3.742.252 6.149.274v-.454c.136-.84-1.182-1.566-2.157-1.634v-.158l1.18-1.384c-.343-.5-.294-.227-.294-.839-.274-.092-.593-.137-.886-.206-1.452.748-4.741 1.498-4.854 3.54-1.022.135-1.544.09-1.612-1.089-3.335.364-4.673-1.339-7.44-1.655-.204-.251-.408-.499-.589-.727.205 0 .386 0 .589.021.067-.114.091-.227.158-.293a95.608 95.608 0 0 1-2.631-1.067c-.453-.295-.929-1.655-1.293-2.337.227-.159.476-.341.726-.522-.385-.363-.793-.453-1.59-.476v-.273c1.545-.227 2.249-1.044 3.677-1.588.09-.205.205-.364.295-.544v-.159c-1.52.453-2.789.182-4.966.159-.295-1.045-1.045-1.431-2.201-1.633-.046-.09-.091-.182-.158-.295 1.995.206 2.698 1.044 4.4 1.249 1.52-.181 3.018-.365 4.56-.566v-.408c.455-.318.045-.34-.159-.862.229.067.409.136.588.158v-.135c-3.56-4.788-16.061-3.085-21.482-2.134-2.133.407-3.654 2.428-6.604 2.428 1.271-1.202 8.938-4.083 11.345-4.833 0 0 4.81.364 5.104.295.431-.477.884-.952 1.315-1.407 1.997-1.043 4.898-.636 7.487.045 3.38.954 6.533 1.294 9.87 2.452 2.085.703 8.368 3.266 10.525 2.903 1.657-.227 3.175-.771 4.696-1.407 3.537-1.429 10.593 2.224 13.021-.453.181-.499.114-.045-.157-.704.09.045.182.113.293.159.433-.704-.021-3.04.479-3.812-.842-.318-1.681-.657-2.473-.953.021-.408 0-.089.136-.567-1.496-.113-1.61-.476-2.608-.431-.295-1.655-1.837-2.291-3.632-2.518v-.158c1.271.158 2.518.295 3.791.431-.683-.976-2.294-1.089-2.473-2.063-1.204-.273-2.249-.068-3.225-.705-.521-.341-.387-.386-.407-.861-.61-.432-2.199-.296-2.766-.794-.66-.566-.771-1.088-1.747-1.496-.18-.614-.363-.227.154-.68-.109-.295-2.674-2.156-3.764-2.358.411-.408.229-.25.729-.296.111-.318.065-1.133.158-2.222-.317-.136-.659-.318-1.022-.453-.089-.044.318-.771.318-1.701-1.296-.522-2.746-1.021-2.587-2.586h-.729c-.862-1.339-4.196-5.582-4.129-6.944-3.562.953-8.12 6.648-12.977 2.768-.816.068-1.385-1.178-2.881-1.475-.09-.409-.114-.793-.158-1.225-.318-.068-.659-.113-1-.159.432-1.203.885-1.361.771-2.927.544-.183 1.089-.385 1.611-.659-.134-.203-.25-.453-.407-.658-.454.159-.906.34-1.317.5-.954-1.067-3.063-1.498-4.788-1.975-.022-.113-.089-.203-.112-.273v-.159c.295-.25.205-.203.725-.271v-.137c-1.111-.999-3.449-2.746-4.854-3.199-1.224.021-2.429.045-3.629.067-3.041-1.021-5.854-2.202-8.939-2.088-.295.273-.588.545-.885.816a3.927 3.927 0 0 0-.159.544c.251.364.205.364.705.544-.614.817-1.409 1.133-2.655 1.363 1.156 1.338.339 1.473.974 2.337-.452.476-3.923 1.836-5.285 1.88-.158.251-.294.523-.455.794 1.862.613 3.427 1.973 3.518 4.288-1.541 3.334-5.058 3.901-9.232 4.605-1.521.068-2.996.09-4.516.135h-.271c.112.635-.069 1.476.816 1.769-.794 1.498-2.382 3.268-1.316 4.969-.749.591-1.814 1.361-2.79 1.361 0 .407 0 .839-.023 1.247-.18.023-.362.068-.567.16-.043-.544-.317-.477-.566-1.157-1.18.159-1.839.658-2.61 1.157-.522-.272-.977-.477-1.452-.705-.477-2.289-1.951-3.652-2.927-5.762.747-.704 1.383-1.225 1.952-2.086-.024-.364-.091-.726-.138-1.091.839-.86 1.747-1.224 2.381-2.358-2.973-.227-11.614-2.881-13.338-4.56-.614-.545-.75-1.861-1.658-2.542a224.093 224.093 0 0 1-3.994-1.859c-1.496.021-2.993.067-4.49.089h-.293c1.065-1.088 1.723-2.678 2.585-3.947-.749-.386-1.792-.432-3.017-.386 0-.203 0-.407.021-.657 2.836-3.292 11.957-6.646 15.835-6.422a5.233 5.233 0 0 1-.567-.635c1.409.113 2.949.295 4.469.093.522-.727.453-.727-.091-1.362h-.293v-.086c2.246.679 9.867.566 13.339-1.204.478-.318.16-.135 0-.522 1.521-.34 3.04-.657 4.538-.997h.272c0-.023.022-.068.022-.137-.294-.226-.453-.294-1.022-.364-.021-.066-.09-.18-.112-.271.999.089 2.02.158 3.016.249 0 .748 2.134 2.109 3.11 2.404.315-.317.067-.044.179-.385a.388.388 0 0 1 .136-.136c-.386.022-.18-.021-.611.136-.227-.566-.318-.613-.953-1.066v-.137c.477.205.953.432 1.429.658a23.198 23.198 0 0 1-.112-1.201c.567.385 1.132.793 1.699 1.179v-.386c2.475-.612 4.789-.544 6.669-1.066-.338-.432-.748-.817-1.111-1.225.114-.091-13.497-7.577-29.355-7.351-10.211.204-47.007 12.793-76.045 27.45-22.188 11.251-39.27 25.25-40.291 26.248-8.871 7.714-17.377 17.15-21.846 28.698-.545.566-1.022 1.157-1.542 1.769-.386.75-2.927 7.397-2.95 7.69.431.023.838.068 1.247.114-.271 1.952.908 1.972.407 4.424-.792 3.447-3.242 7.668-4.354 11.479-.205.794-1.021 2.722-.794 3.744.25 1.294.748 3.04.25 4.72-.567.93-1.09 1.884-1.633 2.835-.681 0-.933.183-1.657-.044-.046 0-.09.044-.135.044-.204 1.951.522 3.108.409 4.81.408-.021.273 0 .659-.226 1.179 2.994.612 6.328-1.635 8.484.658 2.835 2.157 4.425 1.611 8.803v.136c.114.045.204.068.294.088 2.587-2.698 1.929-2.357 2.177-5.806-.067-.317-.18-.657-.271-.952-.252.25-.456.521-.658.794-.068.044-.113.067-.161.067-.362-2.268 1.906-7.828 2.36-10.186.296-1.521-.545-4.197-.135-6.013.975-4.287 1.451-13.566 5.013-16.267.159.319.363.635.544.93a3.15 3.15 0 0 0 .544-.363c.75 2.542-2.359 6.285-1.974 9.619-.794.589-1.158.976-1.633 1.838.114.09.251.227.41.363.25-.273.543-.589.815-.839-.022.839-.453 3.562.364 4.401.25.34 0 .159.453.068.09.089.182.158.25.271-.454.952-.839 1.474-.817 2.972.273.25.158.25.681.319-.136.612-.275 1.202-.408 1.791.226-.045.452-.067.679-.09 0 1.928-.749 2.517-1.656 3.834.25 1.746 1.021 2.2 1.771 3.493-.545.591-.521.954-.681 1.838 1.384 1.861 3.153 14.61.522 16.494-.635.905-.66.725-.295 1.587-.455.635-.725.589-1.362.793-2.019 4.9 2.337 6.193 2.45 10.188.296.158.613.431.952.658 0 0 16.108-.567 25.681-.773.365-.021-.702-.363-1.178-.748-.409-.363-2.291-10.142-1.952-11.502.363-.522.682-1.022.998-1.565-1.429-3.04.726-6.217 1.974-8.983.976-2.381 1.997-4.787 2.949-7.19.931-1.158 2.699-.84 3.266-2.882.342-1.383-.272-2.63.433-4.378.636-1.587 2.361-2.066 2.246-4.084.93.114 2.542-.613 2.702-1.406.158-.228.294-.477.453-.749.023.591.044.385-.159.885.704-.34.431-.431.839-.364.204-.249.385-.521.59-.77-.158-.203-.294-.432-.432-.634 2.496.226 4.334-.75 6.488-1.997 1.318.34.841-.634.726-1.359.319-.387.659-.522 1.158-.818.022.091.067.135.112.182-.18.204-.384.408-.543.589.159.089.363.159.543.273.613.478 2.905-.749 4.267-.613 1.338.137 4.22 1.25 5.242 1.792.135-.022.272-.022.43-.022v-.567a15.155 15.155 0 0 0-.998-.09 4.446 4.446 0 0 0-.159-.432c.411-.112.771-.226 1.18-.362.115.521.931 1.361 1.385 1.905-.09.045-.182.114-.271.159-.09.158-.204.318-.272.477.453.318.906.704 1.384 1.044.679-.273 1.338-.567 2.018-.818.067.318.158.659.251.977.997-.272 1.089-.816 1.723-1.384.591.613 1.045 1.498 1.837 1.883.137.067.295.182.431.272h.183c.182-.25.363-.522.545-.771a26.229 26.229 0 0 1-1.383-1.339c-.113-.067-.205-.181-.316-.271.406-.521.749-.66 1.586-.816.25-.498.181-.498.158-1.293-.385.228-.793.432-1.157.659h-.135c-.091-.159-.18-.249-.296-.432 2.224-1.407 4.856-1.067 7.17-.613.136-.386.272-.703.431-1.044.16-.091.296-.181.455-.317-.045.612-.045 1.27-.045 1.861 3.244.385 5.627-.885 8.03 1.656.583.635.562 1.703.833 1.974"/><path d="M485.69 16.334c-.658.227-1.272.454-1.907.659-.069.249-.113.477-.16.703v.138c1.022.522 4.107 1.178 5.491.431.295-.272.591-.521.862-.817v-.431c-1.358-.32-2.403-.683-4.286-.683"/><path d="M493.336 16.787c.25.295 0 .114.41.295-.137-.113-.274-.181-.41-.295"/><path d="M469.583 22.504c-.705-.362-1.657-.588-2.564-.499.16-.363.295-.75.454-1.089-1.134-.727-3.403-1.384-4.128-2.45-.521-.5.043-1.181-.817-1.589-.113.137-.204.273-.295.408-2.653-.272-5.67 1.067-6.466 2.836-1.36-.022-2.608-.022-3.312.545.749.566 2.744.384 3.742.408-.205.134-.41.272-.612.407-.138.272-.295.545-.432.817 2.109.385 5.515-.227 6.965-1.111.817.226 1.611.454 2.427.682a5.678 5.678 0 0 0-.726.273c1.363 1.157 3.744 1.179 6.354 1.088-.183-.25-.363-.454-.59-.726"/><path d="M462.368 18.104a7.21 7.21 0 0 1-.452-.432c-.09.295-.182.567-.295.795.341-.113.68-.227 1.021-.364h-.274z"/><path d="M500.891 22.89c.521-.317.386.046.295-.521-1.814-.068-1.497-.84-2.881-1.136-.319.206-.681.365-1.021.523.25.612.25.681-.022 1.203 1.883-.068 2.472.066 4.195.385-.181-.136-.386-.272-.566-.454"/><path d="M513.21 21.732c-.045.069-.09.159-.137.228h.272c-.046-.068-.069-.158-.135-.228"/><path d="M501.774 22.799c.228.273 0 .067.433.273-.16-.092-.297-.203-.433-.273"/><path d="M460.032 23.366c-.794.25-1.587.454-2.336.659.022.316.044.634.09.952 2.2-.227 4.221-.09 6.124-.659.045-.067.091-.158.138-.295a225.88 225.88 0 0 0-4.016-.657"/><path d="M476.389 23.502v.409c.296.022.657.022 1.022.022v-.134c-.364-.115-.682-.183-1.022-.297"/><path d="M497.487 25.771c-.363-.84-1.431-1.315-2.404-1.564.021.318.068.657.09.953h-1.292c.021.089.113.18.16.271 1.427.181 2.608.364 3.719.75-.09-.139-.182-.274-.273-.41"/><path d="M473.893 24.318c-.045.114-.113.182-.159.273.34.272.656.545.999.816.455.045.884.068 1.317.136.043-.068.089-.09.134-.136 0-.114 0-.272.024-.431-.772-.202-1.542-.452-2.315-.658"/><path d="M478.522 24.75c-.477-.113-.974-.181-1.43-.272.25.612.635.727 1.133 1.09h.567c.045-.069.113-.16.138-.274-.137-.203-.249-.385-.408-.544"/><path d="M468.064 25.954c-.477.158-.976.316-1.453.499a5.577 5.577 0 0 1-.319.566c.16.204.274.455.409.703 1.089.16 1.656-.452 2.632-.68a4.25 4.25 0 0 0 .455-.589c-.501-.273-.817-.477-1.724-.499"/><path d="M490.069 26.746c-.022.114-.022.182-.022.295.159-.047.316-.114.477-.136v-.137a2.663 2.663 0 0 1-.455-.022"/><path d="M483.377 27.813c.294.409.658.478 1.157.659h.566c-.362-.342-1.066-.545-1.723-.659"/><path d="M555.018 31.057c.23.295 0 .068.457.295-.274-.295 0-.113-.457-.295"/><path d="M468.677 30.038c.112.089.181.157.271.271h.862c0-.067.023-.112.023-.159-.385-.023-.75-.091-1.156-.112"/><path d="M610.601 40.948c-1.133.318-1.634-.409-2.609-.999-.25.022-.497.068-.747.09.182.136.315.296.475.455-1.609.339-3.563-.725-5.216-1.134-.069.045-.09.114-.137.136.065.18.157.431.271.612-.7-.545-1.267-1.067-2.312-1.27v.158c.318.273.566.567.862.886v.135c-.772-.249-.636-.365-1.157.113-1.658-1.384-2.996-3.153-5.786-3.471.272.25.477.499.747.77-.405-.158-.768-.363-1.199-.477-.362.273-.749.59-1.135.954a.95.95 0 0 0-.158.25c1.906.454 3.79.953 5.672 1.406-.929.68-1.927.407-3.493.113-.047.045-.092.136-.137.182l.137.272c2.634.635 3.696 1.36 5.512 2.269.047.114.092.228.139.319-.457-.159-.954-.25-1.431-.364-.066.045-.111.09-.185.135.113.182.229.433.295.591 3.949 1.043 13.568 5.853 16.902 2.042v-.136c-1.704-1.11-4.221-2.767-5.31-4.037"/><path d="M494.561 34.256v.319c.114-.136.181-.227.316-.319h-.316z"/><path d="M508.081 35.05c.273.386.159.319.705.453v-.134c-.273-.228-.183-.206-.705-.319"/><path d="M511.417 35.708c-.409-.135-.794-.205-1.156-.317-.206.499-.022.432-.998.386 0 .045-.024.089-.024.134.409.5 1.111.954 1.859 1.182.25-.183.499-.385.727-.568-.135-.274-.273-.545-.408-.817"/><path d="M500.051 36.57c-.25-.091-.477-.114-.703-.159-.159.068-.32.159-.454.295a2.8 2.8 0 0 0-.295.385c.5.386 1.294.271 2.042.158.044-.067.09-.181.136-.25-.227-.134-.476-.292-.726-.429"/><path d="M725.372 161.32a111.703 111.703 0 0 1-2.111-4.468c.136.226.25.431.409.635.09.045.158.09.272.159v-.296c.182-.702-.68-1.633-1.134-2.246.091-.044.228-.067.295-.089.293.318.658.657 1.021 1.043.022 0 .092.045.112.045-.247-.612-.477-1.202-.726-1.814.568.522 1.045 1.044 1.589 1.565-.703-1.588-2.607-4.833-4.263-5.535.226-.59 0-.341.568-.204-.501-1.861-3.292-3.517-3.564-6.285.047 0 .114.021.137.021.248 1.52 1.36 1.112 1.998 1.77h.181c-.591-.817-1.181-1.632-1.723-2.45.271-.204.542-.43.837-.658.705-.454 1.201 1.067 2.135 1.067.089.635.156.681.246 1.338.157-1.748-.045-3.993-.293-4.606-.748-.862-1.271-2.133-1.929-3.243-2.202-3.654-3.766-6.648-5.397-10.822-.411-1.043-13.638-21.665-30.473-37.455-17.399-16.265-38.452-27.676-38.159-27.745-.451.5-.768.931-1.541 1.157.092.909-.09.909.293 1.476-.452.181-.749.386-1.271.635.521.793 1.248 1.293 1.749 1.928.112.521.227.999.318 1.498 1.338 1.996 4.085 2.994 5.15 5.421.725.159.658-.022 1.132-.341.229.544.433 1.157.636 1.77.726.908 4.512 3.084 5.943 2.2.657-.363.727-1.406.409-2.246.272-.159.568-.271.837-.408-.112-.204-.182-.431-.271-.659v-.157c4.036 1.927 6.057 6.964 10.344 8.688.182.521.407 1.021.589 1.521-.636.225-.772.679-1.11 1.155a7.3 7.3 0 0 0 3.039 2.475c-.385.566-.273.273-1.019.068 0 .067 0 .113.021.136.319.521.615.727 1.157 1.021.295.021.567.045.818.045v-1.09c-.387-.408-.863-1.27-1.568-1.587 0-.477-.088-.135.277-.499a123.06 123.06 0 0 1-.866-.999c.774.43 1.227 1.021 1.613 1.838.544.021 1.11.09 1.723.09.045.022.067.022.137.022v-.431c-.432-.454-.794-.952-1.179-1.406.203-.386.181-.183.136-.659.497.044 1.065.136 1.564.204-.182-.363-.385-.726-.589-1.111.296.25 6.101 5.445 5.809 5.626-.796.408-.615.793-.407 1.633-.25.066-.454.135-.704.227-.976 1.156-1.271.066-2.428-.022-.497-.5-.273-.204-.157-.705-.456-.362-.888-.793-1.317-1.132 0 .25.022.566.022.793-.294-.044-.568-.114-.862-.182.18.839-.205.521-.434 1.59-.201-.045-.477-.114-.678-.159-.296-.316-.454-1.066-.477-1.383-.294-.341-.184-.295-.728-.454.116.159.184.387.32.567-1.18.022-2.086-.955-2.882-1.632-.341-.091 0-.069.111-.274-.383-.363-.59-.499-1.315-.612-.022-.113-.09-.181-.112-.273.022-.066.069-.18.112-.272.955.567 1.951 1.179 2.904 1.747-.568-1.269-1.951-3.175-3.469-2.722-.364-.407-.501-1.476-.91-2.087.204.137.364.206.589.318.047-.204.067-.453.112-.657-1.339-1.543-3.221-2.36-3.97-4.515-.293.136-.544.273-.816.406.091.365.203.794.295 1.181-.204 0-.385 0-.589-.022-.201.136-.477.251-.68.363.477 2.564 5.715 6.512 5.421 7.669.341.067.683.136 1 .228.589.998 1.223 1.565 1.904 2.654-.546.227-.362-.068-.272.816-.886-.296-1.045-.408-2.155-.385v.681c-.659.067-1.34.158-1.976.181-.113.226-.228.453-.293.657.202.365.385.659.566.976.589.272.452.272 1.021.067.364.793.682.953.612 1.656-.407.499-.113.273-.725.113-.045-.021-.114-.021-.159-.021.137 1.021.114 1.203.591 1.814a18.458 18.458 0 0 0-1.132-.181c-.479-1.452-1.002-2.881-1.477-4.311a.947.947 0 0 0-.341-.136h-.092c.452 1.906 2.063 4.969.907 6.058-.75.704-2.225.839-2.857 1.678.432.906.794 1.792 1.179 2.676-.454.454-.747.635-1.564.793-.364.477-.725.931 0 1.384-.114.136-.272.295-.407.432-1.771.364-3.766-1.179-5.083-1.657a.378.378 0 0 1-.137.138c.818 1.202 1.906 1.904 2.338 3.424.182.113.317.295.452.407v.138c-1.156-.159-1.814-.341-2.608.294-.544-.453-1.155-.862-1.748-1.316-.951.521-2.518.317-3.334 1.157h-.272c.248 1.225 1.134 1.089 1.906 1.702-.32.045-.615.112-.886.158 1.543 1.407 3.835 1.044 5.967 1.839.09 0 6.872 6.353 6.964 6.669a14.225 14.225 0 0 1-.75-.59.193.193 0 0 1-.135.135c1.726 2.361 3.607 5.809 3.607 10.278-2.52.931-8.373-.704-11.662-1.133-.882-.089-3.061.885-4.377.453-.635-.25-.906-.771-1.904-.544-.771-.182-1.201.703-.865 1.407-.7.204-1.587.294-1.859.815a2.82 2.82 0 0 0-.587.364c.045 1.476.929 1.36 1.133 2.474.409-.09.293-.09.727-.319.318 2.475 1.771 4.22 2.607 6.556.751 2.065.319 8.19-.112 10.232.658.544.978.975 1.564 1.655.274-.181.57-.341.863-.522.75 1.929 1.269 3.926 1.18 6.989 1.338-.499 3.016.295 3.743.045.521-.158.77-.794 1.655-.998 2.45-1.111 3.652 4.811 6.353 5.285.544-.567 2.632-2.563 2.809-3.062 1.951-.045 3.291-.295 4.878.204.114-.204.206-.409.322-.613.768.068.839.159 1.267.5.454-.977.841-2.791 1.203-3.631.499-.226.681-.271 1.589-.271.045-.839-.564-2.109-.065-3.607.249-.84.906-.885 1.157-1.952-4.381-2.97-.432-6.713-1.656-9.072.838-1.088 1.542-.727 2.587-1.498.634-.453 1.313-1.816 1.884-2.403-.252-1.59-2.702-3.88-2.137-5.582.206-.477.889-.794 1.159-1.385 2.202.726 3.583 1.679 5.512 2.404.933-.863.704-2.563 2.452-2.836.111-.634.272-1.315.407-1.972 0-.114-.021-.205-.021-.274 3.9.635 6.171 5.966 8.143 8.666 0 0 5.421 5.194 5.627 5.332.137.09.728-.227 1.293.137.318.545.66 1.132.976 1.7 4.174 3.857 5.401 5.037 7.191 11.025-.43.227-1.291.341-1.678 1.067-1.43-.067-1.43-.226-2.312-.93-.206.272-.161.181-.253.704-.201-.182-.385-.32-.588-.477-.021 0-.09-.022-.137-.022-.067.658-.202 1.338.137 1.929.272.453 5.492 4.628 6.104 4.899h.157c-.318-2.177-1.431-3.312-1.431-6.011.32.251.57.432.862.658h.113c.318-1.156.049-2.563-.364-3.539.09-.771.024-.567.546-.815-.456-1.838-1.385-2.043-2.246-3.267a94.339 94.339 0 0 0-.884-3.313c.113-.088.226-.158.317-.25.591.906 2.224 2.608 3.13 3.2-.771-3.131-3.855-5.808-6.554-7.146-.319-.567-.409-.952-.385-1.929-.886-.453-1.566-.089-2.452-.816-2.065-1.702-2.996-4.378-4.649-6.533-1.43-1.814-4.108-2.541-4.833-5.059.047-.317.136-.658.183-.976-.34-.793-1.179-.953-1.452-1.996.793-.137.75-.364 1.112-.908.202.045.383.067.611.067.521.68 1.566 2.676 1.949 3.628.113.046.228.068.295.16.022-.318.114-.682.135-.978.274.5.501.978.727 1.499.159.113.249.226.434.316a52.603 52.603 0 0 1-.543-1.315c1.313.477 1.835 2.813 2.517 3.631 1.021 1.293 2.585 1.995 3.516 2.948-.159-.044-.34-.134-.523-.203.364.68.638.861.976 1.43.25 0 .479.045.705.067a6.044 6.044 0 0 0-.705-.658c.114-.045.184-.091.275-.114.295.204.612.432.884.658.047.114.091.181.113.295-.295.091-.57.136-.839.206.613.633.497.045 1.246.43 1.589.772 4.174 3.471 5.149 4.967.727 2.11 1.565 4.197 2.385 6.308.951 1.816 3.152 3.653 3.945 5.583.432-.022.044.045.432-.092.045.159-.343.793 0 1.431.407.612 1.271 1.474 2.267 1.633-.204.792-.271.589-.271 1.724 1 1.407 1.973 2.79 2.539 4.672.159.068.318.206.432.319h.139c-.114-.319-.156-.725-.25-1.044.047 0 .094 0 .136.045.296.704.636 1.452.998 2.201.069.045.159.091.251.159-.092-.386-.182-.748-.251-1.178.251.364.525.748.84 1.067h.14v-.004h-.003z"/><path d="M447.78 47.504c-.747-.432-1.768-.588-2.903-.68-.227.09-.477.182-.748.295.431.815 2.609 1.497 3.632 1.769h.112c.181-.635.068-.861-.093-1.384"/><path d="M519.356 51.746c.272.477-.09.158.456.432h.135c.066-.091.091-.18.158-.273-.248-.046-.521-.112-.749-.159"/><path d="M527.026 58.645a4.3 4.3 0 0 1 .293.409c.045 0 .092 0 .159.022v-.161c-.159-.089-.295-.181-.452-.27"/><path d="M522.191 61.139c-.338.09-.681.159-1.043.25-.112.977-.137.274-.407.84 1.996-.09 3.923-.387 5.647-.499a218.615 218.615 0 0 0-4.197-.591"/><path d="M531.651 64.066c0 .409-.134.18.139.567.137-.113.293-.203.454-.272v-.159a2.645 2.645 0 0 0-.593-.136"/><path d="M501.344 68.808c-.047.089-.09.158-.136.271 3.29 2.043 5.558 3.79 9.892 5.105.114-.045.203-.089.293-.113v-.409c-2.289-2.019-6.192-4.627-10.049-4.854"/><path d="M537.892 71.122c-.045.158-.112.294-.161.432.523-.251.206.09.457-.408-.092-.002-.205-.024-.296-.024"/><path d="M660.603 98.412c-.681-.045-1.36-.134-2.021-.179.295-.614 1.047-1.565.795-2.497-.32-1.408-2.904-4.243-4.471-2.45-.133-.022-.291-.091-.475-.159-.861-1.791-2.289-3.992-4.514-5.421-.908-.385-1.77-.75-2.653-1.088-2.362-2.246-3.473-4.016-7.056-4.063.386-.294.771-.545 1.178-.816a7.483 7.483 0 0 0-.748-.567c.568-1.156-.111-2.065.11-3.154-1.289-1.315-3.717-.953-5.419-.612 0-.817.272-.5-.433-.817.184-.658.452-1.065.976-1.383-.089-.318-.203-.658-.295-.977-1.497-.318-2.947.319-4.377-.135-.317.386-.272.477 0 .977-.226.587-.137.657.34 1.247-.115.045-.228.09-.319.136-.497-.068-.246-.136-.568.272.275.477.568.953.888 1.43v.135a120.47 120.47 0 0 1-1.906-1.385c-.317.568-.158.228-.612.887.77.725 2.36 1.269 3.107 1.315.114.203.229.362.32.588-.275.137-.499.296-.75.432.32.727.568.727.454 1.543.477-.045.974-.135 1.452-.182.069-.226.112-.476.157-.679v-.295c.067 0 .092-.023.139-.023.246 1.589 1.089 2.678 1.519 4.357h.589c.045-.091.09-.206.135-.296-.09-.25-.202-.477-.294-.703.294.181.589.364.887.545h.134c-.156-.455-.293-.955-.452-1.384.405.272.793.543 1.18.816.34.636.317 1.271.047 2.111.43.364.882.727 1.291 1.112h.204a19.894 19.894 0 0 1-.363-.568v-.134c.475.181.908.34 1.363.543v-.566c.951.363 1.313.136 2.038-.431.978 1.203.57 3.129 2.951 2.768.021 1.18.317 1.587.726 2.337-1.135.93-2.268.272-3.473.045.158.93.479.772 1.045 1.271-.227.204-.408.453-.613.705.047.065.112.157.184.25.385-.16.747-.296 1.132-.432.409.522.841 1.021 1.202 1.519-.155.908-.929 1.294-1.882 1.431a8.594 8.594 0 0 0-.431.453c.478.408.998.793 1.497 1.224 1.521-.792 2.927.206 4.628.794.387-.181.794-.408 1.181-.567-.228.477-.183.432-.136.999h-2.927c.021 1.293-.842 2.744-1.974 3.833v.294c.749.045.837-.067 1.631.386.363-.567.159-1.022 1.249-1.293.77-.226 1.589.227 2.332.408.049-.499-.135-1.43.297-1.702 0 0 4.605.363 4.786.477h.432c-.111-.273-.203-.477-.315-.726 2.222.091 3.312.045 5.058-.839.02-.068.089-.181.136-.272-.112-.322-.181-.572-.293-.845"/><path d="M546.558 88.136c-.704-.181-.816.453-2.041.634a3.85 3.85 0 0 0-.115-.588c.411-.567.863-.976 1.59-1.225a.821.821 0 0 0 .159-.272.57.57 0 0 0-.159-.158c-1.814.091-2.177.499-3.222 1.293a7.752 7.752 0 0 0-.293-.612c-.363-.089-.092.137-.409-.158 1-.886 3.087-1.43 3.494-1.838.09-.068.204-.183.318-.251-.634-.588-2.18-.477-3.223-.588.341-.932.022-.251-.156-1.431.837-.159 1.154-.294 1.631-.793-.951-.862-2.517-1.747-3.811-1.497-.588-.567-.089-.931-.996-1.316-.432.182 0 .273-.477.135-.091.386-.136.227.182.568-.297-.022-.591-.022-.884-.045-.841.045-.546.09-.454-.705-.726.066-.434-.092-.568.364-.544-.295-.861-.477-1.454-.454.092-.158.184-.317.272-.455-.541-.271-.181-.158-.7-.021-.092-.113-.229-.181-.32-.295v-.567c.589-.044 1.182-.065 1.748-.091v-.136c-.863-.633-1.861-.633-2.768-1.405-.885.34-1.748.704-2.611 1.044.411-1.431 2.953-2.746 4.379-3.064.205-.249.409-.499.615-.704-.432-.34-.432-.408-1.157-.499v-.273c.75.205 1.269.432 2.041.364.09-.091.184-.179.295-.249.022-.159.067-.295.137-.432-.794-.25-1.589-.453-2.336-.682-.884.023-1.771.023-2.632.045-.568.115-2.109 1.021-2.949 1.453-1.565.748-2.199 2.767-4.242 3.221-.272.545-.25.408-.024.998v.135c-.565-.112-.432 0-.725-.294-.906.203-1.405.839-1.904 1.451.271.273.566.546.882.75-1.222-.205-2.721.522-4.126.725.111.432.203.952.293 1.384 2.403.636 12.208 2.609 13 3.448-.18-.023-.385-.023-.568-.045.976.407 1.951.793 2.929 1.156.227-.272.182-.18.273-.704.635.25 1.269.522 1.904.794-1.202.454-2.495.794-4.538.68-.067.16-.112.364-.157.545 3.084 1.156 5.557-.272 8.189-1.044.229.227.409.499.613.749-.045 1.18-.747 1.611-1.475 2.066.202.588.114.453.568.747.678-.181 1.381-.432 2.041-.612-.273.521-.385.75-.432 1.702.792.204 1.407.294 2.177.545 1.092-.545 1.407-1.657 2.383-2.36-.075-.361-.118-.769-.187-1.133"/><path d="m628.727 74.637-.768-.136c-.364.341-.75.681-1.137.999.409.522.681.68.728 1.157.156.067.293.159.43.273.34-.296.702-.591 1.045-.864a14.93 14.93 0 0 1-.298-1.429"/><path d="M536.393 74.207v.273c.116-.091.206-.159.298-.273h-.298z"/><path d="M627.978 77.2c-.159-.066-.362-.18-.566-.271-.182.113-.407.203-.568.294.499.522.819.955 1.229 1.703.087.021.246.067.405.114a71.49 71.49 0 0 0-.5-1.84"/><path d="M536.259 74.774c.134.159.271.296.432.453.089-.09.203-.112.315-.157v-.138c-.271-.045-.497-.114-.747-.158"/><path d="M664.505 79.493c.09.158.181.293.295.43h.135c-.271-.476.067-.137-.43-.43"/><path d="M630.655 78.994c.182.203.32.385.456.545.045-.067.09-.159.157-.25a5.264 5.264 0 0 1-.613-.295"/><path d="M628.047 79.196v.296c.111-.092.272-.114.43-.16v-.137h-.43z"/><path d="M630.998 80.287c-.047.021-.114.09-.161.135v.137c.047.043.114.09.161.135h.136c.022-.135.065-.295.135-.408l-.271.001z"/><path d="M630.385 80.695v.432h.315c-.201-.432 0-.161-.315-.432"/><path d="M521.898 78.154c-.296 0-.568-.021-.84-.021a.819.819 0 0 0-.338.135c-.047.136-.094.25-.139.408.683.092 1.36.159 2.043.228-.226-.25-.476-.501-.726-.75"/><path d="M541.067 79.696c-.045.204-.112.363-.182.591.409 0 .816.021 1.201.045-.27-.659-.204-.522-1.019-.636"/><path d="M633.944 81.919c-.362.568-.452.773-1.179.999.25.794.432.589 1.045.952.408-.363.588-1.382.134-1.951"/><path d="M632.9 82.079c-.065.022-.112.092-.135.137v.134c.067.022.184.067.295.138.045-.068.065-.114.137-.138-.114-.111-.181-.179-.297-.271"/><path d="M500.8 80.672c-.546-.318-.296-.021-.456-.749-.68-.634-.362-.384-.135-1.294a1.404 1.404 0 0 1-.408-.158c-.546.272-1.09.454-1.634.681a2.35 2.35 0 0 1-.135.249c1.542 1.409 2.927 2.223 5.082 3.018.477.295.181 0 .295.454.362.409.566.5 1.179.771 1.339-.271 1.135-.975 3.086-.906.024-.045.092-.067.137-.136v-.182c-.976-.388-7.011-1.748-7.011-1.748"/><path d="M635.987 83.009h-.319v.59c.228-.092.43-.137.615-.181-.114-.136-.185-.273-.296-.409"/><path d="M636.94 89.612a1.08 1.08 0 0 1-.137-.295c.909-.295.84-.704 1.428-1.021v-.681c-1.02-.998-1.931-.998-2.835-2.358-1.066-.523-1.904-.318-2.768.385.092-.34.047-.182.295-.613-.43-.158-.861-.317-1.338-.521-.387.476-1.201.68-2.177.793-.159.954-.114.954-.591 1.61.544.432 1.112.364 1.794.206-.274.725-.546.521-.59 1.179-1.316 0-2.634.021-3.992.045.112.838.271.317.611.838-.157.068-.271.114-.43.182.543.543 1.087.499 1.929.453-.521.544-.589.634-1.043 1.088 1.177 1.52 2.13.613 3.854 1.066-.976.658-.703.68-.726 1.656-.655.634-.589.386 0 .862-.385.659-.248.25-.137 1.044-.407-.045-.794-.068-1.156-.09-.135.273-.204.499-.317.749.567-.089 1.064-.182 1.61-.25-.34.227-.68.456-1 .636 1.748 4.219 7.874-1.203 10.55-1.112-.112-1.882-.927-4.9-2.834-5.851"/><path d="m542.951 83.1-.137.407c.137-.068.275-.089.407-.114-.067-.111-.178-.203-.27-.293"/><path d="M674.94 86.526c.11.203.182.454.271.68.385.136.68.25 1.022.365-.362-.615-.545-.774-1.293-1.045"/><path d="M486.258 83.327a3.412 3.412 0 0 1-.432.544c.089.068.179.114.273.16.409-.318.363-.092.611-.704h-.452z"/><path d="M497.079 83.938c-.045.181-.09.387-.159.567.159.113.319.205.478.319.862-.114 1.748-.274 2.631-.387a120.24 120.24 0 0 1-2.95-.499"/><path d="M640.593 87.706c-.139.295-.206.567-.296.885.045.09.09.227.139.385.271-.045.475-.091.745-.158.045-.137.092-.295.135-.409-.247-.25-.498-.455-.723-.703"/><path d="M477.025 83.531c-.091.454-.115.318.159.703.092-.089.204-.203.296-.272a9.066 9.066 0 0 0-.455-.431"/><path d="M512.753 85.051h-.293c-.022.113-.09.181-.135.272.428-.046.724.182.428-.272"/><path d="M477.908 84.12v.296c.092-.114.183-.228.273-.296h-.273z"/><path d="M512.325 85.483c-.229-.024-.501-.024-.729-.069-.294.205-.589.41-.884.567.59.021 1.156.045 1.747.091v-.158c-.044-.137-.089-.319-.134-.431"/><path d="M531.087 86.253c.065.18.18.364.27.611.114-.137.205-.204.295-.317-.179-.09-.363-.182-.565-.294"/><path d="M540.454 86.842c-.227.114-.407.274-.589.387-.065.136-.092.273-.156.432h.432c.272-.135.496-.227.747-.363v-.455l-.434-.001z"/><path d="M488.006 85.391c.25.113.044.113.271 0h-.271z"/><path d="M531.064 86.956c-.047.114-.091.182-.138.295.138.067.297.089.43.181a1.57 1.57 0 0 0 .295-.16c-.178-.09-.384-.202-.587-.316"/><path d="M531.651 87.433v.272c.114-.091.206-.158.275-.25-.069 0-.16-.022-.275-.022"/><path d="M677.572 91.312c.317.159.588.319.837.453v-.135c-.315-.295-.296-.159-.837-.318"/><path d="M667.271 92.379a.865.865 0 0 0-.137.249c.432-.136.159 0 .432-.249h-.295z"/><path d="M665.729 93.104c-.045.113-.109.181-.156.295a.41.41 0 0 1 .156.134c.092-.089.182-.179.273-.271v-.138a.977.977 0 0 1-.273-.02"/><path d="M665.411 94.08c0 .113 0 .228.045.364.092 0 .161.045.272.045-.18-.409.001-.183-.317-.409"/><path d="M468.926 89.588v.273c.09-.091.182-.159.294-.273h-.294z"/><path d="M463.48 90.2a7.916 7.916 0 0 1-.135.385c.204-.271.25-.067.135-.385"/><path d="M466.113 91.381c-.227.067-.477.16-.75.271v.252c.522.066.976.113 1.476.18v-.136c-.297-.431-.136-.386-.726-.567"/><path d="M458.058 91.517c-.089.045-.18.113-.293.134v.114c.25-.068.498-.135.749-.226-.16.001-.297.001-.456-.022"/><path d="M461.87 91.562c.249.134.022.134.295 0h-.295z"/><path d="m460.1 91.675.295.295h.158c-.27-.295.001-.113-.453-.295"/><path d="M467.997 92.4c-.045.114-.09.183-.136.294.227.068.499.181.726.295h.157c.046-.092.091-.181.114-.295-.273-.225-.25-.225-.861-.294"/><path d="M306.061 102.428c-.5 1.611-1.112 2.677-1.407 4.197.068 0 .113-.023.135-.023.682-1.156 2.294-2.404 1.272-4.174"/><path d="M303.7 107.758c.433-.316.207-.18.273-.476-.089.16-.159.32-.273.476"/><path d="M436.233 110.073c-.043.113-.088.182-.135.273h.409c-.09-.091-.181-.159-.274-.273"/><path d="M301.183 119.308c-.136.68-.319 1.383-.432 2.087.022.089.092.179.113.272.092-.022.137-.022.183-.022.181-.703.34-1.431.521-2.11-.114-.068-.249-.115-.385-.227"/><path d="M697.285 123.299c.158.181.319.408.456.612v-.453c-.138-.046-.298-.114-.456-.159"/><path d="M356.174 120.714c-.112.228-.179.408-.271.589.271-.317.385-.204.271-.589"/><path d="M369.694 120.441c-.498.432-.906.477-1.155 1.203.954.089 1.542-.046 2.403 0v-.136c-.406-.364-.816-.75-1.248-1.067"/><path d="M352.181 122.46a7.085 7.085 0 0 1-.272.432c.18-.113.361-.225.545-.317-.092-.069-.182-.069-.273-.115"/><path d="M704.272 132.556v.477h.273c-.203-.455.001-.159-.273-.477"/><path d="M692.931 131.966c.136.318.272.68.43 1.043a6.662 6.662 0 0 0-.861.521c.022 1.837 1.315 4.197 2.519 4.901.09.113.182.179.296.295h.134c-.046-2.086-1.091-5.943-2.518-6.76"/><path d="M695.063 132.736a.687.687 0 0 0-.297.114v.407c.252.045.456.068.707.068-.206-.451-.094-.315-.41-.589"/><path d="M294.15 141.29c-.021.092-.088.181-.137.295.137.18.273.34.409.498h.113c-.045-.701.046-.587-.385-.793"/><path d="M699.804 148.731c-.501-3.335-1.927-6.873-3.653-9.188-.112-.046-.271-.137-.428-.204-.071.454-.186.886-.297 1.339-.566.318-.386.341-1.135.043.114 1.679 1.814 3.244 2.383 4.628.52 1.066.135 2.382.452 3.2.589.34.702.839 1.837 1.021-.065-.387-.09-.818-.137-1.204.341.045.388.092.817.364l.161.001z"/><path d="M719.132 142.788v.612c.137.09.296.182.432.319-.136-.637-.092-.546-.432-.931"/><path d="M720.403 143.945c.091.181.181.362.271.588h.184c-.25-.543-.001-.294-.455-.588"/><path d="M719.405 145.442c.066.226.183.477.295.749-.229-.182-.387-.341-.568-.476.182.294.34.589.568.884.137-.137.272-.25.43-.363-.271-.295-.497-.568-.725-.794"/><path d="M720.971 146.146v.407c.182.181.363.362.589.499v-.59a6.692 6.692 0 0 1-.589-.316"/><path d="M715.979 147.597c.203.273.409.499.591.749-.181-.386-.228-.455-.591-.749"/><path d="M722.376 150.591v.431c.206.091.386.25.591.341-.205-.295-.385-.501-.591-.772"/><path d="M651.8 148.346c.022.271.092.499.137.792.043-.295.112-.521.159-.816-.117.024-.204.024-.296.024"/><path d="M718.814 152.634v1.133c.184.18.295.339.454.498.137.068.272.113.409.159.043-.067.09-.182.11-.25a56.63 56.63 0 0 0-.973-1.54"/><path d="M721.535 153.426c-.203-.044-.36-.135-.589-.181.433.431.887.794 1.294 1.249.069-.089.183-.159.295-.273-.34-.273-.658-.545-1-.795"/><path d="M719.813 155.038c.047.181.114.364.16.589.157.183.361.318.566.477v-.612c-.25-.136-.454-.296-.726-.454"/><path d="M328.431 155.219v1.157c.18-.022.385-.022.544-.045v-.159c-.162-.454-.183-.68-.544-.953"/><path d="M725.233 161.774c.139.296.296.591.388.887.064-.114.136-.205.201-.295-.246-.183-.405-.408-.589-.592"/><path d="M516.497 407.311c-.045.181-.09.385-.135.586.229-.201.477-.407.725-.586h-.59z"/><path d="M511.869 407.559a3.144 3.144 0 0 1-.452.296c.09.111.204.179.318.291h.7v-.135a8.68 8.68 0 0 0-.566-.452"/><path d="M513.028 407.72v.293c.09-.114.182-.181.293-.293h-.293z"/><path d="M489.933 421.669c-.044.16-.09.297-.112.477.272-.294.09 0 .25-.477h-.138z"/><path d="M489.638 422.442c-.022.112-.09.271-.113.43.09-.113.182-.228.274-.317-.048-.025-.093-.092-.161-.113"/><path d="M479.157 430.471c-.683.114-1.363.184-2.021.275-.77 1.768-2.563 2.678-4.038 3.676v.155c.272.116.499.205.724.321 1.386-.203 2.359-.751 3.177-1.338 0-.25 0-.501-.022-.727.951-.137 1.542-.591 2.177-1.045l.003-1.317z"/><path d="M399.619 436.144c.293.136.043.156.315 0h-.315z"/><path d="M399.118 440.433c-.045.111-.112.184-.157.295.112.043.205.112.296.157.066-.045.09-.114.137-.157-.07-.115-.185-.184-.276-.295"/><path d="M435.983 450.709c.159.726.113.909.725 1.155v-.11c-.247-.568-.02-.749-.725-1.045"/><path d="M404.133 454.382c.249.432.021.047.453.295.046-.045.09-.114.137-.135v-.16h-.59z"/><path d="M401.57 457.765c-.295-.249-.274-.249-.886-.296.135.157.206.296.318.43h.591c0-.068-.023-.089-.023-.134"/><path d="M401.751 460.532v.454h.407c-.136-.138-.27-.297-.407-.454"/><path d="M403.203 462.598c-.044.089-.089.179-.135.293h.294c-.068-.115-.091-.204-.159-.293"/><path d="M416.315 484.555c-.044.047-.091.114-.134.159.09.113.227.205.318.319.111-.067.271-.112.408-.157-.182-.113-.387-.207-.592-.321"/><path d="M418.924 485.895c-.135-.047-.273-.092-.433-.159-.27.182-.587.365-.861.591.907.11 1.271.362 1.588-.432h-.294z"/><path d="M422.418 485.895a8.123 8.123 0 0 1-.75-.159c-.137.067-.294.112-.453.159.112.022.225.092.315.137.137.137.295.295.409.432.205-.092.386-.228.612-.295-.043-.115-.087-.185-.133-.274"/><path d="M423.71 488.188v-.139c-1.156-.092-1.678-.067-2.472-.568-.138-.976 0-1.313-1-1.589.229 1.067.546 2.249.432 2.904.183.022.295.067.455.135.112-.341.272-.701.408-1.019a.798.798 0 0 0 .295.137c.272.704.658 1.267 1.294 1.588-.229-.34-.478-.659-.726-.998v-.158c.453-.114.862-.183 1.314-.293"/><path d="M421.42 490.365c.046.09.091.179.157.315a.985.985 0 0 1 .115-.315h-.272z"/><path d="M430.494 493.401c-.045.546-.159.23.455.433-.159-.137-.319-.273-.455-.433"/><path d="M434.691 493.561c.34.477 1.066.432 1.725.566.067-.11.113-.202.135-.293l-1.86-.273"/><path d="M429.337 493.834c.318.725.75.978 1.612 1.134-.455-.522-.863-.862-1.612-1.134"/><path d="M492.225 0C383.126 0 289.5 66.176 249.322 160.642c37.047-65.995 115.428-145.193 242.72-145.08 115.02.114 200.977 69.285 243.13 145.238C695.04 66.266 601.391 0 492.225 0"/><path d="M743.861 343.923c-34.191 104.585-130.332 185.96-252.205 185.96-129.266 0-216.109-80.285-251.023-183.737 36.322 96.372 135.074 165.475 251.184 165.475 117.04-.001 216.427-70.188 252.044-167.698"/></svg>