<svg xmlns="http://www.w3.org/2000/svg" viewBox="0 0 225 40" fill="#fff">
<path d="m20.671 0c9.0938 0.65315 14.226 6.6248 15.015 13.953h-9.5245c-0.1801-1.4376-0.8068-2.7824-1.792-3.8448-0.9851-1.0624-2.2788-1.7888-3.6988-2.0766v-8.0316zm0 32.083c1.5191-0.2453 2.9115-0.9946 3.953-2.1273 1.0416-1.1327 1.6717-2.5828 1.789-4.1171h9.546c-0.5383 7.3784-6.0793 13.637-15.288 14.161v-7.9167zm-20.621-13.996c0.76081-10.048 7.5363-17.384 17.176-18.087v7.967c-4.6294 0.75364-7.0052 4.7371-7.4287 10.12h-9.747zm17.176 21.913c-10.048-0.8613-16.702-8.5484-17.226-18.841h9.7757c0.20814 5.8352 3.0576 10.048 7.4861 10.924l-0.0359 7.9167z"/>
<path d="m48.929 18.087v-17.384h-9.5245v17.384h9.5245zm-9.5245 21.102h9.5245v-18.058h-9.5245v18.058z"/>
<path d="m63.678 11.842v27.346h9.5317v-27.346h-9.5317zm20.815-3.0647v-8.0746h-32.012v8.0746h32.012z"/>
<path d="m105.02 12.517l5.957-11.814h10.049l-11.355 21.102-4.651-9.2877zm-6.5172 12.489l-13.02-24.303h10.422l12.201 24.332v14.154h-9.6032v-14.183z"/>
<path d="m136.67 31.114h13.889v8.0747h-13.889v-8.0747zm-3.387-9.9838v18.058h-9.532v-18.058h9.532zm-9.532-20.427h9.532v17.384h-9.532v-17.384z"/>
<path d="m179.52 39.189h10.012l-6.459-18.03h-9.905l6.352 18.03zm2.426-21.102l-6.302-17.384h-9.632l6.079 17.384h9.855zm-19.221 14.965h11.412l-2.692-7.6152h-6.51l-2.21 7.6152zm5.742-16.257l-4.379-12.431-12.058 34.825h9.582l6.855-22.394z"/>
<path d="m205.15 31.545h5.024c3.173 0 5.06-1.5073 5.06-4.2491 0-3.1222-2.21-4.3639-5.167-4.3639h-4.917v-7.5435h4.249c2.749 0 4.637-1.0766 4.637-3.5887 0-2.5121-1.78-3.5888-4.58-3.5888h-4.306v-7.5076h5.656c4.034 0 6.89 0.96896 8.986 2.6341 1.099 0.87904 1.975 2.0059 2.555 3.2884s0.848 2.684 0.783 4.0901c0 3.8758-1.938 6.2444-5.384 7.5363v0.1579c2.042 0.5669 3.832 1.8054 5.082 3.5155 1.251 1.71 1.888 3.7916 1.809 5.9085 0 3.8759-1.436 6.6751-3.926 8.613-2.369 1.8302-5.491 2.7418-9.475 2.7418h-6.086v-7.644zm-3.388 7.644h-9.531v-18.058h9.531v18.058zm-9.531-21.102v-17.384h9.531v17.384h-9.531z"/>
</svg>