<svg xmlns="http://www.w3.org/2000/svg" viewBox="0 0 750 485" fill="#fff"><path d="M259.87 482.84c-22.574-4.853-37.22-22.006-42.894-50.234-4.412-21.952-2.731-49.104 4.144-66.956 5.8-15.06 14.386-25.151 26.423-31.06 8.037-3.945 15.32-5.529 25.398-5.524 33.757.017 53.8 22.259 57.809 64.151.679 7.097.274 26.608-.684 32.924-4.704 31.023-18.778 50.095-41.428 56.141-4.052 1.082-5.481 1.215-14.457 1.347-8.616.128-10.548.021-14.311-.788zm17.492-15.74c16.195-2.03 25.156-14.345 28.64-39.359 1.16-8.326 1.156-33.886-.008-42.158-2.417-17.199-6.323-26.927-13.574-33.816-5.345-5.076-11.434-7.4-19.398-7.4-19.394 0-30.25 14.425-33.422 44.411-.922 8.719-.641 32.543.47 39.76 3.663 23.812 13.023 36.564 28.303 38.562 4.073.532 4.743.532 8.988 0zm322.27 15.975c-30.498-5.652-47.591-25.983-52.171-62.051-.879-6.922-.744-24.626.243-31.893 4.23-31.15 18.827-51.067 42.434-57.904 12.013-3.48 29.045-2.657 40.252 1.943 17.708 7.268 28.397 23.241 32.036 47.872 1.068 7.229 1.759 21.22 1.048 21.22-.258 0-6.284.842-13.392 1.871-44.718 6.477-80.002 11.563-80.213 11.563-.427 0 .354 7 1.305 11.709 2.872 14.206 8.56 24.548 17.026 30.958 8.575 6.492 19.56 9.064 33.797 7.917 10.63-.857 18.56-2.775 26.48-6.403 1.893-.867 3.599-1.417 3.79-1.22.191.195 1.64 3.67 3.22 7.72l2.872 7.364-1.104.842c-3.158 2.41-13.96 5.994-23.803 7.896-6.78 1.31-27.953 1.684-33.82.596zm-6.457-83.836 33.79-5.089c5.861-.882 11.365-1.726 12.232-1.876l1.575-.273-.288-5.873c-.969-19.74-7.134-32.488-18.383-38.007-4.98-2.445-9.018-3.288-15.793-3.298-19.585-.03-31.779 12.627-36.149 37.517-1.246 7.097-1.764 20.384-.796 20.384.372 0 11.087-1.568 23.812-3.485zm-210.926 83.17c-4.904-.69-8.534-1.78-12.633-3.789-5.546-2.718-11.05-8.235-13.783-13.817-2.408-4.917-3.7-9.613-4.276-15.545-.256-2.629-.453-25.645-.46-53.599l-.012-48.99h-17.141v-14.826h17.14V297.28l12.162-3.704 12.16-3.704.121 20.986.12 20.986H401.583v14.825h-25.944l.007 51.076c.008 54.811-.03 53.871 2.345 58.924 1.56 3.32 4.314 6.084 7.735 7.769 2.897 1.426 3.392 1.52 7.967 1.522 2.683 0 5.561-.171 6.396-.384l1.517-.387-.127 7.788-.128 7.789-3.474.82c-4.187.989-11.667 1.383-15.627.825zM4.554 410.453v-71.029l3.36-1.47c13.487-5.902 25.189-8.282 43.017-8.75 12.073-.316 18.344.206 26.198 2.181 8.998 2.263 16.206 6.247 22.165 12.25l3.243 3.266 1.853-1.782c7.474-7.184 17.438-12.234 29.1-14.75 6.485-1.4 22.572-1.528 28.484-.227 16.932 3.725 27.862 12.825 32.802 27.31 2.536 7.436 2.501 6.499 2.501 67.571v56.46h-24.066l-.144-57.1c-.16-62.69-.008-59.299-2.929-65.474-4.571-9.663-14.842-14.691-28.454-13.93-10.519.588-18.76 4.076-26.29 11.129l-2.433 2.277V481.481h-24.09l-.008-56.172c-.009-62.154.105-59.661-3.006-65.983-3.078-6.255-9.072-10.871-17.16-13.212-3.4-.985-4.524-1.065-14.572-1.033-10.188.033-11.17.111-15.288 1.227-2.42.656-5.6 1.646-7.065 2.2l-2.664 1.006V481.481H4.555v-71.029zm416.486-34.134V271.154h24.09v34.05c0 23.022.154 34.052.476 34.052.262 0 1.67-.6 3.127-1.333 4.237-2.13 11.505-4.695 17.013-6.004 4.668-1.11 5.911-1.211 14.824-1.198 8.129.011 10.453.173 14.13.984 16.936 3.733 27.362 12.358 32.245 26.673 2.534 7.432 2.501 6.54 2.501 67.108v55.995h-24.062l-.139-56.635c-.154-63.083.086-58.421-3.372-65.504-1.943-3.982-5.552-7.759-9.346-9.78-4.616-2.461-8.842-3.41-16.358-3.673-10.67-.373-19.503 1.4-27.449 5.511l-3.59 1.857v128.224h-24.09V376.318zm259.897 34.256v-70.908l3.59-1.643c8.057-3.686 16.023-6.003 25.133-7.31 6.783-.972 20.725-1.729 28.758-1.56l6.753.142-2.815 8.892c-1.548 4.89-2.927 9-3.066 9.131-.138.131-1.493-.111-3.01-.54-2.11-.594-4.726-.781-11.1-.791-9.242-.015-11.991.468-17.257 3.034l-2.895 1.411v131.049h-24.091v-70.907zM473.934 304.857a6475.62 6475.62 0 0 0 7.51-17.952l1.048-2.548-14.937-44.821-14.937-44.822 7.722.005 7.722.005 9.643 33.698c5.303 18.534 9.961 35.574 10.35 37.867.39 2.294.77 4.233.845 4.311.076.078.378-1.278.671-3.011.294-1.734.954-4.716 1.466-6.627.797-2.971 14.387-48.175 18.56-61.732l1.39-4.517h6.731c5.19 0 6.682.133 6.518.58-.392 1.067-8.074 24.39-19.111 58.025a22489.99 22489.99 0 0 1-16.515 50.15l-5.569 16.793h-15.568l6.461-15.404zM319.61 285.475c-7.217-.934-14.768-4.329-19.72-8.867-5.948-5.45-9.78-12.705-12.059-22.827-1.01-4.484-1.422-18.833-.705-24.525 2.386-18.957 11.68-31.385 26.434-35.346 4.228-1.136 14.299-1.096 18.762.074 13.72 3.596 21.669 14.338 23.845 32.22.676 5.559.627 10.668-.102 10.666-.98-.004-55.698 7.964-55.88 8.135-.093.089.187 2.3.624 4.912 1.468 8.776 4.14 14.437 9.008 19.08 4.663 4.447 10.051 6.327 18.14 6.327 6.3 0 11.879-.98 17.429-3.058 2.416-.905 4.458-1.577 4.536-1.494.477.504 3.436 8.879 3.246 9.187-.127.206-1.783 1.02-3.679 1.81-8.193 3.41-20.432 4.929-29.879 3.706zm2.488-51.625c10.94-1.65 20.091-3 20.338-3 .659 0 .036-9.415-.844-12.741-1.01-3.819-3.043-7.972-5.008-10.225-3.34-3.832-9.892-6.139-15.985-5.628-12.568 1.054-19.882 11.55-20.811 29.87l-.265 5.213 1.343-.244c.739-.135 10.293-1.595 21.232-3.245zm233.06 51.467c-12.554-2.486-20.818-10.299-25.204-23.828-3.53-10.89-4.033-27.032-1.23-39.495 3.4-15.118 11.584-24.731 23.886-28.057 4.145-1.121 14.327-1.13 18.531-.017 9.95 2.634 17.564 9.895 21.756 20.746 2.43 6.291 3.316 11.719 3.59 21.993.435 16.362-1.83 26.441-8.043 35.779-4.124 6.198-10.129 10.44-17.535 12.39-3.922 1.032-11.776 1.276-15.751.49zm14.657-11.049c8.584-4.2 12.44-15.027 12.443-34.94.004-20.295-4.07-31.605-12.868-35.728-2.347-1.1-3.206-1.242-7.515-1.242-4.262 0-5.18.148-7.413 1.195-6.73 3.158-10.952 11.072-12.457 23.358-.281 2.293-.51 8.026-.51 12.74 0 12.117 1.227 19.555 4.224 25.648 2.51 5.102 4.883 7.427 9.62 9.423 2.256.95 3.211 1.076 7.237.956 3.949-.117 5.026-.327 7.239-1.41zm59.93 11.055c-11.293-2.212-17.677-7.424-20.955-17.107l-1.279-3.78-.136-34.86-.137-34.862h14.366l.133 33.935.133 33.934 1.04 2.57c1.967 4.858 5.058 7.99 9.474 9.598 2.621.955 11.053 1.287 15.064.593 1.73-.3 4.344-1.08 5.809-1.735l2.663-1.192v-77.703h14.825V279.069l-2.895 1.296c-4.078 1.826-8.428 3.215-13.423 4.287-5.67 1.216-19.918 1.604-24.682.67zm-240.208-.562c-6.971-1.338-12.311-5.298-15.104-11.2-2.332-4.93-2.467-7.098-2.485-39.816l-.016-30.23H361.74v-8.801h10.192v-20.796l5.444-1.672c2.994-.92 6.33-1.96 7.412-2.314l1.97-.642v25.424H402.044v8.802h-15.312l.128 32.082c.127 31.836.135 32.096 1.125 33.935 2.172 4.036 5.011 5.567 10.237 5.523l3.822-.033v4.331c0 4.293-.01 4.336-1.274 4.84-1.354.539-9.29.94-11.234.567zm-228.859-43.208V198.98l4.054-1.613c10.68-4.249 27.507-5.728 38.105-3.35 5.014 1.126 10.492 3.89 13.677 6.902l2.674 2.529 2.827-2.305c3.534-2.88 9.114-5.669 13.946-6.968 4.984-1.34 16.07-1.478 20.616-.256 7.482 2.013 13.564 6.654 16.44 12.547 3.098 6.346 3.017 5.185 3.017 43.243v34.417h-14.361v-33.722c0-28.9-.103-34.117-.716-36.483-1.684-6.502-6.197-10.275-13.533-11.316-6.959-.987-14.77 1.33-19.546 5.797l-2.34 2.19v73.534h-14.334l-.13-34.862-.13-34.861-1.214-2.588c-.667-1.424-1.977-3.352-2.91-4.286-5.596-5.595-17.439-7.017-28.653-3.439l-3.127.998v79.038h-14.362v-42.573zm523.966.19v-42.381l2.2-1.112c6.346-3.207 14.59-4.772 27.53-5.229l8.652-.304-1.751 5.515c-1.473 4.638-1.891 5.498-2.63 5.403a560.68 560.68 0 0 1-4.392-.614c-4.228-.604-9.525 0-12.96 1.478l-2.288.984v78.643h-14.361v-42.382zm-526.066-72.987c-5.155-.515-9.07-1.59-13.455-3.697-15.556-7.47-24.214-24.828-25.07-50.26-.818-24.238 5.462-43.443 17.458-53.395 3.435-2.85 9.985-6.197 14.245-7.278 6.804-1.728 17.047-1.733 23.824-.012 3.973 1.01 10.693 4.347 13.924 6.915 8.24 6.549 14.013 17.983 16.625 32.922 1.39 7.955 1.537 24.07.29 31.966-3.032 19.204-10.413 31.736-22.6 38.373-6.88 3.747-16.106 5.38-25.241 4.466zm8.818-12.506c11.365-1.598 18.293-10.876 20.815-27.872 1.587-10.699 1.362-28.196-.49-38.13-2.323-12.464-7.142-20.58-14.174-23.87-9.544-4.466-20.84-1.996-26.767 5.853-3.878 5.137-6.223 11.66-7.726 21.488-1.17 7.655-1.157 26.915.024 34.037 2.962 17.874 9.347 26.524 21.028 28.49 3.076.518 3.633.519 7.29.004zM25.866 85.15V3.38h18.067v28.491c0 19.297.154 28.492.479 28.492.263 0 1.462-.498 2.663-1.106 3.505-1.774 9.945-3.895 14.335-4.723 5.652-1.065 16.368-.7 21.901.747 7.626 1.994 13.562 5.669 17.394 10.767 3.55 4.722 5.41 9.399 6.218 15.625.26 2.013.456 20.673.464 44.359l.015 40.884H89.375l-.152-42.274c-.138-38.263-.227-42.528-.945-44.952-1.158-3.911-2.46-6.21-4.903-8.653-4.12-4.12-9.454-5.779-18.363-5.71-6.777.052-12.37 1.255-17.373 3.736l-3.474 1.723-.118 48.065-.118 48.065H25.865V85.149zm206.906 54.33c-4.285-15.103-11.419-40.227-15.852-55.83-4.434-15.603-8.06-28.477-8.06-28.607 0-.13 4.169-.238 9.265-.238 5.096 0 9.265.115 9.265.254 0 .14 1.785 7.593 3.966 16.563 16.463 67.7 16.549 68.065 17.342 73.503.278 1.9.59 3.54.694 3.645.208.207.229.117 1.562-6.637.65-3.297 20.587-75.25 23.972-86.517.22-.73 1.018-.81 8.056-.81h7.811l.705 2.431c.388 1.338 3.099 11.189 6.024 21.89 2.925 10.702 7.72 28.218 10.653 38.925 4.372 15.954 7.238 28.007 7.238 30.443 0 .226.208.281.463.124.255-.158.463-.873.463-1.589 0-3.071 1.84-11.16 8.54-37.558 3.912-15.416 8.63-34.022 10.484-41.348l3.371-13.319H355.171l-.598 2.2c-.329 1.211-7.502 26.33-15.941 55.822-8.44 29.491-15.344 53.731-15.344 53.867 0 .135-3.573.189-7.941.12l-7.942-.128-8.986-31.734c-15.22-53.747-14.261-50.16-15.777-59.068l-.394-2.316-.816 4.374c-.754 4.045-4.271 16.58-17.231 61.411a35854.15 35854.15 0 0 0-6.422 22.237l-1.468 5.096-7.873.127-7.874.126-7.792-27.46zm190.584-28.618V54.804h18.068v112.113h-18.068v-56.056zm5.187-78.687c-4.142-1.47-7.04-5.243-7.04-9.167 0-2.724 2.12-6.584 4.537-8.26 1.625-1.126 2.57-1.41 5.17-1.558 4.059-.229 6.164.478 8.558 2.875 2.892 2.898 3.786 6.885 2.326 10.38-2.137 5.116-8.134 7.652-13.551 5.73z"/></svg>