<svg xmlns="http://www.w3.org/2000/svg" version="1.0" viewBox="0 0 500 85" fill="#fff"><g font-size="115.592" font-weight="400" font-family="AmerType Md BT"><path d="M25.222 48.597c.67 0 1.142-.136 1.417-.41.276-.274.414-.743.414-1.407V35.346c0-1.055.393-1.935 1.18-2.639.788-.703 1.812-1.055 3.071-1.055 1.26 0 2.313.362 3.16 1.085.846.723 1.269 1.593 1.269 2.609v11.082c0 .977.098 1.583.295 1.818.197.234.67.351 1.417.351H49.55c1.456 0 2.588.343 3.395 1.027.807.684 1.21 1.651 1.21 2.902 0 1.407-.432 2.443-1.298 3.108-.866.664-2.165.996-3.897.996H37.445c-.63 0-1.072.245-1.328.733-.256.489-.384 1.359-.384 2.61v25.212c0 6.685.59 10.946 1.771 12.783 1.181 1.837 3.307 2.756 6.377 2.756 2.638 0 4.685-.88 6.141-2.639 1.457-1.759 2.185-4.26 2.185-7.505 0-.665-.04-1.681-.118-3.05-.079-1.367-.118-2.384-.118-3.048 0-1.837.344-3.235 1.033-4.193.69-.957 1.703-1.436 3.041-1.436 1.811 0 3.09.596 3.838 1.788.748 1.192 1.122 3.313 1.122 6.362 0 7.075-1.535 12.49-4.605 16.242-3.071 3.752-7.539 5.629-13.404 5.629-5.826 0-10-1.476-12.518-4.427-2.52-2.951-3.78-7.926-3.78-14.923V59.973c0-1.486-.127-2.414-.383-2.786-.256-.37-.699-.557-1.329-.557H20.38c-1.417 0-2.45-.322-3.1-.967-.65-.645-.974-1.652-.974-3.02 0-1.407.345-2.433 1.033-3.078.69-.645 1.782-.968 3.278-.968h4.605z" style="text-align:start;line-height:125%;-inkscape-font-specification:AmerType Md BT" transform="translate(-15.234 -25.187)"/><path d="M74.781 46.076c0-5.941-.446-9.508-1.338-10.7-.892-1.193-2.704-1.789-5.437-1.789h-3.588c-1.518 0-2.6-.254-3.245-.762-.646-.508-.968-1.349-.968-2.522 0-1.211.389-2.15 1.167-2.814.778-.664 1.907-.997 3.388-.997.076 0 .75.059 2.021.176a41.16 41.16 0 0 0 3.787.176c2.733 0 5.466-.098 8.2-.293.493-.04.796-.059.91-.059 1.443 0 2.42.303 2.933.909.512.606.768 2.062.768 4.368v25.213c2.506-3.283 5.286-5.687 8.342-7.212 3.056-1.524 6.577-2.287 10.563-2.287 7.895 0 13.599 2.004 17.11 6.01 3.512 4.007 5.267 10.486 5.267 19.438v18.997c0 3.675.351 5.971 1.054 6.89.702.919 2.192 1.378 4.47 1.378.455 0 1.015-.059 1.68-.176.664-.117 1.11-.176 1.337-.176 1.595 0 2.81.342 3.645 1.026.835.684 1.252 1.71 1.252 3.078 0 1.29-.35 2.209-1.053 2.756-.702.548-1.87.821-3.502.821-.418 0-2.012-.156-4.783-.469-2.771-.313-5.333-.469-7.687-.469-2.809 0-5.732.156-8.769.47-3.037.312-4.669.468-4.897.468-1.328 0-2.353-.322-3.074-.967-.722-.645-1.082-1.554-1.082-2.727 0-1.368.37-2.374 1.11-3.02.74-.644 1.87-.967 3.388-.967.683 0 1.48.059 2.392.176.91.117 1.48.176 1.708.176 1.594 0 2.657-.45 3.188-1.349.532-.899.798-3.205.798-6.919V74.866c0-7.232-1.158-12.382-3.474-15.45-2.315-3.069-6.13-4.603-11.445-4.603-6.074 0-10.515 2.15-13.324 6.45-2.809 4.3-4.214 11.12-4.214 20.463v10.202c0 3.714.266 6.02.798 6.92.531.898 1.594 1.348 3.188 1.348.228 0 .807-.059 1.737-.176.93-.117 1.718-.176 2.363-.176 1.518 0 2.638.323 3.36.968.72.645 1.081 1.651 1.081 3.02 0 1.211-.35 2.13-1.053 2.755-.702.625-1.718.938-3.046.938-.228 0-1.86-.156-4.897-.469a85.67 85.67 0 0 0-8.77-.469c-2.315 0-4.867.156-7.658.47-2.79.312-4.393.468-4.811.468-1.632 0-2.8-.273-3.502-.82-.702-.548-1.053-1.467-1.053-2.757 0-1.368.398-2.394 1.195-3.078.798-.684 1.993-1.026 3.588-1.026.417 0 .996.059 1.736.176.74.117 1.263.176 1.566.176 2.24 0 3.73-.41 4.47-1.231.74-.821 1.11-3.167 1.11-7.037V46.076z" style="text-align:start;line-height:125%;-inkscape-font-specification:AmerType Md BT" transform="translate(-15.234 -25.187)"/><path d="M163.723 46.664c-8.067 0-14.469 2.797-19.206 8.406-4.738 5.61-7.092 13.158-7.092 22.656 0 9.538 2.354 17.11 7.092 22.72 4.737 5.608 11.139 8.437 19.206 8.437 4.529 0 8.435-.765 11.689-2.25 3.253-1.486 6.045-3.78 8.405-6.907 1.522-2.071 2.73-4.158 3.644-6.25.913-2.091 1.38-3.842 1.38-5.25 0-1.211-.389-2.198-1.15-3-.761-.801-1.715-1.218-2.856-1.218-1.789 0-3.253 1.607-4.433 4.812-.76 2.15-1.482 3.757-2.167 4.813-1.788 2.619-3.787 4.514-5.975 5.687-2.188 1.173-4.88 1.75-8.077 1.75-5.251 0-9.463-1.982-12.64-5.969-3.178-3.987-4.761-9.3-4.761-15.906v-.344h36.936c2.207 0 3.672-.374 4.433-1.156.76-.782 1.149-2.35 1.149-4.656 0-8.014-2.318-14.4-6.96-19.188-4.643-4.788-10.854-7.187-18.617-7.187zm.132 7.687c4.68 0 8.449 1.467 11.36 4.438 2.91 2.97 4.366 6.856 4.366 11.625v.75h-32.24c.494-5.2 2.237-9.303 5.187-12.313 2.949-3.01 6.722-4.5 11.327-4.5z" style="text-align:start;line-height:125%;-inkscape-font-specification:AmerType Md BT" transform="translate(-15.234 -25.187)"/><path d="M254.962 46.789c-8.312 0-14.9 2.773-19.766 8.344-4.866 5.57-7.294 13.095-7.294 22.593 0 9.5 2.428 17.09 7.294 22.72 4.866 5.628 11.434 8.437 19.674 8.437 8.489 0 15.162-2.793 20.01-8.344 4.849-5.55 7.263-13.158 7.264-22.813 0-9.577-2.415-17.125-7.263-22.656-4.849-5.531-11.501-8.281-19.92-8.281zm.122 7.687c5.754 0 10.278 2.052 13.545 6.157 3.268 4.104 4.903 9.784 4.903 17.093 0 7.232-1.648 12.908-4.933 17.032-3.286 4.124-7.796 6.187-13.515 6.187-5.931 0-10.514-2.005-13.729-6.031-3.214-4.026-4.81-9.76-4.81-17.188 0-7.27 1.648-12.97 4.933-17.093 3.285-4.124 7.817-6.157 13.606-6.157z" style="text-align:start;line-height:125%;-inkscape-font-specification:AmerType Md BT" transform="translate(-15.234 -25.187)"/><path d="M299.376 56.05c-2.064.039-4.214.107-6.45.205-2.236.097-3.45.146-3.641.146-1.3 0-2.255-.273-2.867-.82-.611-.548-.917-1.408-.917-2.58 0-1.173.41-2.102 1.233-2.786.821-.684 1.94-1.026 3.354-1.026.153 0 1.09.059 2.81.176a72.52 72.52 0 0 0 4.93.176h1.548c0-.274-.02-.674-.057-1.202a17.987 17.987 0 0 1-.058-1.202c0-6.606 1.644-11.62 4.931-15.04s8.103-5.13 14.448-5.13c4.396 0 7.922.987 10.579 2.96 2.656 1.975 3.984 4.584 3.984 7.828 0 1.76-.477 3.167-1.433 4.222-.956 1.056-2.236 1.583-3.841 1.583-1.682 0-3.01-.39-3.985-1.172-.975-.782-1.462-1.838-1.462-3.167 0-.469.086-1.124.258-1.964.172-.84.258-1.436.258-1.788 0-.548-.363-.958-1.09-1.232-.726-.273-1.853-.41-3.382-.41-3.479 0-6.116 1.075-7.912 3.225-1.797 2.15-2.695 5.316-2.695 9.499 0 .781.01 1.378.029 1.788.019.41.066.811.143 1.202 2.56 0 5.236-.098 8.027-.293.65-.04 1.05-.059 1.204-.059 1.567 0 2.78.323 3.64.968.86.645 1.29 1.553 1.29 2.726s-.334 2.052-1.003 2.639c-.669.586-1.691.88-3.067.88-.153 0-.554-.02-1.204-.06a132.507 132.507 0 0 0-8.658-.293v36.237c0 3.674.287 5.97.86 6.89.574.918 1.759 1.377 3.555 1.377.153 0 .745-.059 1.777-.176a25.085 25.085 0 0 1 2.81-.176c1.72 0 2.972.323 3.755.968.784.645 1.176 1.651 1.176 3.02 0 1.211-.383 2.13-1.147 2.755-.765.626-1.873.938-3.326.938-.267 0-2.044-.156-5.332-.469a99.996 99.996 0 0 0-9.46-.469c-2.56 0-5.256.157-8.084.47-2.829.312-4.396.468-4.701.468-1.644 0-2.839-.283-3.584-.85-.745-.567-1.118-1.476-1.118-2.726 0-1.369.42-2.395 1.261-3.079.841-.684 2.064-1.026 3.67-1.026.42 0 1.003.059 1.749.176.745.117 1.27.176 1.576.176 2.255 0 3.756-.41 4.501-1.231.745-.821 1.118-3.167 1.118-7.036V56.049z" style="text-align:start;line-height:125%;-inkscape-font-specification:AmerType Md BT" transform="translate(-15.234 -25.187)"/><path d="M341.651 56.05c-2.049.039-4.183.107-6.402.205-2.22.097-3.424.146-3.613.146-1.29 0-2.239-.273-2.846-.82-.607-.548-.91-1.408-.91-2.58 0-1.173.408-2.102 1.223-2.786.816-.684 1.926-1.026 3.33-1.026.151 0 1.08.059 2.788.176a71.44 71.44 0 0 0 4.894.176h1.536c0-.274-.019-.674-.057-1.202a18.205 18.205 0 0 1-.057-1.202c0-6.606 1.631-11.62 4.894-15.04s8.043-5.13 14.34-5.13c4.363 0 7.863.987 10.5 2.96 2.636 1.975 3.954 4.584 3.954 7.828 0 1.76-.474 3.167-1.422 4.222-.949 1.056-2.22 1.583-3.813 1.583-1.67 0-2.988-.39-3.955-1.172-.967-.782-1.451-1.838-1.451-3.167 0-.469.085-1.124.256-1.964.17-.84.256-1.436.256-1.788 0-.548-.36-.958-1.081-1.232-.721-.273-1.84-.41-3.358-.41-3.452 0-6.07 1.075-7.853 3.225-1.783 2.15-2.674 5.316-2.674 9.499 0 .781.009 1.378.028 1.788.02.41.067.811.143 1.202 2.541 0 5.197-.098 7.966-.293a29.209 29.209 0 0 1 1.195-.059c1.556 0 2.76.323 3.614.968.853.645 1.28 1.553 1.28 2.726s-.332 2.052-.996 2.639c-.663.586-1.678.88-3.044.88-.152 0-.55-.02-1.195-.06-2.96-.195-5.823-.293-8.593-.293v36.237c0 3.674.285 5.97.854 6.89.569.918 1.745 1.377 3.528 1.377.152 0 .74-.059 1.764-.176a24.713 24.713 0 0 1 2.788-.176c1.708 0 2.95.323 3.728.968.777.645 1.166 1.651 1.166 3.02 0 1.211-.38 2.13-1.138 2.755-.759.626-1.859.938-3.3.938-.266 0-2.03-.156-5.293-.469a98.51 98.51 0 0 0-9.389-.469c-2.542 0-5.216.157-8.024.47-2.807.312-4.362.468-4.666.468-1.631 0-2.817-.283-3.556-.85-.74-.567-1.11-1.476-1.11-2.726 0-1.369.417-2.395 1.252-3.079.834-.684 2.048-1.026 3.642-1.026.417 0 .996.059 1.735.176.74.117 1.262.176 1.565.176 2.239 0 3.728-.41 4.467-1.231.74-.821 1.11-3.167 1.11-7.036V56.049z" style="text-align:start;line-height:125%;-inkscape-font-specification:AmerType Md BT" transform="translate(-15.234 -25.187)"/><path d="M384.71 92.286V68.363c0-5.512-.362-8.942-1.086-10.29-.724-1.35-2.21-2.024-4.455-2.024h-4.02c-1.34 0-2.264-.254-2.771-.762-.507-.508-.76-1.388-.76-2.638 0-1.056.37-1.955 1.113-2.698.742-.742 1.657-1.114 2.744-1.114.217 0 1.04.059 2.472.176a49.03 49.03 0 0 0 3.993.176 74.6 74.6 0 0 0 6.465-.293c.543-.04.87-.059.978-.059 1.521 0 2.535.294 3.042.88.507.586.761 1.935.761 4.046v38.523c0 3.596.335 5.892 1.005 6.89.67.996 2.074 1.494 4.21 1.494.472 0 1.015-.058 1.63-.176.616-.117 1.05-.176 1.305-.176 1.557 0 2.725.333 3.504.997.779.665 1.168 1.662 1.168 2.99 0 1.29-.335 2.21-1.005 2.756-.67.548-1.784.821-3.341.821-.435 0-1.956-.156-4.564-.469-2.608-.312-4.98-.469-7.117-.469-4.02 0-8.096.254-12.225.762-.905.118-1.467.176-1.684.176-1.594 0-2.734-.283-3.423-.85-.688-.567-1.032-1.476-1.032-2.726 0-1.33.39-2.326 1.168-2.99.779-.665 1.947-.998 3.504-.998.363 0 .888.06 1.576.176.688.118 1.195.176 1.521.176 2.21 0 3.65-.479 4.32-1.436.67-.958 1.005-3.274 1.005-6.948z" style="text-align:start;line-height:125%;-inkscape-font-specification:AmerType Md BT" transform="translate(-15.234 -25.187)"/><path d="M380.682 36.572c0-1.837.615-3.381 1.844-4.632 1.23-1.25 2.747-1.876 4.552-1.876 1.729 0 3.179.625 4.35 1.876 1.172 1.25 1.758 2.795 1.758 4.632 0 1.76-.595 3.264-1.786 4.515-1.191 1.25-2.632 1.876-4.322 1.876-1.805 0-3.323-.615-4.552-1.847-1.23-1.231-1.844-2.746-1.844-4.544z" style="text-align:start;line-height:125%;-inkscape-font-specification:AmerType Md BT" transform="translate(-15.234 -25.187)"/><path d="M404.717 77.739c0-9.694 2.403-17.317 7.208-22.868 4.805-5.55 11.393-8.326 19.764-8.326 6.757 0 12.209 1.632 16.357 4.896 4.148 3.264 6.222 7.515 6.222 12.753 0 3.05-.835 5.473-2.506 7.27-1.67 1.8-3.932 2.698-6.785 2.698-1.952 0-3.463-.46-4.532-1.378-1.07-.918-1.605-2.218-1.605-3.899 0-1.134.281-2.17.844-3.108.563-.938 1.352-1.7 2.365-2.286.188-.118.47-.235.845-.352.826-.352 1.239-.88 1.239-1.583 0-1.877-1.145-3.567-3.435-5.072s-5.03-2.258-8.221-2.258c-5.931 0-10.539 2.14-13.823 6.42-3.285 4.281-4.927 10.31-4.927 18.09 0 6.801 1.586 12.264 4.758 16.388 3.172 4.124 7.348 6.186 12.528 6.186 3.491 0 6.382-.753 8.671-2.258 2.29-1.504 4.167-3.899 5.631-7.182.338-.743.77-1.916 1.295-3.518 1.276-3.714 2.872-5.57 4.786-5.57 1.201 0 2.196.4 2.985 1.201.788.802 1.182 1.808 1.182 3.02 0 1.798-.46 3.919-1.38 6.362-.92 2.443-2.111 4.642-3.575 6.596-2.252 2.932-5.049 5.15-8.39 6.655-3.34 1.505-7.188 2.258-11.543 2.258-7.995 0-14.32-2.795-18.975-8.385-4.655-5.59-6.983-13.173-6.983-22.75z" style="text-align:start;line-height:125%;-inkscape-font-specification:AmerType Md BT" transform="translate(-15.234 -25.187)"/><path d="M488.057 47.02c-8.234.001-14.768 2.782-19.604 8.359-4.835 5.577-7.238 13.082-7.238 22.526 0 9.483 2.403 17.011 7.238 22.588 4.836 5.578 11.37 8.39 19.604 8.39 4.622 0 8.609-.76 11.93-2.238 3.32-1.476 6.17-3.757 8.578-6.866 1.554-2.06 2.788-4.135 3.72-6.214.932-2.08 1.407-3.821 1.407-5.22 0-1.205-.396-2.186-1.173-2.983-.776-.797-1.75-1.212-2.915-1.212-1.826 0-3.32 1.598-4.524 4.785-.777 2.138-1.513 3.736-2.212 4.785-1.825 2.604-3.865 4.489-6.098 5.655-2.234 1.166-4.982 1.74-8.244 1.74-5.36 0-9.658-1.97-12.902-5.935-3.243-3.964-4.859-9.246-4.859-15.815v-.341H508.465c2.252 0 3.747-.373 4.524-1.15.776-.777 1.172-2.336 1.172-4.63 0-7.967-2.365-14.316-7.104-19.077-4.738-4.76-11.077-7.146-19-7.146zm.134 7.644c4.777 0 8.623 1.459 11.594 4.412 2.972 2.954 4.457 6.817 4.457 11.559v.745h-32.907c.505-5.169 2.285-9.249 5.295-12.242 3.01-2.992 6.861-4.474 11.56-4.474z" style="text-align:start;line-height:125%;-inkscape-font-specification:AmerType Md BT" transform="translate(-15.234 -25.187)"/></g></svg>