<?xml version="1.0" encoding="utf-8"?>
<!-- Generator: Adobe Illustrator 19.0.0, SVG Export Plug-In . SVG Version: 6.00 Build 0)  -->
<svg version="1.1" xmlns="http://www.w3.org/2000/svg" xmlns:xlink="http://www.w3.org/1999/xlink" x="0px" y="0px"
	 viewBox="0 0 1400 980" style="enable-background:new 0 0 1400 980;" xml:space="preserve">
<style type="text/css">
	.st0{fill:#F9A76D;}
	.st1{fill:#333333;}
	.st2{fill:#262626;}
	.st3{fill:#989898;}
	.st4{opacity:0.35;fill:url(#XMLID_623_);}
	.st5{opacity:0.35;fill:url(#XMLID_625_);}
	.st6{opacity:0.35;fill:url(#XMLID_626_);}
	.st7{opacity:0.35;fill:url(#XMLID_627_);}
	.st8{clip-path:url(#XMLID_629_);}
	.st9{fill:#CA8357;}
	.st10{fill:#11110E;}
	.st11{fill:#282828;}
	.st12{fill:#FFFFFF;}
	.st13{opacity:0.5;fill:#FFFFFF;}
	.st14{fill:#54823B;}
	.st15{fill:#545554;}
	.st16{fill:#919190;}
	.st17{fill:#535353;}
	.st18{fill:#AB4B2A;}
	.st19{fill:#482011;}
	.st20{fill:#87766E;}
	.st21{fill:#D3D5D3;}
	.st22{fill:#9E3B22;}
	.st23{fill:#912C1E;}
	.st24{fill:#AB412D;}
	.st25{fill:#1A2322;}
	.st26{fill:#57585C;}
	.st27{fill:#BB5B42;}
	.st28{fill:#6CAA43;}
	.st29{fill:#406932;}
	.st30{fill:#939091;}
	.st31{fill:#A9A8A8;}
	.st32{opacity:0.5;fill:url(#XMLID_631_);}
	.st33{fill:#CE8D50;}
	.st34{fill:#F9F9FA;}
	.st35{fill:#F9F8F7;}
	.st36{opacity:9.000000e-002;fill:#BAB9B9;}
	.st37{fill:#FDFDFE;}
	.st38{fill:#0F190F;}
	.st39{fill:#6B6969;}
	.st40{fill:#020202;}
	.st41{fill:#1E1E1E;}
	.st42{fill:#303030;}
	.st43{fill:#E12426;}
	.st44{opacity:0.5;fill:url(#XMLID_632_);}
	.st45{opacity:0.5;fill:url(#XMLID_633_);}
	.st46{opacity:0.5;fill:url(#XMLID_634_);}
	.st47{fill:#999999;}
	.st48{fill:#B0AEAE;}
	.st49{fill:#FFEBB9;}
	.st50{fill:#F7D893;}
	.st51{fill:#774C1E;}
	.st52{opacity:0.5;fill:url(#XMLID_635_);}
	.st53{opacity:0.5;fill:url(#XMLID_636_);}
	.st54{opacity:0.5;fill:url(#XMLID_637_);}
	.st55{fill:#F2F2F2;}
	.st56{fill:#F7F7F7;}
	.st57{fill:#B77B3D;}
	.st58{fill:#A06229;}
	.st59{fill:#9FD5DC;}
	.st60{fill:#BFE5ED;}
	.st61{fill:#1B1E13;}
	.st62{fill:#4B443A;}
	.st63{fill:#010101;}
	.st64{fill:#383229;}
	.st65{fill:#FDEA93;}
	.st66{fill:#F2DA77;}
</style>
<g id="Layer_1">
	<rect id="XMLID_1_" y="839.7" class="st0" width="1400" height="140.3"/>
	<rect id="XMLID_3_" y="808" class="st1" width="1400" height="31.7"/>
	<rect id="XMLID_4_" x="700" class="st2" width="700" height="808"/>
	<rect id="XMLID_6_" class="st1" width="700" height="808"/>
	<g id="XMLID_8_">
		<g id="XMLID_5_">
			<rect id="XMLID_24_" x="381" y="107" class="st3" width="268" height="616"/>
		</g>
		<linearGradient id="XMLID_623_" gradientUnits="userSpaceOnUse" x1="454.1028" y1="540.5485" x2="649" y2="540.5485">
			<stop  offset="0" style="stop-color:#000000;stop-opacity:0"/>
			<stop  offset="1" style="stop-color:#FFFFFF"/>
		</linearGradient>
		<polygon id="XMLID_618_" class="st4" points="649,358.1 454.1,723 515,723 649,454.1 		"/>
		<linearGradient id="XMLID_625_" gradientUnits="userSpaceOnUse" x1="381" y1="358.5422" x2="649" y2="358.5422">
			<stop  offset="0" style="stop-color:#000000;stop-opacity:0"/>
			<stop  offset="1" style="stop-color:#FFFFFF"/>
		</linearGradient>
		<polygon id="XMLID_621_" class="st5" points="649,155.6 381,610.1 381,490 614.6,107 649,107 		"/>
		<g id="XMLID_7_">
			<rect id="XMLID_27_" x="381" y="164.1" class="st1" width="268" height="4"/>
		</g>
		<g id="XMLID_9_">
			<rect id="XMLID_25_" x="381" y="410" class="st1" width="268" height="10"/>
		</g>
	</g>
	<g id="XMLID_12_">
		<g id="XMLID_20_">
			<rect id="XMLID_10_" x="93.2" y="107" class="st3" width="268" height="616"/>
		</g>
		<linearGradient id="XMLID_626_" gradientUnits="userSpaceOnUse" x1="93.092" y1="415" x2="361.092" y2="415">
			<stop  offset="0" style="stop-color:#000000;stop-opacity:0"/>
			<stop  offset="1" style="stop-color:#FFFFFF"/>
		</linearGradient>
		<polygon id="XMLID_2_" class="st6" points="361.1,107 93.1,723 154,723 361.1,226.1 		"/>
		<linearGradient id="XMLID_627_" gradientUnits="userSpaceOnUse" x1="57.1339" y1="383.3761" x2="180.1278" y2="158.3874">
			<stop  offset="0" style="stop-color:#000000;stop-opacity:0"/>
			<stop  offset="1" style="stop-color:#FFFFFF"/>
		</linearGradient>
		<polygon id="XMLID_613_" class="st7" points="227.1,107 93.1,365.6 93.1,269.6 184,107 		"/>
		<g id="XMLID_18_">
			<rect id="XMLID_23_" x="93.2" y="164.1" class="st1" width="268" height="4"/>
		</g>
		<g id="XMLID_15_">
			<rect id="XMLID_21_" x="93.2" y="410" class="st1" width="268" height="10"/>
		</g>
	</g>
	<g id="XMLID_36_">
		<defs>
			<rect id="XMLID_28_" width="571.1" height="772.1"/>
		</defs>
		<clipPath id="XMLID_629_">
			<use xlink:href="#XMLID_28_"  style="overflow:visible;"/>
		</clipPath>
		<g id="XMLID_29_" class="st8">
			<g id="XMLID_34_">
				<rect id="XMLID_35_" x="-197.8" y="107" class="st3" width="268" height="616"/>
			</g>
			<g id="XMLID_32_">
				<rect id="XMLID_33_" x="-197.8" y="164.1" class="st1" width="268" height="4"/>
			</g>
			<g id="XMLID_30_">
				<rect id="XMLID_31_" x="-197.8" y="410" class="st1" width="268" height="10"/>
			</g>
		</g>
	</g>
</g>
<g id="Layer_2">
	<ellipse id="XMLID_519_" class="st9" cx="317.5" cy="929.7" rx="270.7" ry="10"/>
	<ellipse id="XMLID_614_" class="st9" cx="1102.5" cy="932.3" rx="270.7" ry="10"/>
	<ellipse id="XMLID_617_" class="st9" cx="1124.7" cy="852.3" rx="78" ry="11.3"/>
	<g id="XMLID_444_">
		<rect id="XMLID_458_" x="46.8" y="787.9" class="st0" width="146.2" height="21.7"/>
		<rect id="XMLID_453_" x="46.8" y="809.6" class="st10" width="17.5" height="122.6"/>
		<rect id="XMLID_445_" x="175.5" y="809.6" class="st10" width="17.5" height="122.6"/>
	</g>
	<g id="XMLID_449_">
		<rect id="XMLID_516_" x="441.9" y="787.9" class="st0" width="146.2" height="21.7"/>
		<rect id="XMLID_454_" x="441.9" y="809.6" class="st10" width="17.5" height="122.6"/>
		<rect id="XMLID_450_" x="570.6" y="809.6" class="st10" width="17.5" height="122.6"/>
	</g>
	<g id="XMLID_389_">
		<rect id="XMLID_382_" x="957.7" y="99.2" class="st11" width="231.8" height="306.7"/>
		<g id="XMLID_385_">
			<g id="XMLID_440_">
				<path id="XMLID_510_" class="st12" d="M993,154.9c-0.1-0.2,0.1-0.6,0.7-1.3c0.5-0.7,1.2-1.6,2.1-2.6s1.8-2.2,2.8-3.5
					c1-1.3,2-2.6,2.9-4c0.9-1.4,1.6-2.8,2.1-4.1c0.5-1.4,0.7-2.8,0.5-3.9c-0.1-0.5-0.5-1-1.1-1.3c-0.6-0.3-1.3-0.5-2.2-0.7
					c-0.9-0.1-1.8-0.2-2.9-0.2c-1.1,0-2.1,0.1-3.1,0.2c-1,0.1-2,0.3-2.9,0.5c-0.9,0.2-1.7,0.4-2.3,0.6c-0.1,0-0.4,0.1-0.6,0.2
					c-0.3,0.1-0.6,0.2-0.9,0.4c-0.3,0.2-0.7,0.3-1,0.5c-0.3,0.2-0.6,0.4-0.9,0.6c2.9,6.2,4.4,9.3,7.2,15.5c0.2,0.2,0.3,0.4,0.2,0.6
					c-0.1,0.3-0.2,0.5-0.5,0.8c-0.2,0.3-0.5,0.4-0.8,0.6c-0.3,0.1-0.6,0.1-0.9-0.1c-3-6.3-4.5-9.5-7.6-15.8
					c-0.1,0.1-0.2,0.2-0.4,0.3c-0.2,0.2-0.4,0.3-0.7,0.5c-0.2,0.2-0.4,0.3-0.6,0.5c-0.2,0.2-0.3,0.3-0.4,0.3c0,0-0.1,0-0.1,0.1
					c-0.1,0-0.1,0.1-0.1,0.1c-0.2,0.1-0.4,0.1-0.6,0.1c-0.2,0-0.4-0.1-0.4-0.2c-0.1-0.3-0.1-0.6,0.1-0.8s0.4-0.5,0.6-0.8
					c0.3-0.3,0.6-0.6,0.9-0.8c0.3-0.3,0.6-0.6,0.9-1c0.2-0.4,0.4-0.8,0.5-1.2c0.1-0.4,0-1-0.2-1.5c0.6-0.2,1.1-0.3,1.3-0.2
					c0.2,0.1,0.4,0.2,0.4,0.4c0.1,0.2,0.2,0.3,0.3,0.5c0.1,0.2,0.4,0.2,0.8,0.2c0.9-0.3,2-0.7,3.3-1.1c1.3-0.4,2.7-0.7,4.2-1
					c1.5-0.3,2.9-0.5,4.4-0.6c1.5-0.1,2.8,0,4.1,0.2c1.2,0.2,2.3,0.6,3.1,1.1c0.8,0.5,1.3,1.3,1.5,2.3c0.2,1.5-0.1,3.1-0.7,4.7
					c-0.6,1.6-1.4,3.3-2.5,5c-1.1,1.7-2.4,3.4-3.9,5.2c-1.5,1.8-3.1,3.6-4.8,5.5c0,0-0.1,0-0.1,0.1c-0.1,0-0.1,0-0.1,0.1
					c-0.3,0.1-0.5,0-0.8-0.2C993.2,155.3,993,155.1,993,154.9z"/>
				<path id="XMLID_507_" class="st12" d="M1023.6,147.6c-0.5-0.3-0.8-0.8-1-1.4c-0.2-0.6-0.4-1.2-0.6-1.9c-0.2-0.7-0.3-1.4-0.4-2
					c-0.1-0.7-0.3-1.2-0.6-1.7c-0.9,2.1-1.8,3.9-2.7,5.2c-0.9,1.3-1.8,2.3-2.6,2.9c-0.8,0.7-1.6,1.1-2.4,1.2
					c-0.8,0.1-1.5,0.1-2.1-0.1c-0.6-0.2-1.1-0.5-1.5-0.8c-0.4-0.4-0.7-0.8-0.8-1.2c-0.3-0.6-0.6-1.5-0.7-2.5c-0.1-1,0-2.1,0.2-3.2
					c0.2-1.1,0.5-2.3,1-3.5c0.5-1.2,1.1-2.2,1.8-3.2c0.8-0.9,1.6-1.7,2.6-2.3c1-0.6,2.1-0.9,3.3-0.9c0.6-0.2,1.1-0.2,1.5-0.3
					c0.4,0,0.8,0,1.1,0.2c0.3,0.1,0.5,0.4,0.7,0.7c0.2,0.3,0.4,0.8,0.5,1.3c0.4,1.6,0.7,3.3,1.1,4.5c0.5,1.2,0.9,2.2,1.4,3.1
					c0.5,0.9,0.9,1.7,1.3,2.4c0.4,0.7,0.8,1.5,0.9,2.3c0.1,0.3,0,0.5-0.2,0.7c-0.2,0.2-0.4,0.3-0.7,0.4c-0.3,0.1-0.5,0.1-0.8,0.1
					C1023.8,147.8,1023.7,147.8,1023.6,147.6z M1018.4,134.3c-0.8-0.4-1.6-0.5-2.4-0.3c-0.8,0.3-1.5,0.8-2.2,1.5
					c-0.7,0.7-1.2,1.6-1.8,2.6c-0.5,1-0.9,2.1-1.2,3.2s-0.4,2.2-0.4,3.2c0,1,0.1,2,0.5,2.6c0.4,0.7,1.2,1.1,1.7,1.1
					c0.6,0,1.2-0.2,1.7-0.6c0.6-0.4,1.1-1,1.6-1.8c0.5-0.8,1-1.6,1.5-2.4c0.5-0.9,0.8-1.7,1.2-2.5c0.3-0.8,0.6-1.5,0.8-2.1
					C1019.1,137,1018.8,136.1,1018.4,134.3z"/>
				<path id="XMLID_504_" class="st12" d="M1023.5,124.7c0-0.2,0.1-0.4,0.3-0.6c0.3-0.1,0.5-0.2,0.9-0.3c0.7-0.1,1.1-0.1,1.3,0.2
					c0.2,0.2,0.4,0.6,0.4,0.9c0,0.2-0.3,0.4-0.6,0.6c-0.3,0.1-0.6,0.2-0.9,0.2c-0.3,0-0.6-0.1-0.9-0.2
					C1023.7,125.3,1023.5,125.1,1023.5,124.7z M1025,130.2c0.2-0.1,0.4-0.2,0.6-0.2c0.2-0.1,0.4-0.1,0.7-0.2c0.2,0,0.4,0,0.6,0
					c0.2,0,0.5,0.1,0.5,0.2c0.4,0.7,0.4,2.5,0.7,3.9c0.3,1.4,0.6,2.8,0.9,4.2c0.3,1.4,0.6,2.8,0.9,4.2c0.3,1.4,0.5,2.7,0.8,3.8
					c0.1,0.3,0,0.5-0.2,0.7c-0.2,0.2-0.5,0.3-0.8,0.4c-0.3,0-0.6,0-0.8-0.1c-0.3-0.1-0.4-0.3-0.5-0.6
					C1027.1,139.9,1026.4,136.7,1025,130.2z"/>
				<path id="XMLID_476_" class="st12" d="M1029.7,123.2c0.2-0.1,0.3-0.2,0.5-0.3c0.2-0.1,0.4-0.2,0.6-0.3c0.2-0.1,0.4-0.1,0.6,0
					c0.2,0,0.3,0.1,0.5,0.3c1.5,9.1,2.2,13.6,3.7,22.7c-0.1,0.2-0.3,0.4-0.5,0.5c-0.2,0.1-0.4,0.2-0.6,0.2c-0.2,0-0.4,0-0.6-0.1
					c-0.2-0.1-0.3-0.2-0.4-0.3C1031.9,136.8,1031.2,132.2,1029.7,123.2z"/>
				<path id="XMLID_474_" class="st12" d="M1047.3,144.3c-4.2-5.2-6.4-7.8-11-12.8c-0.3-0.2-0.4-0.4-0.3-0.7
					c0.1-0.2,0.3-0.5,0.5-0.6c0.3-0.2,0.6-0.3,1-0.3c0.4,0,0.8,0.1,1.1,0.3c3.8,4.5,5.7,6.7,9.2,11.3c0.9-5.7,1.4-8.5,2.4-14.2
					c0.2-0.1,0.4-0.1,0.6-0.2c0.2-0.1,0.5-0.1,0.7-0.1c0.3,0,0.5,0,0.7,0.1c0.2,0.1,0.4,0.2,0.4,0.4c-0.1,0.8-0.2,1.7-0.4,2.9
					c-0.2,1.2-0.4,2.4-0.7,3.6c-0.2,1.2-0.5,2.4-0.7,3.6c-0.2,1.1-0.4,2-0.5,2.7c-0.1,0.4-0.2,0.9-0.3,1.6c-0.1,0.7-0.2,1.4-0.4,2.2
					c-0.1,0.8-0.3,1.6-0.4,2.5c-0.2,0.9-0.3,1.7-0.4,2.5c-0.1,0.8-0.3,1.5-0.4,2.2c-0.1,0.7-0.3,1.2-0.3,1.6c0,0.2-0.2,0.4-0.4,0.5
					c-0.3,0.1-0.5,0.2-0.9,0.2c-0.3,0-0.6,0-0.9-0.1c-0.3-0.1-0.5-0.3-0.5-0.5C1046.3,149.6,1046.6,147.9,1047.3,144.3z"/>
				<path id="XMLID_472_" class="st12" d="M1102.2,123.8c-0.1,0-0.3,0.2-0.6,0.6c-0.3,0.5-0.7,1.1-1.1,1.8c-0.5,0.8-1,1.6-1.5,2.6
					c-0.5,1-1.1,1.9-1.7,2.8c-0.6,0.9-1.2,1.8-1.8,2.6c-0.6,0.8-1.1,1.4-1.7,1.9c-0.5,0.5-1,0.7-1.5,0.7c-0.4,0-0.8-0.4-1.1-1
					c-0.3-0.5-0.9-1.1-1.4-1.9c-0.5-0.8-1.1-1.7-1.7-2.6c-0.6-0.9-1.2-1.9-1.9-2.9c-0.7-1-1.4-1.9-2.1-2.8c-0.7-0.9-1.4-1.6-2.1-2.3
					c-0.7-0.6-1.4-1.1-2-1.4c0,1.5,0.1,3,0.3,4.8c0.2,1.7,0.5,3.5,0.7,5.3c0.3,1.8,0.5,3.5,0.7,5.3c0.2,1.7-0.1,3.8,0.2,4.8
					c0,0.2,0.1,0.4,0,0.6c-0.1,0.2-0.3,0.3-0.6,0.4c-0.3,0.1-0.5,0.1-0.9,0c-0.3-0.1-0.6-0.2-0.9-0.5c-0.3-1.9-0.6-3.8-0.7-5.7
					c-0.1-1.9-0.3-3.9-0.4-5.8c-0.1-2-0.3-3.9-0.5-5.8c-0.2-1.9-0.6-3.8-1.1-5.7c0-0.4,0.1-0.6,0.3-0.7c0.2-0.1,0.5-0.1,0.9-0.1
					c1.4,0.3,2.6,0.7,3.6,1.4c1.1,0.7,2,1.5,2.9,2.4c0.8,0.9,1.6,1.9,2.3,2.9c0.7,1.1,1.3,2.1,2,3.2c0.6,1.1,1.3,2.1,1.9,3
					c0.6,1,1.3,1.8,2.1,2.5c0.1,0,0.2,0,0.3-0.1c0.1-0.1,0.3-0.2,0.4-0.5c0.2-0.3,0.5-0.7,0.8-1.3c0.4-0.6,0.9-1.4,1.5-2.4
					c0.6-1,1.4-2.3,2.4-3.8c1-1.5,2.2-3.4,3.6-5.6c0.1-0.1,0.2-0.2,0.5-0.2c0.2-0.1,0.5-0.1,0.8,0c0.3,0,0.5,0.1,0.8,0.3
					c0.2,0.1,0.4,0.4,0.4,0.7c0.1,1.7,0.2,3.6,0.2,5.5c0,1.9,0.1,3.9,0.1,5.9c0.1,2,0.1,4,0.3,6.1c0.1,2.1,0.3,4.1,0.6,6.1
					c-0.1,0.3-0.2,0.4-0.4,0.5c-0.2,0.1-0.4,0.1-0.7,0c-0.3-0.1-0.6-0.1-0.9-0.3c-0.3-0.1-0.6-0.3-0.8-0.5
					C1102.6,136.3,1102.5,132.1,1102.2,123.8z"/>
				<path id="XMLID_469_" class="st12" d="M1109.9,138c-0.2,0.1-0.6,0.1-1.1,0c-0.5-0.1-0.9-0.2-1.3-0.4c-0.4-0.2-0.7-0.4-0.8-0.6
					c-0.1-0.2,0.1-0.4,0.6-0.6c0.2-0.1,0.4-0.1,0.7-0.2c0.2,0,0.5,0,0.7,0c0.2,0,0.5-0.1,0.6-0.1c0.2-0.1,0.3-0.2,0.3-0.4
					c0.2-0.8,0.4-1.7,0.7-2.5c0.3-0.8,0.8-1.6,1.4-2.2c0.6-0.6,1.4-1,2.5-1.3c1-0.3,2.4-0.2,3.9,0.1c0.6,0.1,1.2,0.3,1.9,0.6
					c0.7,0.3,1.3,0.7,2,1.1c0.6,0.4,1.1,0.8,1.5,1.3c0.4,0.5,0.5,1.1,0.7,1.4c0.1,0.2,0,0.4-0.5,0.6c-0.5,0.2-1.1,0.4-2,0.6
					c-0.8,0.2-1.8,0.4-2.8,0.6c-1,0.2-2,0.4-3,0.5c-0.9,0.2-1.8,0.3-2.5,0.5c-0.7,0.1-1.2,0.2-1.4,0.3c0.1,0.7,0.1,1.5,0.2,2.3
					c0.1,0.8,0.2,1.6,0.5,2.3c0.3,0.7,0.6,1.3,1.1,1.8c0.5,0.5,1.1,0.8,1.9,1c1.2,0.2,2.3,0.3,3.2,0.2c0.9-0.1,1.7-0.4,2.4-0.8
					c0.7-0.4,1.2-0.8,1.7-1.3c0.5-0.5,0.8-1,1.1-1.5c0.3-0.5,0.5-0.9,0.6-1.2c0.1-0.3,0.2-0.5,0.3-0.6c0.3,0,0.7,0,1.1,0.2
					c0.4,0.2,0.6,0.5,0.5,0.9c-0.1,0.7-0.5,1.5-1.2,2.3c-0.7,0.8-1.5,1.5-2.5,2.1c-1,0.6-2.2,1-3.4,1.3c-1.3,0.3-2.6,0.1-3.9-0.2
					c-1.3-0.3-2.5-0.7-3.2-1.3c-0.7-0.6-1.3-1.4-1.7-2.2c-0.4-0.8-0.6-1.7-0.7-2.5C1110,139.4,1109.9,138.7,1109.9,138z M1122,133.8
					c-0.8-1-1.6-1.6-2.5-2c-0.9-0.4-1.9-0.6-2.9-0.7c-0.6,0-1.2,0.1-1.7,0.3c-0.5,0.2-0.9,0.6-1.3,1c-0.4,0.4-0.6,0.9-0.8,1.5
					c-0.2,0.6-0.3,1.2-0.3,1.8C1116.2,134.9,1118.1,134.5,1122,133.8z"/>
				<path id="XMLID_467_" class="st12" d="M1129.9,132.2c0.1-0.2,0.2-0.3,0.4-0.4c0.2-0.1,0.5-0.1,0.7-0.1c0.3,0,0.5,0.1,0.8,0.2
					c0.2,0.1,0.4,0.3,0.6,0.4c-1,4.3-1.5,6.5-2.5,10.9c0.8-1.2,1.6-2.4,2.3-3.6c0.7-1.2,1.5-2.2,2.4-3.1c0.9-0.9,1.9-1.6,3.1-2
					c1.2-0.4,2.6-0.5,4.3-0.2c0.9,0.2,1.6,0.5,2.2,1.1c0.6,0.6,1,1.2,1.3,2c0.3,0.8,0.5,1.7,0.5,2.6c0.1,1,0,2,0,3
					c-0.1,1-0.2,2-0.4,3c-0.2,1-0.4,1.9-0.6,2.7c-0.2,0.8-0.4,1.6-0.6,2.2c-0.2,0.6-0.3,1.1-0.4,1.4c-0.3,0.3-0.7,0.4-1.2,0.3
					c-0.5,0-0.9-0.3-1.2-0.7c0.1-0.3,0.2-0.9,0.4-1.8c0.2-0.8,0.5-1.8,0.7-2.9c0.3-1.1,0.5-2.2,0.7-3.4c0.2-1.2,0.3-2.4,0.3-3.4
					c0-1.1-0.2-2-0.6-2.8c-0.3-0.8-0.9-1.4-1.7-1.7c-0.7-0.3-1.5-0.2-2.3,0.2c-0.8,0.4-1.6,1-2.5,1.8c-0.8,0.8-1.6,1.7-2.4,2.7
					c-0.8,1-1.5,2.1-2.2,3.1c-0.7,1-1.2,2-1.7,2.9c-0.5,0.9-0.8,1.7-1,2.1c-0.1,0.1-0.3,0.2-0.6,0.2c-0.3,0-0.5,0-0.8,0
					c-0.3-0.1-0.6-0.1-0.8-0.3c-0.3-0.1-0.5-0.3-0.5-0.5C1127.9,141.7,1128.6,138.6,1129.9,132.2z"/>
				<path id="XMLID_465_" class="st12" d="M1162.4,141.3c0-0.1,0.2-0.2,0.4-0.3c0.2-0.1,0.4-0.1,0.7-0.1c0.3,0,0.5,0.1,0.8,0.3
					c0.3,0.2,0.5,0.5,0.7,1c-0.6,1.3-1.2,2.6-1.8,3.9c-0.6,1.3-1.2,2.6-1.6,3.9c-0.4,1.3-0.8,2.7-1,4c-0.2,1.4-0.2,2.8,0,4.2
					c0,0.1-0.1,0.2-0.3,0.3c-0.2,0-0.4,0-0.7,0c-0.3-0.1-0.5-0.1-0.8-0.2c-0.3-0.1-0.4-0.3-0.5-0.5c0.1-2,0.1-2.9,0.1-4.9
					c-0.2,0.2-0.6,0.4-1.2,0.7c-0.6,0.3-1.4,0.5-2.2,0.8c-0.8,0.2-1.6,0.4-2.4,0.5c-0.8,0.1-1.5,0.1-2,0c-1.3-0.3-2.2-0.9-2.7-1.8
					s-0.8-1.9-0.8-3s0.1-2.4,0.4-3.7c0.3-1.3,0.7-2.6,1.1-3.8c0.4-1.2,0.8-2.3,1.2-3.2c0.4-1,0.6-1.7,0.6-2.2
					c0.1-0.1,0.3-0.2,0.5-0.2c0.2,0,0.5,0,0.7,0.1c0.3,0.1,0.5,0.2,0.7,0.3c0.2,0.1,0.4,0.3,0.4,0.5c0,0.5-0.3,1.4-0.6,2.3
					c-0.3,0.9-0.6,1.9-1,2.9c-0.3,1-0.6,2-0.9,3.1c-0.3,1-0.5,2-0.5,2.9c-0.1,0.9-0.1,1.7,0.1,2.3c0.2,0.7,0.6,1.2,1.1,1.4
					c0.4,0.2,0.9,0.2,1.5,0.1c0.5,0,1.1-0.2,1.6-0.3c0.6-0.2,1.1-0.4,1.6-0.6c0.5-0.2,1-0.5,1.4-0.8c0.4-0.3,0.8-0.5,1.1-0.7
					c0.3-0.2,0.5-0.4,0.6-0.6c0.1-0.2,0.3-0.5,0.5-1c0.2-0.4,0.4-1,0.7-1.5s0.5-1.2,0.8-1.8c0.3-0.7,0.5-1.3,0.8-1.8
					c0.2-0.6,0.5-1.1,0.6-1.6C1162.2,141.8,1162.3,141.4,1162.4,141.3z"/>
			</g>
		</g>
		<rect id="XMLID_384_" x="999.4" y="187.8" class="st13" width="148.4" height="6.3"/>
		<rect id="XMLID_391_" x="999.4" y="212.2" class="st13" width="148.4" height="6.3"/>
		<rect id="XMLID_432_" x="999.4" y="235.6" class="st13" width="148.4" height="6.3"/>
		<rect id="XMLID_436_" x="999.4" y="257.7" class="st13" width="148.4" height="6.3"/>
		<rect id="XMLID_435_" x="999.4" y="282.1" class="st13" width="148.4" height="6.3"/>
		<rect id="XMLID_434_" x="999.4" y="305.5" class="st13" width="148.4" height="6.3"/>
		<rect id="XMLID_439_" x="999.4" y="328.9" class="st13" width="148.4" height="6.3"/>
		<rect id="XMLID_438_" x="999.4" y="353.3" class="st13" width="148.4" height="6.3"/>
		<rect id="XMLID_437_" x="999.4" y="376.7" class="st13" width="148.4" height="6.3"/>
	</g>
	<path id="XMLID_84_" class="st14" d="M646.5,748.3c0,0,50.5-121.4,2.5-205.3C649,543,606.5,668.3,646.5,748.3z"/>
	<rect id="XMLID_62_" x="740.1" y="329" class="st15" width="265.9" height="18.5"/>
	<rect id="XMLID_77_" x="740.1" y="347.5" class="st16" width="265.9" height="63.3"/>
	<rect id="XMLID_79_" x="740.1" y="410" class="st17" width="265.9" height="70"/>
	<rect id="XMLID_37_" x="733" y="595" class="st18" width="667" height="244.7"/>
	<rect id="XMLID_38_" x="733" y="595" class="st19" width="667" height="43"/>
	<rect id="XMLID_40_" x="733" y="589" class="st20" width="667" height="6"/>
	<rect id="XMLID_39_" x="733" y="823.8" class="st19" width="667" height="15.8"/>
	<rect id="XMLID_41_" x="733" y="329" class="st21" width="7.1" height="260"/>
	<rect id="XMLID_68_" x="1006" y="329" class="st21" width="7.1" height="260"/>
	<rect id="XMLID_42_" x="747" y="655.2" class="st22" width="73" height="25.5"/>
	<rect id="XMLID_121_" x="792.8" y="689.5" class="st23" width="73" height="25.5"/>
	<rect id="XMLID_122_" x="916.3" y="743.5" class="st23" width="73" height="25.5"/>
	<rect id="XMLID_125_" x="1136.5" y="663.9" class="st23" width="73" height="25.5"/>
	<rect id="XMLID_128_" x="1073.6" y="781.2" class="st23" width="73" height="25.5"/>
	<rect id="XMLID_133_" x="1313.5" y="752.3" class="st23" width="73" height="25.5"/>
	<rect id="XMLID_44_" x="829.3" y="782.5" class="st22" width="73" height="25.5"/>
	<rect id="XMLID_49_" x="920.5" y="676.7" class="st22" width="73" height="25.5"/>
	<rect id="XMLID_136_" x="1030" y="710.2" class="st24" width="73" height="25.5"/>
	<rect id="XMLID_137_" x="1299" y="676.7" class="st24" width="73" height="25.5"/>
	<rect id="XMLID_54_" x="1183.5" y="782.5" class="st22" width="73" height="25.5"/>
	<rect id="XMLID_59_" x="1209.5" y="717.3" class="st22" width="73" height="25.5"/>
	<rect id="XMLID_43_" x="740.1" y="579.3" class="st25" width="265.9" height="9.7"/>
	<rect id="XMLID_64_" x="743.8" y="495.4" class="st21" width="258.5" height="7.9"/>
	<rect id="XMLID_65_" x="743.8" y="406.8" class="st21" width="258.5" height="7.9"/>
	<rect id="XMLID_63_" x="740.1" y="574.5" class="st26" width="265.9" height="4.8"/>
	<polygon id="XMLID_82_" class="st27" points="605,748.3 605,839.7 687.7,748.3 	"/>
	<polygon id="XMLID_83_" class="st18" points="605,839.7 687.7,839.7 687.7,748.3 	"/>
	<path id="XMLID_80_" class="st28" d="M646.3,748.3c0,0,3.7-79.3-68.3-110.3C578,638,583.7,704.7,646.3,748.3z"/>
	<path id="XMLID_81_" class="st29" d="M646.5,748.3c0,0,81.1-77.3,72.5-159.3C719,589,642.8,672,646.5,748.3z"/>
	<g id="XMLID_74_">
		<circle id="XMLID_85_" class="st12" cx="846.1" cy="185" r="19.7"/>
		<rect id="XMLID_88_" x="846.1" class="st30" width="4.6" height="107"/>
		<path id="XMLID_97_" class="st30" d="M880.7,156.4v-17.1c0-17.8-14.4-32.3-32.3-32.3h0c-17.8,0-32.3,14.4-32.3,32.3v17.6
			C830.2,149.8,853.5,143.3,880.7,156.4z"/>
		<path id="XMLID_100_" class="st31" d="M816.1,156.9V185h64.5v-28.6C853.5,143.3,830.2,149.8,816.1,156.9z"/>
		<linearGradient id="XMLID_631_" gradientUnits="userSpaceOnUse" x1="848.3333" y1="399" x2="848.3333" y2="185">
			<stop  offset="0" style="stop-color:#000000;stop-opacity:0"/>
			<stop  offset="1" style="stop-color:#FFFFFF"/>
		</linearGradient>
		<polygon id="XMLID_105_" class="st32" points="879.9,185 848.3,185 816.8,185 749.3,399 848.3,399 947.3,399 		"/>
	</g>
	<g id="XMLID_185_">
		<g id="XMLID_182_">
			<path id="XMLID_184_" class="st33" d="M784.7,574.8h-19.3c-1.1,0-2-0.9-2-2l0.1-26c0,0-0.2-0.1-0.4-0.3
				c-8.2-5.2-7.3-19.2,1.4-23.1c4.3-1.9,10.7-3.5,20.3-3.5L784.7,574.8z"/>
			<path id="XMLID_183_" class="st33" d="M784.7,574.8h19.1c1.1,0,2-0.9,2-2l0.1-26c0,0,0.2-0.1,0.4-0.3c8.2-5.2,7.2-19.2-1.5-23.1
				c-4.3-1.9-10.7-3.5-20.3-3.5L784.7,574.8z"/>
		</g>
		<g id="XMLID_172_">
			<path id="XMLID_175_" class="st34" d="M784.7,571.8h-16.4c-1.1,0-2-0.9-2-2v-24.5c0,0-0.1-0.1-0.4-0.2c-7.1-4.5-6.3-16,1.3-19.4
				c3.7-1.7,9.3-3,17.6-3V571.8z"/>
			<path id="XMLID_180_" class="st35" d="M784.6,571.8H801c1.1,0,2-0.9,2-2v-24.5c0,0,0.1-0.1,0.4-0.2c7.1-4.5,6.3-16-1.3-19.4
				c-3.7-1.7-9.3-3-17.6-3V571.8z"/>
		</g>
		<path id="XMLID_181_" class="st36" d="M784.7,574.8h-19.3c-1.1,0-2-0.9-2-2l0.1-26c0,0-0.2-0.1-0.4-0.3
			c-8.2-5.2-7.3-19.2,1.4-23.1c4.3-1.9,10.7-3.5,20.3-3.5L784.7,574.8z"/>
	</g>
	<g id="XMLID_140_">
		<g id="XMLID_151_">
			<path id="XMLID_153_" class="st33" d="M843.6,574.6h-19.3c-1.1,0-2-0.9-2-2l0.1-26c0,0-0.2-0.1-0.4-0.3
				c-8.2-5.2-7.3-19.2,1.4-23.1c4.3-1.9,10.7-3.5,20.3-3.5L843.6,574.6z"/>
			<path id="XMLID_152_" class="st33" d="M843.6,574.6h19.1c1.1,0,2-0.9,2-2l0.1-26c0,0,0.2-0.1,0.4-0.3c8.2-5.2,7.2-19.2-1.5-23.1
				c-4.3-1.9-10.7-3.5-20.3-3.5L843.6,574.6z"/>
		</g>
		<g id="XMLID_142_">
			<path id="XMLID_145_" class="st34" d="M843.5,571.6h-16.4c-1.1,0-2-0.9-2-2v-24.5c0,0-0.1-0.1-0.4-0.2c-7.1-4.5-6.3-16,1.3-19.4
				c3.7-1.7,9.3-3,17.6-3V571.6z"/>
			<path id="XMLID_143_" class="st35" d="M843.4,571.6h16.4c1.1,0,2-0.9,2-2v-24.5c0,0,0.1-0.1,0.4-0.2c7.1-4.5,6.3-16-1.3-19.4
				c-3.7-1.7-9.3-3-17.6-3V571.6z"/>
		</g>
		<path id="XMLID_141_" class="st36" d="M843.6,574.6h-19.3c-1.1,0-2-0.9-2-2l0.1-26c0,0-0.2-0.1-0.4-0.3
			c-8.2-5.2-7.3-19.2,1.4-23.1c4.3-1.9,10.7-3.5,20.3-3.5L843.6,574.6z"/>
	</g>
	<g id="XMLID_162_">
		<g id="XMLID_167_">
			<path id="XMLID_169_" class="st33" d="M902.4,574.6h-19.3c-1.1,0-2-0.9-2-2l0.1-26c0,0-0.2-0.1-0.4-0.3
				c-8.2-5.2-7.3-19.2,1.4-23.1c4.3-1.9,10.7-3.5,20.3-3.5L902.4,574.6z"/>
			<path id="XMLID_168_" class="st33" d="M902.4,574.6h19.1c1.1,0,2-0.9,2-2l0.1-26c0,0,0.2-0.1,0.4-0.3c8.2-5.2,7.2-19.2-1.5-23.1
				c-4.3-1.9-10.7-3.5-20.3-3.5L902.4,574.6z"/>
		</g>
		<g id="XMLID_164_">
			<path id="XMLID_166_" class="st34" d="M902.4,571.5h-16.4c-1.1,0-2-0.9-2-2V545c0,0-0.1-0.1-0.4-0.2c-7.1-4.5-6.3-16,1.3-19.4
				c3.7-1.7,9.3-3,17.6-3V571.5z"/>
			<path id="XMLID_165_" class="st35" d="M902.3,571.5h16.4c1.1,0,2-0.9,2-2V545c0,0,0.1-0.1,0.4-0.2c7.1-4.5,6.3-16-1.3-19.4
				c-3.7-1.7-9.3-3-17.6-3V571.5z"/>
		</g>
		<path id="XMLID_163_" class="st36" d="M902.4,574.6h-19.3c-1.1,0-2-0.9-2-2l0.1-26c0,0-0.2-0.1-0.4-0.3
			c-8.2-5.2-7.3-19.2,1.4-23.1c4.3-1.9,10.7-3.5,20.3-3.5L902.4,574.6z"/>
	</g>
	<g id="XMLID_154_">
		<g id="XMLID_159_">
			<path id="XMLID_161_" class="st33" d="M961.4,574.8h-19.3c-1.1,0-2-0.9-2-2l0.1-26c0,0-0.2-0.1-0.4-0.3
				c-8.2-5.2-7.3-19.2,1.4-23.1c4.3-1.9,10.7-3.5,20.3-3.5L961.4,574.8z"/>
			<path id="XMLID_160_" class="st33" d="M961.4,574.8h19.1c1.1,0,2-0.9,2-2l0.1-26c0,0,0.2-0.1,0.4-0.3c8.2-5.2,7.2-19.2-1.5-23.1
				c-4.3-1.9-10.7-3.5-20.3-3.5L961.4,574.8z"/>
		</g>
		<g id="XMLID_156_">
			<path id="XMLID_158_" class="st34" d="M961.3,571.8h-16.4c-1.1,0-2-0.9-2-2v-24.5c0,0-0.1-0.1-0.4-0.2c-7.1-4.5-6.3-16,1.3-19.4
				c3.7-1.7,9.3-3,17.6-3V571.8z"/>
			<path id="XMLID_157_" class="st35" d="M961.2,571.8h16.4c1.1,0,2-0.9,2-2v-24.5c0,0,0.1-0.1,0.4-0.2c7.1-4.5,6.3-16-1.3-19.4
				c-3.7-1.7-9.3-3-17.6-3V571.8z"/>
		</g>
		<path id="XMLID_155_" class="st36" d="M961.4,574.8h-19.3c-1.1,0-2-0.9-2-2l0.1-26c0,0-0.2-0.1-0.4-0.3
			c-8.2-5.2-7.3-19.2,1.4-23.1c4.3-1.9,10.7-3.5,20.3-3.5L961.4,574.8z"/>
	</g>
	<g id="XMLID_379_">
		<path id="XMLID_478_" class="st37" d="M759.1,464.8l-10.6,17.1c-3.7,5.9,0.6,13.5,7.5,13.5h21.4c7,0,11.2-7.7,7.5-13.6l-10.8-17.1
			C770.6,459.3,762.6,459.3,759.1,464.8z"/>
		<rect id="XMLID_479_" x="759.3" y="480.9" class="st38" width="14.9" height="14.4"/>
		<path id="XMLID_480_" class="st39" d="M772.9,470.5c0,0,2.9-0.1,0.5,0.8C773.4,471.3,775.2,470.5,772.9,470.5z"/>
		<path id="XMLID_503_" class="st39" d="M778.3,475.9c0,0,2.4-1.7,0.9,0.5C779.1,476.4,780.3,474.7,778.3,475.9z"/>
		<path id="XMLID_481_" class="st39" d="M753.7,483.7c0,0-2.9-1.7,0-1.1C753.8,482.7,751.5,482.3,753.7,483.7z"/>
		<path id="XMLID_494_" class="st39" d="M757.4,475.3c0,0-2.9-1.7,0-1.1C757.5,474.2,755.3,473.8,757.4,475.3z"/>
		<path id="XMLID_490_" class="st39" d="M755.4,494.3c0,0-2.6,2.1-1-0.4C754.4,493.9,753.3,495.9,755.4,494.3z"/>
		<path id="XMLID_483_" class="st39" d="M765.6,462.6c0,0-1.4-3,0.6-0.8C766.2,461.7,764.6,460.1,765.6,462.6z"/>
		<path id="XMLID_485_" class="st39" d="M757.7,469.9c0,0-1.4-3,0.6-0.8C758.3,469.1,756.7,467.5,757.7,469.9z"/>
		<path id="XMLID_482_" class="st39" d="M764.6,472.8c0,0-0.3,3.3-1,0.4C763.6,473.2,764.2,475.4,764.6,472.8z"/>
		<path id="XMLID_486_" class="st39" d="M762.4,479c0,0-1.8,1.4-0.7-0.3C761.8,478.7,761,480,762.4,479z"/>
		<path id="XMLID_491_" class="st39" d="M749.9,489.4c0,0-1.8,1.4-0.7-0.3C749.2,489.1,748.4,490.4,749.9,489.4z"/>
		<path id="XMLID_489_" class="st39" d="M768.1,478.7c0,0,0.4,1.6-0.4,0.3C767.7,479.1,768.3,480,768.1,478.7z"/>
		<path id="XMLID_492_" class="st39" d="M757.4,491.3c0,0,0.4,1.6-0.4,0.3C757,491.7,757.6,492.6,757.4,491.3z"/>
		<path id="XMLID_496_" class="st39" d="M757.1,480.9c0,0,0.4,1.6-0.4,0.3C756.8,481.2,757.4,482.1,757.1,480.9z"/>
		<path id="XMLID_487_" class="st39" d="M766.7,467.8c0,0,1-2,0.7,0C767.5,467.8,767.6,466.3,766.7,467.8z"/>
		<path id="XMLID_488_" class="st39" d="M769.5,475.6c0,0,1-2,0.7,0C770.2,475.5,770.4,474,769.5,475.6z"/>
		<path id="XMLID_493_" class="st39" d="M753.9,488.7c0,0,1-2,0.7,0C754.6,488.6,754.7,487.1,753.9,488.7z"/>
		<path id="XMLID_502_" class="st39" d="M780.7,483c0,0,2.9-1.7,0-1.1C780.6,482,782.8,481.6,780.7,483z"/>
		<path id="XMLID_501_" class="st39" d="M779,493.6c0,0,2.6,2.1,1-0.4C780,493.2,781.1,495.2,779,493.6z"/>
		<path id="XMLID_500_" class="st39" d="M784.5,488.7c0,0,1.8,1.4,0.7-0.3C785.1,488.4,785.9,489.7,784.5,488.7z"/>
		<path id="XMLID_499_" class="st39" d="M777,490.6c0,0-0.4,1.6,0.4,0.3C777.4,491,776.8,491.9,777,490.6z"/>
		<path id="XMLID_498_" class="st39" d="M777.2,480.2c0,0-0.4,1.6,0.4,0.3C777.6,480.6,777,481.4,777.2,480.2z"/>
		<path id="XMLID_497_" class="st39" d="M780.5,488c0,0-1-2-0.7,0C779.8,488,779.6,486.5,780.5,488z"/>
		<path id="XMLID_495_" class="st39" d="M752.9,477.5c0,0-0.9-2.1,0.4-0.6C753.3,476.9,752.3,475.8,752.9,477.5z"/>
		<path id="XMLID_484_" class="st39" d="M773.4,478.4c0,0,2.4,2.3-0.3,1C773.1,479.4,775.2,480.3,773.4,478.4z"/>
	</g>
	<g id="XMLID_170_">
		<path id="XMLID_204_" class="st37" d="M812.2,464.3l-10.6,17.1c-3.7,5.9,0.6,13.5,7.5,13.5h21.4c7,0,11.2-7.7,7.5-13.6l-10.8-17.1
			C823.7,458.7,815.6,458.7,812.2,464.3z"/>
		<rect id="XMLID_203_" x="812.4" y="480.3" class="st38" width="14.9" height="14.4"/>
		<path id="XMLID_202_" class="st39" d="M826,469.9c0,0,2.9-0.1,0.5,0.8C826.5,470.7,828.3,469.9,826,469.9z"/>
		<path id="XMLID_201_" class="st39" d="M831.3,475.3c0,0,2.4-1.7,0.9,0.5C832.2,475.8,833.3,474.1,831.3,475.3z"/>
		<path id="XMLID_200_" class="st39" d="M806.8,483.2c0,0-2.9-1.7,0-1.1C806.8,482.1,804.6,481.7,806.8,483.2z"/>
		<path id="XMLID_199_" class="st39" d="M810.5,474.7c0,0-2.9-1.7,0-1.1C810.5,473.7,808.3,473.2,810.5,474.7z"/>
		<path id="XMLID_198_" class="st39" d="M808.4,493.7c0,0-2.6,2.1-1-0.4C807.5,493.4,806.4,495.3,808.4,493.7z"/>
		<path id="XMLID_197_" class="st39" d="M818.7,462c0,0-1.4-3,0.6-0.8C819.3,461.2,817.7,459.6,818.7,462z"/>
		<path id="XMLID_196_" class="st39" d="M810.8,469.4c0,0-1.4-3,0.6-0.8C811.4,468.5,809.8,467,810.8,469.4z"/>
		<path id="XMLID_195_" class="st39" d="M817.6,472.2c0,0-0.3,3.3-1,0.4C816.7,472.6,817.3,474.8,817.6,472.2z"/>
		<path id="XMLID_194_" class="st39" d="M815.5,478.5c0,0-1.8,1.4-0.7-0.3C814.8,478.2,814,479.5,815.5,478.5z"/>
		<path id="XMLID_193_" class="st39" d="M802.9,488.8c0,0-1.8,1.4-0.7-0.3C802.3,488.5,801.5,489.8,802.9,488.8z"/>
		<path id="XMLID_192_" class="st39" d="M821.1,478.2c0,0,0.4,1.6-0.4,0.3C820.8,478.5,821.4,479.4,821.1,478.2z"/>
		<path id="XMLID_191_" class="st39" d="M810.4,490.8c0,0,0.4,1.6-0.4,0.3C810.1,491.1,810.7,492,810.4,490.8z"/>
		<path id="XMLID_190_" class="st39" d="M810.2,480.3c0,0,0.4,1.6-0.4,0.3C809.8,480.7,810.4,481.6,810.2,480.3z"/>
		<path id="XMLID_189_" class="st39" d="M819.8,467.3c0,0,1-2,0.7,0C820.5,467.2,820.6,465.7,819.8,467.3z"/>
		<path id="XMLID_188_" class="st39" d="M822.6,475c0,0,1-2,0.7,0C823.3,475,823.4,473.5,822.6,475z"/>
		<path id="XMLID_187_" class="st39" d="M806.9,488.1c0,0,1-2,0.7,0C807.7,488.1,807.8,486.6,806.9,488.1z"/>
		<path id="XMLID_186_" class="st39" d="M833.7,482.5c0,0,2.9-1.7,0-1.1C833.7,481.4,835.9,481,833.7,482.5z"/>
		<path id="XMLID_179_" class="st39" d="M832,493c0,0,2.6,2.1,1-0.4C833,492.7,834.1,494.6,832,493z"/>
		<path id="XMLID_178_" class="st39" d="M837.5,488.1c0,0,1.8,1.4,0.7-0.3C838.2,487.8,839,489.1,837.5,488.1z"/>
		<path id="XMLID_177_" class="st39" d="M830.1,490.1c0,0-0.4,1.6,0.4,0.3C830.4,490.4,829.8,491.3,830.1,490.1z"/>
		<path id="XMLID_176_" class="st39" d="M830.3,479.7c0,0-0.4,1.6,0.4,0.3C830.7,480,830,480.9,830.3,479.7z"/>
		<path id="XMLID_174_" class="st39" d="M833.5,487.4c0,0-1-2-0.7,0C832.8,487.4,832.7,485.9,833.5,487.4z"/>
		<path id="XMLID_173_" class="st39" d="M806,476.9c0,0-0.9-2.1,0.4-0.6C806.4,476.4,805.3,475.3,806,476.9z"/>
		<path id="XMLID_171_" class="st39" d="M826.5,477.9c0,0,2.4,2.3-0.3,1C826.2,478.9,828.2,479.8,826.5,477.9z"/>
	</g>
	<g id="XMLID_232_">
		<path id="XMLID_258_" class="st37" d="M864.6,464.1L854,481.2c-3.7,5.9,0.6,13.5,7.5,13.5H883c7,0,11.2-7.7,7.5-13.6L879.6,464
			C876.1,458.5,868.1,458.6,864.6,464.1z"/>
		<rect id="XMLID_257_" x="864.8" y="480.2" class="st38" width="14.9" height="14.4"/>
		<path id="XMLID_256_" class="st39" d="M878.4,469.7c0,0,2.9-0.1,0.5,0.8C878.9,470.6,880.7,469.8,878.4,469.7z"/>
		<path id="XMLID_255_" class="st39" d="M883.8,475.2c0,0,2.4-1.7,0.9,0.5C884.6,475.6,885.7,474,883.8,475.2z"/>
		<path id="XMLID_254_" class="st39" d="M859.2,483c0,0-2.9-1.7,0-1.1C859.2,481.9,857,481.5,859.2,483z"/>
		<path id="XMLID_253_" class="st39" d="M862.9,474.5c0,0-2.9-1.7,0-1.1C863,473.5,860.7,473.1,862.9,474.5z"/>
		<path id="XMLID_252_" class="st39" d="M860.9,493.6c0,0-2.6,2.1-1-0.4C859.9,493.2,858.8,495.1,860.9,493.6z"/>
		<path id="XMLID_251_" class="st39" d="M871.1,461.8c0,0-1.4-3,0.6-0.8C871.7,461,870.1,459.4,871.1,461.8z"/>
		<path id="XMLID_250_" class="st39" d="M863.2,469.2c0,0-1.4-3,0.6-0.8C863.8,468.4,862.2,466.8,863.2,469.2z"/>
		<path id="XMLID_249_" class="st39" d="M870.1,472c0,0-0.3,3.3-1,0.4C869.1,472.5,869.7,474.6,870.1,472z"/>
		<path id="XMLID_248_" class="st39" d="M867.9,478.3c0,0-1.8,1.4-0.7-0.3C867.3,478,866.5,479.3,867.9,478.3z"/>
		<path id="XMLID_247_" class="st39" d="M855.4,488.6c0,0-1.8,1.4-0.7-0.3C854.7,488.4,853.9,489.6,855.4,488.6z"/>
		<path id="XMLID_246_" class="st39" d="M873.6,478c0,0,0.4,1.6-0.4,0.3C873.2,478.3,873.8,479.2,873.6,478z"/>
		<path id="XMLID_245_" class="st39" d="M862.9,490.6c0,0,0.4,1.6-0.4,0.3C862.5,490.9,863.1,491.8,862.9,490.6z"/>
		<path id="XMLID_244_" class="st39" d="M862.6,480.2c0,0,0.4,1.6-0.4,0.3C862.3,480.5,862.9,481.4,862.6,480.2z"/>
		<path id="XMLID_243_" class="st39" d="M872.2,467.1c0,0,1-2,0.7,0C872.9,467,873.1,465.5,872.2,467.1z"/>
		<path id="XMLID_242_" class="st39" d="M875,474.8c0,0,1-2,0.7,0C875.7,474.8,875.9,473.3,875,474.8z"/>
		<path id="XMLID_241_" class="st39" d="M859.4,488c0,0,1-2,0.7,0C860.1,487.9,860.2,486.4,859.4,488z"/>
		<path id="XMLID_240_" class="st39" d="M886.2,482.3c0,0,2.9-1.7,0-1.1C886.1,481.2,888.3,480.8,886.2,482.3z"/>
		<path id="XMLID_239_" class="st39" d="M884.5,492.9c0,0,2.6,2.1,1-0.4C885.5,492.5,886.6,494.4,884.5,492.9z"/>
		<path id="XMLID_238_" class="st39" d="M890,487.9c0,0,1.8,1.4,0.7-0.3C890.6,487.7,891.4,489,890,487.9z"/>
		<path id="XMLID_237_" class="st39" d="M882.5,489.9c0,0-0.4,1.6,0.4,0.3C882.9,490.3,882.3,491.1,882.5,489.9z"/>
		<path id="XMLID_236_" class="st39" d="M882.7,479.5c0,0-0.4,1.6,0.4,0.3C883.1,479.8,882.5,480.7,882.7,479.5z"/>
		<path id="XMLID_235_" class="st39" d="M886,487.3c0,0-1-2-0.7,0C885.3,487.2,885.1,485.7,886,487.3z"/>
		<path id="XMLID_234_" class="st39" d="M858.4,476.7c0,0-0.9-2.1,0.4-0.6C858.8,476.2,857.8,475.1,858.4,476.7z"/>
		<path id="XMLID_233_" class="st39" d="M878.9,477.7c0,0,2.4,2.3-0.3,1C878.6,478.7,880.7,479.6,878.9,477.7z"/>
	</g>
	<g id="XMLID_205_">
		<path id="XMLID_231_" class="st37" d="M917.7,463.5l-10.6,17.1c-3.7,5.9,0.6,13.5,7.5,13.5H936c7,0,11.2-7.7,7.5-13.6l-10.8-17.1
			C929.2,458,921.1,458,917.7,463.5z"/>
		<rect id="XMLID_230_" x="917.9" y="479.6" class="st38" width="14.9" height="14.4"/>
		<path id="XMLID_229_" class="st39" d="M931.5,469.2c0,0,2.9-0.1,0.5,0.8C932,470,933.8,469.2,931.5,469.2z"/>
		<path id="XMLID_228_" class="st39" d="M936.8,474.6c0,0,2.4-1.7,0.9,0.5C937.7,475.1,938.8,473.4,936.8,474.6z"/>
		<path id="XMLID_227_" class="st39" d="M912.3,482.4c0,0-2.9-1.7,0-1.1C912.3,481.4,910.1,481,912.3,482.4z"/>
		<path id="XMLID_226_" class="st39" d="M916,474c0,0-2.9-1.7,0-1.1C916,472.9,913.8,472.5,916,474z"/>
		<path id="XMLID_225_" class="st39" d="M913.9,493c0,0-2.6,2.1-1-0.4C913,492.6,911.8,494.6,913.9,493z"/>
		<path id="XMLID_224_" class="st39" d="M924.2,461.3c0,0-1.4-3,0.6-0.8C924.8,460.4,923.2,458.9,924.2,461.3z"/>
		<path id="XMLID_223_" class="st39" d="M916.2,468.7c0,0-1.4-3,0.6-0.8C916.9,467.8,915.3,466.2,916.2,468.7z"/>
		<path id="XMLID_222_" class="st39" d="M923.1,471.5c0,0-0.3,3.3-1,0.4C922.2,471.9,922.8,474.1,923.1,471.5z"/>
		<path id="XMLID_221_" class="st39" d="M921,477.7c0,0-1.8,1.4-0.7-0.3C920.3,477.4,919.5,478.7,921,477.7z"/>
		<path id="XMLID_220_" class="st39" d="M908.4,488.1c0,0-1.8,1.4-0.7-0.3C907.8,487.8,907,489.1,908.4,488.1z"/>
		<path id="XMLID_219_" class="st39" d="M926.6,477.4c0,0,0.4,1.6-0.4,0.3C926.3,477.8,926.9,478.7,926.6,477.4z"/>
		<path id="XMLID_218_" class="st39" d="M915.9,490c0,0,0.4,1.6-0.4,0.3C915.5,490.4,916.2,491.3,915.9,490z"/>
		<path id="XMLID_217_" class="st39" d="M915.7,479.6c0,0,0.4,1.6-0.4,0.3C915.3,480,915.9,480.8,915.7,479.6z"/>
		<path id="XMLID_216_" class="st39" d="M925.3,466.5c0,0,1-2,0.7,0C926,466.5,926.1,465,925.3,466.5z"/>
		<path id="XMLID_215_" class="st39" d="M928.1,474.3c0,0,1-2,0.7,0C928.8,474.2,928.9,472.7,928.1,474.3z"/>
		<path id="XMLID_214_" class="st39" d="M912.4,487.4c0,0,1-2,0.7,0C913.1,487.4,913.3,485.8,912.4,487.4z"/>
		<path id="XMLID_213_" class="st39" d="M939.2,481.7c0,0,2.9-1.7,0-1.1C939.2,480.7,941.4,480.3,939.2,481.7z"/>
		<path id="XMLID_212_" class="st39" d="M937.5,492.3c0,0,2.6,2.1,1-0.4C938.5,491.9,939.6,493.9,937.5,492.3z"/>
		<path id="XMLID_211_" class="st39" d="M943,487.4c0,0,1.8,1.4,0.7-0.3C943.7,487.1,944.5,488.4,943,487.4z"/>
		<path id="XMLID_210_" class="st39" d="M935.5,489.4c0,0-0.4,1.6,0.4,0.3C935.9,489.7,935.3,490.6,935.5,489.4z"/>
		<path id="XMLID_209_" class="st39" d="M935.8,478.9c0,0-0.4,1.6,0.4,0.3C936.2,479.3,935.5,480.1,935.8,478.9z"/>
		<path id="XMLID_208_" class="st39" d="M939,486.7c0,0-1-2-0.7,0C938.3,486.7,938.2,485.2,939,486.7z"/>
		<path id="XMLID_207_" class="st39" d="M911.4,476.2c0,0-0.9-2.1,0.4-0.6C911.9,475.6,910.8,474.5,911.4,476.2z"/>
		<path id="XMLID_206_" class="st39" d="M931.9,477.1c0,0,2.4,2.3-0.3,1C931.7,478.1,933.7,479,931.9,477.1z"/>
	</g>
	<g id="XMLID_259_">
		<path id="XMLID_285_" class="st37" d="M973.2,463.5l-10.6,17.1c-3.7,5.9,0.6,13.5,7.5,13.5h21.4c7,0,11.2-7.7,7.5-13.6l-10.8-17.1
			C984.7,458,976.6,458,973.2,463.5z"/>
		<rect id="XMLID_284_" x="973.4" y="479.6" class="st38" width="14.9" height="14.4"/>
		<path id="XMLID_283_" class="st39" d="M987,469.2c0,0,2.9-0.1,0.5,0.8C987.5,470,989.3,469.2,987,469.2z"/>
		<path id="XMLID_282_" class="st39" d="M992.3,474.6c0,0,2.4-1.7,0.9,0.5C993.2,475.1,994.3,473.4,992.3,474.6z"/>
		<path id="XMLID_281_" class="st39" d="M967.8,482.4c0,0-2.9-1.7,0-1.1C967.8,481.4,965.6,481,967.8,482.4z"/>
		<path id="XMLID_280_" class="st39" d="M971.5,474c0,0-2.9-1.7,0-1.1C971.5,472.9,969.3,472.5,971.5,474z"/>
		<path id="XMLID_279_" class="st39" d="M969.4,493c0,0-2.6,2.1-1-0.4C968.5,492.6,967.3,494.6,969.4,493z"/>
		<path id="XMLID_278_" class="st39" d="M979.7,461.3c0,0-1.4-3,0.6-0.8C980.3,460.4,978.7,458.9,979.7,461.3z"/>
		<path id="XMLID_277_" class="st39" d="M971.7,468.7c0,0-1.4-3,0.6-0.8C972.4,467.8,970.8,466.2,971.7,468.7z"/>
		<path id="XMLID_276_" class="st39" d="M978.6,471.5c0,0-0.3,3.3-1,0.4C977.7,471.9,978.3,474.1,978.6,471.5z"/>
		<path id="XMLID_275_" class="st39" d="M976.5,477.7c0,0-1.8,1.4-0.7-0.3C975.8,477.4,975,478.7,976.5,477.7z"/>
		<path id="XMLID_274_" class="st39" d="M963.9,488.1c0,0-1.8,1.4-0.7-0.3C963.3,487.8,962.5,489.1,963.9,488.1z"/>
		<path id="XMLID_273_" class="st39" d="M982.1,477.4c0,0,0.4,1.6-0.4,0.3C981.8,477.8,982.4,478.7,982.1,477.4z"/>
		<path id="XMLID_272_" class="st39" d="M971.4,490c0,0,0.4,1.6-0.4,0.3C971,490.4,971.7,491.3,971.4,490z"/>
		<path id="XMLID_271_" class="st39" d="M971.2,479.6c0,0,0.4,1.6-0.4,0.3C970.8,480,971.4,480.8,971.2,479.6z"/>
		<path id="XMLID_270_" class="st39" d="M980.8,466.5c0,0,1-2,0.7,0C981.5,466.5,981.6,465,980.8,466.5z"/>
		<path id="XMLID_269_" class="st39" d="M983.6,474.3c0,0,1-2,0.7,0C984.3,474.2,984.4,472.7,983.6,474.3z"/>
		<path id="XMLID_268_" class="st39" d="M967.9,487.4c0,0,1-2,0.7,0C968.7,487.4,968.8,485.8,967.9,487.4z"/>
		<path id="XMLID_267_" class="st39" d="M994.7,481.7c0,0,2.9-1.7,0-1.1C994.7,480.7,996.9,480.3,994.7,481.7z"/>
		<path id="XMLID_266_" class="st39" d="M993,492.3c0,0,2.6,2.1,1-0.4C994,491.9,995.1,493.9,993,492.3z"/>
		<path id="XMLID_265_" class="st39" d="M998.5,487.4c0,0,1.8,1.4,0.7-0.3C999.2,487.1,1000,488.4,998.5,487.4z"/>
		<path id="XMLID_264_" class="st39" d="M991.1,489.4c0,0-0.4,1.6,0.4,0.3C991.4,489.7,990.8,490.6,991.1,489.4z"/>
		<path id="XMLID_263_" class="st39" d="M991.3,478.9c0,0-0.4,1.6,0.4,0.3C991.7,479.3,991,480.1,991.3,478.9z"/>
		<path id="XMLID_262_" class="st39" d="M994.5,486.7c0,0-1-2-0.7,0C993.8,486.7,993.7,485.2,994.5,486.7z"/>
		<path id="XMLID_261_" class="st39" d="M966.9,476.2c0,0-0.9-2.1,0.4-0.6C967.4,475.6,966.3,474.5,966.9,476.2z"/>
		<path id="XMLID_260_" class="st39" d="M987.5,477.1c0,0,2.4,2.3-0.3,1C987.2,478.1,989.2,479,987.5,477.1z"/>
	</g>
	<g id="XMLID_321_">
		<path id="XMLID_296_" class="st40" d="M780.2,406.9h-7.5c-1.4,0-2.5-1.1-2.5-2.5l0,0h12.6l0,0
			C782.7,405.7,781.6,406.9,780.2,406.9z"/>
		<path id="XMLID_295_" class="st41" d="M748.5,375.9c0,0-0.1,29.2,27.9,29.2v-20.8L748.5,375.9z"/>
		<path id="XMLID_294_" class="st41" d="M804.3,375.9c0,0,0.1,29.2-27.9,29.2v-20.8L804.3,375.9z"/>
		<ellipse id="XMLID_293_" class="st42" cx="776.4" cy="375.9" rx="27.9" ry="10.6"/>
		<ellipse id="XMLID_292_" class="st43" cx="776.4" cy="375.3" rx="23.9" ry="9"/>
		<path id="XMLID_291_" class="st12" d="M753,377.2c0,0,1.2-1.8,2.6-2.3c0,0,1.7-2.7,4.7-3.1c0,0,1.8-2.5,6.9-2.2
			c0,0,4.6-2.2,7.9-1.5c0,0,5.7-1.7,8.7,1.2c0,0,4.6-0.5,6.5,1.8c0,0,2.4-0.3,4.8,2.9c0,0,3.4-0.5,4.9,2.8c0,0-2.3,7.1-23.6,7.6
			C776.4,384.3,758,384.5,753,377.2z"/>
		<path id="XMLID_290_" class="st39" d="M766.2,377.5c0,0-2.4-2.1,0.6-1.2C766.7,376.4,762.9,374.9,766.2,377.5z"/>
		<path id="XMLID_289_" class="st39" d="M772.1,370.8c0,0,2.4-2.2,1.1,0.7C773.2,371.5,775.1,367.8,772.1,370.8z"/>
		<path id="XMLID_288_" class="st39" d="M777.8,377c0,0-0.3-4.7,2.3-0.8C780.1,376.2,777.9,373.2,777.8,377z"/>
		<path id="XMLID_287_" class="st39" d="M790.3,375.7c0,0,3.6-3.2,2,1.3C792.3,377,793.3,373.4,790.3,375.7z"/>
		<path id="XMLID_286_" class="st39" d="M783.8,380.8c0,0,3.2-0.7,0.4,1.3C784.3,382.1,786.4,380.6,783.8,380.8z"/>
		<path id="XMLID_92_" class="st39" d="M774.9,381.4c0,0,1.2,1.8,1.5-0.2C776.4,381.2,776.4,384.1,774.9,381.4z"/>
	</g>
	<g id="XMLID_115_">
		<path id="XMLID_310_" class="st40" d="M847.6,406.9h-7.5c-1.4,0-2.5-1.1-2.5-2.5l0,0h12.6l0,0C850.1,405.7,849,406.9,847.6,406.9z
			"/>
		<path id="XMLID_309_" class="st41" d="M816,375.9c0,0-0.1,29.2,27.9,29.2v-20.8L816,375.9z"/>
		<path id="XMLID_308_" class="st41" d="M871.7,375.9c0,0,0.1,29.2-27.9,29.2v-20.8L871.7,375.9z"/>
		<ellipse id="XMLID_307_" class="st42" cx="843.8" cy="375.9" rx="27.9" ry="10.6"/>
		<ellipse id="XMLID_306_" class="st43" cx="843.8" cy="375.3" rx="23.9" ry="9"/>
		<path id="XMLID_304_" class="st12" d="M820.5,377.2c0,0,1.2-1.8,2.6-2.3c0,0,1.7-2.7,4.7-3.1c0,0,1.8-2.5,6.9-2.2
			c0,0,4.6-2.2,7.9-1.5c0,0,5.7-1.7,8.7,1.2c0,0,4.6-0.5,6.5,1.8c0,0,2.4-0.3,4.8,2.9c0,0,3.4-0.5,4.9,2.8c0,0-2.3,7.1-23.6,7.6
			C843.8,384.3,825.4,384.5,820.5,377.2z"/>
		<path id="XMLID_300_" class="st39" d="M833.6,377.5c0,0-2.4-2.1,0.6-1.2C834.2,376.4,830.3,374.9,833.6,377.5z"/>
		<path id="XMLID_299_" class="st39" d="M839.5,370.8c0,0,2.4-2.2,1.1,0.7C840.6,371.5,842.5,367.8,839.5,370.8z"/>
		<path id="XMLID_298_" class="st39" d="M845.3,377c0,0-0.3-4.7,2.3-0.8C847.6,376.2,845.4,373.2,845.3,377z"/>
		<path id="XMLID_297_" class="st39" d="M857.8,375.7c0,0,3.6-3.2,2,1.3C859.8,377,860.8,373.4,857.8,375.7z"/>
		<path id="XMLID_118_" class="st39" d="M851.3,380.8c0,0,3.2-0.7,0.4,1.3C851.7,382.1,853.8,380.6,851.3,380.8z"/>
		<path id="XMLID_117_" class="st39" d="M842.3,381.4c0,0,1.2,1.8,1.5-0.2C843.8,381.2,843.9,384.1,842.3,381.4z"/>
	</g>
	<g id="XMLID_325_">
		<path id="XMLID_337_" class="st40" d="M911.3,407.2h-7.5c-1.4,0-2.5-1.1-2.5-2.5l0,0h12.6l0,0
			C913.8,406.1,912.7,407.2,911.3,407.2z"/>
		<path id="XMLID_336_" class="st41" d="M879.7,376.2c0,0-0.1,29.2,27.9,29.2v-20.8L879.7,376.2z"/>
		<path id="XMLID_335_" class="st41" d="M935.4,376.2c0,0,0.1,29.2-27.9,29.2v-20.8L935.4,376.2z"/>
		<ellipse id="XMLID_334_" class="st42" cx="907.5" cy="376.2" rx="27.9" ry="10.6"/>
		<ellipse id="XMLID_333_" class="st43" cx="907.5" cy="375.7" rx="23.9" ry="9"/>
		<path id="XMLID_332_" class="st12" d="M884.2,377.6c0,0,1.2-1.8,2.6-2.3c0,0,1.7-2.7,4.7-3.1c0,0,1.8-2.5,6.9-2.2
			c0,0,4.6-2.2,7.9-1.5c0,0,5.7-1.7,8.7,1.2c0,0,4.6-0.5,6.5,1.8c0,0,2.4-0.3,4.8,2.9c0,0,3.4-0.5,4.9,2.8c0,0-2.3,7.1-23.6,7.6
			C907.5,384.6,889.1,384.8,884.2,377.6z"/>
		<path id="XMLID_331_" class="st39" d="M897.3,377.9c0,0-2.4-2.1,0.6-1.2C897.9,376.8,894,375.3,897.3,377.9z"/>
		<path id="XMLID_330_" class="st39" d="M903.2,371.2c0,0,2.4-2.2,1.1,0.7C904.3,371.9,906.2,368.1,903.2,371.2z"/>
		<path id="XMLID_329_" class="st39" d="M909,377.3c0,0-0.3-4.7,2.3-0.8C911.2,376.6,909.1,373.6,909,377.3z"/>
		<path id="XMLID_328_" class="st39" d="M921.5,376c0,0,3.6-3.2,2,1.3C923.5,377.4,924.5,373.8,921.5,376z"/>
		<path id="XMLID_327_" class="st39" d="M915,381.2c0,0,3.2-0.7,0.4,1.3C915.4,382.5,917.5,381,915,381.2z"/>
		<path id="XMLID_326_" class="st39" d="M906,381.8c0,0,1.2,1.8,1.5-0.2C907.5,381.6,907.6,384.4,906,381.8z"/>
	</g>
	<g id="XMLID_311_">
		<path id="XMLID_324_" class="st40" d="M978.7,407.2h-7.5c-1.4,0-2.5-1.1-2.5-2.5l0,0h12.6l0,0
			C981.3,406.1,980.1,407.2,978.7,407.2z"/>
		<path id="XMLID_323_" class="st41" d="M947.1,376.2c0,0-0.1,29.2,27.9,29.2v-20.8L947.1,376.2z"/>
		<path id="XMLID_322_" class="st41" d="M1002.8,376.2c0,0,0.1,29.2-27.9,29.2v-20.8L1002.8,376.2z"/>
		<ellipse id="XMLID_320_" class="st42" cx="975" cy="376.2" rx="27.9" ry="10.6"/>
		<ellipse id="XMLID_319_" class="st43" cx="975" cy="375.7" rx="23.9" ry="9"/>
		<path id="XMLID_318_" class="st12" d="M951.6,377.6c0,0,1.2-1.8,2.6-2.3c0,0,1.7-2.7,4.7-3.1c0,0,1.8-2.5,6.9-2.2
			c0,0,4.6-2.2,7.9-1.5c0,0,5.7-1.7,8.7,1.2c0,0,4.6-0.5,6.5,1.8c0,0,2.4-0.3,4.8,2.9c0,0,3.4-0.5,4.9,2.8c0,0-2.3,7.1-23.6,7.6
			C975,384.6,956.6,384.8,951.6,377.6z"/>
		<path id="XMLID_317_" class="st39" d="M964.7,377.9c0,0-2.4-2.1,0.6-1.2C965.3,376.8,961.4,375.3,964.7,377.9z"/>
		<path id="XMLID_316_" class="st39" d="M970.7,371.2c0,0,2.4-2.2,1.1,0.7C971.8,371.9,973.6,368.1,970.7,371.2z"/>
		<path id="XMLID_315_" class="st39" d="M976.4,377.3c0,0-0.3-4.7,2.3-0.8C978.7,376.6,976.5,373.6,976.4,377.3z"/>
		<path id="XMLID_314_" class="st39" d="M988.9,376c0,0,3.6-3.2,2,1.3C990.9,377.4,991.9,373.8,988.9,376z"/>
		<path id="XMLID_313_" class="st39" d="M982.4,381.2c0,0,3.2-0.7,0.4,1.3C982.9,382.5,985,381,982.4,381.2z"/>
		<path id="XMLID_312_" class="st39" d="M973.5,381.8c0,0,1.2,1.8,1.5-0.2C975,381.6,975,384.4,973.5,381.8z"/>
	</g>
	<linearGradient id="XMLID_632_" gradientUnits="userSpaceOnUse" x1="827.3503" y1="322.016" x2="764.3503" y2="482.516">
		<stop  offset="0" style="stop-color:#000000;stop-opacity:0"/>
		<stop  offset="1" style="stop-color:#FFFFFF"/>
	</linearGradient>
	<polygon id="XMLID_112_" class="st44" points="819.3,329 740.1,431 740.1,485.8 869.1,329 	"/>
	<linearGradient id="XMLID_633_" gradientUnits="userSpaceOnUse" x1="907.613" y1="320.9069" x2="825.113" y2="650.4069">
		<stop  offset="0" style="stop-color:#000000;stop-opacity:0"/>
		<stop  offset="1" style="stop-color:#FFFFFF"/>
	</linearGradient>
	<polygon id="XMLID_338_" class="st45" points="740.1,589 964.4,329 1006,329 783.8,589 	"/>
	<linearGradient id="XMLID_634_" gradientUnits="userSpaceOnUse" x1="969.494" y1="451.0343" x2="927.0594" y2="620.5156">
		<stop  offset="0" style="stop-color:#000000;stop-opacity:0"/>
		<stop  offset="1" style="stop-color:#FFFFFF"/>
	</linearGradient>
	<polygon id="XMLID_339_" class="st46" points="883.6,589 1006,451.7 1006,510.3 928.8,589 	"/>
	<g id="XMLID_340_">
		<path id="XMLID_356_" class="st47" d="M1201.4,539.9h-26.7v-15c0-11.2,9.1-20.3,20.3-20.3h6.3L1201.4,539.9L1201.4,539.9z"/>
		<path id="XMLID_355_" class="st47" d="M1264.1,539.9h26.7v-15c0-11.2-9.1-20.3-20.3-20.3h-6.3L1264.1,539.9L1264.1,539.9z"/>
		<path id="XMLID_354_" class="st48" d="M1234.7,490.9h-4c-21.4,0-38.8,17.4-38.8,38.8V589h81.6v-59.3
			C1273.5,508.3,1256.1,490.9,1234.7,490.9z"/>
		<path id="XMLID_353_" class="st49" d="M1232.7,503.7L1232.7,503.7c-7.9,0-14.2-6.4-14.2-14.2v-11.3h28.5v11.3
			C1246.9,497.3,1240.6,503.7,1232.7,503.7z"/>
		<path id="XMLID_352_" class="st50" d="M1232.7,481c0,0-7.1,0.5-14.2-2.8v2.2c0,0,4.5,3,14.2,3c9.7,0,14.2-3,14.2-3v-2.2
			C1239.8,481.4,1232.7,481,1232.7,481z"/>
		<path id="XMLID_351_" class="st49" d="M1232.7,481L1232.7,481c-19.9,0-36.1-16.2-36.1-36.1v-47.6h72.2v47.6
			C1268.8,464.8,1252.6,481,1232.7,481z"/>
		<path id="XMLID_350_" class="st50" d="M1196.6,423.7c0,0-2.5-5.9-8.7-3.6c-10.8,4-4.3,21.4-0.1,23.1c2.2,0.9,6.3,0.1,8.7-2.4
			L1196.6,423.7L1196.6,423.7z"/>
		<path id="XMLID_349_" class="st50" d="M1268.8,423.7c0,0,2.5-5.9,8.7-3.6c10.8,4,4.3,21.4,0.1,23.1c-2.2,0.9-6.3,0.1-8.7-2.4
			L1268.8,423.7L1268.8,423.7z"/>
		<path id="XMLID_348_" class="st51" d="M1258.7,375.1c0,0,6.4,6.1,5.2,11.2c-1.2,5.2-56,2-61,0c-5.1-2-11.3,2.5-12.5,5.4
			c-1.2,2.9-3.8,15.3,4.7,16.3s59.6,1.8,69.2-0.8c9.6-2.6,9.8-9.2,11.9-15C1278.2,386.6,1271.3,374.8,1258.7,375.1z"/>
		<path id="XMLID_347_" class="st51" d="M1189.9,404.5c0,0-1,30.6,6.7,40.4v-36.7L1189.9,404.5z"/>
		<path id="XMLID_346_" class="st51" d="M1274.8,396.2c0,0,3.4,36-6,45.6v-36.7L1274.8,396.2z"/>
		<path id="XMLID_345_" class="st12" d="M1255.4,543.2V537c0-12.5-10.1-22.7-22.7-22.7l0,0c-12.5,0-22.7,10.1-22.7,22.7v6.2
			c0,10-8.1,18.1-18.1,18.1l0,0V589h81.6v-27.7l0,0C1263.5,561.3,1255.4,553.2,1255.4,543.2z"/>
		<path id="XMLID_344_" class="st12" d="M1216.6,493.6c0,0-7.5,15.2-1.1,28.7l2.5-2.5c0,0-6.3-9.2,0.9-27L1216.6,493.6z"/>
		<path id="XMLID_343_" class="st12" d="M1249,493.6c0,0,7.5,15.2,1.1,28.7l-2.5-2.5c0,0,6.3-9.2-0.9-27L1249,493.6z"/>
		<path id="XMLID_342_" class="st49" d="M1174.7,539.9v19.2c0,2.7-1.5,5.1-3.9,6.3l-17.7,8.8c-5.1,2.5-6.6,9-3.3,13.5l0,0
			c2.6,3.6,7.5,4.8,11.5,2.8l26.9-13.4c2.4-1.2,3.9-3.6,3.9-6.3v-30.9H1174.7z"/>
		<path id="XMLID_341_" class="st49" d="M1290.7,539.9v19.2c0,2.7,1.5,5.1,3.9,6.3l17.7,8.8c5.1,2.5,6.6,9,3.3,13.5l0,0
			c-2.6,3.6-7.5,4.8-11.5,2.8l-26.9-13.4c-2.4-1.2-3.9-3.6-3.9-6.3v-30.9H1290.7z"/>
	</g>
	<g id="XMLID_94_">
		<circle id="XMLID_120_" class="st12" cx="1181.3" cy="185.4" r="19.7"/>
		<rect id="XMLID_119_" x="1181.3" y="0.4" class="st30" width="4.6" height="107"/>
		<path id="XMLID_113_" class="st30" d="M1215.8,156.8v-17.1c0-17.8-14.4-32.3-32.3-32.3h0c-17.8,0-32.3,14.4-32.3,32.3v17.6
			C1165.3,150.2,1188.7,143.6,1215.8,156.8z"/>
		<path id="XMLID_109_" class="st31" d="M1151.3,157.2v28.1h64.5v-28.6C1188.7,143.6,1165.3,150.2,1151.3,157.2z"/>
		<linearGradient id="XMLID_635_" gradientUnits="userSpaceOnUse" x1="1183.5" y1="399.3936" x2="1183.5" y2="185.3936">
			<stop  offset="0" style="stop-color:#000000;stop-opacity:0"/>
			<stop  offset="1" style="stop-color:#FFFFFF"/>
		</linearGradient>
		<polygon id="XMLID_102_" class="st52" points="1215,185.4 1183.5,185.4 1152,185.4 1084.5,399.4 1183.5,399.4 1282.5,399.4 		"/>
	</g>
	<g id="XMLID_602_">
		<circle id="XMLID_611_" class="st12" cx="211.3" cy="185" r="19.7"/>
		<rect id="XMLID_610_" x="211.3" class="st30" width="4.6" height="107"/>
		<path id="XMLID_607_" class="st30" d="M245.8,156.4v-17.1c0-17.8-14.4-32.3-32.3-32.3h0c-17.8,0-32.3,14.4-32.3,32.3v17.6
			C195.3,149.8,218.6,143.3,245.8,156.4z"/>
		<path id="XMLID_604_" class="st31" d="M181.3,156.9V185h64.5v-28.6C218.6,143.3,195.3,149.8,181.3,156.9z"/>
		<linearGradient id="XMLID_636_" gradientUnits="userSpaceOnUse" x1="213.4859" y1="399" x2="213.4859" y2="185">
			<stop  offset="0" style="stop-color:#000000;stop-opacity:0"/>
			<stop  offset="1" style="stop-color:#FFFFFF"/>
		</linearGradient>
		<polygon id="XMLID_603_" class="st53" points="245,185 213.5,185 182,185 114.5,399 213.5,399 312.5,399 		"/>
	</g>
	<g id="XMLID_590_">
		<circle id="XMLID_601_" class="st12" cx="546.4" cy="185" r="19.7"/>
		<rect id="XMLID_600_" x="546.4" class="st30" width="4.6" height="107"/>
		<path id="XMLID_595_" class="st30" d="M580.9,156.4v-17.1c0-17.8-14.4-32.3-32.3-32.3h0c-17.8,0-32.3,14.4-32.3,32.3v17.6
			C530.4,149.8,553.7,143.3,580.9,156.4z"/>
		<path id="XMLID_592_" class="st31" d="M516.4,156.9V185h64.5v-28.6C553.7,143.3,530.4,149.8,516.4,156.9z"/>
		<linearGradient id="XMLID_637_" gradientUnits="userSpaceOnUse" x1="548.5834" y1="399" x2="548.5834" y2="185">
			<stop  offset="0" style="stop-color:#000000;stop-opacity:0"/>
			<stop  offset="1" style="stop-color:#FFFFFF"/>
		</linearGradient>
		<polygon id="XMLID_591_" class="st54" points="580.1,185 548.6,185 517.1,185 449.6,399 548.6,399 647.6,399 		"/>
	</g>
	<rect id="XMLID_357_" x="1152.5" y="582.8" class="st26" width="160.7" height="8.7"/>
	<g id="XMLID_359_">
		<path id="XMLID_373_" class="st40" d="M1260,582.8h-7.5c-1.4,0-2.5-1.1-2.5-2.5l0,0h12.6l0,0
			C1262.5,581.6,1261.4,582.8,1260,582.8z"/>
		<path id="XMLID_372_" class="st41" d="M1228.4,551.8c0,0-0.1,29.2,27.9,29.2v-20.8L1228.4,551.8z"/>
		<path id="XMLID_371_" class="st41" d="M1284.1,551.8c0,0,0.1,29.2-27.9,29.2v-20.8L1284.1,551.8z"/>
		<ellipse id="XMLID_370_" class="st42" cx="1256.2" cy="551.8" rx="27.9" ry="10.6"/>
		<ellipse id="XMLID_369_" class="st43" cx="1256.2" cy="551.2" rx="23.9" ry="9"/>
		<path id="XMLID_367_" class="st12" d="M1232.9,553.1c0,0,1.2-1.8,2.6-2.3c0,0,1.7-2.7,4.7-3.1c0,0,1.8-2.5,6.9-2.2
			c0,0,4.6-2.2,7.9-1.5c0,0,5.7-1.7,8.7,1.2c0,0,4.6-0.5,6.5,1.8c0,0,2.4-0.3,4.8,2.9c0,0,3.4-0.5,4.9,2.8c0,0-2.3,7.1-23.6,7.6
			C1256.2,560.2,1237.8,560.3,1232.9,553.1z"/>
		<path id="XMLID_365_" class="st39" d="M1246,553.4c0,0-2.4-2.1,0.6-1.2C1246.6,552.3,1242.7,550.8,1246,553.4z"/>
		<path id="XMLID_364_" class="st39" d="M1251.9,546.7c0,0,2.4-2.2,1.1,0.7C1253,547.4,1254.9,543.7,1251.9,546.7z"/>
		<path id="XMLID_363_" class="st39" d="M1257.7,552.9c0,0-0.3-4.7,2.3-0.8C1259.9,552.1,1257.8,549.1,1257.7,552.9z"/>
		<path id="XMLID_362_" class="st39" d="M1270.2,551.6c0,0,3.6-3.2,2,1.3C1272.2,552.9,1273.2,549.3,1270.2,551.6z"/>
		<path id="XMLID_361_" class="st39" d="M1263.7,556.7c0,0,3.2-0.7,0.4,1.3C1264.1,558,1266.2,556.5,1263.7,556.7z"/>
		<path id="XMLID_360_" class="st39" d="M1254.7,557.3c0,0,1.2,1.8,1.5-0.2C1256.2,557.1,1256.3,560,1254.7,557.3z"/>
	</g>
	<g id="XMLID_569_">
		<polygon id="XMLID_380_" class="st37" points="1189.5,550 1193.3,582.8 1212,582.8 1216.3,550 		"/>
		<path id="XMLID_378_" class="st55" d="M1215.9,548h-26c-0.6,0-1,0.5-1,1l0,0c0,0.6,0.5,1,1,1h26c0.6,0,1-0.5,1-1l0,0
			C1217,548.4,1216.5,548,1215.9,548z"/>
		<polygon id="XMLID_377_" class="st37" points="1189.9,548 1191.7,544.1 1214.1,544.1 1215.9,548 		"/>
		<polygon id="XMLID_376_" class="st56" points="1202.8,550 1202.8,582.8 1212,582.8 1216.3,550 		"/>
		<polygon id="XMLID_375_" class="st57" points="1190.1,559.6 1191.6,571.7 1213.9,571.7 1215.6,559.6 		"/>
		<polygon id="XMLID_358_" class="st58" points="1202.9,559.6 1202.8,571.7 1213.9,571.7 1215.6,559.6 		"/>
	</g>
	<rect id="XMLID_589_" x="189.9" y="671.7" class="st26" width="218.7" height="11.9"/>
	<g id="XMLID_575_">
		<path id="XMLID_588_" class="st40" d="M337.2,671.7h-12.1c-1.4,0-2.5-1.1-2.5-2.5v-0.9h17.1v0.9
			C339.7,670.6,338.6,671.7,337.2,671.7z"/>
		<path id="XMLID_587_" class="st41" d="M293.2,629.5c0,0-0.1,39.7,37.9,39.7v-28.3L293.2,629.5z"/>
		<path id="XMLID_586_" class="st41" d="M369.1,629.5c0,0,0.1,39.7-37.9,39.7v-28.3L369.1,629.5z"/>
		<ellipse id="XMLID_585_" class="st42" cx="331.1" cy="629.5" rx="37.9" ry="14.4"/>
		<ellipse id="XMLID_584_" class="st43" cx="331.1" cy="628.7" rx="32.6" ry="12.2"/>
		<path id="XMLID_583_" class="st12" d="M299.3,631.4c0,0,1.6-2.4,3.5-3.2c0,0,2.3-3.7,6.4-4.2c0,0,2.5-3.4,9.4-2.9
			c0,0,6.2-3,10.8-2.1c0,0,7.8-2.3,11.9,1.6c0,0,6.3-0.7,8.9,2.4c0,0,3.3-0.3,6.5,3.9c0,0,4.7-0.7,6.7,3.7c0,0-3.1,9.7-32.2,10.3
			C331.1,640.9,306.1,641.2,299.3,631.4z"/>
		<path id="XMLID_582_" class="st39" d="M317.2,631.8c0,0-3.3-2.9,0.8-1.6C318,630.2,312.7,628.2,317.2,631.8z"/>
		<path id="XMLID_581_" class="st39" d="M325.3,622.6c0,0,3.2-3,1.5,0.9C326.8,623.5,329.3,618.5,325.3,622.6z"/>
		<path id="XMLID_580_" class="st39" d="M333.1,631c0,0-0.4-6.5,3.1-1.1C336.2,630,333.2,625.9,333.1,631z"/>
		<path id="XMLID_579_" class="st39" d="M350.1,629.3c0,0,4.8-4.3,2.7,1.8C352.8,631,354.2,626.2,350.1,629.3z"/>
		<path id="XMLID_578_" class="st39" d="M341.3,636.3c0,0,4.4-1,0.6,1.8C341.9,638.1,344.8,636,341.3,636.3z"/>
		<path id="XMLID_577_" class="st39" d="M329.1,637.1c0,0,1.6,2.5,2.1-0.3C331.1,636.8,331.2,640.7,329.1,637.1z"/>
	</g>
	<g id="XMLID_546_">
		<polygon id="XMLID_571_" class="st37" points="240.3,627.2 245.4,671.7 271,671.7 276.8,627.2 		"/>
		<path id="XMLID_570_" class="st55" d="M276.7,624.3h-36.2c-0.6,0-1,0.5-1,1v0.7c0,0.6,0.5,1,1,1h36.2c0.6,0,1-0.5,1-1v-0.7
			C277.7,624.8,277.2,624.3,276.7,624.3z"/>
		<polygon id="XMLID_568_" class="st37" points="240.9,624.3 243.3,619.1 273.8,619.1 276.3,624.3 		"/>
		<polygon id="XMLID_567_" class="st56" points="258.5,627.2 258.5,671.7 270.9,671.7 276.8,627.2 		"/>
		<polygon id="XMLID_566_" class="st57" points="241.1,640.1 243.1,656.6 273.6,656.6 275.8,640.1 		"/>
		<polygon id="XMLID_565_" class="st58" points="258.6,640.1 258.5,656.6 273.6,656.6 275.8,640.1 		"/>
	</g>
	<g id="XMLID_381_">
		<g id="XMLID_423_">
			<path id="XMLID_429_" class="st59" d="M1049.7,594.8c0.8-3.6,2.1-7,3.9-10.1c2.1-3.8,4.7-7.2,7.8-10.1c7.2-6.8,16.9-11,27.6-11
				h1.3v11v10.1v10.1v10.1v10.2v10.1h-41.6v-10.1v-10.2v-1.1C1048.7,600.7,1049.1,597.6,1049.7,594.8z"/>
			<polygon id="XMLID_428_" class="st49" points="1090.2,625.2 1090.2,635.3 1090.2,645.5 1090.2,654.8 1090.2,664.9 1090.2,675.1 
				1090.2,685.2 1048.7,685.2 1048.7,675.1 1048.7,664.9 1048.7,654.8 1048.7,645.5 1048.7,635.3 1048.7,625.2 			"/>
		</g>
		<path id="XMLID_422_" class="st49" d="M1078.3,712.6h-14.2c-8.5,0-15.4-6.9-15.4-15.4v-12h45.1v12
			C1093.8,705.7,1086.9,712.6,1078.3,712.6z"/>
		<g id="XMLID_415_">
			<path id="XMLID_421_" class="st59" d="M1187.5,594.8c-0.8-3.6-2.1-7-3.9-10.1c-2.1-3.8-4.7-7.2-7.8-10.1
				c-7.2-6.8-16.9-11-27.6-11h-1.4v11v10.1v10.1v10.1v10.2v10.1h41.6v-10.1v-10.2v-1.1C1188.5,600.7,1188.1,597.6,1187.5,594.8z"/>
			<polygon id="XMLID_420_" class="st49" points="1146.9,625.2 1146.9,635.3 1146.9,645.5 1146.9,654.8 1146.9,664.9 1146.9,675.1 
				1146.9,685.2 1188.5,685.2 1188.5,675.1 1188.5,664.9 1188.5,654.8 1188.5,645.5 1188.5,635.3 1188.5,625.2 			"/>
		</g>
		<path id="XMLID_414_" class="st60" d="M1166.1,585.9c-0.8-4-2.2-7.8-3.9-11.3c-1.8-3.7-4.2-7.1-6.9-10.1
			c-4.3-4.8-9.8-8.7-15.9-11.3c-5.5-2.3-11.5-3.6-17.8-3.6h-4.7c-6.3,0-12.4,1.3-17.8,3.6c-6.1,2.6-11.5,6.5-15.9,11.3
			c-2.7,3-5.1,6.4-6.9,10.1c-1.8,3.5-3.1,7.3-3.9,11.3c-0.6,2.9-0.9,5.9-0.9,9v69.4h95.5v-69.4
			C1167,591.7,1166.7,588.7,1166.1,585.9z"/>
		<path id="XMLID_413_" class="st49" d="M1158.8,712.6h14.2c8.5,0,15.4-6.9,15.4-15.4v-12h-45.1v12
			C1143.4,705.7,1150.3,712.6,1158.8,712.6z"/>
		<path id="XMLID_412_" class="st50" d="M1076.9,470.7c0,0-3-6.9-10.2-4.3c-12.6,4.7-5,25.1-0.1,27c2.6,1,7.3,0.2,10.3-2.8V470.7z"
			/>
		<path id="XMLID_411_" class="st49" d="M1124.5,564.4H1114c-6.3,0-11.4-5.1-11.4-11.4v-18.5h33.4V553
			C1135.9,559.3,1130.7,564.4,1124.5,564.4z"/>
		<path id="XMLID_410_" class="st50" d="M1119.2,537.8c0,0-8.3,0.6-16.7-3.3v2.6c0,0,5.2,3.5,16.7,3.5c11.5,0,16.7-3.5,16.7-3.5
			v-2.6C1127.5,538.3,1119.2,537.8,1119.2,537.8z"/>
		<path id="XMLID_409_" class="st49" d="M1132.5,537.8h-26.6c-16,0-29-13-29-29v-69.1h84.5v69.1
			C1161.5,524.8,1148.6,537.8,1132.5,537.8z"/>
		<path id="XMLID_408_" class="st50" d="M1161.5,470.7c0,0,3-6.9,10.2-4.3c12.6,4.7,5,25.1,0.1,27c-2.6,1-7.3,0.2-10.3-2.8V470.7z"
			/>
		<path id="XMLID_407_" class="st61" d="M1068.7,439.7c0,0-0.7,44.4,8.3,55.8v-47.8L1068.7,439.7z"/>
		<path id="XMLID_406_" class="st61" d="M1168.5,438.5c0,0,4,42.2-7.1,53.4v-44.1L1168.5,438.5z"/>
		<path id="XMLID_401_" class="st62" d="M1135.2,710.5h-32.2c-17.5,0-31.7-14.2-31.7-31.7v-14.6h95.5v14.6
			C1166.9,696.3,1152.8,710.5,1135.2,710.5z"/>
		<g id="XMLID_399_">
			<g id="XMLID_430_">
				<path id="XMLID_431_" class="st62" d="M1067.1,832c0-55.4,15.3-139.3,16-142.9l34.6,6.4c-0.2,0.8-15.5,84.2-15.4,136.4
					L1067.1,832z"/>
			</g>
		</g>
		<path id="XMLID_398_" class="st63" d="M1120.6,853.4h-69.9v-10.6c0-12.7,10.3-23,23-23h23.9c12.7,0,23,10.3,23,23L1120.6,853.4
			L1120.6,853.4z"/>
		<g id="XMLID_396_">
			<g id="XMLID_425_">
				<path id="XMLID_426_" class="st62" d="M1184.7,828.7c-4-55.3-25.4-137.8-26.3-141.3l-34,8.9c0.2,0.8,21.5,82.9,25.3,134.9
					L1184.7,828.7z"/>
			</g>
		</g>
		<path id="XMLID_395_" class="st63" d="M1132.9,853.8l69.7-5.1l-0.8-10.5c-0.9-12.7-12-22.2-24.6-21.3l-23.8,1.8
			c-12.7,0.9-22.2,12-21.3,24.6L1132.9,853.8z"/>
		<rect id="XMLID_394_" x="1071.5" y="664.2" class="st63" width="95.4" height="9.7"/>
		<path id="XMLID_388_" class="st61" d="M1150.6,404.5c0,0,7.6,8.9,6.2,16.3c-1.4,7.6-66.4,2.9-72.3,0c-6-2.9-13.4,3.6-14.8,7.8
			c-1.4,4.2-4.5,22.2,5.6,23.7c10.1,1.5,70.7,2.6,82.1-1.2c11.4-3.8,11.6-13.4,14.1-21.8C1173.7,421.2,1165.5,404.1,1150.6,404.5z"
			/>
		<path id="XMLID_390_" class="st61" d="M1076.9,495.4c0,0,4.1,33,42.9,33.6c38.9,0.6,41.6-38.3,41.6-38.3v-42.9l-84.5-0.2V495.4z"
			/>
	</g>
	<g id="XMLID_447_">
		<rect id="XMLID_417_" x="150.5" y="683.6" class="st19" width="352.2" height="10.9"/>
		<rect id="XMLID_427_" x="150.5" y="704.7" class="st10" width="17.5" height="227.1"/>
		<rect id="XMLID_441_" x="485.3" y="704.7" class="st10" width="17.5" height="227.1"/>
		<rect id="XMLID_433_" x="164.3" y="872.7" class="st10" width="325.5" height="11.2"/>
		<rect id="XMLID_443_" x="150.5" y="694.4" class="st0" width="352.2" height="34.6"/>
	</g>
	<g id="XMLID_547_">
		<rect id="XMLID_554_" x="823.1" y="788" class="st0" width="146.2" height="21.7"/>
		<rect id="XMLID_551_" x="823.1" y="809.7" class="st10" width="17.5" height="122.6"/>
		<rect id="XMLID_548_" x="951.8" y="809.7" class="st10" width="17.5" height="122.6"/>
	</g>
	<g id="XMLID_537_">
		<rect id="XMLID_544_" x="1218.2" y="788" class="st0" width="146.2" height="21.7"/>
		<rect id="XMLID_541_" x="1218.2" y="809.7" class="st10" width="17.5" height="122.6"/>
		<rect id="XMLID_538_" x="1346.9" y="809.7" class="st10" width="17.5" height="122.6"/>
	</g>
	<g id="XMLID_523_">
		<rect id="XMLID_534_" x="926.8" y="683.7" class="st19" width="352.2" height="10.9"/>
		<rect id="XMLID_531_" x="926.8" y="704.9" class="st10" width="17.5" height="227.1"/>
		<rect id="XMLID_528_" x="1261.6" y="704.9" class="st10" width="17.5" height="227.1"/>
		<rect id="XMLID_527_" x="940.6" y="872.8" class="st10" width="325.5" height="11.2"/>
		<rect id="XMLID_524_" x="926.8" y="694.6" class="st0" width="352.2" height="34.6"/>
	</g>
	<g id="XMLID_374_">
		<g id="XMLID_520_">
			<g id="XMLID_521_">
				<path id="XMLID_522_" class="st64" d="M262.6,870.5l-30,0.4c-0.5-41.6-10.3-69.4-29.1-82.8c-21.8-15.6-50.6-6.7-50.9-6.6
					l-9.4-28.5c1.7-0.6,43.3-13.9,77.7,10.6C247.9,782.9,261.9,818.9,262.6,870.5z"/>
			</g>
			<path id="XMLID_525_" class="st63" d="M262.1,859.6c0,0,14.6,0.4,20.5,10.1c5.9,9.7,2.2,16.9,2.2,16.9l-56.1-2.7
				c0,0,0.6-18.3,4.1-24.4L262.1,859.6z"/>
		</g>
		<path id="XMLID_612_" class="st65" d="M165.1,747.2H82.8v-77.9c0-22.7,18.5-41.2,41.2-41.2l0,0c22.7,0,41.2,18.5,41.2,41.2V747.2z
			"/>
		<path id="XMLID_620_" class="st49" d="M125.1,642.5L125.1,642.5c-8.5,0-15.5-7-15.5-15.5v-21.8h31.1V627
			C140.7,635.6,133.7,642.5,125.1,642.5z"/>
		<path id="XMLID_660_" class="st49" d="M140,614.1h-28c-8.3,0-14.9-6.7-14.9-14.9v-65.7h44.1c12.2,0,22.1,9.9,22.1,22.1v35.2
			C163.4,603.6,152.8,614.1,140,614.1z"/>
		<path id="XMLID_666_" class="st61" d="M90.6,545.7c0,0-2.8,34.8,6.6,49.6v-46.4L90.6,545.7z"/>
		<path id="XMLID_663_" class="st49" d="M97.1,565.4c0,0-2.5-5.8-8.5-3.5c-10.6,3.9-4.2,21-0.1,22.7c2.2,0.9,6.2,0.1,8.5-2.4
			L97.1,565.4L97.1,565.4z"/>
		<path id="XMLID_664_" class="st61" d="M157.7,513.3c0,0,6.3,6.6,5.1,12.2s-55,2.2-59.9,0s-11.1,2.7-12.3,5.8
			c-1.2,3.1-3.7,16.5,4.6,17.6s58.5,2,68-0.9c9.4-2.8,9.6-9.9,11.7-16.1C176.8,525.6,170,512.9,157.7,513.3z"/>
		<path id="XMLID_669_" class="st61" d="M109.5,533.4l-10.4,0.2V549l-2.1-0.1v24.9h4.4v-4.4c0,0,5,1.4,7-8.1
			C110.5,552,109.5,533.4,109.5,533.4z"/>
		<g id="XMLID_671_">
			<path id="XMLID_672_" class="st49" d="M226.1,703.7c-53.7,10.7-81.1-2-84.2-3.6l13.3-26.3l-0.2-0.1c0.2,0.1,27.6,6.1,65.8,0.5
				c7.8-1.2,15.1,3.9,16.7,11.6l0.1,0.4C239.4,694.2,234.1,702.1,226.1,703.7L226.1,703.7z"/>
		</g>
		<path id="XMLID_665_" class="st66" d="M156,673.8l-10.2,29l-23.9-8.4c-7.3-2.5-11.1-10.6-8.6-17.9l0.8-2.5
			c2.5-7.3,10.6-11.1,17.9-8.6L156,673.8z"/>
		<path id="XMLID_659_" class="st62" d="M131.3,789.4h-14.7c-18.7,0-33.9-15.1-33.9-33.9v-8.4H165v8.4
			C165.1,774.3,150,789.4,131.3,789.4z"/>
		<g id="XMLID_442_">
			<g id="XMLID_513_">
				<path id="XMLID_518_" class="st62" d="M232.9,885.1l-29.8-3.4c4.7-41.3-1.5-70.1-18.4-85.8c-19.7-18.2-49.3-13-49.6-12.9
					l-5.8-29.4c1.8-0.4,44.7-8.4,75.8,20.3C229.5,796.4,238.8,833.8,232.9,885.1z"/>
			</g>
			<path id="XMLID_752_" class="st63" d="M233.9,874.2c0,0,14.4,2.2,19,12.6c4.6,10.4,0,17,0,17l-55.3-9.8c0,0,2.9-18.1,7.1-23.7
				L233.9,874.2z"/>
		</g>
	</g>
</g>
</svg>
