<svg xmlns="http://www.w3.org/2000/svg" xmlns:xlink="http://www.w3.org/1999/xlink" viewBox="0 0 1400 980"><style>.st0{fill:#f9a76d}.st1{fill:#333}.st3{fill:#989898}.st9{fill:#ca8357}.st10{fill:#11110e}.st12,.st13{fill:#fff}.st13{opacity:.5}.st18{fill:#ab4b2a}.st19{fill:#482011}.st21{fill:#d3d5d3}.st22{fill:#9e3b22}.st23{fill:#912c1e}.st24{fill:#ab412d}.st26{fill:#57585c}.st30{fill:#939091}.st31{fill:#a9a8a8}.st33{fill:#ce8d50}.st34{fill:#f9f9fa}.st35{fill:#f9f8f7}.st36{opacity:9.000000e-002;fill:#bab9b9}.st37{fill:#fdfdfe}.st38{fill:#0f190f}.st39{fill:#6b6969}.st40{fill:#020202}.st41{fill:#1e1e1e}.st42{fill:#303030}.st43{fill:#e12426}.st47{fill:#999}.st49{fill:#ffebb9}.st50{fill:#f7d893}.st51{fill:#774c1e}.st55{fill:#f2f2f2}.st56{fill:#f7f7f7}.st57{fill:#b77b3d}.st58{fill:#a06229}.st59{fill:#9fd5dc}.st61{fill:#1b1e13}.st62{fill:#4b443a}.st63{fill:#010101}</style><g id="Layer_1"><path id="XMLID_1_" class="st0" d="M0 839.7h1400V980H0z"/><path id="XMLID_3_" class="st1" d="M0 808h1400v31.7H0z"/><path id="XMLID_4_" fill="#262626" d="M700 0h700v808H700z"/><path id="XMLID_6_" class="st1" d="M0 0h700v808H0z"/><g id="XMLID_8_"><g id="XMLID_5_"><path id="XMLID_24_" class="st3" d="M381 107h268v616H381z"/></g><linearGradient id="XMLID_623_" gradientUnits="userSpaceOnUse" x1="454.1028" y1="540.5485" x2="649" y2="540.5485"><stop offset="0" stop-opacity="0"/><stop offset="1" stop-color="#fff"/></linearGradient><path id="XMLID_618_" opacity=".35" fill="url(#XMLID_623_)" d="M649 358.1L454.1 723H515l134-268.9z"/><linearGradient id="XMLID_625_" gradientUnits="userSpaceOnUse" x1="381" y1="358.5422" x2="649" y2="358.5422"><stop offset="0" stop-opacity="0"/><stop offset="1" stop-color="#fff"/></linearGradient><path id="XMLID_621_" opacity=".35" fill="url(#XMLID_625_)" d="M649 155.6L381 610.1V490l233.6-383H649z"/><g id="XMLID_7_"><path id="XMLID_27_" class="st1" d="M381 164.1h268v4H381z"/></g><g id="XMLID_9_"><path id="XMLID_25_" class="st1" d="M381 410h268v10H381z"/></g></g><g id="XMLID_12_"><g id="XMLID_20_"><path id="XMLID_10_" class="st3" d="M93.2 107h268v616h-268z"/></g><linearGradient id="XMLID_626_" gradientUnits="userSpaceOnUse" x1="93.092" y1="415" x2="361.092" y2="415"><stop offset="0" stop-opacity="0"/><stop offset="1" stop-color="#fff"/></linearGradient><path id="XMLID_2_" opacity=".35" fill="url(#XMLID_626_)" d="M361.1 107l-268 616H154l207.1-496.9z"/><linearGradient id="XMLID_627_" gradientUnits="userSpaceOnUse" x1="57.1339" y1="383.3761" x2="180.1278" y2="158.3874"><stop offset="0" stop-opacity="0"/><stop offset="1" stop-color="#fff"/></linearGradient><path id="XMLID_613_" opacity=".35" fill="url(#XMLID_627_)" d="M227.1 107l-134 258.6v-96L184 107z"/><g id="XMLID_18_"><path id="XMLID_23_" class="st1" d="M93.2 164.1h268v4h-268z"/></g><g id="XMLID_15_"><path id="XMLID_21_" class="st1" d="M93.2 410h268v10h-268z"/></g></g><g id="XMLID_36_"><defs><path id="XMLID_28_" d="M0 0h571.1v772.1H0z"/></defs><clipPath id="XMLID_629_"><use xlink:href="#XMLID_28_" overflow="visible"/></clipPath><g id="XMLID_29_" clip-path="url(#XMLID_629_)"><g id="XMLID_34_"><path id="XMLID_35_" class="st3" d="M-197.8 107h268v616h-268z"/></g><g id="XMLID_32_"><path id="XMLID_33_" class="st1" d="M-197.8 164.1h268v4h-268z"/></g><g id="XMLID_30_"><path id="XMLID_31_" class="st1" d="M-197.8 410h268v10h-268z"/></g></g></g></g><g id="Layer_2"><ellipse id="XMLID_519_" class="st9" cx="317.5" cy="929.7" rx="270.7" ry="10"/><ellipse id="XMLID_614_" class="st9" cx="1102.5" cy="932.3" rx="270.7" ry="10"/><ellipse id="XMLID_617_" class="st9" cx="1124.7" cy="852.3" rx="78" ry="11.3"/><g id="XMLID_444_"><path id="XMLID_458_" class="st0" d="M46.8 787.9H193v21.7H46.8z"/><path id="XMLID_453_" class="st10" d="M46.8 809.6h17.5v122.6H46.8z"/><path id="XMLID_445_" class="st10" d="M175.5 809.6H193v122.6h-17.5z"/></g><g id="XMLID_449_"><path id="XMLID_516_" class="st0" d="M441.9 787.9h146.2v21.7H441.9z"/><path id="XMLID_454_" class="st10" d="M441.9 809.6h17.5v122.6h-17.5z"/><path id="XMLID_450_" class="st10" d="M570.6 809.6h17.5v122.6h-17.5z"/></g><g id="XMLID_389_"><path id="XMLID_382_" fill="#282828" d="M957.7 99.2h231.8v306.7H957.7z"/><g id="XMLID_385_"><g id="XMLID_440_"><path id="XMLID_510_" class="st12" d="M993 154.9c-.1-.2.1-.6.7-1.3.5-.7 1.2-1.6 2.1-2.6s1.8-2.2 2.8-3.5c1-1.3 2-2.6 2.9-4 .9-1.4 1.6-2.8 2.1-4.1.5-1.4.7-2.8.5-3.9-.1-.5-.5-1-1.1-1.3-.6-.3-1.3-.5-2.2-.7-.9-.1-1.8-.2-2.9-.2-1.1 0-2.1.1-3.1.2s-2 .3-2.9.5c-.9.2-1.7.4-2.3.6-.1 0-.4.1-.6.2-.3.1-.6.2-.9.4-.3.2-.7.3-1 .5l-.9.6c2.9 6.2 4.4 9.3 7.2 15.5.2.2.3.4.2.6-.1.3-.2.5-.5.8-.2.3-.5.4-.8.6-.3.1-.6.1-.9-.1-3-6.3-4.5-9.5-7.6-15.8-.1.1-.2.2-.4.3-.2.2-.4.3-.7.5-.2.2-.4.3-.6.5-.2.2-.3.3-.4.3 0 0-.1 0-.1.1-.1 0-.1.1-.1.1-.2.1-.4.1-.6.1-.2 0-.4-.1-.4-.2-.1-.3-.1-.6.1-.8s.4-.5.6-.8c.3-.3.6-.6.9-.8.3-.3.6-.6.9-1 .2-.4.4-.8.5-1.2.1-.4 0-1-.2-1.5.6-.2 1.1-.3 1.3-.2.2.1.4.2.4.4.1.2.2.3.3.5.1.2.4.2.8.2.9-.3 2-.7 3.3-1.1 1.3-.4 2.7-.7 4.2-1 1.5-.3 2.9-.5 4.4-.6 1.5-.1 2.8 0 4.1.2 1.2.2 2.3.6 3.1 1.1.8.5 1.3 1.3 1.5 2.3.2 1.5-.1 3.1-.7 4.7s-1.4 3.3-2.5 5c-1.1 1.7-2.4 3.4-3.9 5.2-1.5 1.8-3.1 3.6-4.8 5.5 0 0-.1 0-.1.1-.1 0-.1 0-.1.1-.3.1-.5 0-.8-.2-.6-.4-.8-.6-.8-.8z"/><path id="XMLID_507_" class="st12" d="M1023.6 147.6c-.5-.3-.8-.8-1-1.4-.2-.6-.4-1.2-.6-1.9-.2-.7-.3-1.4-.4-2-.1-.7-.3-1.2-.6-1.7-.9 2.1-1.8 3.9-2.7 5.2-.9 1.3-1.8 2.3-2.6 2.9-.8.7-1.6 1.1-2.4 1.2-.8.1-1.5.1-2.1-.1-.6-.2-1.1-.5-1.5-.8-.4-.4-.7-.8-.8-1.2-.3-.6-.6-1.5-.7-2.5-.1-1 0-2.1.2-3.2s.5-2.3 1-3.5c.5-1.2 1.1-2.2 1.8-3.2.8-.9 1.6-1.7 2.6-2.3 1-.6 2.1-.9 3.3-.9.6-.2 1.1-.2 1.5-.3.4 0 .8 0 1.1.2.3.1.5.4.7.7.2.3.4.8.5 1.3.4 1.6.7 3.3 1.1 4.5.5 1.2.9 2.2 1.4 3.1.5.9.9 1.7 1.3 2.4s.8 1.5.9 2.3c.1.3 0 .5-.2.7-.2.2-.4.3-.7.4-.3.1-.5.1-.8.1-.1.2-.2.2-.3 0zm-5.2-13.3c-.8-.4-1.6-.5-2.4-.3-.8.3-1.5.8-2.2 1.5-.7.7-1.2 1.6-1.8 2.6-.5 1-.9 2.1-1.2 3.2s-.4 2.2-.4 3.2.1 2 .5 2.6c.4.7 1.2 1.1 1.7 1.1.6 0 1.2-.2 1.7-.6.6-.4 1.1-1 1.6-1.8l1.5-2.4c.5-.9.8-1.7 1.2-2.5.3-.8.6-1.5.8-2.1-.3-1.8-.6-2.7-1-4.5z"/><path id="XMLID_504_" class="st12" d="M1023.5 124.7c0-.2.1-.4.3-.6.3-.1.5-.2.9-.3.7-.1 1.1-.1 1.3.2.2.2.4.6.4.9 0 .2-.3.4-.6.6-.3.1-.6.2-.9.2-.3 0-.6-.1-.9-.2-.3-.2-.5-.4-.5-.8zm1.5 5.5c.2-.1.4-.2.6-.2.2-.1.4-.1.7-.2h.6c.2 0 .5.1.5.2.4.7.4 2.5.7 3.9l.9 4.2.9 4.2c.3 1.4.5 2.7.8 3.8.1.3 0 .5-.2.7-.2.2-.5.3-.8.4-.3 0-.6 0-.8-.1-.3-.1-.4-.3-.5-.6-1.3-6.6-2-9.8-3.4-16.3z"/><path id="XMLID_476_" class="st12" d="M1029.7 123.2c.2-.1.3-.2.5-.3l.6-.3c.2-.1.4-.1.6 0 .2 0 .3.1.5.3 1.5 9.1 2.2 13.6 3.7 22.7-.1.2-.3.4-.5.5-.2.1-.4.2-.6.2-.2 0-.4 0-.6-.1-.2-.1-.3-.2-.4-.3-1.6-9.1-2.3-13.7-3.8-22.7z"/><path id="XMLID_474_" class="st12" d="M1047.3 144.3c-4.2-5.2-6.4-7.8-11-12.8-.3-.2-.4-.4-.3-.7.1-.2.3-.5.5-.6.3-.2.6-.3 1-.3s.8.1 1.1.3c3.8 4.5 5.7 6.7 9.2 11.3.9-5.7 1.4-8.5 2.4-14.2.2-.1.4-.1.6-.2.2-.1.5-.1.7-.1.3 0 .5 0 .7.1.2.1.4.2.4.4-.1.8-.2 1.7-.4 2.9s-.4 2.4-.7 3.6c-.2 1.2-.5 2.4-.7 3.6-.2 1.1-.4 2-.5 2.7-.1.4-.2.9-.3 1.6-.1.7-.2 1.4-.4 2.2-.1.8-.3 1.6-.4 2.5-.2.9-.3 1.7-.4 2.5-.1.8-.3 1.5-.4 2.2-.1.7-.3 1.2-.3 1.6 0 .2-.2.4-.4.5-.3.1-.5.2-.9.2-.3 0-.6 0-.9-.1-.3-.1-.5-.3-.5-.5.9-3.4 1.2-5.1 1.9-8.7z"/><path id="XMLID_472_" class="st12" d="M1102.2 123.8c-.1 0-.3.2-.6.6-.3.5-.7 1.1-1.1 1.8-.5.8-1 1.6-1.5 2.6s-1.1 1.9-1.7 2.8c-.6.9-1.2 1.8-1.8 2.6-.6.8-1.1 1.4-1.7 1.9-.5.5-1 .7-1.5.7-.4 0-.8-.4-1.1-1-.3-.5-.9-1.1-1.4-1.9-.5-.8-1.1-1.7-1.7-2.6-.6-.9-1.2-1.9-1.9-2.9s-1.4-1.9-2.1-2.8c-.7-.9-1.4-1.6-2.1-2.3-.7-.6-1.4-1.1-2-1.4 0 1.5.1 3 .3 4.8.2 1.7.5 3.5.7 5.3.3 1.8.5 3.5.7 5.3.2 1.7-.1 3.8.2 4.8 0 .2.1.4 0 .6-.1.2-.3.3-.6.4-.3.1-.5.1-.9 0-.3-.1-.6-.2-.9-.5-.3-1.9-.6-3.8-.7-5.7-.1-1.9-.3-3.9-.4-5.8-.1-2-.3-3.9-.5-5.8s-.6-3.8-1.1-5.7c0-.4.1-.6.3-.7.2-.1.5-.1.9-.1 1.4.3 2.6.7 3.6 1.4 1.1.7 2 1.5 2.9 2.4.8.9 1.6 1.9 2.3 2.9.7 1.1 1.3 2.1 2 3.2.6 1.1 1.3 2.1 1.9 3 .6 1 1.3 1.8 2.1 2.5.1 0 .2 0 .3-.1.1-.1.3-.2.4-.5.2-.3.5-.7.8-1.3.4-.6.9-1.4 1.5-2.4s1.4-2.3 2.4-3.8 2.2-3.4 3.6-5.6c.1-.1.2-.2.5-.2.2-.1.5-.1.8 0 .3 0 .5.1.8.3.2.1.4.4.4.7.1 1.7.2 3.6.2 5.5s.1 3.9.1 5.9c.1 2 .1 4 .3 6.1.1 2.1.3 4.1.6 6.1-.1.3-.2.4-.4.5-.2.1-.4.1-.7 0-.3-.1-.6-.1-.9-.3-.3-.1-.6-.3-.8-.5-.1-8.3-.2-12.5-.5-20.8z"/><path id="XMLID_469_" class="st12" d="M1109.9 138c-.2.1-.6.1-1.1 0-.5-.1-.9-.2-1.3-.4s-.7-.4-.8-.6c-.1-.2.1-.4.6-.6.2-.1.4-.1.7-.2h.7c.2 0 .5-.1.6-.1.2-.1.3-.2.3-.4.2-.8.4-1.7.7-2.5.3-.8.8-1.6 1.4-2.2.6-.6 1.4-1 2.5-1.3 1-.3 2.4-.2 3.9.1.6.1 1.2.3 1.9.6s1.3.7 2 1.1c.6.4 1.1.8 1.5 1.3.4.5.5 1.1.7 1.4.1.2 0 .4-.5.6-.5.2-1.1.4-2 .6-.8.2-1.8.4-2.8.6-1 .2-2 .4-3 .5-.9.2-1.8.3-2.5.5-.7.1-1.2.2-1.4.3.1.7.1 1.5.2 2.3.1.8.2 1.6.5 2.3.3.7.6 1.3 1.1 1.8.5.5 1.1.8 1.9 1 1.2.2 2.3.3 3.2.2.9-.1 1.7-.4 2.4-.8s1.2-.8 1.7-1.3.8-1 1.1-1.5c.3-.5.5-.9.6-1.2.1-.3.2-.5.3-.6.3 0 .7 0 1.1.2.4.2.6.5.5.9-.1.7-.5 1.5-1.2 2.3-.7.8-1.5 1.5-2.5 2.1-1 .6-2.2 1-3.4 1.3-1.3.3-2.6.1-3.9-.2-1.3-.3-2.5-.7-3.2-1.3-.7-.6-1.3-1.4-1.7-2.2-.4-.8-.6-1.7-.7-2.5 0-.7-.1-1.4-.1-2.1zm12.1-4.2c-.8-1-1.6-1.6-2.5-2-.9-.4-1.9-.6-2.9-.7-.6 0-1.2.1-1.7.3-.5.2-.9.6-1.3 1s-.6.9-.8 1.5c-.2.6-.3 1.2-.3 1.8 3.7-.8 5.6-1.2 9.5-1.9z"/><path id="XMLID_467_" class="st12" d="M1129.9 132.2c.1-.2.2-.3.4-.4.2-.1.5-.1.7-.1.3 0 .5.1.8.2.2.1.4.3.6.4-1 4.3-1.5 6.5-2.5 10.9.8-1.2 1.6-2.4 2.3-3.6.7-1.2 1.5-2.2 2.4-3.1.9-.9 1.9-1.6 3.1-2 1.2-.4 2.6-.5 4.3-.2.9.2 1.6.5 2.2 1.1.6.6 1 1.2 1.3 2 .3.8.5 1.7.5 2.6.1 1 0 2 0 3-.1 1-.2 2-.4 3s-.4 1.9-.6 2.7c-.2.8-.4 1.6-.6 2.2-.2.6-.3 1.1-.4 1.4-.3.3-.7.4-1.2.3-.5 0-.9-.3-1.2-.7.1-.3.2-.9.4-1.8.2-.8.5-1.8.7-2.9.3-1.1.5-2.2.7-3.4.2-1.2.3-2.4.3-3.4 0-1.1-.2-2-.6-2.8-.3-.8-.9-1.4-1.7-1.7-.7-.3-1.5-.2-2.3.2-.8.4-1.6 1-2.5 1.8-.8.8-1.6 1.7-2.4 2.7-.8 1-1.5 2.1-2.2 3.1-.7 1-1.2 2-1.7 2.9-.5.9-.8 1.7-1 2.1-.1.1-.3.2-.6.2h-.8c-.3-.1-.6-.1-.8-.3-.3-.1-.5-.3-.5-.5 1.3-6.4 2-9.5 3.3-15.9z"/><path id="XMLID_465_" class="st12" d="M1162.4 141.3c0-.1.2-.2.4-.3.2-.1.4-.1.7-.1.3 0 .5.1.8.3.3.2.5.5.7 1l-1.8 3.9c-.6 1.3-1.2 2.6-1.6 3.9-.4 1.3-.8 2.7-1 4-.2 1.4-.2 2.8 0 4.2 0 .1-.1.2-.3.3h-.7c-.3-.1-.5-.1-.8-.2-.3-.1-.4-.3-.5-.5.1-2 .1-2.9.1-4.9-.2.2-.6.4-1.2.7-.6.3-1.4.5-2.2.8-.8.2-1.6.4-2.4.5-.8.1-1.5.1-2 0-1.3-.3-2.2-.9-2.7-1.8s-.8-1.9-.8-3 .1-2.4.4-3.7c.3-1.3.7-2.6 1.1-3.8.4-1.2.8-2.3 1.2-3.2.4-1 .6-1.7.6-2.2.1-.1.3-.2.5-.2s.5 0 .7.1c.3.1.5.2.7.3.2.1.4.3.4.5 0 .5-.3 1.4-.6 2.3-.3.9-.6 1.9-1 2.9-.3 1-.6 2-.9 3.1-.3 1-.5 2-.5 2.9-.1.9-.1 1.7.1 2.3.2.7.6 1.2 1.1 1.4.4.2.9.2 1.5.1.5 0 1.1-.2 1.6-.3.6-.2 1.1-.4 1.6-.6.5-.2 1-.5 1.4-.8.4-.3.8-.5 1.1-.7.3-.2.5-.4.6-.6.1-.2.3-.5.5-1 .2-.4.4-1 .7-1.5s.5-1.2.8-1.8c.3-.7.5-1.3.8-1.8.2-.6.5-1.1.6-1.6.1-.4.2-.8.3-.9z"/></g></g><path id="XMLID_384_" class="st13" d="M999.4 187.8h148.4v6.3H999.4z"/><path id="XMLID_391_" class="st13" d="M999.4 212.2h148.4v6.3H999.4z"/><path id="XMLID_432_" class="st13" d="M999.4 235.6h148.4v6.3H999.4z"/><path id="XMLID_436_" class="st13" d="M999.4 257.7h148.4v6.3H999.4z"/><path id="XMLID_435_" class="st13" d="M999.4 282.1h148.4v6.3H999.4z"/><path id="XMLID_434_" class="st13" d="M999.4 305.5h148.4v6.3H999.4z"/><path id="XMLID_439_" class="st13" d="M999.4 328.9h148.4v6.3H999.4z"/><path id="XMLID_438_" class="st13" d="M999.4 353.3h148.4v6.3H999.4z"/><path id="XMLID_437_" class="st13" d="M999.4 376.7h148.4v6.3H999.4z"/></g><path id="XMLID_84_" d="M646.5 748.3S697 626.9 649 543c0 0-42.5 125.3-2.5 205.3z" fill="#54823b"/><path id="XMLID_62_" fill="#545554" d="M740.1 329H1006v18.5H740.1z"/><path id="XMLID_77_" fill="#919190" d="M740.1 347.5H1006v63.3H740.1z"/><path id="XMLID_79_" fill="#535353" d="M740.1 410H1006v70H740.1z"/><path id="XMLID_37_" class="st18" d="M733 595h667v244.7H733z"/><path id="XMLID_38_" class="st19" d="M733 595h667v43H733z"/><path id="XMLID_40_" fill="#87766e" d="M733 589h667v6H733z"/><path id="XMLID_39_" class="st19" d="M733 823.8h667v15.8H733z"/><path id="XMLID_41_" class="st21" d="M733 329h7.1v260H733z"/><path id="XMLID_68_" class="st21" d="M1006 329h7.1v260h-7.1z"/><path id="XMLID_42_" class="st22" d="M747 655.2h73v25.5h-73z"/><path id="XMLID_121_" class="st23" d="M792.8 689.5h73V715h-73z"/><path id="XMLID_122_" class="st23" d="M916.3 743.5h73V769h-73z"/><path id="XMLID_125_" class="st23" d="M1136.5 663.9h73v25.5h-73z"/><path id="XMLID_128_" class="st23" d="M1073.6 781.2h73v25.5h-73z"/><path id="XMLID_133_" class="st23" d="M1313.5 752.3h73v25.5h-73z"/><path id="XMLID_44_" class="st22" d="M829.3 782.5h73V808h-73z"/><path id="XMLID_49_" class="st22" d="M920.5 676.7h73v25.5h-73z"/><path id="XMLID_136_" class="st24" d="M1030 710.2h73v25.5h-73z"/><path id="XMLID_137_" class="st24" d="M1299 676.7h73v25.5h-73z"/><path id="XMLID_54_" class="st22" d="M1183.5 782.5h73V808h-73z"/><path id="XMLID_59_" class="st22" d="M1209.5 717.3h73v25.5h-73z"/><path id="XMLID_43_" fill="#1a2322" d="M740.1 579.3H1006v9.7H740.1z"/><path id="XMLID_64_" class="st21" d="M743.8 495.4h258.5v7.9H743.8z"/><path id="XMLID_65_" class="st21" d="M743.8 406.8h258.5v7.9H743.8z"/><path id="XMLID_63_" class="st26" d="M740.1 574.5H1006v4.8H740.1z"/><path id="XMLID_82_" fill="#bb5b42" d="M605 748.3v91.4l82.7-91.4z"/><path id="XMLID_83_" class="st18" d="M605 839.7h82.7v-91.4z"/><path id="XMLID_80_" d="M646.3 748.3S650 669 578 638c0 0 5.7 66.7 68.3 110.3z" fill="#6caa43"/><path id="XMLID_81_" d="M646.5 748.3S727.6 671 719 589c0 0-76.2 83-72.5 159.3z" fill="#406932"/><g id="XMLID_74_"><circle id="XMLID_85_" class="st12" cx="846.1" cy="185" r="19.7"/><path id="XMLID_88_" class="st30" d="M846.1 0h4.6v107h-4.6z"/><path id="XMLID_97_" class="st30" d="M880.7 156.4v-17.1c0-17.8-14.4-32.3-32.3-32.3-17.8 0-32.3 14.4-32.3 32.3v17.6c14.1-7.1 37.4-13.6 64.6-.5z"/><path id="XMLID_100_" class="st31" d="M816.1 156.9V185h64.5v-28.6c-27.1-13.1-50.4-6.6-64.5.5z"/><linearGradient id="XMLID_631_" gradientUnits="userSpaceOnUse" x1="848.3333" y1="399" x2="848.3333" y2="185"><stop offset="0" stop-opacity="0"/><stop offset="1" stop-color="#fff"/></linearGradient><path id="XMLID_105_" opacity=".5" fill="url(#XMLID_631_)" d="M879.9 185h-63.1l-67.5 214h198z"/></g><g id="XMLID_185_"><g id="XMLID_182_"><path id="XMLID_184_" class="st33" d="M784.7 574.8h-19.3c-1.1 0-2-.9-2-2l.1-26s-.2-.1-.4-.3c-8.2-5.2-7.3-19.2 1.4-23.1 4.3-1.9 10.7-3.5 20.3-3.5l-.1 54.9z"/><path id="XMLID_183_" class="st33" d="M784.7 574.8h19.1c1.1 0 2-.9 2-2l.1-26s.2-.1.4-.3c8.2-5.2 7.2-19.2-1.5-23.1-4.3-1.9-10.7-3.5-20.3-3.5l.2 54.9z"/></g><g id="XMLID_172_"><path id="XMLID_175_" class="st34" d="M784.7 571.8h-16.4c-1.1 0-2-.9-2-2v-24.5s-.1-.1-.4-.2c-7.1-4.5-6.3-16 1.3-19.4 3.7-1.7 9.3-3 17.6-3v49.1z"/><path id="XMLID_180_" class="st35" d="M784.6 571.8H801c1.1 0 2-.9 2-2v-24.5s.1-.1.4-.2c7.1-4.5 6.3-16-1.3-19.4-3.7-1.7-9.3-3-17.6-3v49.1z"/></g><path id="XMLID_181_" class="st36" d="M784.7 574.8h-19.3c-1.1 0-2-.9-2-2l.1-26s-.2-.1-.4-.3c-8.2-5.2-7.3-19.2 1.4-23.1 4.3-1.9 10.7-3.5 20.3-3.5l-.1 54.9z"/></g><g id="XMLID_140_"><g id="XMLID_151_"><path id="XMLID_153_" class="st33" d="M843.6 574.6h-19.3c-1.1 0-2-.9-2-2l.1-26s-.2-.1-.4-.3c-8.2-5.2-7.3-19.2 1.4-23.1 4.3-1.9 10.7-3.5 20.3-3.5l-.1 54.9z"/><path id="XMLID_152_" class="st33" d="M843.6 574.6h19.1c1.1 0 2-.9 2-2l.1-26s.2-.1.4-.3c8.2-5.2 7.2-19.2-1.5-23.1-4.3-1.9-10.7-3.5-20.3-3.5l.2 54.9z"/></g><g id="XMLID_142_"><path id="XMLID_145_" class="st34" d="M843.5 571.6h-16.4c-1.1 0-2-.9-2-2v-24.5s-.1-.1-.4-.2c-7.1-4.5-6.3-16 1.3-19.4 3.7-1.7 9.3-3 17.6-3v49.1z"/><path id="XMLID_143_" class="st35" d="M843.4 571.6h16.4c1.1 0 2-.9 2-2v-24.5s.1-.1.4-.2c7.1-4.5 6.3-16-1.3-19.4-3.7-1.7-9.3-3-17.6-3v49.1z"/></g><path id="XMLID_141_" class="st36" d="M843.6 574.6h-19.3c-1.1 0-2-.9-2-2l.1-26s-.2-.1-.4-.3c-8.2-5.2-7.3-19.2 1.4-23.1 4.3-1.9 10.7-3.5 20.3-3.5l-.1 54.9z"/></g><g id="XMLID_162_"><g id="XMLID_167_"><path id="XMLID_169_" class="st33" d="M902.4 574.6h-19.3c-1.1 0-2-.9-2-2l.1-26s-.2-.1-.4-.3c-8.2-5.2-7.3-19.2 1.4-23.1 4.3-1.9 10.7-3.5 20.3-3.5l-.1 54.9z"/><path id="XMLID_168_" class="st33" d="M902.4 574.6h19.1c1.1 0 2-.9 2-2l.1-26s.2-.1.4-.3c8.2-5.2 7.2-19.2-1.5-23.1-4.3-1.9-10.7-3.5-20.3-3.5l.2 54.9z"/></g><g id="XMLID_164_"><path id="XMLID_166_" class="st34" d="M902.4 571.5H886c-1.1 0-2-.9-2-2V545s-.1-.1-.4-.2c-7.1-4.5-6.3-16 1.3-19.4 3.7-1.7 9.3-3 17.6-3v49.1z"/><path id="XMLID_165_" class="st35" d="M902.3 571.5h16.4c1.1 0 2-.9 2-2V545s.1-.1.4-.2c7.1-4.5 6.3-16-1.3-19.4-3.7-1.7-9.3-3-17.6-3v49.1z"/></g><path id="XMLID_163_" class="st36" d="M902.4 574.6h-19.3c-1.1 0-2-.9-2-2l.1-26s-.2-.1-.4-.3c-8.2-5.2-7.3-19.2 1.4-23.1 4.3-1.9 10.7-3.5 20.3-3.5l-.1 54.9z"/></g><g id="XMLID_154_"><g id="XMLID_159_"><path id="XMLID_161_" class="st33" d="M961.4 574.8h-19.3c-1.1 0-2-.9-2-2l.1-26s-.2-.1-.4-.3c-8.2-5.2-7.3-19.2 1.4-23.1 4.3-1.9 10.7-3.5 20.3-3.5l-.1 54.9z"/><path id="XMLID_160_" class="st33" d="M961.4 574.8h19.1c1.1 0 2-.9 2-2l.1-26s.2-.1.4-.3c8.2-5.2 7.2-19.2-1.5-23.1-4.3-1.9-10.7-3.5-20.3-3.5l.2 54.9z"/></g><g id="XMLID_156_"><path id="XMLID_158_" class="st34" d="M961.3 571.8h-16.4c-1.1 0-2-.9-2-2v-24.5s-.1-.1-.4-.2c-7.1-4.5-6.3-16 1.3-19.4 3.7-1.7 9.3-3 17.6-3v49.1z"/><path id="XMLID_157_" class="st35" d="M961.2 571.8h16.4c1.1 0 2-.9 2-2v-24.5s.1-.1.4-.2c7.1-4.5 6.3-16-1.3-19.4-3.7-1.7-9.3-3-17.6-3v49.1z"/></g><path id="XMLID_155_" class="st36" d="M961.4 574.8h-19.3c-1.1 0-2-.9-2-2l.1-26s-.2-.1-.4-.3c-8.2-5.2-7.3-19.2 1.4-23.1 4.3-1.9 10.7-3.5 20.3-3.5l-.1 54.9z"/></g><g id="XMLID_379_"><path id="XMLID_478_" class="st37" d="M759.1 464.8l-10.6 17.1c-3.7 5.9.6 13.5 7.5 13.5h21.4c7 0 11.2-7.7 7.5-13.6l-10.8-17.1c-3.5-5.4-11.5-5.4-15 .1z"/><path id="XMLID_479_" class="st38" d="M759.3 480.9h14.9v14.4h-14.9z"/><path id="XMLID_480_" class="st39" d="M772.9 470.5s2.9-.1.5.8c0 0 1.8-.8-.5-.8z"/><path id="XMLID_503_" class="st39" d="M778.3 475.9s2.4-1.7.9.5c-.1 0 1.1-1.7-.9-.5z"/><path id="XMLID_481_" class="st39" d="M753.7 483.7s-2.9-1.7 0-1.1c.1.1-2.2-.3 0 1.1z"/><path id="XMLID_494_" class="st39" d="M757.4 475.3s-2.9-1.7 0-1.1c.1 0-2.1-.4 0 1.1z"/><path id="XMLID_490_" class="st39" d="M755.4 494.3s-2.6 2.1-1-.4c0 0-1.1 2 1 .4z"/><path id="XMLID_483_" class="st39" d="M765.6 462.6s-1.4-3 .6-.8c0-.1-1.6-1.7-.6.8z"/><path id="XMLID_485_" class="st39" d="M757.7 469.9s-1.4-3 .6-.8c0 0-1.6-1.6-.6.8z"/><path id="XMLID_482_" class="st39" d="M764.6 472.8s-.3 3.3-1 .4c0 0 .6 2.2 1-.4z"/><path id="XMLID_486_" class="st39" d="M762.4 479s-1.8 1.4-.7-.3c.1 0-.7 1.3.7.3z"/><path id="XMLID_491_" class="st39" d="M749.9 489.4s-1.8 1.4-.7-.3c0 0-.8 1.3.7.3z"/><path id="XMLID_489_" class="st39" d="M768.1 478.7s.4 1.6-.4.3c0 .1.6 1 .4-.3z"/><path id="XMLID_492_" class="st39" d="M757.4 491.3s.4 1.6-.4.3c0 .1.6 1 .4-.3z"/><path id="XMLID_496_" class="st39" d="M757.1 480.9s.4 1.6-.4.3c.1 0 .7.9.4-.3z"/><path id="XMLID_487_" class="st39" d="M766.7 467.8s1-2 .7 0c.1 0 .2-1.5-.7 0z"/><path id="XMLID_488_" class="st39" d="M769.5 475.6s1-2 .7 0c0-.1.2-1.6-.7 0z"/><path id="XMLID_493_" class="st39" d="M753.9 488.7s1-2 .7 0c0-.1.1-1.6-.7 0z"/><path id="XMLID_502_" class="st39" d="M780.7 483s2.9-1.7 0-1.1c-.1.1 2.1-.3 0 1.1z"/><path id="XMLID_501_" class="st39" d="M779 493.6s2.6 2.1 1-.4c0 0 1.1 2-1 .4z"/><path id="XMLID_500_" class="st39" d="M784.5 488.7s1.8 1.4.7-.3c-.1 0 .7 1.3-.7.3z"/><path id="XMLID_499_" class="st39" d="M777 490.6s-.4 1.6.4.3c0 .1-.6 1-.4-.3z"/><path id="XMLID_498_" class="st39" d="M777.2 480.2s-.4 1.6.4.3c0 .1-.6.9-.4-.3z"/><path id="XMLID_497_" class="st39" d="M780.5 488s-1-2-.7 0c0 0-.2-1.5.7 0z"/><path id="XMLID_495_" class="st39" d="M752.9 477.5s-.9-2.1.4-.6c0 0-1-1.1-.4.6z"/><path id="XMLID_484_" class="st39" d="M773.4 478.4s2.4 2.3-.3 1c0 0 2.1.9.3-1z"/></g><g id="XMLID_170_"><path id="XMLID_204_" class="st37" d="M812.2 464.3l-10.6 17.1c-3.7 5.9.6 13.5 7.5 13.5h21.4c7 0 11.2-7.7 7.5-13.6l-10.8-17.1c-3.5-5.5-11.6-5.5-15 .1z"/><path id="XMLID_203_" class="st38" d="M812.4 480.3h14.9v14.4h-14.9z"/><path id="XMLID_202_" class="st39" d="M826 469.9s2.9-.1.5.8c0 0 1.8-.8-.5-.8z"/><path id="XMLID_201_" class="st39" d="M831.3 475.3s2.4-1.7.9.5c0 0 1.1-1.7-.9-.5z"/><path id="XMLID_200_" class="st39" d="M806.8 483.2s-2.9-1.7 0-1.1c0 0-2.2-.4 0 1.1z"/><path id="XMLID_199_" class="st39" d="M810.5 474.7s-2.9-1.7 0-1.1c0 .1-2.2-.4 0 1.1z"/><path id="XMLID_198_" class="st39" d="M808.4 493.7s-2.6 2.1-1-.4c.1.1-1 2 1 .4z"/><path id="XMLID_197_" class="st39" d="M818.7 462s-1.4-3 .6-.8c0 0-1.6-1.6-.6.8z"/><path id="XMLID_196_" class="st39" d="M810.8 469.4s-1.4-3 .6-.8c0-.1-1.6-1.6-.6.8z"/><path id="XMLID_195_" class="st39" d="M817.6 472.2s-.3 3.3-1 .4c.1 0 .7 2.2 1-.4z"/><path id="XMLID_194_" class="st39" d="M815.5 478.5s-1.8 1.4-.7-.3c0 0-.8 1.3.7.3z"/><path id="XMLID_193_" class="st39" d="M802.9 488.8s-1.8 1.4-.7-.3c.1 0-.7 1.3.7.3z"/><path id="XMLID_192_" class="st39" d="M821.1 478.2s.4 1.6-.4.3c.1 0 .7.9.4-.3z"/><path id="XMLID_191_" class="st39" d="M810.4 490.8s.4 1.6-.4.3c.1 0 .7.9.4-.3z"/><path id="XMLID_190_" class="st39" d="M810.2 480.3s.4 1.6-.4.3c0 .1.6 1 .4-.3z"/><path id="XMLID_189_" class="st39" d="M819.8 467.3s1-2 .7 0c0-.1.1-1.6-.7 0z"/><path id="XMLID_188_" class="st39" d="M822.6 475s1-2 .7 0c0 0 .1-1.5-.7 0z"/><path id="XMLID_187_" class="st39" d="M806.9 488.1s1-2 .7 0c.1 0 .2-1.5-.7 0z"/><path id="XMLID_186_" class="st39" d="M833.7 482.5s2.9-1.7 0-1.1c0 0 2.2-.4 0 1.1z"/><path id="XMLID_179_" class="st39" d="M832 493s2.6 2.1 1-.4c0 .1 1.1 2-1 .4z"/><path id="XMLID_178_" class="st39" d="M837.5 488.1s1.8 1.4.7-.3c0 0 .8 1.3-.7.3z"/><path id="XMLID_177_" class="st39" d="M830.1 490.1s-.4 1.6.4.3c-.1 0-.7.9-.4-.3z"/><path id="XMLID_176_" class="st39" d="M830.3 479.7s-.4 1.6.4.3c0 0-.7.9-.4-.3z"/><path id="XMLID_174_" class="st39" d="M833.5 487.4s-1-2-.7 0c0 0-.1-1.5.7 0z"/><path id="XMLID_173_" class="st39" d="M806 476.9s-.9-2.1.4-.6c0 .1-1.1-1-.4.6z"/><path id="XMLID_171_" class="st39" d="M826.5 477.9s2.4 2.3-.3 1c0 0 2 .9.3-1z"/></g><g id="XMLID_232_"><path id="XMLID_258_" class="st37" d="M864.6 464.1L854 481.2c-3.7 5.9.6 13.5 7.5 13.5H883c7 0 11.2-7.7 7.5-13.6L879.6 464c-3.5-5.5-11.5-5.4-15 .1z"/><path id="XMLID_257_" class="st38" d="M864.8 480.2h14.9v14.4h-14.9z"/><path id="XMLID_256_" class="st39" d="M878.4 469.7s2.9-.1.5.8c0 .1 1.8-.7-.5-.8z"/><path id="XMLID_255_" class="st39" d="M883.8 475.2s2.4-1.7.9.5c-.1-.1 1-1.7-.9-.5z"/><path id="XMLID_254_" class="st39" d="M859.2 483s-2.9-1.7 0-1.1c0 0-2.2-.4 0 1.1z"/><path id="XMLID_253_" class="st39" d="M862.9 474.5s-2.9-1.7 0-1.1c.1.1-2.2-.3 0 1.1z"/><path id="XMLID_252_" class="st39" d="M860.9 493.6s-2.6 2.1-1-.4c0 0-1.1 1.9 1 .4z"/><path id="XMLID_251_" class="st39" d="M871.1 461.8s-1.4-3 .6-.8c0 0-1.6-1.6-.6.8z"/><path id="XMLID_250_" class="st39" d="M863.2 469.2s-1.4-3 .6-.8c0 0-1.6-1.6-.6.8z"/><path id="XMLID_249_" class="st39" d="M870.1 472s-.3 3.3-1 .4c0 .1.6 2.2 1-.4z"/><path id="XMLID_248_" class="st39" d="M867.9 478.3s-1.8 1.4-.7-.3c.1 0-.7 1.3.7.3z"/><path id="XMLID_247_" class="st39" d="M855.4 488.6s-1.8 1.4-.7-.3c0 .1-.8 1.3.7.3z"/><path id="XMLID_246_" class="st39" d="M873.6 478s.4 1.6-.4.3c0 0 .6.9.4-.3z"/><path id="XMLID_245_" class="st39" d="M862.9 490.6s.4 1.6-.4.3c0 0 .6.9.4-.3z"/><path id="XMLID_244_" class="st39" d="M862.6 480.2s.4 1.6-.4.3c.1 0 .7.9.4-.3z"/><path id="XMLID_243_" class="st39" d="M872.2 467.1s1-2 .7 0c0-.1.2-1.6-.7 0z"/><path id="XMLID_242_" class="st39" d="M875 474.8s1-2 .7 0c0 0 .2-1.5-.7 0z"/><path id="XMLID_241_" class="st39" d="M859.4 488s1-2 .7 0c0-.1.1-1.6-.7 0z"/><path id="XMLID_240_" class="st39" d="M886.2 482.3s2.9-1.7 0-1.1c-.1 0 2.1-.4 0 1.1z"/><path id="XMLID_239_" class="st39" d="M884.5 492.9s2.6 2.1 1-.4c0 0 1.1 1.9-1 .4z"/><path id="XMLID_238_" class="st39" d="M890 487.9s1.8 1.4.7-.3c-.1.1.7 1.4-.7.3z"/><path id="XMLID_237_" class="st39" d="M882.5 489.9s-.4 1.6.4.3c0 .1-.6.9-.4-.3z"/><path id="XMLID_236_" class="st39" d="M882.7 479.5s-.4 1.6.4.3c0 0-.6.9-.4-.3z"/><path id="XMLID_235_" class="st39" d="M886 487.3s-1-2-.7 0c0-.1-.2-1.6.7 0z"/><path id="XMLID_234_" class="st39" d="M858.4 476.7s-.9-2.1.4-.6c0 .1-1-1-.4.6z"/><path id="XMLID_233_" class="st39" d="M878.9 477.7s2.4 2.3-.3 1c0 0 2.1.9.3-1z"/></g><g id="XMLID_205_"><path id="XMLID_231_" class="st37" d="M917.7 463.5l-10.6 17.1c-3.7 5.9.6 13.5 7.5 13.5H936c7 0 11.2-7.7 7.5-13.6l-10.8-17.1c-3.5-5.4-11.6-5.4-15 .1z"/><path id="XMLID_230_" class="st38" d="M917.9 479.6h14.9V494h-14.9z"/><path id="XMLID_229_" class="st39" d="M931.5 469.2s2.9-.1.5.8c0 0 1.8-.8-.5-.8z"/><path id="XMLID_228_" class="st39" d="M936.8 474.6s2.4-1.7.9.5c0 0 1.1-1.7-.9-.5z"/><path id="XMLID_227_" class="st39" d="M912.3 482.4s-2.9-1.7 0-1.1c0 .1-2.2-.3 0 1.1z"/><path id="XMLID_226_" class="st39" d="M916 474s-2.9-1.7 0-1.1c0 0-2.2-.4 0 1.1z"/><path id="XMLID_225_" class="st39" d="M913.9 493s-2.6 2.1-1-.4c.1 0-1.1 2 1 .4z"/><path id="XMLID_224_" class="st39" d="M924.2 461.3s-1.4-3 .6-.8c0-.1-1.6-1.6-.6.8z"/><path id="XMLID_223_" class="st39" d="M916.2 468.7s-1.4-3 .6-.8c.1-.1-1.5-1.7-.6.8z"/><path id="XMLID_222_" class="st39" d="M923.1 471.5s-.3 3.3-1 .4c.1 0 .7 2.2 1-.4z"/><path id="XMLID_221_" class="st39" d="M921 477.7s-1.8 1.4-.7-.3c0 0-.8 1.3.7.3z"/><path id="XMLID_220_" class="st39" d="M908.4 488.1s-1.8 1.4-.7-.3c.1 0-.7 1.3.7.3z"/><path id="XMLID_219_" class="st39" d="M926.6 477.4s.4 1.6-.4.3c.1.1.7 1 .4-.3z"/><path id="XMLID_218_" class="st39" d="M915.9 490s.4 1.6-.4.3c0 .1.7 1 .4-.3z"/><path id="XMLID_217_" class="st39" d="M915.7 479.6s.4 1.6-.4.3c0 .1.6.9.4-.3z"/><path id="XMLID_216_" class="st39" d="M925.3 466.5s1-2 .7 0c0 0 .1-1.5-.7 0z"/><path id="XMLID_215_" class="st39" d="M928.1 474.3s1-2 .7 0c0-.1.1-1.6-.7 0z"/><path id="XMLID_214_" class="st39" d="M912.4 487.4s1-2 .7 0c0 0 .2-1.6-.7 0z"/><path id="XMLID_213_" class="st39" d="M939.2 481.7s2.9-1.7 0-1.1c0 .1 2.2-.3 0 1.1z"/><path id="XMLID_212_" class="st39" d="M937.5 492.3s2.6 2.1 1-.4c0 0 1.1 2-1 .4z"/><path id="XMLID_211_" class="st39" d="M943 487.4s1.8 1.4.7-.3c0 0 .8 1.3-.7.3z"/><path id="XMLID_210_" class="st39" d="M935.5 489.4s-.4 1.6.4.3c0 0-.6.9-.4-.3z"/><path id="XMLID_209_" class="st39" d="M935.8 478.9s-.4 1.6.4.3c0 .1-.7.9-.4-.3z"/><path id="XMLID_208_" class="st39" d="M939 486.7s-1-2-.7 0c0 0-.1-1.5.7 0z"/><path id="XMLID_207_" class="st39" d="M911.4 476.2s-.9-2.1.4-.6c.1 0-1-1.1-.4.6z"/><path id="XMLID_206_" class="st39" d="M931.9 477.1s2.4 2.3-.3 1c.1 0 2.1.9.3-1z"/></g><g id="XMLID_259_"><path id="XMLID_285_" class="st37" d="M973.2 463.5l-10.6 17.1c-3.7 5.9.6 13.5 7.5 13.5h21.4c7 0 11.2-7.7 7.5-13.6l-10.8-17.1c-3.5-5.4-11.6-5.4-15 .1z"/><path id="XMLID_284_" class="st38" d="M973.4 479.6h14.9V494h-14.9z"/><path id="XMLID_283_" class="st39" d="M987 469.2s2.9-.1.5.8c0 0 1.8-.8-.5-.8z"/><path id="XMLID_282_" class="st39" d="M992.3 474.6s2.4-1.7.9.5c0 0 1.1-1.7-.9-.5z"/><path id="XMLID_281_" class="st39" d="M967.8 482.4s-2.9-1.7 0-1.1c0 .1-2.2-.3 0 1.1z"/><path id="XMLID_280_" class="st39" d="M971.5 474s-2.9-1.7 0-1.1c0 0-2.2-.4 0 1.1z"/><path id="XMLID_279_" class="st39" d="M969.4 493s-2.6 2.1-1-.4c.1 0-1.1 2 1 .4z"/><path id="XMLID_278_" class="st39" d="M979.7 461.3s-1.4-3 .6-.8c0-.1-1.6-1.6-.6.8z"/><path id="XMLID_277_" class="st39" d="M971.7 468.7s-1.4-3 .6-.8c.1-.1-1.5-1.7-.6.8z"/><path id="XMLID_276_" class="st39" d="M978.6 471.5s-.3 3.3-1 .4c.1 0 .7 2.2 1-.4z"/><path id="XMLID_275_" class="st39" d="M976.5 477.7s-1.8 1.4-.7-.3c0 0-.8 1.3.7.3z"/><path id="XMLID_274_" class="st39" d="M963.9 488.1s-1.8 1.4-.7-.3c.1 0-.7 1.3.7.3z"/><path id="XMLID_273_" class="st39" d="M982.1 477.4s.4 1.6-.4.3c.1.1.7 1 .4-.3z"/><path id="XMLID_272_" class="st39" d="M971.4 490s.4 1.6-.4.3c0 .1.7 1 .4-.3z"/><path id="XMLID_271_" class="st39" d="M971.2 479.6s.4 1.6-.4.3c0 .1.6.9.4-.3z"/><path id="XMLID_270_" class="st39" d="M980.8 466.5s1-2 .7 0c0 0 .1-1.5-.7 0z"/><path id="XMLID_269_" class="st39" d="M983.6 474.3s1-2 .7 0c0-.1.1-1.6-.7 0z"/><path id="XMLID_268_" class="st39" d="M967.9 487.4s1-2 .7 0c.1 0 .2-1.6-.7 0z"/><path id="XMLID_267_" class="st39" d="M994.7 481.7s2.9-1.7 0-1.1c0 .1 2.2-.3 0 1.1z"/><path id="XMLID_266_" class="st39" d="M993 492.3s2.6 2.1 1-.4c0 0 1.1 2-1 .4z"/><path id="XMLID_265_" class="st39" d="M998.5 487.4s1.8 1.4.7-.3c0 0 .8 1.3-.7.3z"/><path id="XMLID_264_" class="st39" d="M991.1 489.4s-.4 1.6.4.3c-.1 0-.7.9-.4-.3z"/><path id="XMLID_263_" class="st39" d="M991.3 478.9s-.4 1.6.4.3c0 .1-.7.9-.4-.3z"/><path id="XMLID_262_" class="st39" d="M994.5 486.7s-1-2-.7 0c0 0-.1-1.5.7 0z"/><path id="XMLID_261_" class="st39" d="M966.9 476.2s-.9-2.1.4-.6c.1 0-1-1.1-.4.6z"/><path id="XMLID_260_" class="st39" d="M987.5 477.1s2.4 2.3-.3 1c0 0 2 .9.3-1z"/></g><g id="XMLID_321_"><path id="XMLID_296_" class="st40" d="M780.2 406.9h-7.5c-1.4 0-2.5-1.1-2.5-2.5h12.6c-.1 1.3-1.2 2.5-2.6 2.5z"/><path id="XMLID_295_" class="st41" d="M748.5 375.9s-.1 29.2 27.9 29.2v-20.8l-27.9-8.4z"/><path id="XMLID_294_" class="st41" d="M804.3 375.9s.1 29.2-27.9 29.2v-20.8l27.9-8.4z"/><ellipse id="XMLID_293_" class="st42" cx="776.4" cy="375.9" rx="27.9" ry="10.6"/><ellipse id="XMLID_292_" class="st43" cx="776.4" cy="375.3" rx="23.9" ry="9"/><path id="XMLID_291_" class="st12" d="M753 377.2s1.2-1.8 2.6-2.3c0 0 1.7-2.7 4.7-3.1 0 0 1.8-2.5 6.9-2.2 0 0 4.6-2.2 7.9-1.5 0 0 5.7-1.7 8.7 1.2 0 0 4.6-.5 6.5 1.8 0 0 2.4-.3 4.8 2.9 0 0 3.4-.5 4.9 2.8 0 0-2.3 7.1-23.6 7.6 0-.1-18.4.1-23.4-7.2z"/><path id="XMLID_290_" class="st39" d="M766.2 377.5s-2.4-2.1.6-1.2c-.1.1-3.9-1.4-.6 1.2z"/><path id="XMLID_289_" class="st39" d="M772.1 370.8s2.4-2.2 1.1.7c0 0 1.9-3.7-1.1-.7z"/><path id="XMLID_288_" class="st39" d="M777.8 377s-.3-4.7 2.3-.8c0 0-2.2-3-2.3.8z"/><path id="XMLID_287_" class="st39" d="M790.3 375.7s3.6-3.2 2 1.3c0 0 1-3.6-2-1.3z"/><path id="XMLID_286_" class="st39" d="M783.8 380.8s3.2-.7.4 1.3c.1 0 2.2-1.5-.4-1.3z"/><path id="XMLID_92_" class="st39" d="M774.9 381.4s1.2 1.8 1.5-.2c0 0 0 2.9-1.5.2z"/></g><g id="XMLID_115_"><path id="XMLID_310_" class="st40" d="M847.6 406.9h-7.5c-1.4 0-2.5-1.1-2.5-2.5h12.6c-.1 1.3-1.2 2.5-2.6 2.5z"/><path id="XMLID_309_" class="st41" d="M816 375.9s-.1 29.2 27.9 29.2v-20.8l-27.9-8.4z"/><path id="XMLID_308_" class="st41" d="M871.7 375.9s.1 29.2-27.9 29.2v-20.8l27.9-8.4z"/><ellipse id="XMLID_307_" class="st42" cx="843.8" cy="375.9" rx="27.9" ry="10.6"/><ellipse id="XMLID_306_" class="st43" cx="843.8" cy="375.3" rx="23.9" ry="9"/><path id="XMLID_304_" class="st12" d="M820.5 377.2s1.2-1.8 2.6-2.3c0 0 1.7-2.7 4.7-3.1 0 0 1.8-2.5 6.9-2.2 0 0 4.6-2.2 7.9-1.5 0 0 5.7-1.7 8.7 1.2 0 0 4.6-.5 6.5 1.8 0 0 2.4-.3 4.8 2.9 0 0 3.4-.5 4.9 2.8 0 0-2.3 7.1-23.6 7.6-.1-.1-18.5.1-23.4-7.2z"/><path id="XMLID_300_" class="st39" d="M833.6 377.5s-2.4-2.1.6-1.2c0 .1-3.9-1.4-.6 1.2z"/><path id="XMLID_299_" class="st39" d="M839.5 370.8s2.4-2.2 1.1.7c0 0 1.9-3.7-1.1-.7z"/><path id="XMLID_298_" class="st39" d="M845.3 377s-.3-4.7 2.3-.8c0 0-2.2-3-2.3.8z"/><path id="XMLID_297_" class="st39" d="M857.8 375.7s3.6-3.2 2 1.3c0 0 1-3.6-2-1.3z"/><path id="XMLID_118_" class="st39" d="M851.3 380.8s3.2-.7.4 1.3c0 0 2.1-1.5-.4-1.3z"/><path id="XMLID_117_" class="st39" d="M842.3 381.4s1.2 1.8 1.5-.2c0 0 .1 2.9-1.5.2z"/></g><g id="XMLID_325_"><path id="XMLID_337_" class="st40" d="M911.3 407.2h-7.5c-1.4 0-2.5-1.1-2.5-2.5h12.6c-.1 1.4-1.2 2.5-2.6 2.5z"/><path id="XMLID_336_" class="st41" d="M879.7 376.2s-.1 29.2 27.9 29.2v-20.8l-27.9-8.4z"/><path id="XMLID_335_" class="st41" d="M935.4 376.2s.1 29.2-27.9 29.2v-20.8l27.9-8.4z"/><ellipse id="XMLID_334_" class="st42" cx="907.5" cy="376.2" rx="27.9" ry="10.6"/><ellipse id="XMLID_333_" class="st43" cx="907.5" cy="375.7" rx="23.9" ry="9"/><path id="XMLID_332_" class="st12" d="M884.2 377.6s1.2-1.8 2.6-2.3c0 0 1.7-2.7 4.7-3.1 0 0 1.8-2.5 6.9-2.2 0 0 4.6-2.2 7.9-1.5 0 0 5.7-1.7 8.7 1.2 0 0 4.6-.5 6.5 1.8 0 0 2.4-.3 4.8 2.9 0 0 3.4-.5 4.9 2.8 0 0-2.3 7.1-23.6 7.6-.1-.2-18.5 0-23.4-7.2z"/><path id="XMLID_331_" class="st39" d="M897.3 377.9s-2.4-2.1.6-1.2c0 .1-3.9-1.4-.6 1.2z"/><path id="XMLID_330_" class="st39" d="M903.2 371.2s2.4-2.2 1.1.7c0 0 1.9-3.8-1.1-.7z"/><path id="XMLID_329_" class="st39" d="M909 377.3s-.3-4.7 2.3-.8c-.1.1-2.2-2.9-2.3.8z"/><path id="XMLID_328_" class="st39" d="M921.5 376s3.6-3.2 2 1.3c0 .1 1-3.5-2-1.3z"/><path id="XMLID_327_" class="st39" d="M915 381.2s3.2-.7.4 1.3c0 0 2.1-1.5-.4-1.3z"/><path id="XMLID_326_" class="st39" d="M906 381.8s1.2 1.8 1.5-.2c0 0 .1 2.8-1.5.2z"/></g><g id="XMLID_311_"><path id="XMLID_324_" class="st40" d="M978.7 407.2h-7.5c-1.4 0-2.5-1.1-2.5-2.5h12.6c0 1.4-1.2 2.5-2.6 2.5z"/><path id="XMLID_323_" class="st41" d="M947.1 376.2s-.1 29.2 27.9 29.2v-20.8l-27.9-8.4z"/><path id="XMLID_322_" class="st41" d="M1002.8 376.2s.1 29.2-27.9 29.2v-20.8l27.9-8.4z"/><ellipse id="XMLID_320_" class="st42" cx="975" cy="376.2" rx="27.9" ry="10.6"/><ellipse id="XMLID_319_" class="st43" cx="975" cy="375.7" rx="23.9" ry="9"/><path id="XMLID_318_" class="st12" d="M951.6 377.6s1.2-1.8 2.6-2.3c0 0 1.7-2.7 4.7-3.1 0 0 1.8-2.5 6.9-2.2 0 0 4.6-2.2 7.9-1.5 0 0 5.7-1.7 8.7 1.2 0 0 4.6-.5 6.5 1.8 0 0 2.4-.3 4.8 2.9 0 0 3.4-.5 4.9 2.8 0 0-2.3 7.1-23.6 7.6 0-.2-18.4 0-23.4-7.2z"/><path id="XMLID_317_" class="st39" d="M964.7 377.9s-2.4-2.1.6-1.2c0 .1-3.9-1.4-.6 1.2z"/><path id="XMLID_316_" class="st39" d="M970.7 371.2s2.4-2.2 1.1.7c0 0 1.8-3.8-1.1-.7z"/><path id="XMLID_315_" class="st39" d="M976.4 377.3s-.3-4.7 2.3-.8c0 .1-2.2-2.9-2.3.8z"/><path id="XMLID_314_" class="st39" d="M988.9 376s3.6-3.2 2 1.3c0 .1 1-3.5-2-1.3z"/><path id="XMLID_313_" class="st39" d="M982.4 381.2s3.2-.7.4 1.3c.1 0 2.2-1.5-.4-1.3z"/><path id="XMLID_312_" class="st39" d="M973.5 381.8s1.2 1.8 1.5-.2c0 0 0 2.8-1.5.2z"/></g><linearGradient id="XMLID_632_" gradientUnits="userSpaceOnUse" x1="827.3503" y1="322.016" x2="764.3503" y2="482.516"><stop offset="0" stop-opacity="0"/><stop offset="1" stop-color="#fff"/></linearGradient><path id="XMLID_112_" opacity=".5" fill="url(#XMLID_632_)" d="M819.3 329l-79.2 102v54.8l129-156.8z"/><linearGradient id="XMLID_633_" gradientUnits="userSpaceOnUse" x1="907.613" y1="320.9069" x2="825.113" y2="650.4069"><stop offset="0" stop-opacity="0"/><stop offset="1" stop-color="#fff"/></linearGradient><path id="XMLID_338_" opacity=".5" fill="url(#XMLID_633_)" d="M740.1 589l224.3-260h41.6L783.8 589z"/><linearGradient id="XMLID_634_" gradientUnits="userSpaceOnUse" x1="969.494" y1="451.0343" x2="927.0594" y2="620.5156"><stop offset="0" stop-opacity="0"/><stop offset="1" stop-color="#fff"/></linearGradient><path id="XMLID_339_" opacity=".5" fill="url(#XMLID_634_)" d="M883.6 589L1006 451.7v58.6L928.8 589z"/><g id="XMLID_340_"><path id="XMLID_356_" class="st47" d="M1201.4 539.9h-26.7v-15c0-11.2 9.1-20.3 20.3-20.3h6.3l.1 35.3z"/><path id="XMLID_355_" class="st47" d="M1264.1 539.9h26.7v-15c0-11.2-9.1-20.3-20.3-20.3h-6.3l-.1 35.3z"/><path id="XMLID_354_" d="M1234.7 490.9h-4c-21.4 0-38.8 17.4-38.8 38.8V589h81.6v-59.3c0-21.4-17.4-38.8-38.8-38.8z" fill="#b0aeae"/><path id="XMLID_353_" class="st49" d="M1232.7 503.7c-7.9 0-14.2-6.4-14.2-14.2v-11.3h28.5v11.3c-.1 7.8-6.4 14.2-14.3 14.2z"/><path id="XMLID_352_" class="st50" d="M1232.7 481s-7.1.5-14.2-2.8v2.2s4.5 3 14.2 3 14.2-3 14.2-3v-2.2c-7.1 3.2-14.2 2.8-14.2 2.8z"/><path id="XMLID_351_" class="st49" d="M1232.7 481c-19.9 0-36.1-16.2-36.1-36.1v-47.6h72.2v47.6c0 19.9-16.2 36.1-36.1 36.1z"/><path id="XMLID_350_" class="st50" d="M1196.6 423.7s-2.5-5.9-8.7-3.6c-10.8 4-4.3 21.4-.1 23.1 2.2.9 6.3.1 8.7-2.4l.1-17.1z"/><path id="XMLID_349_" class="st50" d="M1268.8 423.7s2.5-5.9 8.7-3.6c10.8 4 4.3 21.4.1 23.1-2.2.9-6.3.1-8.7-2.4l-.1-17.1z"/><path id="XMLID_348_" class="st51" d="M1258.7 375.1s6.4 6.1 5.2 11.2c-1.2 5.2-56 2-61 0-5.1-2-11.3 2.5-12.5 5.4-1.2 2.9-3.8 15.3 4.7 16.3s59.6 1.8 69.2-.8c9.6-2.6 9.8-9.2 11.9-15 2-5.6-4.9-17.4-17.5-17.1z"/><path id="XMLID_347_" class="st51" d="M1189.9 404.5s-1 30.6 6.7 40.4v-36.7l-6.7-3.7z"/><path id="XMLID_346_" class="st51" d="M1274.8 396.2s3.4 36-6 45.6v-36.7l6-8.9z"/><path id="XMLID_345_" class="st12" d="M1255.4 543.2V537c0-12.5-10.1-22.7-22.7-22.7-12.5 0-22.7 10.1-22.7 22.7v6.2c0 10-8.1 18.1-18.1 18.1V589h81.6v-27.7c-10 0-18.1-8.1-18.1-18.1z"/><path id="XMLID_344_" class="st12" d="M1216.6 493.6s-7.5 15.2-1.1 28.7l2.5-2.5s-6.3-9.2.9-27l-2.3.8z"/><path id="XMLID_343_" class="st12" d="M1249 493.6s7.5 15.2 1.1 28.7l-2.5-2.5s6.3-9.2-.9-27l2.3.8z"/><path id="XMLID_342_" class="st49" d="M1174.7 539.9v19.2c0 2.7-1.5 5.1-3.9 6.3l-17.7 8.8c-5.1 2.5-6.6 9-3.3 13.5 2.6 3.6 7.5 4.8 11.5 2.8l26.9-13.4c2.4-1.2 3.9-3.6 3.9-6.3v-30.9h-17.4z"/><path id="XMLID_341_" class="st49" d="M1290.7 539.9v19.2c0 2.7 1.5 5.1 3.9 6.3l17.7 8.8c5.1 2.5 6.6 9 3.3 13.5-2.6 3.6-7.5 4.8-11.5 2.8l-26.9-13.4c-2.4-1.2-3.9-3.6-3.9-6.3v-30.9h17.4z"/></g><g id="XMLID_94_"><circle id="XMLID_120_" class="st12" cx="1181.3" cy="185.4" r="19.7"/><path id="XMLID_119_" class="st30" d="M1181.3.4h4.6v107h-4.6z"/><path id="XMLID_113_" class="st30" d="M1215.8 156.8v-17.1c0-17.8-14.4-32.3-32.3-32.3-17.8 0-32.3 14.4-32.3 32.3v17.6c14.1-7.1 37.5-13.7 64.6-.5z"/><path id="XMLID_109_" class="st31" d="M1151.3 157.2v28.1h64.5v-28.6c-27.1-13.1-50.5-6.5-64.5.5z"/><linearGradient id="XMLID_635_" gradientUnits="userSpaceOnUse" x1="1183.5" y1="399.3936" x2="1183.5" y2="185.3936"><stop offset="0" stop-opacity="0"/><stop offset="1" stop-color="#fff"/></linearGradient><path id="XMLID_102_" opacity=".5" fill="url(#XMLID_635_)" d="M1215 185.4h-63l-67.5 214h198z"/></g><g id="XMLID_602_"><circle id="XMLID_611_" class="st12" cx="211.3" cy="185" r="19.7"/><path id="XMLID_610_" class="st30" d="M211.3 0h4.6v107h-4.6z"/><path id="XMLID_607_" class="st30" d="M245.8 156.4v-17.1c0-17.8-14.4-32.3-32.3-32.3-17.8 0-32.3 14.4-32.3 32.3v17.6c14.1-7.1 37.4-13.6 64.6-.5z"/><path id="XMLID_604_" class="st31" d="M181.3 156.9V185h64.5v-28.6c-27.2-13.1-50.5-6.6-64.5.5z"/><linearGradient id="XMLID_636_" gradientUnits="userSpaceOnUse" x1="213.4859" y1="399" x2="213.4859" y2="185"><stop offset="0" stop-opacity="0"/><stop offset="1" stop-color="#fff"/></linearGradient><path id="XMLID_603_" opacity=".5" fill="url(#XMLID_636_)" d="M245 185h-63l-67.5 214h198z"/></g><g id="XMLID_590_"><circle id="XMLID_601_" class="st12" cx="546.4" cy="185" r="19.7"/><path id="XMLID_600_" class="st30" d="M546.4 0h4.6v107h-4.6z"/><path id="XMLID_595_" class="st30" d="M580.9 156.4v-17.1c0-17.8-14.4-32.3-32.3-32.3-17.8 0-32.3 14.4-32.3 32.3v17.6c14.1-7.1 37.4-13.6 64.6-.5z"/><path id="XMLID_592_" class="st31" d="M516.4 156.9V185h64.5v-28.6c-27.2-13.1-50.5-6.6-64.5.5z"/><linearGradient id="XMLID_637_" gradientUnits="userSpaceOnUse" x1="548.5834" y1="399" x2="548.5834" y2="185"><stop offset="0" stop-opacity="0"/><stop offset="1" stop-color="#fff"/></linearGradient><path id="XMLID_591_" opacity=".5" fill="url(#XMLID_637_)" d="M580.1 185h-63l-67.5 214h198z"/></g><path id="XMLID_357_" class="st26" d="M1152.5 582.8h160.7v8.7h-160.7z"/><g id="XMLID_359_"><path id="XMLID_373_" class="st40" d="M1260 582.8h-7.5c-1.4 0-2.5-1.1-2.5-2.5h12.6c-.1 1.3-1.2 2.5-2.6 2.5z"/><path id="XMLID_372_" class="st41" d="M1228.4 551.8s-.1 29.2 27.9 29.2v-20.8l-27.9-8.4z"/><path id="XMLID_371_" class="st41" d="M1284.1 551.8s.1 29.2-27.9 29.2v-20.8l27.9-8.4z"/><ellipse id="XMLID_370_" class="st42" cx="1256.2" cy="551.8" rx="27.9" ry="10.6"/><ellipse id="XMLID_369_" class="st43" cx="1256.2" cy="551.2" rx="23.9" ry="9"/><path id="XMLID_367_" class="st12" d="M1232.9 553.1s1.2-1.8 2.6-2.3c0 0 1.7-2.7 4.7-3.1 0 0 1.8-2.5 6.9-2.2 0 0 4.6-2.2 7.9-1.5 0 0 5.7-1.7 8.7 1.2 0 0 4.6-.5 6.5 1.8 0 0 2.4-.3 4.8 2.9 0 0 3.4-.5 4.9 2.8 0 0-2.3 7.1-23.6 7.6-.1-.1-18.5 0-23.4-7.2z"/><path id="XMLID_365_" class="st39" d="M1246 553.4s-2.4-2.1.6-1.2c0 .1-3.9-1.4-.6 1.2z"/><path id="XMLID_364_" class="st39" d="M1251.9 546.7s2.4-2.2 1.1.7c0 0 1.9-3.7-1.1-.7z"/><path id="XMLID_363_" class="st39" d="M1257.7 552.9s-.3-4.7 2.3-.8c-.1 0-2.2-3-2.3.8z"/><path id="XMLID_362_" class="st39" d="M1270.2 551.6s3.6-3.2 2 1.3c0 0 1-3.6-2-1.3z"/><path id="XMLID_361_" class="st39" d="M1263.7 556.7s3.2-.7.4 1.3c0 0 2.1-1.5-.4-1.3z"/><path id="XMLID_360_" class="st39" d="M1254.7 557.3s1.2 1.8 1.5-.2c0 0 .1 2.9-1.5.2z"/></g><g id="XMLID_569_"><path id="XMLID_380_" class="st37" d="M1189.5 550l3.8 32.8h18.7l4.3-32.8z"/><path id="XMLID_378_" class="st55" d="M1215.9 548h-26c-.6 0-1 .5-1 1 0 .6.5 1 1 1h26c.6 0 1-.5 1-1 .1-.6-.4-1-1-1z"/><path id="XMLID_377_" class="st37" d="M1189.9 548l1.8-3.9h22.4l1.8 3.9z"/><path id="XMLID_376_" class="st56" d="M1202.8 550v32.8h9.2l4.3-32.8z"/><path id="XMLID_375_" class="st57" d="M1190.1 559.6l1.5 12.1h22.3l1.7-12.1z"/><path id="XMLID_358_" class="st58" d="M1202.9 559.6l-.1 12.1h11.1l1.7-12.1z"/></g><path id="XMLID_589_" class="st26" d="M189.9 671.7h218.7v11.9H189.9z"/><g id="XMLID_575_"><path id="XMLID_588_" class="st40" d="M337.2 671.7h-12.1c-1.4 0-2.5-1.1-2.5-2.5v-.9h17.1v.9c0 1.4-1.1 2.5-2.5 2.5z"/><path id="XMLID_587_" class="st41" d="M293.2 629.5s-.1 39.7 37.9 39.7v-28.3l-37.9-11.4z"/><path id="XMLID_586_" class="st41" d="M369.1 629.5s.1 39.7-37.9 39.7v-28.3l37.9-11.4z"/><ellipse id="XMLID_585_" class="st42" cx="331.1" cy="629.5" rx="37.9" ry="14.4"/><ellipse id="XMLID_584_" class="st43" cx="331.1" cy="628.7" rx="32.6" ry="12.2"/><path id="XMLID_583_" class="st12" d="M299.3 631.4s1.6-2.4 3.5-3.2c0 0 2.3-3.7 6.4-4.2 0 0 2.5-3.4 9.4-2.9 0 0 6.2-3 10.8-2.1 0 0 7.8-2.3 11.9 1.6 0 0 6.3-.7 8.9 2.4 0 0 3.3-.3 6.5 3.9 0 0 4.7-.7 6.7 3.7 0 0-3.1 9.7-32.2 10.3-.1 0-25.1.3-31.9-9.5z"/><path id="XMLID_582_" class="st39" d="M317.2 631.8s-3.3-2.9.8-1.6c0 0-5.3-2-.8 1.6z"/><path id="XMLID_581_" class="st39" d="M325.3 622.6s3.2-3 1.5.9c0 0 2.5-5-1.5-.9z"/><path id="XMLID_580_" class="st39" d="M333.1 631s-.4-6.5 3.1-1.1c0 .1-3-4-3.1 1.1z"/><path id="XMLID_579_" class="st39" d="M350.1 629.3s4.8-4.3 2.7 1.8c0-.1 1.4-4.9-2.7-1.8z"/><path id="XMLID_578_" class="st39" d="M341.3 636.3s4.4-1 .6 1.8c0 0 2.9-2.1-.6-1.8z"/><path id="XMLID_577_" class="st39" d="M329.1 637.1s1.6 2.5 2.1-.3c-.1 0 0 3.9-2.1.3z"/></g><g id="XMLID_546_"><path id="XMLID_571_" class="st37" d="M240.3 627.2l5.1 44.5H271l5.8-44.5z"/><path id="XMLID_570_" class="st55" d="M276.7 624.3h-36.2c-.6 0-1 .5-1 1v.7c0 .6.5 1 1 1h36.2c.6 0 1-.5 1-1v-.7c0-.5-.5-1-1-1z"/><path id="XMLID_568_" class="st37" d="M240.9 624.3l2.4-5.2h30.5l2.5 5.2z"/><path id="XMLID_567_" class="st56" d="M258.5 627.2v44.5h12.4l5.9-44.5z"/><path id="XMLID_566_" class="st57" d="M241.1 640.1l2 16.5h30.5l2.2-16.5z"/><path id="XMLID_565_" class="st58" d="M258.6 640.1l-.1 16.5h15.1l2.2-16.5z"/></g><g id="XMLID_381_"><g id="XMLID_423_"><path id="XMLID_429_" class="st59" d="M1049.7 594.8c.8-3.6 2.1-7 3.9-10.1 2.1-3.8 4.7-7.2 7.8-10.1 7.2-6.8 16.9-11 27.6-11h1.3v61.6h-41.6v-21.4c0-3.1.4-6.2 1-9z"/><path id="XMLID_428_" class="st49" d="M1090.2 625.2V685.2h-41.5V625.2z"/></g><path id="XMLID_422_" class="st49" d="M1078.3 712.6h-14.2c-8.5 0-15.4-6.9-15.4-15.4v-12h45.1v12c0 8.5-6.9 15.4-15.5 15.4z"/><g id="XMLID_415_"><path id="XMLID_421_" class="st59" d="M1187.5 594.8c-.8-3.6-2.1-7-3.9-10.1-2.1-3.8-4.7-7.2-7.8-10.1-7.2-6.8-16.9-11-27.6-11h-1.4v61.6h41.6v-21.4c.1-3.1-.3-6.2-.9-9z"/><path id="XMLID_420_" class="st49" d="M1146.9 625.2V685.2h41.6V625.2z"/></g><path id="XMLID_414_" d="M1166.1 585.9c-.8-4-2.2-7.8-3.9-11.3-1.8-3.7-4.2-7.1-6.9-10.1-4.3-4.8-9.8-8.7-15.9-11.3-5.5-2.3-11.5-3.6-17.8-3.6h-4.7c-6.3 0-12.4 1.3-17.8 3.6-6.1 2.6-11.5 6.5-15.9 11.3-2.7 3-5.1 6.4-6.9 10.1-1.8 3.5-3.1 7.3-3.9 11.3-.6 2.9-.9 5.9-.9 9v69.4h95.5v-69.4c0-3.2-.3-6.2-.9-9z" fill="#bfe5ed"/><path id="XMLID_413_" class="st49" d="M1158.8 712.6h14.2c8.5 0 15.4-6.9 15.4-15.4v-12h-45.1v12c.1 8.5 7 15.4 15.5 15.4z"/><path id="XMLID_412_" class="st50" d="M1076.9 470.7s-3-6.9-10.2-4.3c-12.6 4.7-5 25.1-.1 27 2.6 1 7.3.2 10.3-2.8v-19.9z"/><path id="XMLID_411_" class="st49" d="M1124.5 564.4H1114c-6.3 0-11.4-5.1-11.4-11.4v-18.5h33.4V553c-.1 6.3-5.3 11.4-11.5 11.4z"/><path id="XMLID_410_" class="st50" d="M1119.2 537.8s-8.3.6-16.7-3.3v2.6s5.2 3.5 16.7 3.5 16.7-3.5 16.7-3.5v-2.6c-8.4 3.8-16.7 3.3-16.7 3.3z"/><path id="XMLID_409_" class="st49" d="M1132.5 537.8h-26.6c-16 0-29-13-29-29v-69.1h84.5v69.1c.1 16-12.8 29-28.9 29z"/><path id="XMLID_408_" class="st50" d="M1161.5 470.7s3-6.9 10.2-4.3c12.6 4.7 5 25.1.1 27-2.6 1-7.3.2-10.3-2.8v-19.9z"/><path id="XMLID_407_" class="st61" d="M1068.7 439.7s-.7 44.4 8.3 55.8v-47.8l-8.3-8z"/><path id="XMLID_406_" class="st61" d="M1168.5 438.5s4 42.2-7.1 53.4v-44.1l7.1-9.3z"/><path id="XMLID_401_" class="st62" d="M1135.2 710.5H1103c-17.5 0-31.7-14.2-31.7-31.7v-14.6h95.5v14.6c.1 17.5-14 31.7-31.6 31.7z"/><g id="XMLID_399_"><g id="XMLID_430_"><path id="XMLID_431_" class="st62" d="M1067.1 832c0-55.4 15.3-139.3 16-142.9l34.6 6.4c-.2.8-15.5 84.2-15.4 136.4l-35.2.1z"/></g></g><path id="XMLID_398_" class="st63" d="M1120.6 853.4h-69.9v-10.6c0-12.7 10.3-23 23-23h23.9c12.7 0 23 10.3 23 23v10.6z"/><g id="XMLID_396_"><g id="XMLID_425_"><path id="XMLID_426_" class="st62" d="M1184.7 828.7c-4-55.3-25.4-137.8-26.3-141.3l-34 8.9c.2.8 21.5 82.9 25.3 134.9l35-2.5z"/></g></g><path id="XMLID_395_" class="st63" d="M1132.9 853.8l69.7-5.1-.8-10.5c-.9-12.7-12-22.2-24.6-21.3l-23.8 1.8c-12.7.9-22.2 12-21.3 24.6l.8 10.5z"/><path id="XMLID_394_" class="st63" d="M1071.5 664.2h95.4v9.7h-95.4z"/><path id="XMLID_388_" class="st61" d="M1150.6 404.5s7.6 8.9 6.2 16.3c-1.4 7.6-66.4 2.9-72.3 0-6-2.9-13.4 3.6-14.8 7.8-1.4 4.2-4.5 22.2 5.6 23.7s70.7 2.6 82.1-1.2c11.4-3.8 11.6-13.4 14.1-21.8 2.2-8.1-6-25.2-20.9-24.8z"/><path id="XMLID_390_" class="st61" d="M1076.9 495.4s4.1 33 42.9 33.6c38.9.6 41.6-38.3 41.6-38.3v-42.9l-84.5-.2v47.8z"/></g><g id="XMLID_447_"><path id="XMLID_417_" class="st19" d="M150.5 683.6h352.2v10.9H150.5z"/><path id="XMLID_427_" class="st10" d="M150.5 704.7H168v227.1h-17.5z"/><path id="XMLID_441_" class="st10" d="M485.3 704.7h17.5v227.1h-17.5z"/><path id="XMLID_433_" class="st10" d="M164.3 872.7h325.5v11.2H164.3z"/><path id="XMLID_443_" class="st0" d="M150.5 694.4h352.2V729H150.5z"/></g><g id="XMLID_547_"><path id="XMLID_554_" class="st0" d="M823.1 788h146.2v21.7H823.1z"/><path id="XMLID_551_" class="st10" d="M823.1 809.7h17.5v122.6h-17.5z"/><path id="XMLID_548_" class="st10" d="M951.8 809.7h17.5v122.6h-17.5z"/></g><g id="XMLID_537_"><path id="XMLID_544_" class="st0" d="M1218.2 788h146.2v21.7h-146.2z"/><path id="XMLID_541_" class="st10" d="M1218.2 809.7h17.5v122.6h-17.5z"/><path id="XMLID_538_" class="st10" d="M1346.9 809.7h17.5v122.6h-17.5z"/></g><g id="XMLID_523_"><path id="XMLID_534_" class="st19" d="M926.8 683.7H1279v10.9H926.8z"/><path id="XMLID_531_" class="st10" d="M926.8 704.9h17.5V932h-17.5z"/><path id="XMLID_528_" class="st10" d="M1261.6 704.9h17.5V932h-17.5z"/><path id="XMLID_527_" class="st10" d="M940.6 872.8h325.5V884H940.6z"/><path id="XMLID_524_" class="st0" d="M926.8 694.6H1279v34.6H926.8z"/></g><g id="XMLID_374_"><g id="XMLID_520_"><g id="XMLID_521_"><path id="XMLID_522_" d="M262.6 870.5l-30 .4c-.5-41.6-10.3-69.4-29.1-82.8-21.8-15.6-50.6-6.7-50.9-6.6l-9.4-28.5c1.7-.6 43.3-13.9 77.7 10.6 27 19.3 41 55.3 41.7 106.9z" fill="#383229"/></g><path id="XMLID_525_" class="st63" d="M262.1 859.6s14.6.4 20.5 10.1 2.2 16.9 2.2 16.9l-56.1-2.7s.6-18.3 4.1-24.4l29.3.1z"/></g><path id="XMLID_612_" d="M165.1 747.2H82.8v-77.9c0-22.7 18.5-41.2 41.2-41.2 22.7 0 41.2 18.5 41.2 41.2v77.9z" fill="#fdea93"/><path id="XMLID_620_" class="st49" d="M125.1 642.5c-8.5 0-15.5-7-15.5-15.5v-21.8h31.1V627c0 8.6-7 15.5-15.6 15.5z"/><path id="XMLID_660_" class="st49" d="M140 614.1h-28c-8.3 0-14.9-6.7-14.9-14.9v-65.7h44.1c12.2 0 22.1 9.9 22.1 22.1v35.2c.1 12.8-10.5 23.3-23.3 23.3z"/><path id="XMLID_666_" class="st61" d="M90.6 545.7s-2.8 34.8 6.6 49.6v-46.4l-6.6-3.2z"/><path id="XMLID_663_" class="st49" d="M97.1 565.4s-2.5-5.8-8.5-3.5c-10.6 3.9-4.2 21-.1 22.7 2.2.9 6.2.1 8.5-2.4l.1-16.8z"/><path id="XMLID_664_" class="st61" d="M157.7 513.3s6.3 6.6 5.1 12.2-55 2.2-59.9 0-11.1 2.7-12.3 5.8c-1.2 3.1-3.7 16.5 4.6 17.6s58.5 2 68-.9c9.4-2.8 9.6-9.9 11.7-16.1 1.9-6.3-4.9-19-17.2-18.6z"/><path id="XMLID_669_" class="st61" d="M109.5 533.4l-10.4.2V549l-2.1-.1v24.9h4.4v-4.4s5 1.4 7-8.1c2.1-9.3 1.1-27.9 1.1-27.9z"/><g id="XMLID_671_"><path id="XMLID_672_" class="st49" d="M226.1 703.7c-53.7 10.7-81.1-2-84.2-3.6l13.3-26.3-.2-.1c.2.1 27.6 6.1 65.8.5 7.8-1.2 15.1 3.9 16.7 11.6l.1.4c1.8 8-3.5 15.9-11.5 17.5z"/></g><path id="XMLID_665_" d="M156 673.8l-10.2 29-23.9-8.4c-7.3-2.5-11.1-10.6-8.6-17.9l.8-2.5c2.5-7.3 10.6-11.1 17.9-8.6l24 8.4z" fill="#f2da77"/><path id="XMLID_659_" class="st62" d="M131.3 789.4h-14.7c-18.7 0-33.9-15.1-33.9-33.9v-8.4H165v8.4c.1 18.8-15 33.9-33.7 33.9z"/><g id="XMLID_442_"><g id="XMLID_513_"><path id="XMLID_518_" class="st62" d="M232.9 885.1l-29.8-3.4c4.7-41.3-1.5-70.1-18.4-85.8-19.7-18.2-49.3-13-49.6-12.9l-5.8-29.4c1.8-.4 44.7-8.4 75.8 20.3 24.4 22.5 33.7 59.9 27.8 111.2z"/></g><path id="XMLID_752_" class="st63" d="M233.9 874.2s14.4 2.2 19 12.6c4.6 10.4 0 17 0 17l-55.3-9.8s2.9-18.1 7.1-23.7l29.2 3.9z"/></g></g></g></svg>