<svg xmlns="http://www.w3.org/2000/svg" xmlns:xlink="http://www.w3.org/1999/xlink" viewBox="0 0 1138.684 641.739"><path fill="#89CFF3" d="M0 0h1138.684v640.306H0z"/><path fill="#4DB1DA" d="M0 558.235h1138.684v83.503H0z"/><path fill="#ACDAF5" d="M515.341 23.314h310.107v533.072H515.341z"/><path fill="#60C4F0" d="M530.317 41.518h280.156v514.868H530.317z"/><path fill="#ACDAF5" d="M612.304 124.845h116.181v18.999H612.304z"/><ellipse fill="#ACDAF5" cx="786.81" cy="334.497" rx="10.901" ry="10.897"/><ellipse fill="#42BEEE" cx="1026.789" cy="95.615" rx="45.503" ry="45.489"/><ellipse fill="#60C4F0" cx="1023.387" cy="95.615" rx="45.503" ry="45.489"/><ellipse fill="#DFF3FD" cx="1023.387" cy="95.615" rx="40.298" ry="40.285"/><g fill="#42BEEE"><path d="M1023.387 134.345c-.265 0-.479-.214-.479-.479v-3.546c0-.264.214-.479.479-.479.264 0 .479.215.479.479v3.546c0 .264-.214.479-.479.479zM1023.387 60.993c-.265 0-.479-.214-.479-.479v-3.546c0-.265.214-.479.479-.479.264 0 .479.214.479.479v3.546c0 .264-.214.479-.479.479zM984.447 95.417c0-.264.214-.479.479-.479h3.548c.264 0 .479.214.479.479 0 .264-.214.479-.479.479h-3.548c-.265-.001-.479-.215-.479-.479zM1057.822 95.417c0-.264.214-.479.479-.479h3.548c.264 0 .479.214.479.479 0 .264-.214.479-.479.479h-3.548c-.265-.001-.479-.215-.479-.479zM995.852 67.89c.187-.187.49-.187.677 0l2.509 2.508c.187.187.187.49 0 .677-.187.187-.49.187-.677 0l-2.508-2.508c-.188-.186-.188-.49-.001-.677zM1047.736 119.758c.187-.187.49-.187.677 0l2.508 2.508c.187.187.187.49 0 .677-.187.187-.49.187-.677 0l-2.508-2.508c-.187-.187-.187-.49 0-.677zM995.852 122.943c-.187-.187-.187-.49 0-.677l2.508-2.508c.187-.187.49-.187.677 0 .187.187.187.49 0 .677l-2.509 2.508c-.186.187-.489.187-.676 0zM1047.736 71.075c-.187-.187-.187-.49 0-.677l2.508-2.508c.187-.187.49-.187.677 0 .187.187.187.49 0 .677l-2.508 2.508c-.186.187-.49.187-.677 0z"/></g><path fill="#42BEEE" d="M1023.387 102.395c-.529 0-.958-.429-.958-.958V63.642c0-.529.429-.958.958-.958.529 0 .958.429.958.958v37.796c0 .529-.429.957-.958.957z"/><path fill="#42BEEE" d="M1016.809 95.615c0-.529.429-.958.958-.958h30.656c.529 0 .958.429.958.958 0 .529-.429.958-.958.958h-30.656c-.529 0-.958-.429-.958-.958z"/><path fill="none" stroke="#2F4148" stroke-width="1.1859" stroke-miterlimit="10" d="M125.861 69.903L234.51 34.297 341.174 73.1"/><path fill="#ACDAF5" d="M94.741 276.033c-11.581 0-21.004-9.448-21.004-21.061V90.786c0-11.613 9.422-21.061 21.004-21.061h277.553c11.581 0 21.004 9.448 21.004 21.061v164.186c0 11.613-9.422 21.061-21.004 21.061H94.741z"/><path fill="#60C4F0" d="M386.744 254.972c0 8.003-6.47 14.49-14.45 14.49H94.741c-7.98 0-14.45-6.487-14.45-14.49V90.786c0-8.002 6.47-14.489 14.45-14.489h277.553c7.98 0 14.45 6.487 14.45 14.489v164.186z"/><path fill="#ACDAF5" d="M87.8052511 164.1013823l16.6702802-81.2852488 81.1001044 16.6323101-16.6702802 81.2852488z"/><path fill="#AC4233" d="M147.644 92.453c-.316 1.539-2.61 3.296-3.521 3.109-.72-.148-2.322-2.76-2.006-4.299.316-1.539 1.615-1.591 3.15-1.276 1.535.315 2.693.927 2.377 2.466z"/><path fill="#DD5745" d="M147.713 92.186c-.316 1.539-1.817 2.532-3.352 2.217-1.535-.315-2.524-1.818-2.208-3.358s1.817-2.532 3.352-2.217c1.535.316 2.524 1.819 2.208 3.358z"/><path fill="#ACDAF5" d="M298.705 234.728l-92.815 17.69-23.905-127.425 92.815-17.691z"/><g fill="#60C4F0"><path d="M194.6319841 147.6959115l73.804874-14.4150732.4380345 2.2427275-73.804874 14.4150732zM195.5712311 152.5011127l73.804874-14.4150732.4380345 2.2427275-73.804874 14.4150732zM196.5103781 157.3062139l73.804874-14.4150732.4380345 2.2427275-73.804874 14.4150732zM197.4494251 162.1117151l73.804874-14.4150732.4380345 2.2427275-73.804874 14.4150732zM200.5045054 177.7407268l73.804874-14.4150732.4380345 2.2427275-73.804874 14.4150732zM201.4437524 182.545828l73.804874-14.4150732.4380345 2.2427275-73.804874 14.4150732zM202.3830911 187.3519107l73.804874-14.4150732.4380345 2.2427275-73.804874 14.4150732zM207.3451096 209.762902l73.804874-14.4150732.4380345 2.2427275-73.804874 14.4150732zM208.2844566 214.5680032l73.804874-14.4150732.4380345 2.2427275-73.804874 14.4150732zM209.2236953 219.3741859l73.804874-14.4150732.4380345 2.2427275-73.804874 14.4150732z"/></g><path fill="#AC4233" d="M231.723 116.408c.336 1.762-1.321 4.612-2.363 4.811-.824.157-3.65-1.903-3.986-3.665-.336-1.762 1.012-2.381 2.769-2.715 1.757-.336 3.244-.193 3.58 1.569z"/><path fill="#DD5745" d="M231.68 116.096c.336 1.762-.816 3.462-2.573 3.797-1.757.335-3.454-.822-3.79-2.584-.336-1.762.816-3.462 2.573-3.797 1.757-.335 3.454.822 3.79 2.584z"/><g><path fill="#ACDAF5" d="M291.903318 164.567988l17.588631-75.634996 67.086198 15.6006405-17.588631 75.634996z"/><path fill="#AC4233" d="M345.411 98.009c-.327 1.404-2.473 2.96-3.304 2.767-.657-.153-2.063-2.587-1.737-3.992.327-1.405 1.519-1.421 2.92-1.095 1.402.326 2.448.915 2.121 2.32z"/><path fill="#DD5745" d="M345.481 97.766c-.327 1.404-1.727 2.279-3.128 1.953-1.401-.326-2.271-1.728-1.944-3.133.327-1.404 1.727-2.279 3.128-1.953 1.4.325 2.271 1.728 1.944 3.133z"/><g fill="#60C4F0"><path d="M315.7360275 103.4154165l.343827-1.478532 48.662988 11.316393-.343827 1.478532zM314.997829 106.5830065l.343827-1.478532 48.662988 11.316393-.343827 1.478532zM314.260578 109.752297l.343827-1.478532 48.662988 11.316393-.343827 1.478532z"/></g></g><g><path fill="#ACDAF5" d="M318.038 194.907h55.542v57.511h-55.542z"/><path fill="#AC4233" d="M347.898 195.477c0 1.162-1.401 2.777-2.089 2.777-.544 0-2.093-1.655-2.093-2.818s.934-1.393 2.093-1.393c1.16 0 2.089.271 2.089 1.434z"/><path fill="#DD5745" d="M347.908 195.274c0 1.163-.94 2.105-2.1 2.105-1.16 0-2.1-.943-2.1-2.105 0-1.163.94-2.106 2.1-2.106 1.16 0 2.1.943 2.1 2.106z"/><g fill="#60C4F0"><path d="M325.583 207.261h40.29v1.224h-40.29zM325.583 209.885h40.29v1.224h-40.29zM325.583 212.508h40.29v1.224h-40.29zM325.583 215.131h40.29v1.224h-40.29zM325.583 223.663h40.29v1.224h-40.29zM325.583 226.286h40.29v1.224h-40.29zM325.583 228.91h40.29v1.224h-40.29z"/></g></g><g><path fill="#42BEEE" d="M156.526 244.232c-4.141-7.717 3.539-31.589 3.539-31.589l-46.252-9.179-6.612 33.146c35.294 12.24 49.325 7.622 49.325 7.622z"/></g><g><path fill="#42BEEE" d="M254.262 93.059c7.796-4.02 15.007-28.023 15.007-28.023l43.36 18.554-13.356 31.041c-36.058-9.845-45.011-21.572-45.011-21.572z"/></g><g><path fill="#D3E7F0" d="M987.959 258.235v68.352c0 17.842 11.796 32.306 26.347 32.306h8.275V364h21.481v-5.107h8.275c14.551 0 26.347-14.464 26.347-32.306v-68.352c0-9.22-6.095-16.694-13.615-16.694h-63.496c-7.519 0-13.614 7.474-13.614 16.694z"/><path fill="#9AD5F0" d="M1078.277 267.541h-89.911c-2.321 0-4.202-1.881-4.202-4.202v-2.52c0-10.647 8.631-19.278 19.278-19.278h59.759c10.647 0 19.278 8.631 19.278 19.278v2.52c0 2.321-1.882 4.202-4.202 4.202zM1078.277 302.82h-89.911c-2.321 0-4.202-1.881-4.202-4.202v-17.596c0-2.321 1.881-4.202 4.202-4.202h89.911c2.32 0 4.202 1.881 4.202 4.202v17.596c0 2.321-1.882 4.202-4.202 4.202zM1078.277 338.1h-89.911c-2.321 0-4.202-1.881-4.202-4.202v-17.596c0-2.321 1.881-4.202 4.202-4.202h89.911c2.32 0 4.202 1.881 4.202 4.202v17.596c0 2.321-1.882 4.202-4.202 4.202z"/><path fill="#42BEEE" d="M1011.268 364h44.107v11.067h-44.107z"/><path fill="#D3E7F0" d="M1093.616 386.134h-120.59v-4.326c0-3.723 3.018-6.741 6.741-6.741h107.108c3.723 0 6.741 3.018 6.741 6.741v4.326zM973.027 386.134h120.59v172.102h-120.59z"/><path fill="#9AD5F0" d="M1078.684 505.538v-93.05c0-4.344-3.522-7.865-7.867-7.865h-74.991c-4.345 0-7.867 3.521-7.867 7.865v93.05h90.725z"/><path fill="#42BEEE" d="M987.959 512.216h90.725v6.679h-90.725zM987.959 525.128v6.755c0 4.344 3.522 7.865 7.867 7.865h74.991c4.345 0 7.867-3.521 7.867-7.865v-6.755h-90.725zM994.351 440.533h77.941v31.652h-77.941zM1103.194 488.235h-9.578v-73.638h9.578c5.913 0 10.706 4.793 10.706 10.706v52.225c0 5.913-4.793 10.707-10.706 10.707z"/></g><g><path fill="#0074B2" d="M111.935 606.385h235.913c2.856 0 5.172 2.315 5.172 5.172 0 2.856-2.316 5.172-5.172 5.172H111.935c-2.856 0-5.172-2.316-5.172-5.172 0-2.857 2.315-5.172 5.172-5.172z"/><ellipse fill="#00648E" cx="137.468" cy="598.271" rx="15.488" ry="15.483"/><ellipse fill="#00648E" cx="242.575" cy="598.271" rx="15.488" ry="15.483"/><ellipse fill="#00648E" cx="314.73" cy="598.271" rx="15.488" ry="15.483"/><path fill="#00648E" d="M66.02 457.986l72.525 26.581-3.525 9.613-62.911-23.057c-5.31-1.946-8.036-7.828-6.089-13.137z"/><path fill="#009AD8" d="M102.733 537.851l18.172 12.944v-66.591l-23.511-8.478c-2.323-.838-4.774.883-4.774 3.352v39.157c.001 7.788 3.768 15.096 10.113 19.616z"/><path fill="#D4EFFC" d="M117.009 362.353h132.868v235.918H117.009z"/><path fill="#FFF" d="M242.575 362.353h19.436v235.918h-19.436z"/><path fill="#D4EFFC" d="M262.011 362.353h76.258v235.918h-76.258z"/><path fill="#009AD8" d="M270.336 406.502h56.445V418.4h-56.445zM262.011 362.353h76.258v8.631h-76.258z"/><path fill="#FFF" d="M117.009 362.353h125.565v8.631H117.009z"/><path fill="#FFF" stroke="#4D90AA" stroke-width=".6617" stroke-miterlimit="10" d="M117.009 370.985h125.565v62.335H117.009zM117.009 433.32h125.565v106.552H117.009zM117.009 539.872h125.565v30.24H117.009zM117.009 570.112h125.565v28.159H117.009z"/><path fill="#D4EFFC" d="M147.838 406.502h56.445V418.4h-56.445zM147.838 549.043h56.445v11.898h-56.445zM147.838 577.37h56.445v11.898h-56.445z"/><path fill="#009AD8" d="M117.116 362.353h134.72v-17.857H134.973c-9.862 0-17.857 7.995-17.857 17.857z"/><path fill="#009AD8" d="M175.034 362.353h163.97v-32.642c0-12.572-10.191-22.763-22.763-22.763H193.915c-10.428 0-18.881 8.453-18.881 18.881v36.524z"/><path fill="#00648E" d="M261.371 362.353h77.633v-32.487c0-12.657-10.261-22.918-22.918-22.918h-54.715v55.405z"/><path fill="#00648E" d="M241.271 362.353h97.733v-17.857h-79.876c-9.863 0-17.857 7.995-17.857 17.857zM150.585 315.516l110.786 1.517v16.24h-66.004l-49.378-10.036c-.804-.116-1.523-.563-1.982-1.234 0-3.618 2.96-6.536 6.578-6.487z"/><path fill="#009AD8" d="M261.371 317.033v10.09l-61.937-4.068-10.321-7.539z"/><path fill="#009AD8" d="M150.496 315.426h42.699c3.446 0 6.239 2.792 6.239 6.237v1.392l-55.427-1.141c0-3.583 2.905-6.488 6.489-6.488z"/></g><g><path fill="#00193B" d="M745.094 500.337h15.983v70.166h-15.983z"/><path fill="#00193B" d="M758.641 508.343h-11.11c-6.799 0-12.31-5.511-12.31-12.31v-26.761h35.73v26.761c0 6.798-5.512 12.31-12.31 12.31z"/><path fill="#002B4A" d="M811.35 275.847h-70.087c-10.405 0-19.029 8.064-19.724 18.442l-10.758 159.608h110.377l9.923-157.062c.707-11.374-8.33-20.988-19.731-20.988z"/><defs><path id="a" d="M811.35 275.847h-70.087c-10.405 0-19.029 8.064-19.724 18.442l-10.758 159.608h110.377l9.923-157.062c.707-11.374-8.33-20.988-19.731-20.988z"/></defs><clipPath id="b"><use xlink:href="#a" overflow="visible"/></clipPath><g clip-path="url(#b)"><path fill="#003866" d="M898.734 275.847h-70.087c-10.405 0-19.029 8.064-19.724 18.442l-10.758 159.608h110.377l9.923-157.062c.706-11.374-8.331-20.988-19.731-20.988z"/></g><path fill="#002B4A" d="M809.817 469.272h-129.9c-6.659 0-12.057-5.398-12.057-12.057 0-6.659 5.398-12.057 12.057-12.057h129.9c6.659 0 12.057 5.398 12.057 12.057 0 6.659-5.398 12.057-12.057 12.057z"/><defs><path id="c" d="M809.817 469.272h-129.9c-6.659 0-12.057-5.398-12.057-12.057 0-6.659 5.398-12.057 12.057-12.057h129.9c6.659 0 12.057 5.398 12.057 12.057 0 6.659-5.398 12.057-12.057 12.057z"/></defs><clipPath id="d"><use xlink:href="#c" overflow="visible"/></clipPath><g clip-path="url(#d)"><path fill="#003866" d="M903.034 469.272h-129.9c-6.659 0-12.057-5.398-12.057-12.057 0-6.659 5.398-12.057 12.057-12.057h129.9c6.659 0 12.057 5.398 12.057 12.057 0 6.659-5.398 12.057-12.057 12.057z"/></g><g><path fill="#00193B" d="M797.72 583.913h-89.27c-3.703 0-6.705-3.002-6.705-6.705 0-3.703 3.002-6.705 6.705-6.705h89.27c3.703 0 6.705 3.002 6.705 6.705 0 3.703-3.002 6.705-6.705 6.705z"/></g><g><path fill="#00193B" d="M777.855 583.913h-49.54c-3.26 0-5.904-2.643-5.904-5.904v-1.602c0-3.26 2.643-5.904 5.904-5.904h49.54c3.26 0 5.904 2.643 5.904 5.904v1.602c0 3.26-2.643 5.904-5.904 5.904z"/></g><g><ellipse cx="706.309" cy="586.854" rx="8.572" ry="8.569"/></g><g><path d="M738.261 586.854c0 4.733-3.838 8.569-8.572 8.569-4.734 0-8.572-3.836-8.572-8.569s3.838-8.569 8.572-8.569c4.734 0 8.572 3.836 8.572 8.569z"/></g><g><ellipse cx="776.563" cy="586.854" rx="8.572" ry="8.569"/></g><g><ellipse cx="799.943" cy="586.854" rx="8.572" ry="8.569"/></g></g><g><path fill="#326D8F" d="M454.556 417.618h32.932l.699-124.397c.339-2.857-.957-5.523-2.685-5.523h-29.591l-1.355 129.92z"/><path fill="#3D80AF" d="M450.682 417.618h32.932l1.355-129.92h-30.842c-1.215 0-2.262 1.446-2.5 3.455l-.945 126.465z"/><path fill="#56A7C9" d="M429.432 408.664h79.588c2.729 0 5.079 3.747 5.615 8.954H424.83c0-4.945 2.061-8.954 4.602-8.954z"/><defs><path id="e" d="M429.432 408.664h79.588c2.729 0 5.079 3.747 5.615 8.954H424.83c0-4.945 2.061-8.954 4.602-8.954z"/></defs><clipPath id="f"><use xlink:href="#e" overflow="visible"/></clipPath><g clip-path="url(#f)"><path fill="#326D8F" d="M497.672 408.664h79.588c2.729 0 5.079 3.747 5.615 8.954H493.07c0-4.945 2.06-8.954 4.602-8.954z"/></g><path fill="none" d="M361.288 326.405v82.816c0 5.351 4.339 9.689 9.692 9.689h50.768c5.353 0 9.692 4.338 9.692 9.689v44.679c0 12.63 10.242 22.868 22.875 22.868 12.634 0 22.875-10.238 22.875-22.868V428.6c0-5.351 4.34-9.689 9.692-9.689h57.257"/><path fill="#3D80AF" d="M351.4 361.9h245.224c4.102 0 7.428-3.326 7.428-7.428V200.427c0-4.102-3.326-7.428-7.428-7.428H351.4c-4.102 0-7.428 3.326-7.428 7.428v154.044c0 4.103 3.325 7.429 7.428 7.429z"/><path fill="#56A7C9" d="M341.725 361.9h245.224c4.102 0 7.428-3.326 7.428-7.428V200.427c0-4.102-3.326-7.428-7.428-7.428H341.725c-4.102 0-7.428 3.326-7.428 7.428v154.044c0 4.103 3.326 7.429 7.428 7.429z"/><path fill="#FFF" d="M468.729 349.076c-1.475 0-2.67-1.195-2.67-2.669 0-.656.246-1.249.639-1.714-.714-.349-1.513-.549-2.361-.549-2.98 0-5.396 2.415-5.396 5.394s2.416 5.394 5.396 5.394 5.396-2.415 5.396-5.394c0-.219-.017-.435-.042-.647-.3.116-.622.185-.962.185z"/><g><path fill="#FFF" d="M339.127 200.426h250.421v139.179H339.127z"/></g><g><path fill="#EBEBEB" d="M581.575 332.092c0 2.03-1.647 3.676-3.678 3.676H349.541c-2.031 0-3.678-1.646-3.678-3.676v-123.47c0-2.03 1.647-3.676 3.678-3.676h228.356c2.031 0 3.678 1.646 3.678 3.676v123.47z"/><path fill="#91E1C0" d="M351.46 303.207h224.487v26.096H351.46z"/><path fill="#007AB3" d="M351.104 220.859h225.231v26.365H351.104z"/><path fill="#BF93C3" d="M345.864 204.946h235.711v11.397H345.864z"/><path fill="#FFF" d="M357.799 226.605h211.807v12.499H357.799z"/><path fill="#BF93C3" d="M351.46 279.055h78.26v18.146h-78.26z"/><path fill="#91E1C0" d="M435.03 279.055h141.305v18.146H435.03z"/><path fill="#FFF" d="M357.783 310.228h71.588v5.017h-71.588zM435.932 310.228h134.823v5.017H435.932zM357.783 319.235h71.588v5.017h-71.588zM435.932 319.235h134.823v5.017H435.932zM552.503 210.644c0 1.49-1.208 2.699-2.699 2.699s-2.7-1.208-2.7-2.699 1.209-2.699 2.7-2.699 2.699 1.209 2.699 2.699zM563.547 210.644c0 1.49-1.209 2.699-2.7 2.699s-2.699-1.208-2.699-2.699 1.208-2.699 2.699-2.699c1.491 0 2.7 1.209 2.7 2.699zM574.59 210.644c0 1.49-1.208 2.699-2.699 2.699-1.491 0-2.7-1.208-2.7-2.699s1.208-2.699 2.7-2.699c1.491 0 2.699 1.209 2.699 2.699z"/><path fill="#91E1C0" d="M557.104 226.605h12.503v12.499h-12.503z"/></g></g><g><path fill="#0074B2" d="M1027.2363 610.8313h-178.726v-178.669h178.726z"/><path fill="#005484" d="M1027.236 432.163H861.053v7.187l166.183 53.495z"/><path fill="#D8D9DA" d="M484.724 417.57h558.346v14.593H484.724z"/><path fill="#0074B2" d="M639.6711 610.8311h-286.161v-178.669h286.161z"/><path fill="#005484" d="M353.878 432.163h285.269v99.512L353.878 439.35z"/><path fill="#71D0F6" d="M333.872 432.163h131.29v178.669h-131.29z"/><path fill="#71D0F6" d="M336.757 442.018h125.52v52.772h-125.52z"/><path d="M375.368 464.455h49.364v7.541h-49.364z"/><path fill="#71D0F6" d="M336.757 495.111h125.52v52.772h-125.52z"/><path d="M375.368 516.172h49.364v7.541h-49.364z"/><path fill="#71D0F6" d="M336.757 548.204h125.52v52.772h-125.52z"/><path fill="none" stroke="#4D90AA" stroke-width=".7187" stroke-miterlimit="10" d="M335.314 495.111h128.405M335.314 544.774h128.405M335.314 594.438h128.405M335.314 442.018h128.405"/><path d="M375.368 565.836h49.364v7.541h-49.364z"/><g><path fill="#71D0F6" d="M722.604 432.163h137.945v178.669H722.604z"/></g><path fill="#0074B2" d="M734.232 432.163H848.51v178.669H734.232z"/><path fill="#71D0F6" d="M734.232 486.753h113.852v8.599H734.232zM734.232 547.376h113.852v8.599H734.232z"/><g><path fill="#FFF" d="M318.038 417.57h558.346v14.593H318.038z"/></g></g><g><path fill="#2E3133" d="M509.798 412.227h164.795c3.173 0 5.905 2.238 6.528 5.349H504.448c0-2.954 2.396-5.349 5.35-5.349z"/><defs><path id="g" d="M509.798 412.227h164.795c3.173 0 5.905 2.238 6.528 5.349H504.448c0-2.954 2.396-5.349 5.35-5.349z"/></defs><clipPath id="h"><use xlink:href="#g" overflow="visible"/></clipPath><g clip-path="url(#h)"><path fill="#424646" d="M661.399 412.227h92.533c3.173 0 5.905 2.238 6.528 5.349H656.049c0-2.954 2.395-5.349 5.35-5.349z"/></g></g><g><path fill="#00193B" d="M608.183 541.208h16.62v72.964h-16.62z"/><path fill="#00193B" d="M610.716 549.532h11.554c7.07 0 12.801-5.731 12.801-12.801v-27.828h-37.155v27.828c0 7.07 5.731 12.801 12.8 12.801z"/><path fill="#002B4A" d="M557.499 508.903H692.58c6.924 0 12.538-5.613 12.538-12.538 0-6.924-5.613-12.538-12.538-12.538H557.499c-6.924 0-12.538 5.613-12.538 12.538s5.613 12.538 12.538 12.538z"/><defs><path id="i" d="M557.499 508.903H692.58c6.924 0 12.538-5.613 12.538-12.538 0-6.924-5.613-12.538-12.538-12.538H557.499c-6.924 0-12.538 5.613-12.538 12.538s5.613 12.538 12.538 12.538z"/></defs><clipPath id="j"><use xlink:href="#i" overflow="visible"/></clipPath><g clip-path="url(#j)"><path fill="#003866" d="M653.118 508.903h135.081c6.924 0 12.538-5.613 12.538-12.538 0-6.924-5.613-12.538-12.538-12.538H653.118c-6.924 0-12.538 5.613-12.538 12.538s5.614 12.538 12.538 12.538z"/></g><path fill="#002B4A" d="M546.024 298.677h72.882c10.82 0 19.788 8.385 20.511 19.178l10.142 150.469c.565 8.389-6.089 15.504-14.499 15.504h-85.723c-7.596 0-13.884-5.901-14.362-13.479l-9.467-149.846c-.736-11.829 8.662-21.826 20.516-21.826z"/><g><defs><path id="k" d="M546.024 298.677h72.882c10.82 0 19.788 8.385 20.511 19.178l10.142 150.469c.565 8.389-6.089 15.504-14.499 15.504h-85.723c-7.596 0-13.884-5.901-14.362-13.479l-9.467-149.846c-.736-11.829 8.662-21.826 20.516-21.826z"/></defs><clipPath id="l"><use xlink:href="#k" overflow="visible"/></clipPath><g clip-path="url(#l)"><path fill="#003866" d="M637.051 298.677h72.882c10.82 0 19.788 8.385 20.511 19.178l10.142 150.469c.565 8.389-6.089 15.504-14.499 15.504h-85.723c-7.596 0-13.883-5.901-14.362-13.479l-9.467-149.846c-.737-11.829 8.661-21.826 20.516-21.826z"/></g></g><g><path fill="#00193B" d="M570.078 628.116h92.83c3.851 0 6.972-3.121 6.972-6.972 0-3.851-3.122-6.972-6.972-6.972h-92.83c-3.851 0-6.972 3.122-6.972 6.972 0 3.851 3.122 6.972 6.972 6.972z"/></g><g><path fill="#00193B" d="M590.735 628.116h51.516c3.391 0 6.139-2.749 6.139-6.139v-1.666c0-3.391-2.749-6.139-6.139-6.139h-51.516c-3.391 0-6.139 2.749-6.139 6.139v1.666c0 3.39 2.749 6.139 6.139 6.139z"/></g><g><ellipse transform="translate(-.9721 1.026)" cx="665.135" cy="631.175" rx="8.914" ry="8.911"/></g><g><ellipse transform="translate(-.9765 .993)" cx="640.823" cy="631.175" rx="8.914" ry="8.911"/></g><g><ellipse transform="translate(-.999 .9386)" cx="592.079" cy="631.175" rx="8.914" ry="8.911"/></g><g><ellipse transform="translate(-.9766 .8799)" cx="567.767" cy="631.175" rx="8.914" ry="8.911"/></g></g><g><path fill="#1C9E7F" d="M947.78 355.013h-10.231c-4.663 0-9.258-4.435-9.258-9.098v-6.562c0-2.558 2.164-4.633 4.723-4.633s4.723 2.074 4.723 4.633v6.237c0 .046.092-.023.138-.023h8.88c.29-2.099 2.237-3.97 4.596-3.97 2.558 0 4.633 2.12 4.633 4.678-.001 4.871-3.604 8.738-8.204 8.738zM958.902 374.955h10.231c4.663 0 9.014-4.25 9.014-8.912v-6.563c0-2.558-2.164-4.632-4.723-4.632s-4.723 2.074-4.723 4.632v6.238c0 .046.153.316.107.316h-8.88c-.29-2.099-2.237-4.139-4.596-4.139-2.558 0-4.633 1.942-4.633 4.5 0 4.87 3.603 8.56 8.203 8.56z"/><path fill="#1C9E7F" d="M962.927 380.465V335.33c0-5.65-4.58-10.23-10.23-10.23h-1.056c-5.65 0-10.23 4.581-10.23 10.23v45.135h21.516z"/><path fill="#0074B2" d="M968.813 416.938h-31.826l-4.549-27.289h40.601z"/><path fill="#005484" d="M929.341 380.727h45.656v11.545h-45.656z"/></g><g><path fill="#FFF" d="M861.048 391.155h-5.197c-2.609 0-4.725 2.115-4.725 4.725v10.394c0 2.61 2.115 4.725 4.725 4.725h5.197c2.609 0 4.725-2.115 4.725-4.725V395.88c-.001-2.61-2.116-4.725-4.725-4.725zm1.417 13.198c0 1.576-1.399 2.866-2.974 2.866h-3.138c-1.575 0-2.865-1.29-2.865-2.866v-6.275c0-1.575 1.29-2.671 2.865-2.671h3.138c1.575 0 2.974 1.095 2.974 2.671v6.275z"/><path fill="#FFF" d="M828.157 385.388v27.403c0 2.61 2.115 4.725 4.725 4.725h18.426c2.609 0 4.725-2.115 4.725-4.725v-27.403h-27.876z"/><path fill="#FF6A45" d="M838.64 405.022c0 .71.497.988 1.104.619l5.755-3.517c.608-.37.608-.977 0-1.346l-5.755-3.516c-.607-.37-1.104-.093-1.104.619v7.141z"/></g></svg>