<?xml version="1.0" encoding="UTF-8"?>
<svg xmlns="http://www.w3.org/2000/svg" xmlns:xlink="http://www.w3.org/1999/xlink" viewBox="0 0 512 512" width="512px" height="512px">
<g id="surface54991063">
<path style=" stroke:none;fill-rule:nonzero;fill:rgb(0%,0%,0%);fill-opacity:1;" d="M 432.828125 23.636719 L 156.347656 23.636719 C 138.023438 23.636719 123.171875 38.488281 123.171875 56.816406 L 123.171875 78.933594 L 466.003906 78.933594 L 466.003906 56.816406 C 466.003906 38.488281 451.152344 23.636719 432.828125 23.636719 Z M 476.402344 493.652344 C 470.097656 497.191406 462.6875 499.183594 454.945312 499.183594 L 134.230469 499.183594 C 109.789062 499.183594 89.992188 479.386719 89.992188 454.945312 L 89.992188 388.589844 L 189.523438 388.589844 C 201.578125 388.589844 212.75 384.71875 221.816406 378.085938 Z M 499.183594 323.121094 L 499.183594 454.945312 C 499.183594 462.910156 497.082031 470.429688 493.210938 476.953125 L 319.359375 398.101562 Z M 366.472656 101.050781 L 466.003906 101.050781 L 466.003906 178.464844 L 366.472656 178.464844 Z M 244.820312 101.050781 L 344.355469 101.050781 L 344.355469 178.464844 L 244.820312 178.464844 Z M 366.472656 200.585938 L 466.003906 200.585938 L 466.003906 278 L 366.472656 278 Z M 244.820312 200.585938 L 344.355469 200.585938 L 344.355469 278 L 244.820312 278 Z M 344.355469 300.117188 L 344.355469 363.707031 L 291.824219 385.605469 L 244.820312 364.261719 L 244.820312 300.117188 Z M 466.003906 300.117188 L 466.003906 312.945312 L 366.472656 354.527344 L 366.472656 300.117188 Z M 222.703125 101.050781 L 222.703125 134.230469 C 213.523438 127.261719 202.023438 123.171875 189.523438 123.171875 L 123.171875 123.171875 L 123.171875 101.050781 Z M 189.523438 366.472656 L 34.695312 366.472656 C 16.371094 366.472656 1.519531 351.621094 1.519531 333.296875 L 1.519531 178.464844 C 1.519531 160.140625 16.371094 145.289062 34.695312 145.289062 L 189.523438 145.289062 C 207.851562 145.289062 222.703125 160.140625 222.703125 178.464844 L 222.703125 333.296875 C 222.703125 351.621094 207.851562 366.472656 189.523438 366.472656 Z M 112.109375 189.523438 C 73.226562 189.523438 49.804688 219.230469 49.804688 255.878906 C 49.804688 292.53125 73.136719 322.234375 112.109375 322.234375 C 151.09375 322.234375 174.417969 292.53125 174.417969 255.890625 C 174.417969 219.230469 150.996094 189.523438 112.109375 189.523438 Z M 112.109375 299.839844 C 90.046875 299.839844 76.867188 280.167969 76.867188 255.890625 C 76.867188 231.617188 90.113281 211.941406 112.109375 211.941406 C 134.109375 211.941406 147.367188 231.628906 147.367188 255.890625 C 147.367188 280.15625 134.164062 299.839844 112.109375 299.839844 Z M 112.109375 299.839844 "/>
</g>
</svg>
