<svg xmlns="http://www.w3.org/2000/svg" xmlns:xlink="http://www.w3.org/1999/xlink" viewBox="0 0 1400 980"><defs><path id="a" d="M0 0h1400v980H0z"/></defs><clipPath id="b"><use xlink:href="#a" overflow="visible"/></clipPath><g clip-path="url(#b)"><path fill="none" stroke="#000" stroke-width=".5" stroke-miterlimit="22.9256" d="M0-188.7h1400v1400H0z"/><path fill-rule="evenodd" clip-rule="evenodd" fill="#00244E" d="M0-188.7h1400v1397.4H0z"/><path fill-rule="evenodd" clip-rule="evenodd" fill="#003361" d="M0-188.7h33.9v30.3H0zM39.8-188.7h137.5v30.3H39.8zM184-188.7h137.5v30.3H184zM325.7-188.7h137.5v30.3H325.7zM469.1-188.7h137.5v30.3H469.1zM612.3-188.7h137.5v30.3H612.3zM0-154.1h107.3v39.6H0z"/><path fill-rule="evenodd" clip-rule="evenodd" fill="#003361" d="M0-154.1h107.3v3.2H0zM114.3-154.1h137.5v39.6H114.3z"/><path fill-rule="evenodd" clip-rule="evenodd" fill="#003361" d="M114.3-154.1h137.5v3.2H114.3zM256-154.1h137.5v39.6H256z"/><path fill-rule="evenodd" clip-rule="evenodd" fill="#003361" d="M256-154.1h137.5v3.2H256zM399.1-154.1h137.5v39.6H399.1z"/><path fill-rule="evenodd" clip-rule="evenodd" fill="#003361" d="M399.1-154.1h137.5v3.2H399.1zM542.5-154.1H680v39.6H542.5z"/><path fill-rule="evenodd" clip-rule="evenodd" fill="#003361" d="M542.5-154.1H680v3.2H542.5zM0-109.3h33.9v39.6H0z"/><path fill-rule="evenodd" clip-rule="evenodd" fill="#003361" d="M0-109.3h33.9v3.2H0zM39.8-109.3h137.5v39.6H39.8z"/><path fill-rule="evenodd" clip-rule="evenodd" fill="#003361" d="M39.8-109.3h137.5v3.2H39.8zM184-109.3h137.5v39.6H184z"/><path fill-rule="evenodd" clip-rule="evenodd" fill="#003361" d="M184-109.3h137.5v3.2H184zM325.7-109.3h137.5v39.6H325.7z"/><path fill-rule="evenodd" clip-rule="evenodd" fill="#003361" d="M325.7-109.3h137.5v3.2H325.7zM469.1-109.3h137.5v39.6H469.1z"/><path fill-rule="evenodd" clip-rule="evenodd" fill="#003361" d="M469.1-109.3h137.5v3.2H469.1zM612.3-109.3h137.5v39.6H612.3z"/><path fill-rule="evenodd" clip-rule="evenodd" fill="#003361" d="M612.3-109.3h137.5v3.2H612.3zM0-65.3h107.8v39.6H0z"/><path fill-rule="evenodd" clip-rule="evenodd" fill="#003361" d="M0-65.3h107.8v3.2H0zM114.8-65.3h137.5v39.6H114.8z"/><path fill-rule="evenodd" clip-rule="evenodd" fill="#003361" d="M114.8-65.3h137.5v3.2H114.8zM256.5-65.3H394v39.6H256.5z"/><path fill-rule="evenodd" clip-rule="evenodd" fill="#003361" d="M256.5-65.3H394v3.2H256.5zM399.6-65.3h137.5v39.6H399.6z"/><path fill-rule="evenodd" clip-rule="evenodd" fill="#003361" d="M399.6-65.3h137.5v3.2H399.6zM542.8-65.3h137.5v39.6H542.8z"/><path fill-rule="evenodd" clip-rule="evenodd" fill="#003361" d="M542.8-65.3h137.5v3.2H542.8zM0-21.1h33.9v39.6H0z"/><path fill-rule="evenodd" clip-rule="evenodd" fill="#003361" d="M0-21.1h33.9v3.2H0zM39.8-21.1h137.5v39.6H39.8z"/><path fill-rule="evenodd" clip-rule="evenodd" fill="#003361" d="M39.8-21.1h137.5v3.2H39.8zM184-21.1h137.5v39.6H184z"/><path fill-rule="evenodd" clip-rule="evenodd" fill="#003361" d="M184-21.1h137.5v3.2H184zM325.7-21.1h137.5v39.6H325.7z"/><path fill-rule="evenodd" clip-rule="evenodd" fill="#003361" d="M325.7-21.1h137.5v3.2H325.7zM469.1-21.1h137.5v39.6H469.1z"/><path fill-rule="evenodd" clip-rule="evenodd" fill="#003361" d="M469.1-21.1h137.5v3.2H469.1zM612.3-21.1h137.5v39.6H612.3z"/><path fill-rule="evenodd" clip-rule="evenodd" fill="#003361" d="M612.3-21.1h137.5v3.2H612.3zM0 23.1h108.3v39.6H0z"/><path fill-rule="evenodd" clip-rule="evenodd" fill="#003361" d="M0 23.1h108.3v3.2H0zM115 23.1h137.5v39.6H115z"/><path fill-rule="evenodd" clip-rule="evenodd" fill="#003361" d="M115 23.1h137.5v3.2H115zM256.7 23.1h137.5v39.6H256.7z"/><path fill-rule="evenodd" clip-rule="evenodd" fill="#003361" d="M256.7 23.1h137.5v3.2H256.7zM400.1 23.1h137.5v39.6H400.1z"/><path fill-rule="evenodd" clip-rule="evenodd" fill="#003361" d="M400.1 23.1h137.5v3.2H400.1zM543.3 23.1h137.5v39.6H543.3z"/><path fill-rule="evenodd" clip-rule="evenodd" fill="#003361" d="M543.3 23.1h137.5v3.2H543.3zM0 67.9h33.4v39.6H0z"/><path fill-rule="evenodd" clip-rule="evenodd" fill="#003361" d="M0 67.9h33.4v3.2H0zM39.1 67.9h137.5v39.6H39.1z"/><path fill-rule="evenodd" clip-rule="evenodd" fill="#003361" d="M39.1 67.9h137.5v3.2H39.1zM183.5 67.9H321v39.6H183.5z"/><path fill-rule="evenodd" clip-rule="evenodd" fill="#003361" d="M183.5 67.9H321v3.2H183.5zM325.2 67.9h137.5v39.6H325.2z"/><path fill-rule="evenodd" clip-rule="evenodd" fill="#003361" d="M325.2 67.9h137.5v3.2H325.2zM468.3 67.9h137.5v39.6H468.3z"/><path fill-rule="evenodd" clip-rule="evenodd" fill="#003361" d="M468.3 67.9h137.5v3.2H468.3zM611.8 67.9h137.5v39.6H611.8z"/><path fill-rule="evenodd" clip-rule="evenodd" fill="#003361" d="M611.8 67.9h137.5v3.2H611.8zM0 113.1h107.6v39.6H0z"/><path fill-rule="evenodd" clip-rule="evenodd" fill="#003361" d="M0 113.1h107.6v3.2H0zM114.5 113.1H252v39.6H114.5z"/><path fill-rule="evenodd" clip-rule="evenodd" fill="#003361" d="M114.5 113.1H252v3.2H114.5zM256.2 113.1h137.5v39.6H256.2z"/><path fill-rule="evenodd" clip-rule="evenodd" fill="#003361" d="M256.2 113.1h137.5v3.2H256.2zM399.4 113.1h137.5v39.6H399.4z"/><path fill-rule="evenodd" clip-rule="evenodd" fill="#003361" d="M399.4 113.1h137.5v3.2H399.4zM542.8 113.1h137.5v39.6H542.8z"/><path fill-rule="evenodd" clip-rule="evenodd" fill="#003361" d="M542.8 113.1h137.5v3.2H542.8zM0 156.1h33.9v39.6H0z"/><path fill-rule="evenodd" clip-rule="evenodd" fill="#003361" d="M0 156.1h33.9v3.2H0zM39.8 156.1h137.5v39.6H39.8z"/><path fill-rule="evenodd" clip-rule="evenodd" fill="#003361" d="M39.8 156.1h137.5v3.2H39.8zM184 156.1h137.5v39.6H184z"/><path fill-rule="evenodd" clip-rule="evenodd" fill="#003361" d="M184 156.1h137.5v3.2H184zM325.7 156.1h137.5v39.6H325.7z"/><path fill-rule="evenodd" clip-rule="evenodd" fill="#003361" d="M325.7 156.1h137.5v3.2H325.7zM469.1 156.1h137.5v39.6H469.1z"/><path fill-rule="evenodd" clip-rule="evenodd" fill="#003361" d="M469.1 156.1h137.5v3.2H469.1zM612.3 156.1h137.5v39.6H612.3z"/><path fill-rule="evenodd" clip-rule="evenodd" fill="#003361" d="M612.3 156.1h137.5v3.2H612.3zM0 200.3h107.1v39.6H0z"/><path fill-rule="evenodd" clip-rule="evenodd" fill="#003361" d="M0 200.3h107.1v3.2H0zM113.8 200.3h137.5v39.6H113.8z"/><path fill-rule="evenodd" clip-rule="evenodd" fill="#003361" d="M113.8 200.3h137.5v3.2H113.8zM255.5 200.3H393v39.6H255.5z"/><path fill-rule="evenodd" clip-rule="evenodd" fill="#003361" d="M255.5 200.3H393v3.2H255.5zM398.9 200.3h137.5v39.6H398.9z"/><path fill-rule="evenodd" clip-rule="evenodd" fill="#003361" d="M398.9 200.3h137.5v3.2H398.9zM542 200.3h137.5v39.6H542z"/><path fill-rule="evenodd" clip-rule="evenodd" fill="#003361" d="M542 200.3h137.5v3.2H542zM0 245.1h33.9v39.6H0z"/><path fill-rule="evenodd" clip-rule="evenodd" fill="#003361" d="M0 245.1h33.9v3.2H0zM39.8 245.1h137.5v39.6H39.8z"/><path fill-rule="evenodd" clip-rule="evenodd" fill="#003361" d="M39.8 245.1h137.5v3.2H39.8zM184 245.1h137.5v39.6H184z"/><path fill-rule="evenodd" clip-rule="evenodd" fill="#003361" d="M184 245.1h137.5v3.2H184zM325.7 245.1h137.5v39.6H325.7z"/><path fill-rule="evenodd" clip-rule="evenodd" fill="#003361" d="M325.7 245.1h137.5v3.2H325.7zM469.1 245.1h137.5v39.6H469.1z"/><path fill-rule="evenodd" clip-rule="evenodd" fill="#003361" d="M469.1 245.1h137.5v3.2H469.1zM612.3 245.1h137.5v39.6H612.3z"/><path fill-rule="evenodd" clip-rule="evenodd" fill="#003361" d="M612.3 245.1h137.5v3.2H612.3zM0 288.6h107.3v39.6H0z"/><path fill-rule="evenodd" clip-rule="evenodd" fill="#003361" d="M0 288.6h107.3v3.2H0zM114.3 288.6h137.5v39.6H114.3z"/><path fill-rule="evenodd" clip-rule="evenodd" fill="#003361" d="M114.3 288.6h137.5v3.2H114.3zM256 288.6h137.5v39.6H256z"/><path fill-rule="evenodd" clip-rule="evenodd" fill="#003361" d="M256 288.6h137.5v3.2H256zM399.1 288.6h137.5v39.6H399.1z"/><path fill-rule="evenodd" clip-rule="evenodd" fill="#003361" d="M399.1 288.6h137.5v3.2H399.1zM542.5 288.6H680v39.6H542.5z"/><path fill-rule="evenodd" clip-rule="evenodd" fill="#003361" d="M542.5 288.6H680v3.2H542.5zM0 333.5h33.9v39.6H0z"/><path fill-rule="evenodd" clip-rule="evenodd" fill="#003361" d="M0 333.5h33.9v3.2H0zM39.8 333.5h137.5v39.6H39.8z"/><path fill-rule="evenodd" clip-rule="evenodd" fill="#003361" d="M39.8 333.5h137.5v3.2H39.8zM184 333.5h137.5v39.6H184z"/><path fill-rule="evenodd" clip-rule="evenodd" fill="#003361" d="M184 333.5h137.5v3.2H184zM325.7 333.5h137.5v39.6H325.7z"/><path fill-rule="evenodd" clip-rule="evenodd" fill="#003361" d="M325.7 333.5h137.5v3.2H325.7zM469.1 333.5h137.5v39.6H469.1z"/><path fill-rule="evenodd" clip-rule="evenodd" fill="#003361" d="M469.1 333.5h137.5v3.2H469.1zM612.3 333.5h137.5v39.6H612.3z"/><path fill-rule="evenodd" clip-rule="evenodd" fill="#003361" d="M612.3 333.5h137.5v3.2H612.3zM0 377.8h107.8v39.6H0z"/><path fill-rule="evenodd" clip-rule="evenodd" fill="#003361" d="M0 377.8h107.8v3.2H0zM114.8 377.8h137.5v39.6H114.8z"/><path fill-rule="evenodd" clip-rule="evenodd" fill="#003361" d="M114.8 377.8h137.5v3.2H114.8zM256.5 377.8H394v39.6H256.5z"/><path fill-rule="evenodd" clip-rule="evenodd" fill="#003361" d="M256.5 377.8H394v3.2H256.5zM399.6 377.8h137.5v39.6H399.6z"/><path fill-rule="evenodd" clip-rule="evenodd" fill="#003361" d="M399.6 377.8h137.5v3.2H399.6zM542.8 377.8h137.5v39.6H542.8z"/><path fill-rule="evenodd" clip-rule="evenodd" fill="#003361" d="M542.8 377.8h137.5v3.2H542.8zM0 421.8h33.9v39.6H0z"/><path fill-rule="evenodd" clip-rule="evenodd" fill="#003361" d="M0 421.8h33.9v3.2H0zM39.8 421.8h137.5v39.6H39.8z"/><path fill-rule="evenodd" clip-rule="evenodd" fill="#003361" d="M39.8 421.8h137.5v3.2H39.8zM184 421.8h137.5v39.6H184z"/><path fill-rule="evenodd" clip-rule="evenodd" fill="#003361" d="M184 421.8h137.5v3.2H184zM325.7 421.8h137.5v39.6H325.7z"/><path fill-rule="evenodd" clip-rule="evenodd" fill="#003361" d="M325.7 421.8h137.5v3.2H325.7zM469.1 421.8h137.5v39.6H469.1z"/><path fill-rule="evenodd" clip-rule="evenodd" fill="#003361" d="M469.1 421.8h137.5v3.2H469.1zM612.3 421.8h137.5v39.6H612.3z"/><path fill-rule="evenodd" clip-rule="evenodd" fill="#003361" d="M612.3 421.8h137.5v3.2H612.3zM0 464.8h107.3v39.6H0z"/><path fill-rule="evenodd" clip-rule="evenodd" fill="#003361" d="M0 464.8h107.3v3.2H0zM114.3 464.8h137.5v39.6H114.3z"/><path fill-rule="evenodd" clip-rule="evenodd" fill="#003361" d="M114.3 464.8h137.5v3.2H114.3zM256 464.8h137.5v39.6H256z"/><path fill-rule="evenodd" clip-rule="evenodd" fill="#003361" d="M256 464.8h137.5v3.2H256zM399.1 464.8h137.5v39.6H399.1z"/><path fill-rule="evenodd" clip-rule="evenodd" fill="#003361" d="M399.1 464.8h137.5v3.2H399.1zM542.5 464.8H680v39.6H542.5z"/><path fill-rule="evenodd" clip-rule="evenodd" fill="#003361" d="M542.5 464.8H680v3.2H542.5zM0 510.3h33.9v39.6H0z"/><path fill-rule="evenodd" clip-rule="evenodd" fill="#003361" d="M0 510.3h33.9v3.2H0zM39.8 510.3h137.5v39.6H39.8z"/><path fill-rule="evenodd" clip-rule="evenodd" fill="#003361" d="M39.8 510.3h137.5v3.2H39.8zM184 510.3h137.5v39.6H184z"/><path fill-rule="evenodd" clip-rule="evenodd" fill="#003361" d="M184 510.3h137.5v3.2H184zM325.7 510.3h137.5v39.6H325.7z"/><path fill-rule="evenodd" clip-rule="evenodd" fill="#003361" d="M325.7 510.3h137.5v3.2H325.7zM469.1 510.3h137.5v39.6H469.1z"/><path fill-rule="evenodd" clip-rule="evenodd" fill="#003361" d="M469.1 510.3h137.5v3.2H469.1zM612.3 510.3h137.5v39.6H612.3z"/><path fill-rule="evenodd" clip-rule="evenodd" fill="#003361" d="M612.3 510.3h137.5v3.2H612.3zM0 555h107.3v39.6H0z"/><path fill-rule="evenodd" clip-rule="evenodd" fill="#003361" d="M0 555h107.3v3.2H0zM114.3 555h137.5v39.6H114.3z"/><path fill-rule="evenodd" clip-rule="evenodd" fill="#003361" d="M114.3 555h137.5v3.2H114.3zM256 555h137.5v39.6H256z"/><path fill-rule="evenodd" clip-rule="evenodd" fill="#003361" d="M256 555h137.5v3.2H256zM399.1 555h137.5v39.6H399.1z"/><path fill-rule="evenodd" clip-rule="evenodd" fill="#003361" d="M399.1 555h137.5v3.2H399.1zM542.5 555H680v39.6H542.5z"/><path fill-rule="evenodd" clip-rule="evenodd" fill="#003361" d="M542.5 555H680v3.2H542.5zM0 598.5h33.9v39.6H0z"/><path fill-rule="evenodd" clip-rule="evenodd" fill="#003361" d="M0 598.5h33.9v3.2H0zM39.8 598.5h137.5v39.6H39.8z"/><path fill-rule="evenodd" clip-rule="evenodd" fill="#003361" d="M39.8 598.5h137.5v3.2H39.8zM184 598.5h137.5v39.6H184z"/><path fill-rule="evenodd" clip-rule="evenodd" fill="#003361" d="M184 598.5h137.5v3.2H184zM325.7 598.5h137.5v39.6H325.7z"/><path fill-rule="evenodd" clip-rule="evenodd" fill="#003361" d="M325.7 598.5h137.5v3.2H325.7zM469.1 598.5h137.5v39.6H469.1z"/><path fill-rule="evenodd" clip-rule="evenodd" fill="#003361" d="M469.1 598.5h137.5v3.2H469.1zM612.3 598.5h137.5v39.6H612.3z"/><path fill-rule="evenodd" clip-rule="evenodd" fill="#003361" d="M612.3 598.5h137.5v3.2H612.3zM0 643.7h106.1v39.6H0z"/><path fill-rule="evenodd" clip-rule="evenodd" fill="#003361" d="M0 643.7h106.1v3.2H0zM113 643.7h137.5v39.6H113z"/><path fill-rule="evenodd" clip-rule="evenodd" fill="#003361" d="M113 643.7h137.5v3.2H113zM254.7 643.7h137.5v39.6H254.7z"/><path fill-rule="evenodd" clip-rule="evenodd" fill="#003361" d="M254.7 643.7h137.5v3.2H254.7zM397.9 643.7h137.5v39.6H397.9z"/><path fill-rule="evenodd" clip-rule="evenodd" fill="#003361" d="M397.9 643.7h137.5v3.2H397.9zM541.3 643.7h137.5v39.6H541.3z"/><path fill-rule="evenodd" clip-rule="evenodd" fill="#003361" d="M541.3 643.7h137.5v3.2H541.3zM0 687.5h33.9v39.6H0z"/><path fill-rule="evenodd" clip-rule="evenodd" fill="#003361" d="M0 687.5h33.9v3.2H0zM39.8 687.5h137.5v39.6H39.8z"/><path fill-rule="evenodd" clip-rule="evenodd" fill="#003361" d="M39.8 687.5h137.5v3.2H39.8zM184 687.5h137.5v39.6H184z"/><path fill-rule="evenodd" clip-rule="evenodd" fill="#003361" d="M184 687.5h137.5v3.2H184zM325.7 687.5h137.5v39.6H325.7z"/><path fill-rule="evenodd" clip-rule="evenodd" fill="#003361" d="M325.7 687.5h137.5v3.2H325.7zM469.1 687.5h137.5v39.6H469.1z"/><path fill-rule="evenodd" clip-rule="evenodd" fill="#003361" d="M469.1 687.5h137.5v3.2H469.1zM612.3 687.5h137.5v39.6H612.3z"/><path fill-rule="evenodd" clip-rule="evenodd" fill="#003361" d="M612.3 687.5h137.5v3.2H612.3zM0 731.7h107.8v39.6H0z"/><path fill-rule="evenodd" clip-rule="evenodd" fill="#003361" d="M0 731.7h107.8v3.2H0zM114.8 731.7h137.5v39.6H114.8z"/><path fill-rule="evenodd" clip-rule="evenodd" fill="#003361" d="M114.8 731.7h137.5v3.2H114.8zM256.5 731.7H394v39.6H256.5z"/><path fill-rule="evenodd" clip-rule="evenodd" fill="#003361" d="M256.5 731.7H394v3.2H256.5zM399.6 731.7h137.5v39.6H399.6z"/><path fill-rule="evenodd" clip-rule="evenodd" fill="#003361" d="M399.6 731.7h137.5v3.2H399.6zM542.8 731.7h137.5v39.6H542.8z"/><path fill-rule="evenodd" clip-rule="evenodd" fill="#003361" d="M542.8 731.7h137.5v3.2H542.8zM0 775.7h33.4v39.6H0z"/><path fill-rule="evenodd" clip-rule="evenodd" fill="#003361" d="M0 775.7h33.4v3.2H0zM39.1 775.7h137.5v39.6H39.1z"/><path fill-rule="evenodd" clip-rule="evenodd" fill="#003361" d="M39.1 775.7h137.5v3.2H39.1zM183.5 775.7H321v39.6H183.5z"/><path fill-rule="evenodd" clip-rule="evenodd" fill="#003361" d="M183.5 775.7H321v3.2H183.5zM325.2 775.7h137.5v39.6H325.2z"/><path fill-rule="evenodd" clip-rule="evenodd" fill="#003361" d="M325.2 775.7h137.5v3.2H325.2zM468.3 775.7h137.5v39.6H468.3z"/><path fill-rule="evenodd" clip-rule="evenodd" fill="#003361" d="M468.3 775.7h137.5v3.2H468.3zM611.8 775.7h137.5v39.6H611.8z"/><path fill-rule="evenodd" clip-rule="evenodd" fill="#003361" d="M611.8 775.7h137.5v3.2H611.8zM0 820.9h107.8v39.6H0z"/><path fill-rule="evenodd" clip-rule="evenodd" fill="#003361" d="M0 820.9h107.8v3.2H0zM114.8 820.9h137.5v39.6H114.8z"/><path fill-rule="evenodd" clip-rule="evenodd" fill="#003361" d="M114.8 820.9h137.5v3.2H114.8zM256.5 820.9H394v39.6H256.5z"/><path fill-rule="evenodd" clip-rule="evenodd" fill="#003361" d="M256.5 820.9H394v3.2H256.5zM399.6 820.9h137.5v39.6H399.6z"/><path fill-rule="evenodd" clip-rule="evenodd" fill="#003361" d="M399.6 820.9h137.5v3.2H399.6zM542.8 820.9h137.5v39.6H542.8z"/><path fill-rule="evenodd" clip-rule="evenodd" fill="#003361" d="M542.8 820.9h137.5v3.2H542.8zM0 864.2h33.9v39.6H0z"/><path fill-rule="evenodd" clip-rule="evenodd" fill="#003361" d="M0 864.2h33.9v3.2H0zM39.8 864.2h137.5v39.6H39.8z"/><path fill-rule="evenodd" clip-rule="evenodd" fill="#003361" d="M39.8 864.2h137.5v3.2H39.8zM184 864.2h137.5v39.6H184z"/><path fill-rule="evenodd" clip-rule="evenodd" fill="#003361" d="M184 864.2h137.5v3.2H184zM325.7 864.2h137.5v39.6H325.7z"/><path fill-rule="evenodd" clip-rule="evenodd" fill="#003361" d="M325.7 864.2h137.5v3.2H325.7zM469.1 864.2h137.5v39.6H469.1z"/><path fill-rule="evenodd" clip-rule="evenodd" fill="#003361" d="M469.1 864.2h137.5v3.2H469.1zM612.3 864.2h137.5v39.6H612.3z"/><path fill-rule="evenodd" clip-rule="evenodd" fill="#003361" d="M612.3 864.2h137.5v3.2H612.3zM0 908.9h107.8v39.6H0z"/><path fill-rule="evenodd" clip-rule="evenodd" fill="#003361" d="M0 908.9h107.8v3.2H0zM114.8 908.9h137.5v39.6H114.8z"/><path fill-rule="evenodd" clip-rule="evenodd" fill="#003361" d="M114.8 908.9h137.5v3.2H114.8zM256.5 908.9H394v39.6H256.5z"/><path fill-rule="evenodd" clip-rule="evenodd" fill="#003361" d="M256.5 908.9H394v3.2H256.5zM399.6 908.9h137.5v39.6H399.6z"/><path fill-rule="evenodd" clip-rule="evenodd" fill="#003361" d="M399.6 908.9h137.5v3.2H399.6zM542.8 908.9h137.5v39.6H542.8z"/><path fill-rule="evenodd" clip-rule="evenodd" fill="#003361" d="M542.8 908.9h137.5v3.2H542.8zM0 952.9h33.9v39.6H0z"/><path fill-rule="evenodd" clip-rule="evenodd" fill="#003361" d="M0 952.9h33.9v3.2H0zM39.8 952.9h137.5v39.6H39.8z"/><path fill-rule="evenodd" clip-rule="evenodd" fill="#003361" d="M39.8 952.9h137.5v3.2H39.8zM184 952.9h137.5v39.6H184z"/><path fill-rule="evenodd" clip-rule="evenodd" fill="#003361" d="M184 952.9h137.5v3.2H184zM325.7 952.9h137.5v39.6H325.7z"/><path fill-rule="evenodd" clip-rule="evenodd" fill="#003361" d="M325.7 952.9h137.5v3.2H325.7zM469.1 952.9h137.5v39.6H469.1z"/><path fill-rule="evenodd" clip-rule="evenodd" fill="#003361" d="M469.1 952.9h137.5v3.2H469.1zM612.3 952.9h137.5v39.6H612.3z"/><path fill-rule="evenodd" clip-rule="evenodd" fill="#003361" d="M612.3 952.9h137.5v3.2H612.3zM0 997.4h107.3v39.6H0z"/><path fill-rule="evenodd" clip-rule="evenodd" fill="#003361" d="M0 997.4h107.3v3.2H0zM114.3 997.4h137.5v39.6H114.3z"/><path fill-rule="evenodd" clip-rule="evenodd" fill="#003361" d="M114.3 997.4h137.5v3.2H114.3zM256 997.4h137.5v39.6H256z"/><path fill-rule="evenodd" clip-rule="evenodd" fill="#003361" d="M256 997.4h137.5v3.2H256zM399.1 997.4h137.5v39.6H399.1z"/><path fill-rule="evenodd" clip-rule="evenodd" fill="#003361" d="M399.1 997.4h137.5v3.2H399.1zM542.5 997.4H680v39.6H542.5z"/><path fill-rule="evenodd" clip-rule="evenodd" fill="#003361" d="M542.5 997.4H680v3.2H542.5zM0 1041.9h33.9v39.6H0z"/><path fill-rule="evenodd" clip-rule="evenodd" fill="#003361" d="M0 1041.9h33.9v3.2H0zM39.8 1041.9h137.5v39.6H39.8z"/><path fill-rule="evenodd" clip-rule="evenodd" fill="#003361" d="M39.8 1041.9h137.5v3.2H39.8zM184 1041.9h137.5v39.6H184z"/><path fill-rule="evenodd" clip-rule="evenodd" fill="#003361" d="M184 1041.9h137.5v3.2H184zM325.7 1041.9h137.5v39.6H325.7z"/><path fill-rule="evenodd" clip-rule="evenodd" fill="#003361" d="M325.7 1041.9h137.5v3.2H325.7zM469.1 1041.9h137.5v39.6H469.1z"/><path fill-rule="evenodd" clip-rule="evenodd" fill="#003361" d="M469.1 1041.9h137.5v3.2H469.1zM612.3 1041.9h137.5v39.6H612.3z"/><path fill-rule="evenodd" clip-rule="evenodd" fill="#003361" d="M612.3 1041.9h137.5v3.2H612.3zM0 1086.1h107.3v39.6H0z"/><path fill-rule="evenodd" clip-rule="evenodd" fill="#003361" d="M0 1086.1h107.3v3.2H0zM114.3 1086.1h137.5v39.6H114.3z"/><path fill-rule="evenodd" clip-rule="evenodd" fill="#003361" d="M114.3 1086.1h137.5v3.2H114.3zM256 1086.1h137.5v39.6H256z"/><path fill-rule="evenodd" clip-rule="evenodd" fill="#003361" d="M256 1086.1h137.5v3.2H256zM399.1 1086.1h137.5v39.6H399.1z"/><path fill-rule="evenodd" clip-rule="evenodd" fill="#003361" d="M399.1 1086.1h137.5v3.2H399.1zM542.5 1086.1H680v39.6H542.5z"/><path fill-rule="evenodd" clip-rule="evenodd" fill="#003361" d="M542.5 1086.1H680v3.2H542.5zM0 1130.8h33.9v39.6H0z"/><path fill-rule="evenodd" clip-rule="evenodd" fill="#003361" d="M0 1130.8h33.9v3.2H0zM39.8 1130.8h137.5v39.6H39.8z"/><path fill-rule="evenodd" clip-rule="evenodd" fill="#003361" d="M39.8 1130.8h137.5v3.2H39.8zM184 1130.8h137.5v39.6H184z"/><path fill-rule="evenodd" clip-rule="evenodd" fill="#003361" d="M184 1130.8h137.5v3.2H184zM325.7 1130.8h137.5v39.6H325.7z"/><path fill-rule="evenodd" clip-rule="evenodd" fill="#003361" d="M325.7 1130.8h137.5v3.2H325.7zM469.1 1130.8h137.5v39.6H469.1z"/><path fill-rule="evenodd" clip-rule="evenodd" fill="#003361" d="M469.1 1130.8h137.5v3.2H469.1zM612.3 1130.8h137.5v39.6H612.3z"/><path fill-rule="evenodd" clip-rule="evenodd" fill="#003361" d="M612.3 1130.8h137.5v3.2H612.3zM0 1174.6h107.3v34.1H0z"/><path fill-rule="evenodd" clip-rule="evenodd" fill="#003361" d="M0 1174.6h107.3v3.2H0zM114.3 1174.6h137.5v34.1H114.3z"/><path fill-rule="evenodd" clip-rule="evenodd" fill="#003361" d="M114.3 1174.6h137.5v3.2H114.3zM256 1174.6h137.5v34.1H256z"/><path fill-rule="evenodd" clip-rule="evenodd" fill="#003361" d="M256 1174.6h137.5v3.2H256zM399.1 1174.6h137.5v34.1H399.1z"/><path fill-rule="evenodd" clip-rule="evenodd" fill="#003361" d="M399.1 1174.6h137.5v3.2H399.1zM542.5 1174.6H680v34.1H542.5z"/><path fill-rule="evenodd" clip-rule="evenodd" fill="#003361" d="M542.5 1174.6H680v3.2H542.5zM755.3-188.7h137.5v30.3H755.3zM897.7-188.7h137.5v30.3H897.7zM1042.1-188.7h137.5v30.3h-137.5zM1183-188.7h137.5v30.3H1183zM1326.5-188.7h73.5v30.3h-73.5zM685.6-154.1h137.5v39.6H685.6z"/><path fill-rule="evenodd" clip-rule="evenodd" fill="#003361" d="M685.6-154.1h137.5v3.2H685.6zM827.7-154.1h137.5v39.6H827.7z"/><path fill-rule="evenodd" clip-rule="evenodd" fill="#003361" d="M827.7-154.1h137.5v3.2H827.7zM972.4-154.1h137.5v39.6H972.4z"/><path fill-rule="evenodd" clip-rule="evenodd" fill="#003361" d="M972.4-154.1h137.5v3.2H972.4zM1113.3-154.1h137.5v39.6h-137.5z"/><path fill-rule="evenodd" clip-rule="evenodd" fill="#003361" d="M1113.3-154.1h137.5v3.2h-137.5zM1256.5-154.1H1394v39.6h-137.5z"/><path fill-rule="evenodd" clip-rule="evenodd" fill="#003361" d="M1256.5-154.1H1394v3.2h-137.5zM755.3-109.3h137.5v39.6H755.3z"/><path fill-rule="evenodd" clip-rule="evenodd" fill="#003361" d="M755.3-109.3h137.5v3.2H755.3zM897.7-109.3h137.5v39.6H897.7z"/><path fill-rule="evenodd" clip-rule="evenodd" fill="#003361" d="M897.7-109.3h137.5v3.2H897.7zM1042.1-109.3h137.5v39.6h-137.5z"/><path fill-rule="evenodd" clip-rule="evenodd" fill="#003361" d="M1042.1-109.3h137.5v3.2h-137.5zM1183-109.3h137.5v39.6H1183z"/><path fill-rule="evenodd" clip-rule="evenodd" fill="#003361" d="M1183-109.3h137.5v3.2H1183zM1326.5-109.3h73.5v39.6h-73.5z"/><path fill-rule="evenodd" clip-rule="evenodd" fill="#003361" d="M1326.5-109.3h73.5v3.2h-73.5zM686.1-65.3h137.5v39.6H686.1z"/><path fill-rule="evenodd" clip-rule="evenodd" fill="#003361" d="M686.1-65.3h137.5v3.2H686.1zM828.2-65.3h137.5v39.6H828.2z"/><path fill-rule="evenodd" clip-rule="evenodd" fill="#003361" d="M828.2-65.3h137.5v3.2H828.2zM972.9-65.3h137.5v39.6H972.9z"/><path fill-rule="evenodd" clip-rule="evenodd" fill="#003361" d="M972.9-65.3h137.5v3.2H972.9zM1113.8-65.3h137.5v39.6h-137.5z"/><path fill-rule="evenodd" clip-rule="evenodd" fill="#003361" d="M1113.8-65.3h137.5v3.2h-137.5zM1257-65.3h137.5v39.6H1257z"/><path fill-rule="evenodd" clip-rule="evenodd" fill="#003361" d="M1257-65.3h137.5v3.2H1257zM755.3-21.1h137.5v39.6H755.3z"/><path fill-rule="evenodd" clip-rule="evenodd" fill="#003361" d="M755.3-21.1h137.5v3.2H755.3zM897.7-21.1h137.5v39.6H897.7z"/><path fill-rule="evenodd" clip-rule="evenodd" fill="#003361" d="M897.7-21.1h137.5v3.2H897.7zM1042.1-21.1h137.5v39.6h-137.5z"/><path fill-rule="evenodd" clip-rule="evenodd" fill="#003361" d="M1042.1-21.1h137.5v3.2h-137.5zM1183-21.1h137.5v39.6H1183z"/><path fill-rule="evenodd" clip-rule="evenodd" fill="#003361" d="M1183-21.1h137.5v3.2H1183zM1326.5-21.1h73.5v39.6h-73.5z"/><path fill-rule="evenodd" clip-rule="evenodd" fill="#003361" d="M1326.5-21.1h73.5v3.2h-73.5zM686.6 23.1h137.5v39.6H686.6z"/><path fill-rule="evenodd" clip-rule="evenodd" fill="#003361" d="M686.6 23.1h137.5v3.2H686.6zM828.7 23.1h137.5v39.6H828.7z"/><path fill-rule="evenodd" clip-rule="evenodd" fill="#003361" d="M828.7 23.1h137.5v3.2H828.7zM973.1 23.1h137.5v39.6H973.1z"/><path fill-rule="evenodd" clip-rule="evenodd" fill="#003361" d="M973.1 23.1h137.5v3.2H973.1zM1114.1 23.1h137.5v39.6h-137.5z"/><path fill-rule="evenodd" clip-rule="evenodd" fill="#003361" d="M1114.1 23.1h137.5v3.2h-137.5zM1257.5 23.1H1395v39.6h-137.5z"/><path fill-rule="evenodd" clip-rule="evenodd" fill="#003361" d="M1257.5 23.1H1395v3.2h-137.5zM754.8 67.9h137.5v39.6H754.8z"/><path fill-rule="evenodd" clip-rule="evenodd" fill="#003361" d="M754.8 67.9h137.5v3.2H754.8zM897 67.9h137.5v39.6H897z"/><path fill-rule="evenodd" clip-rule="evenodd" fill="#003361" d="M897 67.9h137.5v3.2H897zM1041.6 67.9h137.5v39.6h-137.5z"/><path fill-rule="evenodd" clip-rule="evenodd" fill="#003361" d="M1041.6 67.9h137.5v3.2h-137.5zM1182.6 67.9h137.5v39.6h-137.5z"/><path fill-rule="evenodd" clip-rule="evenodd" fill="#003361" d="M1182.6 67.9h137.5v3.2h-137.5zM1325.7 67.9h74.3v39.6h-74.3z"/><path fill-rule="evenodd" clip-rule="evenodd" fill="#003361" d="M1325.7 67.9h74.3v3.2h-74.3zM685.8 113.1h137.5v39.6H685.8z"/><path fill-rule="evenodd" clip-rule="evenodd" fill="#003361" d="M685.8 113.1h137.5v3.2H685.8zM828 113.1h137.5v39.6H828z"/><path fill-rule="evenodd" clip-rule="evenodd" fill="#003361" d="M828 113.1h137.5v3.2H828zM972.6 113.1h137.5v39.6H972.6z"/><path fill-rule="evenodd" clip-rule="evenodd" fill="#003361" d="M972.6 113.1h137.5v3.2H972.6zM1113.6 113.1h137.5v39.6h-137.5z"/><path fill-rule="evenodd" clip-rule="evenodd" fill="#003361" d="M1113.6 113.1h137.5v3.2h-137.5zM1256.7 113.1h137.5v39.6h-137.5z"/><path fill-rule="evenodd" clip-rule="evenodd" fill="#003361" d="M1256.7 113.1h137.5v3.2h-137.5zM755.3 156.1h137.5v39.6H755.3z"/><path fill-rule="evenodd" clip-rule="evenodd" fill="#003361" d="M755.3 156.1h137.5v3.2H755.3zM897.7 156.1h137.5v39.6H897.7z"/><path fill-rule="evenodd" clip-rule="evenodd" fill="#003361" d="M897.7 156.1h137.5v3.2H897.7zM1042.1 156.1h137.5v39.6h-137.5z"/><path fill-rule="evenodd" clip-rule="evenodd" fill="#003361" d="M1042.1 156.1h137.5v3.2h-137.5zM1183 156.1h137.5v39.6H1183z"/><path fill-rule="evenodd" clip-rule="evenodd" fill="#003361" d="M1183 156.1h137.5v3.2H1183zM1326.5 156.1h73.5v39.6h-73.5z"/><path fill-rule="evenodd" clip-rule="evenodd" fill="#003361" d="M1326.5 156.1h73.5v3.2h-73.5zM685.3 200.3h137.5v39.6H685.3z"/><path fill-rule="evenodd" clip-rule="evenodd" fill="#003361" d="M685.3 200.3h137.5v3.2H685.3zM827.5 200.3H965v39.6H827.5z"/><path fill-rule="evenodd" clip-rule="evenodd" fill="#003361" d="M827.5 200.3H965v3.2H827.5zM971.9 200.3h137.5v39.6H971.9z"/><path fill-rule="evenodd" clip-rule="evenodd" fill="#003361" d="M971.9 200.3h137.5v3.2H971.9zM1112.8 200.3h137.5v39.6h-137.5z"/><path fill-rule="evenodd" clip-rule="evenodd" fill="#003361" d="M1112.8 200.3h137.5v3.2h-137.5zM1256.2 200.3h137.5v39.6h-137.5z"/><path fill-rule="evenodd" clip-rule="evenodd" fill="#003361" d="M1256.2 200.3h137.5v3.2h-137.5zM755.3 245.1h137.5v39.6H755.3z"/><path fill-rule="evenodd" clip-rule="evenodd" fill="#003361" d="M755.3 245.1h137.5v3.2H755.3zM897.7 245.1h137.5v39.6H897.7z"/><path fill-rule="evenodd" clip-rule="evenodd" fill="#003361" d="M897.7 245.1h137.5v3.2H897.7zM1042.1 245.1h137.5v39.6h-137.5z"/><path fill-rule="evenodd" clip-rule="evenodd" fill="#003361" d="M1042.1 245.1h137.5v3.2h-137.5zM1183 245.1h137.5v39.6H1183z"/><path fill-rule="evenodd" clip-rule="evenodd" fill="#003361" d="M1183 245.1h137.5v3.2H1183zM1326.5 245.1h73.5v39.6h-73.5z"/><path fill-rule="evenodd" clip-rule="evenodd" fill="#003361" d="M1326.5 245.1h73.5v3.2h-73.5zM685.6 288.6h137.5v39.6H685.6z"/><path fill-rule="evenodd" clip-rule="evenodd" fill="#003361" d="M685.6 288.6h137.5v3.2H685.6zM827.7 288.6h137.5v39.6H827.7z"/><path fill-rule="evenodd" clip-rule="evenodd" fill="#003361" d="M827.7 288.6h137.5v3.2H827.7zM972.4 288.6h137.5v39.6H972.4z"/><path fill-rule="evenodd" clip-rule="evenodd" fill="#003361" d="M972.4 288.6h137.5v3.2H972.4zM1113.3 288.6h137.5v39.6h-137.5z"/><path fill-rule="evenodd" clip-rule="evenodd" fill="#003361" d="M1113.3 288.6h137.5v3.2h-137.5zM1256.5 288.6H1394v39.6h-137.5z"/><path fill-rule="evenodd" clip-rule="evenodd" fill="#003361" d="M1256.5 288.6H1394v3.2h-137.5zM755.3 333.5h137.5v39.6H755.3z"/><path fill-rule="evenodd" clip-rule="evenodd" fill="#003361" d="M755.3 333.5h137.5v3.2H755.3zM897.7 333.5h137.5v39.6H897.7z"/><path fill-rule="evenodd" clip-rule="evenodd" fill="#003361" d="M897.7 333.5h137.5v3.2H897.7zM1042.1 333.5h137.5v39.6h-137.5z"/><path fill-rule="evenodd" clip-rule="evenodd" fill="#003361" d="M1042.1 333.5h137.5v3.2h-137.5zM1183 333.5h137.5v39.6H1183z"/><path fill-rule="evenodd" clip-rule="evenodd" fill="#003361" d="M1183 333.5h137.5v3.2H1183zM1326.5 333.5h73.5v39.6h-73.5z"/><path fill-rule="evenodd" clip-rule="evenodd" fill="#003361" d="M1326.5 333.5h73.5v3.2h-73.5zM686.1 377.8h137.5v39.6H686.1z"/><path fill-rule="evenodd" clip-rule="evenodd" fill="#003361" d="M686.1 377.8h137.5v3.2H686.1zM828.2 377.8h137.5v39.6H828.2z"/><path fill-rule="evenodd" clip-rule="evenodd" fill="#003361" d="M828.2 377.8h137.5v3.2H828.2zM972.9 377.8h137.5v39.6H972.9z"/><path fill-rule="evenodd" clip-rule="evenodd" fill="#003361" d="M972.9 377.8h137.5v3.2H972.9zM1113.8 377.8h137.5v39.6h-137.5z"/><path fill-rule="evenodd" clip-rule="evenodd" fill="#003361" d="M1113.8 377.8h137.5v3.2h-137.5zM1257 377.8h137.5v39.6H1257z"/><path fill-rule="evenodd" clip-rule="evenodd" fill="#003361" d="M1257 377.8h137.5v3.2H1257zM755.3 421.8h137.5v39.6H755.3z"/><path fill-rule="evenodd" clip-rule="evenodd" fill="#003361" d="M755.3 421.8h137.5v3.2H755.3zM897.7 421.8h137.5v39.6H897.7z"/><path fill-rule="evenodd" clip-rule="evenodd" fill="#003361" d="M897.7 421.8h137.5v3.2H897.7zM1042.1 421.8h137.5v39.6h-137.5z"/><path fill-rule="evenodd" clip-rule="evenodd" fill="#003361" d="M1042.1 421.8h137.5v3.2h-137.5zM1183 421.8h137.5v39.6H1183z"/><path fill-rule="evenodd" clip-rule="evenodd" fill="#003361" d="M1183 421.8h137.5v3.2H1183zM1326.5 421.8h73.5v39.6h-73.5z"/><path fill-rule="evenodd" clip-rule="evenodd" fill="#003361" d="M1326.5 421.8h73.5v3.2h-73.5zM685.6 464.8h137.5v39.6H685.6z"/><path fill-rule="evenodd" clip-rule="evenodd" fill="#003361" d="M685.6 464.8h137.5v3.2H685.6zM827.7 464.8h137.5v39.6H827.7z"/><path fill-rule="evenodd" clip-rule="evenodd" fill="#003361" d="M827.7 464.8h137.5v3.2H827.7zM972.4 464.8h137.5v39.6H972.4z"/><path fill-rule="evenodd" clip-rule="evenodd" fill="#003361" d="M972.4 464.8h137.5v3.2H972.4zM1113.3 464.8h137.5v39.6h-137.5z"/><path fill-rule="evenodd" clip-rule="evenodd" fill="#003361" d="M1113.3 464.8h137.5v3.2h-137.5zM1256.5 464.8H1394v39.6h-137.5z"/><path fill-rule="evenodd" clip-rule="evenodd" fill="#003361" d="M1256.5 464.8H1394v3.2h-137.5zM755.3 510.3h137.5v39.6H755.3z"/><path fill-rule="evenodd" clip-rule="evenodd" fill="#003361" d="M755.3 510.3h137.5v3.2H755.3zM897.7 510.3h137.5v39.6H897.7z"/><path fill-rule="evenodd" clip-rule="evenodd" fill="#003361" d="M897.7 510.3h137.5v3.2H897.7zM1042.1 510.3h137.5v39.6h-137.5z"/><path fill-rule="evenodd" clip-rule="evenodd" fill="#003361" d="M1042.1 510.3h137.5v3.2h-137.5zM1183 510.3h137.5v39.6H1183z"/><path fill-rule="evenodd" clip-rule="evenodd" fill="#003361" d="M1183 510.3h137.5v3.2H1183zM1326.5 510.3h73.5v39.6h-73.5z"/><path fill-rule="evenodd" clip-rule="evenodd" fill="#003361" d="M1326.5 510.3h73.5v3.2h-73.5zM685.6 555h137.5v39.6H685.6z"/><path fill-rule="evenodd" clip-rule="evenodd" fill="#003361" d="M685.6 555h137.5v3.2H685.6zM827.7 555h137.5v39.6H827.7z"/><path fill-rule="evenodd" clip-rule="evenodd" fill="#003361" d="M827.7 555h137.5v3.2H827.7zM972.4 555h137.5v39.6H972.4z"/><path fill-rule="evenodd" clip-rule="evenodd" fill="#003361" d="M972.4 555h137.5v3.2H972.4zM1113.3 555h137.5v39.6h-137.5z"/><path fill-rule="evenodd" clip-rule="evenodd" fill="#003361" d="M1113.3 555h137.5v3.2h-137.5zM1256.5 555H1394v39.6h-137.5z"/><path fill-rule="evenodd" clip-rule="evenodd" fill="#003361" d="M1256.5 555H1394v3.2h-137.5zM755.3 598.5h137.5v39.6H755.3z"/><path fill-rule="evenodd" clip-rule="evenodd" fill="#003361" d="M755.3 598.5h137.5v3.2H755.3zM897.7 598.5h137.5v39.6H897.7z"/><path fill-rule="evenodd" clip-rule="evenodd" fill="#003361" d="M897.7 598.5h137.5v3.2H897.7zM1042.1 598.5h137.5v39.6h-137.5z"/><path fill-rule="evenodd" clip-rule="evenodd" fill="#003361" d="M1042.1 598.5h137.5v3.2h-137.5zM1183 598.5h137.5v39.6H1183z"/><path fill-rule="evenodd" clip-rule="evenodd" fill="#003361" d="M1183 598.5h137.5v3.2H1183zM1326.5 598.5h73.5v39.6h-73.5z"/><path fill-rule="evenodd" clip-rule="evenodd" fill="#003361" d="M1326.5 598.5h73.5v3.2h-73.5zM684.3 643.7h137.5v39.6H684.3z"/><path fill-rule="evenodd" clip-rule="evenodd" fill="#003361" d="M684.3 643.7h137.5v3.2H684.3zM826.5 643.7H964v39.6H826.5z"/><path fill-rule="evenodd" clip-rule="evenodd" fill="#003361" d="M826.5 643.7H964v3.2H826.5zM971.2 643.7h137.5v39.6H971.2z"/><path fill-rule="evenodd" clip-rule="evenodd" fill="#003361" d="M971.2 643.7h137.5v3.2H971.2zM1112.1 643.7h137.5v39.6h-137.5z"/><path fill-rule="evenodd" clip-rule="evenodd" fill="#003361" d="M1112.1 643.7h137.5v3.2h-137.5zM1255.3 643.7h137.5v39.6h-137.5z"/><path fill-rule="evenodd" clip-rule="evenodd" fill="#003361" d="M1255.3 643.7h137.5v3.2h-137.5zM1399.7 643.7h.3v39.6h-.3z"/><path fill-rule="evenodd" clip-rule="evenodd" fill="#003361" d="M1399.7 643.7h.3v3.2h-.3zM755.3 687.5h137.5v39.6H755.3z"/><path fill-rule="evenodd" clip-rule="evenodd" fill="#003361" d="M755.3 687.5h137.5v3.2H755.3zM897.7 687.5h137.5v39.6H897.7z"/><path fill-rule="evenodd" clip-rule="evenodd" fill="#003361" d="M897.7 687.5h137.5v3.2H897.7zM1042.1 687.5h137.5v39.6h-137.5z"/><path fill-rule="evenodd" clip-rule="evenodd" fill="#003361" d="M1042.1 687.5h137.5v3.2h-137.5zM1183 687.5h137.5v39.6H1183z"/><path fill-rule="evenodd" clip-rule="evenodd" fill="#003361" d="M1183 687.5h137.5v3.2H1183zM1326.5 687.5h73.5v39.6h-73.5z"/><path fill-rule="evenodd" clip-rule="evenodd" fill="#003361" d="M1326.5 687.5h73.5v3.2h-73.5zM686.1 731.7h137.5v39.6H686.1z"/><path fill-rule="evenodd" clip-rule="evenodd" fill="#003361" d="M686.1 731.7h137.5v3.2H686.1zM828.2 731.7h137.5v39.6H828.2z"/><path fill-rule="evenodd" clip-rule="evenodd" fill="#003361" d="M828.2 731.7h137.5v3.2H828.2zM972.9 731.7h137.5v39.6H972.9z"/><path fill-rule="evenodd" clip-rule="evenodd" fill="#003361" d="M972.9 731.7h137.5v3.2H972.9zM1113.8 731.7h137.5v39.6h-137.5z"/><path fill-rule="evenodd" clip-rule="evenodd" fill="#003361" d="M1113.8 731.7h137.5v3.2h-137.5zM1257 731.7h137.5v39.6H1257z"/><path fill-rule="evenodd" clip-rule="evenodd" fill="#003361" d="M1257 731.7h137.5v3.2H1257zM754.8 775.7h137.5v39.6H754.8z"/><path fill-rule="evenodd" clip-rule="evenodd" fill="#003361" d="M754.8 775.7h137.5v3.2H754.8zM897 775.7h137.5v39.6H897z"/><path fill-rule="evenodd" clip-rule="evenodd" fill="#003361" d="M897 775.7h137.5v3.2H897zM1041.6 775.7h137.5v39.6h-137.5z"/><path fill-rule="evenodd" clip-rule="evenodd" fill="#003361" d="M1041.6 775.7h137.5v3.2h-137.5zM1182.6 775.7h137.5v39.6h-137.5z"/><path fill-rule="evenodd" clip-rule="evenodd" fill="#003361" d="M1182.6 775.7h137.5v3.2h-137.5zM1325.7 775.7h74.3v39.6h-74.3z"/><path fill-rule="evenodd" clip-rule="evenodd" fill="#003361" d="M1325.7 775.7h74.3v3.2h-74.3zM686.1 820.9h137.5v39.6H686.1z"/><path fill-rule="evenodd" clip-rule="evenodd" fill="#003361" d="M686.1 820.9h137.5v3.2H686.1zM828.2 820.9h137.5v39.6H828.2z"/><path fill-rule="evenodd" clip-rule="evenodd" fill="#003361" d="M828.2 820.9h137.5v3.2H828.2zM972.9 820.9h137.5v39.6H972.9z"/><path fill-rule="evenodd" clip-rule="evenodd" fill="#003361" d="M972.9 820.9h137.5v3.2H972.9zM1113.8 820.9h137.5v39.6h-137.5z"/><path fill-rule="evenodd" clip-rule="evenodd" fill="#003361" d="M1113.8 820.9h137.5v3.2h-137.5zM1257 820.9h137.5v39.6H1257z"/><path fill-rule="evenodd" clip-rule="evenodd" fill="#003361" d="M1257 820.9h137.5v3.2H1257zM755.3 864.2h137.5v39.6H755.3z"/><path fill-rule="evenodd" clip-rule="evenodd" fill="#003361" d="M755.3 864.2h137.5v3.2H755.3zM897.7 864.2h137.5v39.6H897.7z"/><path fill-rule="evenodd" clip-rule="evenodd" fill="#003361" d="M897.7 864.2h137.5v3.2H897.7zM1042.1 864.2h137.5v39.6h-137.5z"/><path fill-rule="evenodd" clip-rule="evenodd" fill="#003361" d="M1042.1 864.2h137.5v3.2h-137.5zM1183 864.2h137.5v39.6H1183z"/><path fill-rule="evenodd" clip-rule="evenodd" fill="#003361" d="M1183 864.2h137.5v3.2H1183zM1326.5 864.2h73.5v39.6h-73.5z"/><path fill-rule="evenodd" clip-rule="evenodd" fill="#003361" d="M1326.5 864.2h73.5v3.2h-73.5zM686.1 908.9h137.5v39.6H686.1z"/><path fill-rule="evenodd" clip-rule="evenodd" fill="#003361" d="M686.1 908.9h137.5v3.2H686.1zM828.2 908.9h137.5v39.6H828.2z"/><path fill-rule="evenodd" clip-rule="evenodd" fill="#003361" d="M828.2 908.9h137.5v3.2H828.2zM972.9 908.9h137.5v39.6H972.9z"/><path fill-rule="evenodd" clip-rule="evenodd" fill="#003361" d="M972.9 908.9h137.5v3.2H972.9zM1113.8 908.9h137.5v39.6h-137.5z"/><path fill-rule="evenodd" clip-rule="evenodd" fill="#003361" d="M1113.8 908.9h137.5v3.2h-137.5zM1257 908.9h137.5v39.6H1257z"/><path fill-rule="evenodd" clip-rule="evenodd" fill="#003361" d="M1257 908.9h137.5v3.2H1257zM755.3 952.9h137.5v39.6H755.3z"/><path fill-rule="evenodd" clip-rule="evenodd" fill="#003361" d="M755.3 952.9h137.5v3.2H755.3zM897.7 952.9h137.5v39.6H897.7z"/><path fill-rule="evenodd" clip-rule="evenodd" fill="#003361" d="M897.7 952.9h137.5v3.2H897.7zM1042.1 952.9h137.5v39.6h-137.5z"/><path fill-rule="evenodd" clip-rule="evenodd" fill="#003361" d="M1042.1 952.9h137.5v3.2h-137.5zM1183 952.9h137.5v39.6H1183z"/><path fill-rule="evenodd" clip-rule="evenodd" fill="#003361" d="M1183 952.9h137.5v3.2H1183zM1326.5 952.9h73.5v39.6h-73.5z"/><path fill-rule="evenodd" clip-rule="evenodd" fill="#003361" d="M1326.5 952.9h73.5v3.2h-73.5zM685.6 997.4h137.5v39.6H685.6z"/><path fill-rule="evenodd" clip-rule="evenodd" fill="#003361" d="M685.6 997.4h137.5v3.2H685.6zM827.7 997.4h137.5v39.6H827.7z"/><path fill-rule="evenodd" clip-rule="evenodd" fill="#003361" d="M827.7 997.4h137.5v3.2H827.7zM972.4 997.4h137.5v39.6H972.4z"/><path fill-rule="evenodd" clip-rule="evenodd" fill="#003361" d="M972.4 997.4h137.5v3.2H972.4zM1113.3 997.4h137.5v39.6h-137.5z"/><path fill-rule="evenodd" clip-rule="evenodd" fill="#003361" d="M1113.3 997.4h137.5v3.2h-137.5zM1256.5 997.4H1394v39.6h-137.5z"/><path fill-rule="evenodd" clip-rule="evenodd" fill="#003361" d="M1256.5 997.4H1394v3.2h-137.5zM755.3 1041.9h137.5v39.6H755.3z"/><path fill-rule="evenodd" clip-rule="evenodd" fill="#003361" d="M755.3 1041.9h137.5v3.2H755.3zM897.7 1041.9h137.5v39.6H897.7z"/><path fill-rule="evenodd" clip-rule="evenodd" fill="#003361" d="M897.7 1041.9h137.5v3.2H897.7zM1042.1 1041.9h137.5v39.6h-137.5z"/><path fill-rule="evenodd" clip-rule="evenodd" fill="#003361" d="M1042.1 1041.9h137.5v3.2h-137.5zM1183 1041.9h137.5v39.6H1183z"/><path fill-rule="evenodd" clip-rule="evenodd" fill="#003361" d="M1183 1041.9h137.5v3.2H1183zM1326.5 1041.9h73.5v39.6h-73.5z"/><path fill-rule="evenodd" clip-rule="evenodd" fill="#003361" d="M1326.5 1041.9h73.5v3.2h-73.5zM685.6 1086.1h137.5v39.6H685.6z"/><path fill-rule="evenodd" clip-rule="evenodd" fill="#003361" d="M685.6 1086.1h137.5v3.2H685.6zM827.7 1086.1h137.5v39.6H827.7z"/><path fill-rule="evenodd" clip-rule="evenodd" fill="#003361" d="M827.7 1086.1h137.5v3.2H827.7zM972.4 1086.1h137.5v39.6H972.4z"/><path fill-rule="evenodd" clip-rule="evenodd" fill="#003361" d="M972.4 1086.1h137.5v3.2H972.4zM1113.3 1086.1h137.5v39.6h-137.5z"/><path fill-rule="evenodd" clip-rule="evenodd" fill="#003361" d="M1113.3 1086.1h137.5v3.2h-137.5zM1256.5 1086.1H1394v39.6h-137.5z"/><path fill-rule="evenodd" clip-rule="evenodd" fill="#003361" d="M1256.5 1086.1H1394v3.2h-137.5zM755.3 1130.8h137.5v39.6H755.3z"/><path fill-rule="evenodd" clip-rule="evenodd" fill="#003361" d="M755.3 1130.8h137.5v3.2H755.3zM897.7 1130.8h137.5v39.6H897.7z"/><path fill-rule="evenodd" clip-rule="evenodd" fill="#003361" d="M897.7 1130.8h137.5v3.2H897.7zM1042.1 1130.8h137.5v39.6h-137.5z"/><path fill-rule="evenodd" clip-rule="evenodd" fill="#003361" d="M1042.1 1130.8h137.5v3.2h-137.5zM1183 1130.8h137.5v39.6H1183z"/><path fill-rule="evenodd" clip-rule="evenodd" fill="#003361" d="M1183 1130.8h137.5v3.2H1183zM1326.5 1130.8h73.5v39.6h-73.5z"/><path fill-rule="evenodd" clip-rule="evenodd" fill="#003361" d="M1326.5 1130.8h73.5v3.2h-73.5zM685.6 1174.6h137.5v34.1H685.6z"/><path fill-rule="evenodd" clip-rule="evenodd" fill="#003361" d="M685.6 1174.6h137.5v3.2H685.6zM827.7 1174.6h137.5v34.1H827.7z"/><path fill-rule="evenodd" clip-rule="evenodd" fill="#003361" d="M827.7 1174.6h137.5v3.2H827.7zM972.4 1174.6h137.5v34.1H972.4z"/><path fill-rule="evenodd" clip-rule="evenodd" fill="#003361" d="M972.4 1174.6h137.5v3.2H972.4zM1113.3 1174.6h137.5v34.1h-137.5z"/><path fill-rule="evenodd" clip-rule="evenodd" fill="#003361" d="M1113.3 1174.6h137.5v3.2h-137.5zM1256.5 1174.6H1394v34.1h-137.5z"/><path fill-rule="evenodd" clip-rule="evenodd" fill="#003361" d="M1256.5 1174.6H1394v3.2h-137.5z"/><path fill-rule="evenodd" clip-rule="evenodd" fill="#001D42" d="M0 895.2h1400v121.9H0z"/><path fill-rule="evenodd" clip-rule="evenodd" fill="#003361" d="M180.1 85H881v386H180.1z"/><path fill-rule="evenodd" clip-rule="evenodd" fill="#004D82" d="M197.5 102.4h666.1v351.2H197.5z"/><path fill-rule="evenodd" clip-rule="evenodd" fill="#FFD600" d="M633 254.6c-11.9-21.5-34.7-33.3-57.7-32.1 5.7 4.6 10.7 10.3 14.4 17.1 15.2 27.6 5.2 62.2-22.4 77.4-11.9 6.6-25.2 8.4-37.6 6.2 18.5 23.5 51.8 30.8 78.8 15.9 30.1-16.6 41.1-54.4 24.5-84.5"/><path fill-rule="evenodd" clip-rule="evenodd" fill="#FBAF4E" d="M492.6 239.4l-2.8 5.8-6.4-.8 4.7 4.4-2.8 5.9 5.7-3.1 4.7 4.5-1.2-6.4 5.7-3.1-6.4-.8zM713.1 140.8l-4 8.3-9.1-1.2 6.7 6.3-4 8.3 8.1-4.4 6.6 6.4-1.7-9.1 8.2-4.3-9.2-1.2zM357 144.3l-4 8.3-9.1-1.3 6.6 6.4-4 8.3 8.1-4.4 6.7 6.3-1.7-9 8.1-4.4-9.1-1.2zM442.3 312.6l-4 8.4-9.1-1.3 6.6 6.4-4 8.2 8.1-4.3 6.7 6.3-1.7-9 8.1-4.4-9.1-1.2zM730.5 385.7l-4 8.3-9.1-1.2 6.7 6.3-4 8.3 8.1-4.4 6.6 6.4-1.6-9 8.1-4.4-9.1-1.2z"/><path fill-rule="evenodd" clip-rule="evenodd" fill="#003361" d="M523.8 102.4h16v351.2h-16z"/><path fill-rule="evenodd" clip-rule="evenodd" fill="#003361" d="M197.5 270h666.1v16H197.5z"/><path fill-rule="evenodd" clip-rule="evenodd" fill="#00457A" d="M180.1 85h120c5 114.9-30.3 215.2-64.8 241.3 28.2 27.3 28 73.7 39.7 187.9h-94.9V85z"/><path fill-rule="evenodd" clip-rule="evenodd" fill="#003D6F" d="M180.1 85h64.8c2.7 114.9-16.4 215.2-35 241.3 15.2 27.3 15.2 73.7 21.5 187.9h-51.3V85z"/><path fill-rule="evenodd" clip-rule="evenodd" fill="#00315E" d="M180.1 318.1h63.3c1.5 0 2.7 1.2 2.7 2.7v7c0 1.7-1.4 3.1-3.1 3.1h-62.9v-12.8z"/><path fill-rule="evenodd" clip-rule="evenodd" fill="#00457A" d="M881 85H761c-5 114.9 30.3 215.2 64.8 241.3-28.2 27.3-28 73.7-39.7 187.9H881V85z"/><path fill-rule="evenodd" clip-rule="evenodd" fill="#003D6F" d="M881 85h-64.8c-2.7 114.9 16.4 215.2 35 241.3C836 353.6 836 400 829.7 514.2H881V85z"/><path fill-rule="evenodd" clip-rule="evenodd" fill="#00315E" d="M881 318.1h-63.3c-1.5 0-2.7 1.2-2.7 2.7v7c0 1.7 1.4 3.1 3.1 3.1H881v-12.8z"/><path fill-rule="evenodd" clip-rule="evenodd" fill="#00274E" d="M159.6 69.1h741.9v26.4H159.6z"/><path fill-rule="evenodd" clip-rule="evenodd" fill="#00457A" d="M55.6 515.4h27.9v378.1H55.6z"/><path fill-rule="evenodd" clip-rule="evenodd" fill="#00274E" d="M949 515.4h27.9v378.1H949z"/><path fill-rule="evenodd" clip-rule="evenodd" fill="#00274E" d="M65.7 743.5h901.1v72.8H65.7z"/><path fill-rule="evenodd" clip-rule="evenodd" fill="#00274F" d="M926.9 743.5H105.6c-12.1 0-22.1-9.9-22.1-22.1v-47.9c0-12.1 9.9-22.1 22.1-22.1h821.3c12.1 0 22.1 9.9 22.1 22.1v47.9c0 12.2-9.9 22.1-22.1 22.1"/><path fill-rule="evenodd" clip-rule="evenodd" fill="#003E70" d="M926.9 743.5H105.6c-12.1 0-22.1-9.9-22.1-22.1v-14.5H949v14.5c0 12.2-9.9 22.1-22.1 22.1"/><path fill-rule="evenodd" clip-rule="evenodd" fill="#356892" d="M176 616.3c-1 5-14 3-22 4 39.9 31.9 92 62.6 143.4 57.4 7.1-45-30.2-78.4-73.9-92.8-18.9-6.3-38.9-7.5-58.6-5 1.8 12.9 11.9 24 11.1 36.4z"/><path fill-rule="evenodd" clip-rule="evenodd" fill="#3C74A2" d="M154 620.3c8-1 21 1 22-4 .8-12.4-9.3-23.4-11.1-36.5-32.2 4-63.6 17.7-88.3 34.9l214.9 82.9c2.9-6.9 4.8-13.5 5.9-19.9-51.4 5.2-103.5-25.5-143.4-57.4z"/><path fill-rule="evenodd" clip-rule="evenodd" fill="#DB9373" d="M283.2 633.9l.3-1.9S268 614.6 261 615.9c-7 1.4-1 7.2-1 7.2s-15.7-2.9-34.1-2c-18.5.9-12 9.7-12 9.7s.2 2.2 1.4 4.6c21.7 8.1 47.2 9 67.9-1.5z"/><path fill-rule="evenodd" clip-rule="evenodd" fill="#F4AF87" d="M215.3 635.5c.9 1.9 2.5 4.1 5 5.4 5.6 3 28.4 14.7 59.6 12.5l3.3-19.6c-20.7 10.6-46.2 9.7-67.9 1.7z"/><path fill-rule="evenodd" clip-rule="evenodd" fill="#34678F" d="M76.6 613.2c78.5 18 150.7 44.8 214.9 82.9-94.9 14.3-166.5-13.3-214.9-82.9"/><path fill-rule="evenodd" clip-rule="evenodd" fill="#CA5FA2" d="M353.8 563.4c-.1 0-.1 0 0 0z"/><path fill-rule="evenodd" clip-rule="evenodd" fill="#A24A84" d="M354 602.4l-.9-1.7c-12.6 9-30.6 7.5-46 3.6-.1.6-.2 1.2-.3 1.9-1.5 10.1 1.1 20 6.9 28.5l28.5 1.7 1.2.1 6.6.4 6.1.4c.6 0 1.2.1 1.8.1 1.3 0 2.4-.1 3.5-.2 3-.4 5-1.4 5.6-2.5 14.7-22.9 7.2-27.2-13-32.3z"/><path fill-rule="evenodd" clip-rule="evenodd" fill="#CA5FA2" d="M353.2 600.7l-3.6-6.9s1.7-12.8 3.7-24.2l1.9-.5-1-4.2c.1-.5.2-.9.3-1.4l-.6-.1h-.1.1c2.8.5 87.3 16.8 87.3 16.8-13.7-3.6-91.1-36.5-95.6-34l-.2.1-.1.1c-.5.3-1.1.6-1.7 1-.2.1-.3.2-.5.3h-.1c-.2.1-.3.2-.5.3l-.1.1c-.2.1-.3.2-.5.3l-.1.1c-.5.4-.9.6-1.3.9l-.1.1c-.5.4-1.1.8-1.6 1.2-.2.2-.4.3-.6.5h-.1c-.2.2-.4.3-.6.5-.2.1-.3.2-.5.4-16.9 13.5-26.1 31.2-29.6 52.2 15.2 4 33.2 5.5 45.8-3.6z"/><path fill-rule="evenodd" clip-rule="evenodd" fill="#6C452A" d="M293.4 583.1c-7.6 29.9-36.5 48.9-66.9 45.5-.6-.1-1.2-.1-1.8-.2-2.3-.3-4.6-.8-6.9-1.4-26.6-6.8-44.8-29.4-46.9-54.9 0-.2 0-.5-.1-.7-.3-4.5-.1-9.2.6-13.8.2-1.4.5-2.8.8-4.2l.3-1.2c7.3-28.4 33.6-47 62.3-45.9 2.8.1 5.6.4 8.4.9 22.8 10.5 55.5 48.6 50.2 75.9"/><path fill-rule="evenodd" clip-rule="evenodd" fill="#F4AF87" d="M296.8 654.3l1-21.6-14.4-.7c-2 6.9-7.3 13.5-3.6 21.4l17 .9z"/><path fill-rule="evenodd" clip-rule="evenodd" fill="#E6E7E8" d="M341.5 604.3c-2.4 9.3-9.6 16-17.8 17.4-2.5.4-5.1.3-7.6-.3-1.1-.3-2.1-.6-3.1-1.1-3.3-1.5-6.1-4-8.1-7l-.1-.2c-.1-1-.1-1.8-.2-2.7-.1-1.3-.1-2.5 0-3.5v-.5-.3c.1-3.2.7-5 1.1-6.8.3-1.1 3.5-1.5 3.8-2.6v-.1l.6-2.5c.2-.9-1.2-2.2-1.8-3.3-.2-.3-.3-.5-.3-.8 0-.6.1-1.4.3-2.1.2-.6.4-1.2.7-1.9.4-.9.9-2 1.4-3l.1-.1c.5-1 1.1-2.1 1.7-3.1 3.3-2 7.5-3.2 11.4-3 1.2 0 2.5.2 3.7.5 11 2.7 17.3 14.8 14.2 27"/><path fill-rule="evenodd" clip-rule="evenodd" fill="#E6A27B" d="M325.7 581.4c8.6 2.2 13.6 11.8 11.1 21.3-2.5 9.6-11.4 15.6-20 13.4-8.6-2.2-13.6-11.8-11.1-21.3 2.5-9.6 11.4-15.6 20-13.4"/><path fill-rule="evenodd" clip-rule="evenodd" fill="#6C452A" d="M276 561.3c2.5-1.4 4.6-3.7 6.4-6.3l-.9-4.2c-5.4-21.6-22-39.6-44.7-45.4-1.6-.4-3.2-.8-4.9-1-2.8-.5-5.6-.8-8.4-.8-21.7-.6-46 12.7-51.4 28.2-2.2 6.2-4 .7-10.3 17C191 577 238.5 584.1 276 561.3z"/><path fill-rule="evenodd" clip-rule="evenodd" fill="#623D23" d="M276 561.3c-37.5 22.8-85 15.7-114.2-12.6-.4 1-.8 2.1-1.2 3.2l-.3 1.2c-.3 1.5-.6 2.9-.9 4.4-.8 4.8-1 9.7-.8 14.4v.7c.1 1.3.2 2.6.4 3.9 3.2 24.9 20.8 46.3 46.1 52.8 2.3.6 4.6 1 6.9 1.4.6.1 1.2.1 1.8.2 30.4 3.2 59.5-16.9 67.5-48.1 2.4-9.4 2.6-18.9 1-27.8-1.7 2.6-3.8 4.8-6.3 6.3z"/><path fill-rule="evenodd" clip-rule="evenodd" fill="#623D23" d="M281.5 550.7c-1.2-4.6-2.8-9.1-5-13.3-17.6 22.6-53.4 20.6-79.5 16.9-8-1-18-5-23-14-1.1-2.5-1.8-5-2.3-7.6-2.2 5-4.2.2-11.1 19.2l-.3 1.2c-.3 1.5-.6 2.9-.9 4.4-.8 4.8-1 9.7-.8 14.4v.7c.1 1.3.2 2.6.4 3.9 5.5 21.6 22 39.6 44.7 45.4 2.3.6 4.6 1 6.9 1.3.6.1 1.2.2 1.8.2 30.4 3.2 59.5-16.9 67.5-48.1 2.2-8.2 2.6-16.6 1.6-24.6z"/><path fill-rule="evenodd" clip-rule="evenodd" fill="#6C452A" d="M197 554.3c26.1 3.7 61.9 5.7 79.5-16.8-7.8-15.4-21.8-27.5-39.7-32-1.6-.4-3.2-.8-4.9-1-2.8-.5-5.6-.8-8.4-.8-21.7-.6-46 12.7-51.4 28.2-.1.4-.3.7-.4 1 .5 2.5 1.2 5.1 2.3 7.6 5 8.8 15 12.8 23 13.8z"/><path fill-rule="evenodd" clip-rule="evenodd" fill="#E6A27B" d="M327.6 587.4c-.9-1.1-1.9-1.9-2.9-2.1-.3-.1-.6-.1-.9-.1l-27.3-7-6.1 23.8-1.1 3.5 28.2 7.2h.2c.2 0 .4.1.6.1 5.1 2.2 9-3.2 11.2-11.8 1.6-6.2.2-11-1.9-13.6z"/><path fill-rule="evenodd" clip-rule="evenodd" fill="#F4AF87" d="M327.6 587.4c-2.4 9.8-17.1 13.1-33.2 9.6-1.3-.3-3 6-4 5.1l6.1-23.8 27.3 7c.3 0 .6 0 .9.1 1 .2 2 .9 2.9 2"/><path fill-rule="evenodd" clip-rule="evenodd" fill="#F4AF87" d="M236 579.3c7-4 14 6 21 8 7 1 15 2 21 7 5 4 12 4 18 6 4 1.7 7.6.2 10.2-2.7.2-.8.5-1.6.7-2.4 7.2-28.3-7.4-56.6-32.8-63.1-1.2-.3-2.4-.6-3.7-.8-1.2-.4-2.4-.8-3.6-1.1-3-.8-6.1-1.2-9.1-1.3-2.6-1.3-5.4-2.3-8.3-3.1-25.4-6.5-51.8 11.2-59 39.6-.2.7-.3 1.4-.5 2.1 11.5 13.7 26.9 22.2 46.1 11.8z"/><path fill-rule="evenodd" clip-rule="evenodd" fill="#F2A67B" d="M296 600.3c-6-2-13-2-18-6-6-5-14-6-21-7-7-2-14-12-21-8-19.2 10.5-34.6 1.9-46.2-11.7-6 27.3 8.2 54 32.4 60.7 3.3 1.9 14.4 3.6 18.3 4.6 1.2.3 2.4.6 3.7.8 1.2.4 2.4.8 3.6 1.1 24.6 6.3 50.3-10.3 58.4-37.2-2.6 2.8-6.2 4.4-10.2 2.7z"/><path fill-rule="evenodd" clip-rule="evenodd" fill="#F4AF87" d="M259.4 518.5c4.7 1.2 7.4 6.4 6.1 11.7-1.3 5.3-6.2 8.5-10.9 7.3-4.7-1.2-7.4-6.4-6.1-11.7 1.3-5.2 6.2-8.5 10.9-7.3"/><path fill-rule="evenodd" clip-rule="evenodd" fill="#623D23" d="M171.1 549.2l-1.9 3.3 2.2 32.6s7.7 19.7 9.4 22.9l1.7.7s9.4 7.8 10.7 7.5c1.3-.3 13.4-24.4 13.4-24.4l-.2-42.4c-11.7 1.8-23.7 2-35.3-.2z"/><path fill-rule="evenodd" clip-rule="evenodd" fill="#6C452A" d="M225.9 516.5l-37.7 3-17.1 29.7c11.6 2.3 23.6 2 35.4.2V546l19.4-29.5z"/><path fill-rule="evenodd" clip-rule="evenodd" fill="#6C452A" d="M248.5 525.6c-7.6 26-45.7 29.4-59.4 27l-10-14.6 27.5-27.3 21.2 2.3 20.7 12.6z"/><path fill-rule="evenodd" clip-rule="evenodd" fill="#623D23" d="M182.7 544.1c7.5-23.8 42.9 8.4 37.3 45.4-1.3 8.4-2.2 14.5-2.9 18.9-1.7 11.2 1.9 19 1.9 19s-21.5-5.3-34.1-18.2c-11.8-12-7.2-49.3-2.2-65.1z"/><path fill-rule="evenodd" clip-rule="evenodd" fill="#FAB187" d="M222.7 596.5c-2.4 2-9.6 1.6-14.5-.9 2.2 7.1 8.2 10.5 10.7 12.1l3.8-11.2z"/><path fill-rule="evenodd" clip-rule="evenodd" fill="#F19775" d="M265.3 577.5c-.6.2-1.1.7-1.3 1.3-.1.1-.1.3-.2.4l-1.7 6.4c0 .1 0 .2-.1.3-.2.7-.1 1.4.4 2 .8.9 2.1 1.1 3.1.3 1.2-1 2.1-2.6 2.5-4.3.5-1.9.5-3.8 0-5.2-.3-1-1.5-1.6-2.7-1.2"/><path fill="none" stroke="#010101" stroke-width="3" stroke-linecap="round" stroke-miterlimit="10" d="M253.7 564.1c6.4-1.1 8.5-10.3 3.5-13.9M242.3 608.6c6.4-1.1 8.5-10.3 3.5-13.9"/><path fill-rule="evenodd" clip-rule="evenodd" fill="#010101" d="M241 555.1c.4-3.8 3.3-6.5 6.8-8.9l-6.8 8.9z"/><path fill="none" stroke="#4A2E27" stroke-width="5" stroke-linecap="round" stroke-miterlimit="10" d="M241 555.1c.4-3.8 3.3-6.5 6.8-8.9"/><path fill-rule="evenodd" clip-rule="evenodd" fill="#010101" d="M230.1 597.7c-1.2 3.2-.6 6.9 1.7 11l-1.7-11z"/><path fill="none" stroke="#4A2E27" stroke-width="5" stroke-linecap="round" stroke-miterlimit="10" d="M230.1 597.7c-1.2 3.2-.6 6.9 1.7 11"/><path fill-rule="evenodd" clip-rule="evenodd" fill="#BA5695" d="M389.1 609.7l-7.9-15-8.2-15.5-10.6-20.1-6.4-8.4c-3-5.7-9.1 41.1-9.1 41.1l15.4 27.8c2.9 5.4 3.1 9.5 2.1 11.1-.7 1.1-2.6 2.1-5.6 2.5-1.5.2-3.3.3-5.3.2l-6.1-.4-6.6-.4-1.2-.1-7.2-.5c-1.3 7.1-4 14.3-2.4 22.1-12-4.2-25.4-3-37.9-5 .5 4.4 2 7.8 4.7 7.9l43.9 5.3 7.8.5 6.1.4c1.1.1 2.2.1 3.3.1 1.9 0 3.8-.1 5.5-.3 4.2-.4 8-1.4 11.5-2.8.2-.1.4-.2.7-.3 2.8-1.2 5.3-2.7 7.6-4.5 2.6-2.1 4.9-4.5 6.7-7.4 6.8-10.4 6.5-24.4-.8-38.3z"/><path fill-rule="evenodd" clip-rule="evenodd" fill="#CA5FA2" d="M332.4 632.2l-34.1-2.1c-4.9-.3-7.2 11.1-6.2 19.2 12.5 2 26 .8 37.9 5-1.6-7.9 1.1-15.1 2.4-22.1z"/><path fill-rule="evenodd" clip-rule="evenodd" fill="#623D23" d="M173.4 596.1c-2.1 10.1-8.2 17.3-19.7 20.3 8.8 7.5 21.7 11.5 37.3 7.4l-17.6-27.7z"/><path fill-rule="evenodd" clip-rule="evenodd" fill="#F58572" d="M282.4 583.5c4.2 0 7.6 3.4 7.6 7.6 0 4.2-3.4 7.6-7.6 7.6-4.2 0-7.6-3.4-7.6-7.6-.1-4.2 3.3-7.6 7.6-7.6"/><path fill-rule="evenodd" clip-rule="evenodd" fill="#C74446" d="M282.8 598.7h-.4c-4.2 0-7.6-3.4-7.6-7.6 0-2.8 1.5-5.2 3.7-6.5h.4c4.2 0 7.6 3.4 7.6 7.6 0 2.7-1.5 5.2-3.7 6.5"/><path fill-rule="evenodd" clip-rule="evenodd" fill="#CBCCCE" d="M365 639.3c-15.4-9.2-24.3-22.5-29.5-37.9-2.9 36.6-3.3 76.8-.8 105.5l58.1.7c-.3-25.1-.8-50.2-.2-75.2-7.4 8.3-20.5 11.1-27.6 6.9z"/><path fill-rule="evenodd" clip-rule="evenodd" fill="#E2E3E4" d="M365 639.3c7.1 4.2 20.2 1.5 27.6-6.9.9-37.6 4.1-74.9 13.8-111.4-17.3-11.8-55.3 0-63.4 24.3-3.3 15.8-5.8 35.4-7.5 56.1 5.2 15.4 14.1 28.6 29.5 37.9z"/><path fill-rule="evenodd" clip-rule="evenodd" fill="#3C74A2" d="M781 657.3c36-2 71-6 107-11 16-2 31-7 47-12 0-1-1-2-1-3 1-2 4-1 4-3 2.5-22.4-.5-44.7-1.6-67.1-174.5-46.8-407-66.1-530-39.9-9.8 36.6-13 74.1-13.8 112 7.5.2 15 0 22.4 2 124 28 244 29 366 22z"/><path fill-rule="evenodd" clip-rule="evenodd" fill="#34678F" d="M936.4 561.2c1.1 22.4 4.1 44.7 1.6 67.1 0 2-3 1-4 3 0 1 1 2 1 3-16 5-31 10-47 12-36 5-71 9-107 11-122 7-242 6-366-22-7.5-2-15-1.8-22.4-2-.6 24.8-.1 49.7.2 74.6l556.2 6.6V564.6c-4.2-1.2-8.4-2.3-12.6-3.4z"/><path fill-rule="evenodd" clip-rule="evenodd" fill="#005592" d="M28.9 682.1h239.2v22H28.9z"/><path fill-rule="evenodd" clip-rule="evenodd" fill="#00254B" d="M28.9 703.4h239.2v191.9H28.9z"/><path fill-rule="evenodd" clip-rule="evenodd" fill="#00457A" d="M147.5 589.2h-12.4v36c4.1-1.8 8.2-3.6 12.4-5.3v-30.7z"/><path fill-rule="evenodd" clip-rule="evenodd" fill="#00538F" d="M135.1 625.3v44.4h12.4V620c-4.1 1.7-8.2 3.5-12.4 5.3zM104.5 669.7h73.7v12.4h-73.7z"/><path fill-rule="evenodd" clip-rule="evenodd" fill="#00457A" d="M104.5 675h73.7v7.1h-73.7zM193.8 589.2H88.9v-36.1c0-19.8 16.2-36.1 36.1-36.1h32.7c19.8 0 36.1 16.2 36.1 36.1v36.1z"/><path fill-rule="evenodd" clip-rule="evenodd" fill="#005592" d="M193.8 589.2h-52.4V517h16.4c19.8 0 36.1 16.2 36.1 36.1v36.1z"/><path fill-rule="evenodd" clip-rule="evenodd" fill="#003E70" d="M1058.4 632.9h295.2v260.6h-295.2z"/><path fill-rule="evenodd" clip-rule="evenodd" fill="#00528D" d="M1054.3 621.7h303.4v11.2h-303.4z"/><path fill-rule="evenodd" clip-rule="evenodd" fill="#002954" d="M1058.4 697.8h295.2v5.6h-295.2zM1058.4 760.4h295.2v5.6h-295.2zM1058.4 823h295.2v5.6h-295.2z"/><path fill-rule="evenodd" clip-rule="evenodd" fill="#00528D" d="M1206 659.5c3.7 0 6.6 3 6.6 6.6 0 3.7-3 6.6-6.6 6.6-3.7 0-6.6-3-6.6-6.6 0-3.6 3-6.6 6.6-6.6M1206 725.5c3.7 0 6.6 3 6.6 6.6 0 3.7-3 6.6-6.6 6.6-3.7 0-6.6-3-6.6-6.6 0-3.6 3-6.6 6.6-6.6M1206 790.1c3.7 0 6.6 3 6.6 6.6s-3 6.6-6.6 6.6c-3.7 0-6.6-3-6.6-6.6s3-6.6 6.6-6.6M1206 856c3.7 0 6.6 3 6.6 6.6 0 3.7-3 6.6-6.6 6.6-3.7 0-6.6-3-6.6-6.6 0-3.6 3-6.6 6.6-6.6"/><path fill-rule="evenodd" clip-rule="evenodd" fill="#002049" d="M1114.6 202.4v7.8c.2.6.8 8.1 1 9.7 2.5 16.7 9.5 32.2 20.2 44.9l6.5 7.1c1.2 1.3 5.6 5 7.2 6.2 12.1 9.5 26.1 15.8 41.6 18.3 1.6.3 9.2.9 9.8 1.2h10.2c.7-.3 8-.9 9.6-1.2 14.8-2.4 29.9-8.9 41.4-18 1.1-.9 2.1-1.6 3.1-2.5 6.2-5.5 10.5-10 15.5-17 8.9-12.5 14.7-27.7 16.2-43.3.1-1.3.1-4.2.5-5.1v-9.4c-.3-.6-.9-8.2-1.2-9.8-1.4-8.6-4.1-17.2-7.8-24.8-2.7-5.5-8.5-15.2-12.9-19.7l-2.6-3c-.9-1-1.9-1.7-2.7-2.7-1.5-1.7-3.9-3.7-5.7-5.2-9.5-8.3-23.8-15.4-36.1-18.4-3-.7-5.9-1.3-9.1-1.8l-9.9-1h-8.2c-.6.3-8.1.9-9.8 1.2-3.1.5-6 1.1-9 1.9-5.7 1.5-10.9 3.5-15.9 5.9-7.3 3.5-14 7.8-19.8 12.8l-.7.7-1.5 1.4c-.2.2-.4.3-.7.6-1 .8-1.9 1.7-2.7 2.6-13.5 13.6-22.6 31.6-25.4 50.7l-1.1 9.9z"/><path fill-rule="evenodd" clip-rule="evenodd" fill="#003E70" d="M1200.8 123.2c-13 1.3-21.3 3.1-32.7 9-4.7 2.4-9.1 5.2-12.8 8.1-1 .8-2 1.5-2.9 2.3l-2.8 2.4c-1.8 2-3.4 3.3-5.3 5.3-2.9 3.1-6.6 8.2-8.9 11.8-8.9 13.8-13.9 32.6-12.6 49.7.9 12 3.9 23.3 9 32.6 3.3 6 6.2 10.7 10.4 15.6.3.3.3.4.5.7l4.4 4.7c1 1 1.7 1.5 2.7 2.6.4.5.9.7 1.4 1.2 2.1 2.1 8 6.3 10.4 7.8 14.4 8.9 31.7 14 49.7 12.6 18-1.4 35.4-8.2 48.3-19.4l5.4-4.9c2.5-2.5 5.1-5.6 7.3-8.4 11.7-15.3 18.3-35.9 16.8-55.8-.9-12.2-4.1-23.3-9-32.6-2.5-4.8-5.1-8.9-8.1-12.8-2-2.6-4.9-5.9-7.2-8.3-1-1-1.8-1.5-2.7-2.6-2.1-2.2-9.2-7.3-11.8-8.9-4-2.6-9-5.1-13.9-7-9.6-4-23.9-6.9-35.6-5.7"/><path fill-rule="evenodd" clip-rule="evenodd" fill="#00274E" d="M1202.3 203.3c.7-.5.7-.8 1.6-1.2.9-.4 1.4-.4 2.5-.5-.8-2.7-8.1-21.2-9.3-24.3l-2.9-7.5c-.2-.8.2-.9.2-1.7.4-4.2-7.3-12.3-8.3-12.8-.2 4.5-.3 10.7 1.8 14.2.8 1.3 1.6 1.1 2 1.9.3.6.9 2.3 1.1 3 .7 1.9 1.5 3.8 2.2 5.8 1.5 3.9 3 7.8 4.4 11.6.7 1.5 4.1 10.8 4.7 11.5M1276.1 222c-1.4-1.3-11.3-6.7-14.7-5.2-1.5.7-.9.4-3.9-.2-15.6-3.2-31.1-6.8-46.7-9.9-.2 3.1-2.9 2.2 5.1 3.9 14.1 3 28.8 6.3 42.8 9.1 2.9.6 1 2.4 7.5 2.8 3.2.2 6.8-.1 9.9-.5"/><path fill-rule="evenodd" clip-rule="evenodd" fill="#00274E" d="M1205.2 202.6c-5.3 1.4-3.1 8.7 1.7 7.6 5.1-1.3 3.1-8.8-1.7-7.6M1204.3 276.7V287.8l3.4.1v-11.2c-1.6-1.1-1.8-1.2-3.4 0M1276.4 208.1h11.2v-3.5h-11.2c-1.5 1.9-.9 1.8 0 3.5M1124.5 208.1h11.2c1.2-2.1 1.3-1.3 0-3.5h-11.1l-.1 3.5zM1204.3 136c2.2 1.3 1.3 1.2 3.5 0v-11.1l-3.4-.1-.1 11.2zM1164.6 276.7c.7.2.7.5 1.4.7l5.4-9.4c.6-1 .3-.7 0-1.5-1.4 0-.8-.3-2.2 2-.9 1.4-4.3 7.3-4.6 8.2M1266.1 171.8c1.3.5.5.5 2.7-.8 1-.5 1.7-1 2.7-1.6 1.8-1.1 3.6-2 5.5-3.1-.2-.7-.4-.8-.6-1.4-1 .4-7.6 4.3-9.5 5.4-1 .5-.8.3-.8 1.5M1266.1 240.9c0 .9-.1.9.4 1.3.2.2.5.3.7.4l3.9 2.2c1.2.7 4.2 2.6 5.3 3l.6-1.3c-.5-.6-6.6-3.9-8-4.8-2.8-1.5-1.8-1.1-2.9-.8M1135.1 246.5l.8 1.3c2.6-1.3 6.3-3.7 9.3-5.3.9-.5.7-.3.7-1.5-.9-.3-.5-.5-1.5 0l-4.1 2.4c-.9.5-4.8 2.6-5.2 3.1M1164.6 136c.3 1 4.3 7.5 5.4 9.5.5 1 .3.8 1.5.8.4-1.2.4-.8-.8-2.8l-4.7-8.2c-.6.3-.8.5-1.4.7M1246.2 277.3l1.3-.7c-.3-.9-4-7.1-5.1-9-.1-.2-.2-.4-.4-.7-.4-.5-.1-.5-1.4-.5-.4 1.2-.8.1.8 2.8.8 1.5 4.2 7.7 4.8 8.1M1135 166.3l9.4 5.4c.8.5.7.3 1.5 0 0-1.3 0-1.1-.9-1.6-3-1.6-6.2-3.7-9.2-5.3l-.3.3c0 .1-.2.3-.2.3-.1.5-.2.6-.3.9M1240.6 146.3c1.5 0 .9.4 2.2-2l4.7-8.1-1.3-.8c-.5.4-4 6.7-4.8 8-1.5 2.7-1.2 1.7-.8 2.9M1205.2 211.1l1.3 3.4 4.2-1.6c-.2-.8-.8-2.6-1.3-3.2-.6.5-.7.7-1.6 1-1 .5-1.5.5-2.6.4"/><path fill-rule="evenodd" clip-rule="evenodd" fill="#00274E" d="M1197.4 206.6l3.9.8c-.1-1.2 0-1.6.1-2.7l-3.4-.8-.6 2.7z"/></g></svg>