<svg xmlns="http://www.w3.org/2000/svg" viewBox="6.89532232 7.0294733 1336.15429688 705.38305664"  fill="#fff"><path d="M1212.4708 711.28817c-1.7439-.69224-3.0256-2.29624-3.8636-4.8354-.6896-2.08974-1.6274-3.79954-2.0839-3.79954-.4564 0-.8299-1.55626-.8299-3.45835 0-1.9021.4446-3.45836.9881-3.45836.5434 0 .9881-1.77858.9881-3.95241 0-2.85452.4117-3.95241 1.4822-3.95241.8151 0 1.4821.44465 1.4821.98811s1.334.9881 2.9643.9881c3.0499 0 3.4074-.71642 2.3416-4.69349-.4433-1.65377-1.3256-2.22322-3.4449-2.22322-2.5316 0-2.8622-.35786-2.9662-3.21134-.0643-1.76623-.0296-3.83367.0772-4.5943.2352-1.67341 2.4906-4.05158 3.8423-4.05158.5386 0 1.7266-2.25005 2.64-5.00012 1.558-4.69046 1.5573-5.11458-.0118-6.84843-2.0501-2.26518-5.2778-2.16278-6.5464.20769-1.8238 3.40796-5.8128.90247-5.8128-3.65108 0-.87364-.8893-2.54298-1.9763-3.70963-1.4388-1.54449-1.9762-3.48702-1.9762-7.14476 0-4.68396-.2235-5.14394-3.3071-6.80457-2.4984-1.34551-3.2114-2.30653-2.9159-3.93008.5483-3.01174-6.0399-8.30896-8.1528-6.55531-1.1201.9296-1.7579.92079-2.9159-.0402-2.131-1.76858-1.8454-5.03054.494-5.64231 1.9811-.51806 2.7277-2.7973 1.1187-3.4153-1.4518-.55763-2.3829-4.77582-1.0541-4.77582 2.1458 0 4.8759-4.19456 4.8759-7.49137 0-4.00964-2.2063-6.34205-5.9991-6.34205-1.5915 0-2.8938-.43957-2.8938-.97681 0-1.53915 3.2645-4.95181 4.7367-4.95181 2.3069 0 4.3008-2.84757 3.9754-5.67707-.3128-2.71832-.3221-2.7214-7.3023-2.41009-4.8926.21821-7.3131-.07818-8.0692-.9881-.8596-1.03441-.3405-1.29981 2.5427-1.29981h3.6227l.2921-6.09475c.2591-5.40875.0645-6.16696-1.7292-6.73628-1.5101-.47928-2.0213-1.48456-2.0213-3.97497 0-1.83341-.49-3.6363-1.0889-4.00645-.599-.37014-1.7354-2.22048-2.5257-4.11185-.7904-1.89138-1.9678-4.09967-2.6165-4.90729-3.5349-4.40028-6.9047-7.22223-8.6245-7.22223-1.1596 0-1.9421-.66843-1.9421-1.65903-8.7989-26.83889-18.9639-53.54805-28.308-80.35344-1.8151-5.78083-1.8592-6.48574-.4407-7.05393 2.2923-.9183 10.9544.09993 14.5706 1.7128 1.7125.7638 3.6023 1.38873 4.1994 1.38873.5972 0 1.0858 1.11161 1.0858 2.47025 0 1.9762.494 2.47026 2.4702 2.47026 1.8383 0 2.4703.52257 2.4703 2.04255 0 1.7624 2.2731 4.36573 8.3538 9.56765.7942.67931 1.9072 1.23512 2.4736 1.23512.5664 0 1.0298.4268 1.0298.94844 0 .52164 1.7786 1.48132 3.9524 2.13261 2.1739.65129 3.9524 1.78077 3.9524 2.50992 0 .72916.7912 1.32575 1.758 1.32575.967 0 2.3992.88929 3.1825 1.9762 1.7778 2.46655 6.7145 2.66498 7.6196.30628.3587-.93503.1249-1.84183-.5312-2.06059-.6446-.21488-.9524-.74595-.6841-1.18017.2683-.43422-1.6187-1.31894-4.1933-1.96602-4.5999-1.15609-8.1396-3.41927-8.1396-5.20424 0-1.50986-2.5748-3.59328-5.2798-4.27218-1.4048-.35258-2.8056-1.43334-3.113-2.40168-.3073-.96833-1.4349-2.77075-2.5056-4.00536-1.1573-1.3343-1.9488-3.68632-1.9515-5.79895-.0033-2.57039-.8116-4.41519-2.9202-6.66472-1.6035-1.7108-3.2013-4.24927-3.5507-5.64107-.9821-3.91305-2.8007-4.85984-8.0754-4.2042-2.5943.32248-7.3093.86875-10.4774 1.21393-3.4946.38075-5.9653 1.16164-6.2814 1.98531-.2865.74672-1.4928 1.35769-2.6806 1.35769-1.861 0-2.5509-1.26346-4.9902-9.13994-4.2542-9.05266-5.6343-19.75436-10.6032-28.40794-.4453 0-.8095-.86305-.8095-1.91788 0-1.05484-.3713-2.14737-.8252-2.42784-5.8631 39.47129-16.9061 80.0012-22.4168 119.4596-.7936 6.56828-1.7844 8.39886-4.5458 8.39886-1.7071 0-2.2338.88112-1.6082 2.69089.1359.39307 1.3104.57533 2.6102.40501 1.9598-.25683 2.2324.00059 1.5972 1.50854-.4212 1.00003-.7358 2.57566-.6988 3.50141.0369.92575-.8519 1.97481-1.9749 2.33125-1.4802.4698-1.6971.86117-.7885 1.42272 1.4711.90916 1.7009 8.80795.2833 9.73684-.5335.34961-1.2331 2.30306-1.5547 4.34102-.4506 2.85541-.2541 3.70539.8565 3.70539.7927 0 1.9053 1.01867 2.4726 2.26371.5673 1.24505 2.0029 2.69015 3.1902 3.21133 2.6315 1.15516 3.7294 7.37028 1.3019 7.37028-.8118 0-1.618 1.00045-1.7917 2.22322-.2124 1.49537-1.1119 2.33554-2.7473 2.56628-1.3374.18868-2.9276 1.0213-3.5336 1.85027-.7935 1.08514-1.7729 1.28015-3.4972.69632-1.3172-.44601-2.7284-.72281-3.136-.61515-.4076.10767-.7411-.24887-.7411-.79233 0-.54345-.6669-.9881-1.4821-.9881-.8152 0-1.4822-.66697-1.4822-1.48216 0-1.03515-1.043-1.48215-3.4583-1.48215-2.7647 0-3.4584.38475-3.4584 1.91789 0 1.05484.4627 2.20387 1.0283 2.55341 1.7707 1.09439-2.5575 11.50564-5.8125 13.98156-1.9583 1.48963-7.073 1.72182-7.073.32108 0-.54346-.8893-.98811-1.9762-.98811s-1.9762-.4764-1.9762-1.05867c0-2.38529-2.9247-3.62681-9.9137-4.20833-10.9421-.9104-16.3612-2.0928-18.2505-3.98203-1.3073-1.30742-1.999-1.43039-3.0656-.5451-1.7914 1.4866-1.7504 3.63385.1045 5.48884 2.2071 2.20702 1.7991 5.26717-1.0548 7.91209-3.638 3.37151-2.9283 6.4621 1.7359 7.56016 2.918.68693 3.7705 1.42812 4.2727 3.71442.345 1.57093.3458 3.31174.0017 3.86845-.9321 1.5083-6.7696 1.22281-8.9661-.43851-2.8365-2.14554-5.3763-1.89109-5.3763.53863 0 2.59918 5.1538 7.82881 7.7152 7.82881 1.0662 0 2.6959 1.15594 3.6217 2.56875 1.2936 1.9744 2.2725 2.45609 4.2304 2.08179 3.8049-.72734 9.0812 2.23463 9.1109 5.11457.0412 3.98595-3.1397 5.82819-9.1012 5.27106-2.8611-.26738-5.3501-.8697-5.5313-1.3385-.1811-.46878-.9593-.85234-1.7291-.85234-.77 0-1.3999-.41469-1.3999-.92152 0-.50684-.8666-1.19655-1.9256-1.5327-1.0591-.33614-2.2028-1.48418-2.5414-2.55118-.3387-1.06702-1.0122-1.69501-1.4966-1.39558-.4846.29944-1.7865-.36107-2.8932-1.46781-1.1068-1.10673-2.8541-2.01223-3.8828-2.01223-1.02879 0-2.12638-.66698-2.43921-1.48216-.44673-1.16415-2.45939-1.48215-9.38046-1.48215h-8.8118l-.47864 3.21133c-.26323 1.76623.07717 4.01163.7565 4.98977 1.14579 1.64993 1.28077 1.59637 1.86741-.74107.57072-2.27371 1.10687-2.51952 5.49572-2.51952 5.30472 0 5.45274.10376 6.34422 4.44645.63653 3.10132-1.05955 7.05039-2.01584 4.69349-.27559-.67932-.94048-1.23512-1.47751-1.23512-.53693 0-1.64331-.66697-2.4585-1.48216-2.27994-2.28002-4.30526-1.81521-4.30526.98811 0 1.53704-.55995 2.47025-1.48215 2.47025-.81518 0-1.48215-.44465-1.48215-.9881 0-.54346-.90045-.9881-2.00091-.9881-1.87407 0-2.24928.73682-3.26074 6.40328-.09747.54602 1.65952.83642 4.02652.66552 2.52757-.1825 4.19943.12026 4.19943.76045 0 .58501.61579 1.06366 1.36853 1.06366 1.58669 0 4.56009 4.16519 4.56009 6.3879 0 .85818.85817 1.51692 1.9762 1.51692 1.44194 0 1.97611.65873 1.97611 2.43673 0 2.56679 2.83824 9.46513 4.34292 10.5556.48655.35258.60887 2.02001.27173 3.70538-.35009 1.75083-.19989 3.06433.35058 3.06433.52982 0 .96339 1.55626.96339 3.45835 0 2.24076.46857 3.45836 1.33102 3.45836.7319 0 2.3563.88929 3.6095 1.97621 1.2532 1.08691 2.6553 1.9762 3.1155 1.9762.4603 0 .8369.83744.8369 1.86095 0 1.02997.8825 2.09173 1.9762 2.37775 1.15.30076 1.9762 1.34779 1.9762 2.50469 0 4.23586 1.0178 5.11383 5.9286 5.11383 4.9847 0 6.5478 1.43308 5.4243 4.97302-1.0875 3.42628-8.6694 3.11527-10.7833-.44232-2.0273-3.41222-5.9562-7.49501-7.2123-7.49501-.6942 0-1.2621-.44464-1.2621-.9881 0-.54345-1.2626-.9881-2.8057-.9881-2.03383 0-3.11531-.67955-3.93119-2.47026-.76745-1.68422-1.9183-2.47025-3.61695-2.47025-1.37031 0-2.41286-.33348-2.31681-.74108.31293-1.32795-4.97993-12.10424-5.94511-12.10424-.51639 0-1.9859-1.10395-3.26578-2.45318-1.27979-1.34926-3.46103-2.46087-4.84719-2.47026-3.27707-.0222-7.83722-2.15836-7.84706-3.6759-.00881-1.35744-9.71307-.65295-11.32148.82188-.51628.4734-1.73906.86074-2.71728.86074-1.52451 0-1.77858-.88929-1.77858-6.22504 0-3.52424-.51444-6.73947-1.18573-7.41077-.65366-.65367-3.79582-1.18572-7.00254-1.18572-5.47492 0-5.87872-.16398-6.86987-2.78983-.57917-1.53441-2.22995-3.3108-3.6684-3.94751-1.71654-.75982-3.3336-2.85772-4.70531-6.10447-3.13452-7.41918-4.65395-6.26194-8.42828 6.41915-1.2232 4.10977-1.60581 4.60821-2.27539 2.96431-1.29295-3.17437-4.62585-5.60911-6.84195-4.99815-4.47417 1.23347-9.91079 1.70012-8.53254.73238 1.62116-1.13831 3.86503-7.1802 3.29819-8.88075-.56086-1.68257-3.86152-1.46353-4.53871.30119-.35617.92819-1.86587 1.48216-4.03918 1.48216-3.14665 0-3.69297.43788-5.85572 4.69348-1.31191 2.58141-2.65438 4.58232-2.98324 4.44646-1.52622-.63051-2.57416-.11507-2.57416 1.26613 0 .83225-.62326 1.75234-1.38502 2.04465-.76177.29232-1.66203 2.00795-2.00057 3.81252-.63835 3.40278-3.16157 4.94854-5.6088 3.43608-1.06535-.65842-.99687-1.46176.36868-4.32535.92236-1.93422 2.12886-3.51675 2.68111-3.51675.55225 0 1.00409-1.31184 1.00409-2.91521 0-1.60336.55581-3.27079 1.23512-3.70539 1.36764-.87495 3.70539-4.71577 3.70539-6.08781 0-.48289-1.40547-1.15909-3.12327-1.50266-3.56946-.71388-6.13919-3.80784-6.21307-7.48055-.03967-1.97227-.6177-2.58252-2.67136-2.82022-2.75291-.31864-5.48483-4.77969-4.47307-7.30423.33177-.82783.54289-.66984.59313.44383.11469 2.54212 2.49307 2.10549 4.63309-.85056 1.02717-1.41886 2.45514-3.19744 3.17328-3.95242.71814-.75495.96778-1.37265.55477-1.37265-.41303 0 .22218-.90662 1.41157-2.01471 2.32556-2.16658 2.88901-4.90201 1.00974-4.90201-.63403 0-.85899-.29379-.4999-.65288.35906-.35909-.34495-1.14834-1.56451-1.75391-1.21956-.60556-2.36521-2.13429-2.54591-3.39716-.36408-2.54446 2.71597-6.05327 5.31357-6.05327.88511 0 2.1128-1.33394 2.72819-2.96431.62883-1.66595 1.84268-2.9643 2.77137-2.9643.93854 0 1.9203-1.06722 2.27244-2.47026.70337-2.80243-.23747-7.6314-1.35255-6.94224-.40479.25017-1.23602-1.2141-1.84717-3.25394-.97903-3.26767-1.64453-3.85143-5.59545-4.90814-6.14046-1.64232-8.4846-1.4822-11.37262.77684-1.35864 1.06275-3.02081 1.94215-3.69371 1.95423-.6729.01208-1.50786 1.80056-1.85547 3.97439l-.63202 3.9524H805.48882c23.99626-135.46814 48.81577-272.5752 72.72522-408.58014l2.93697-19.76205 11.9079-.27605 11.90789-.27607 1.16414 2.55501c1.27602 2.80054 3.13194 2.4574 3.13194-.57905 0-1.8752 1.20954-1.91789 54.3456-1.91789h54.34552l-.0314 2.22324c-.0349 2.47091-2.1063 5.68158-3.6655 5.68158-.555 0-1.5305 2.07138-2.1681 4.60306-.6375 2.53169-1.8019 5.52082-2.5875 6.64252-2.1432 3.05993-1.8518 6.54025.5477 6.54025 1.087 0 1.9762-.46485 1.9762-1.03301s1.1295-2.16251 2.51-3.54299c1.5907-1.5908 2.3037-3.15985 1.9468-4.28453-.3535-1.11347.0389-2.00563 1.0531-2.39482 1.1435-.43878 1.4407-1.32037 1.0159-3.01276-.3302-1.31587-.2021-3.42378.2849-4.68427 1.0535-2.72753 4.4269-6.74142 5.6565-6.73056.9893.00875 3.3425 4.66342 3.3425 6.61195 0 .84457 1.3805 1.28516 4.0268 1.28516 3.7777 0 4.0158.16817 3.8478 2.71728-.3521 5.33928.0369 8.26434 1.0183 7.65779.5434-.33588.9881-.16976.9881.36915s-.8522 1.25029-1.8936 1.58084c-1.0415.33056-2.3755 1.98313-2.9643 3.67239-1.331 3.81784-1.4026 3.44734.7758 4.01696 1.6663.43575 1.7631 1.04946.9932 6.29088-1.6794 11.4352-1.8835 12.10762-3.8652 12.73659-1.7601.55863-1.7987.76344-.4072 2.15507.8458.84576 1.403 2.48278 1.2382 3.63782-.2618 1.83513-.8913 2.07718-4.9898 1.91864l-4.6901-.18142 1.7258 2.37361c2.1193 2.91471 3.2642 3.01125 5.449.4595 2.112-2.4666 2.7886-2.4666 5.4362 0 1.5895 1.48074 3.487 1.9762 7.5688 1.9762 5.3147 0 5.4682.07841 6.2896 3.21133.6663 2.54185 1.2901 3.14689 2.9925 2.90219 1.1828-.17002 2.1507.16347 2.1507.74108 0 .57762 1.3339 1.05022 2.9643 1.05022 1.9762 0 2.9643.49405 2.9643 1.48215 0 1.06337 1.0856 1.48215 3.8425 1.48215 4.3573 0 4.0307.80181 6.0361-14.82152 1.8601-14.4917 1.9438-14.82154 3.7584-14.82154 1.6938 0 3.4088-3.06616 4.5597-8.15184.509-2.24908 1.1437-2.71728 3.6839-2.71728 2.9084 0 3.0367.16108 2.4532 3.07916-.592 2.95942-.5102 3.05208 2.0997 2.3828 5.5105-1.41309 11.1143-1.72617 11.1143-.62094 0 .70076 2.8116 1.08759 7.9049 1.08759 6.3677 0 7.9048-.28819 7.9048-1.48215 0-.81518.4351-1.48215.9668-1.48215.5316 0 .8822-1.93868.7791-4.30817-.1251-2.87645.351-4.84667 1.4331-5.92861 1.7561-1.75613 7.6902-2.24407 7.6902-.63234 0 .54345.6669.9881 1.4821.9881.8152 0 1.4822.59894 1.4822 1.33096 0 2.0178 3.6605 5.86936 4.4161 4.64667.3526-.57043 1.7264-1.03713 3.0529-1.03713 2.0007 0 2.412.48682 2.412 2.85485 0 3.20631 3.7433 8.32951 4.5923 6.2851.288-.6937 2.2275-1.23513 4.4241-1.23513 2.574 0 4.6529-.69076 6.0798-2.02009l2.1684-2.02007-2.9162-5.39069c-1.6037-2.96486-3.2969-5.39067-3.7624-5.39067-1.3948 0-3.6693-2.71254-3.6693-4.37588 0-.85401.7236-1.55274 1.6078-1.55274 2.5541 0 1.3373-9.51031-1.4682-11.47538-3.6681-2.56929-2.3487-3.34615 5.6832-3.34615 6.4812 0 7.9269.29221 8.5548 1.72919.4155.95104.666 2.28497.5564 2.9643-.1126.69832.8245 1.23513 2.1558 1.23513 1.6009 0 2.7636.87005 3.6313 2.71727.8225 1.75133 1.4467 2.24358 1.7555 1.38473.6245-1.73612-1.7115-6.07821-3.2699-6.07821-1.0146 0-2.409-2.04863-2.409-3.53917 0-1.12841 13.1142-.28557 14.3201.92035.7632.76318 4.8027 1.6229 9.4445 2.01001 4.461.37204 8.9134 1.10586 9.894 1.63072.9808.52486 2.8977.9543 4.26.9543 1.3623 0 2.7518.44464 3.0876.9881.3359.54345 1.7101.9881 3.0536.9881 1.3437 0 2.699.66696 3.0118 1.48215.3129.81518 1.1941 1.48216 1.9586 1.48216.7644 0 2.1619.41552 3.1056.92337.9437.50787 3.1287 1.49152 4.8559 2.18587 1.727.69437 2.9091 1.63607 2.6269 2.09267-.2822.45661.8616 1.34903 2.5415 1.98318 1.68.63414 3.0547 1.50014 3.0547 1.92445 0 .42432.7281.77148 1.618.77148.89 0 2.9476 1.55626 4.5723 3.45835 1.6247 1.90209 3.3739 3.45835 3.8869 3.45835 1.152 0 3.7562 2.52657 3.7562 3.64424 0 .45158 1.5466 2.15077 3.4369 3.77595 1.8904 1.62519 3.4466 3.30638 3.4584 3.73597.0219.8004 3.6121 6.13765 5.5482 8.24804.5943.64769 1.661 2.57945 2.3708 4.29278 1.3964 3.37156 2.9278 2.48497 2.9564-1.7117.0083-1.22278.4598-2.22323 1.0032-2.22323.5435 0 .9881-.64676.9881-1.43724 0-.79049 1.1116-2.54886 2.4702-3.9075 1.3587-1.35864 2.4703-2.93511 2.4703-3.50327 0-.56816 1.3076-1.03301 2.906-1.03301 1.5982 0 3.1703-.42766 3.4934-.95035.3759-.60839 1.4867-.60839 3.0868 0 1.3748.52269 3.9795.95035 5.788.95035 2.0115 0 3.5092.57553 3.8571 1.48215.3127.81519 1.4686 1.48215 2.5684 1.48215 2.3198 0 6.9553 3.71748 6.9553 5.57799 0 .69806.9464 1.77572 2.1033 2.39481 1.8982 1.01595 2.0541 1.73682 1.5996 7.39856-.3129 3.89748-1.1093 6.87872-2.1032 7.87264-.8799.87984-1.5997 2.01259-1.5997 2.51723 0 .50464-.667.91753-1.4822.91753-.8151 0-1.4822.6964-1.4822 1.54756 0 1.32248-1.5233 1.51257-10.4732 1.30704-7.5971-.17445-10.6111-.59945-10.9749-1.54756-.2759-.71888-1.1209-1.30704-1.878-1.30704-.7569 0-1.3764-.44465-1.3764-.9881 0-.54346-.667-.98811-1.4822-.98811-.8152 0-1.4821-.51875-1.4821-1.15279 0-.63402-.2664-.88636-.5921-.56074-.3256.32562.3414 4.56775 1.4822 9.42693 1.1408 4.8592 2.0742 10.00265 2.0742 11.42988 0 1.42723.4447 2.59496.9881 2.59496.6163 0 .9881 5.76393.9881 15.31559 0 8.42357-.3833 15.31557-.852 15.31557s-1.148 2.55671-1.5095 5.68159c-.908 7.84684-5.5359 26.92578-6.5312 26.92578-.4485 0-2.0381 3.22368-3.5322 7.16374-1.4941 3.94005-3.0015 7.38606-3.3498 7.65779-.3483.27173-1.5763 2.05031-2.7287 3.9524-2.239 3.69523-1.6655 5.83659 1.9233 7.18266 3.0029 1.12636 3.6117 10.60318.681 10.60318-.5718 0-1.7299.69014-2.5735 1.53366-1.1476 1.14757-3.1755 1.45851-8.0555 1.23513l-6.522-.29854-2.0018 3.70272c-1.101 2.03648-2.3671 3.70391-2.8135 3.70538-1.0466.00344-3.6312 2.58121-3.6471 3.63747-.0067.44641-1.5837 1.82979-3.5044 3.07418-1.9208 1.24439-3.7801 3.02297-4.132 3.95241-.8187 2.16294-2.0688 3.32673-5.4437 5.06818-1.4946.77116-2.7173 1.94326-2.7173 2.6047 0 .66143-1.4451 1.91841-3.2113 2.79329-4.3116 2.13568-6.6698 4.04953-6.6698 5.41309 0 .61941-.7094 1.1262-1.5765 1.1262-.8672 0-2.7569.83096-4.1995 1.84657-1.4425 1.01562-3.6296 2.15924-4.8604 2.54139-1.2306.38216-2.006 1.06948-1.723 1.5274.283.45791.0315.99361-.559 1.19043-.7611.25371-.7719 1.06908-.0367 2.80167.5702 1.34409 1.7492 5.00053 2.6197 8.1254.8706 3.12487 1.9959 5.68159 2.5009 5.68159.5048 0 .9203.55581.9234 1.23512.003.67933.4686 2.90256 1.0346 4.94052 1.012 3.64452 1.1093 3.70538 5.923 3.70538 3.6915 0 4.8941.36418 4.8941 1.48215 0 .81518.637 1.48215 1.4155 1.48215 1.9083 0 2.8623 3.39031 2.099 7.45897-.5337 2.845-1.128 3.429-4.0463 3.97648-3.929.73708-3.8699.56622-2.0124 5.8233.7745 2.192 1.9831 6.09752 2.686 8.67893.7027 2.58141 1.6051 4.69348 2.0054 4.69348.4001 0 1.0195 1.55626 1.3764 3.45836.4694 2.50268 1.1644 3.45836 2.515 3.45836 1.0264 0 1.8662.44465 1.8662.9881 0 .54346.8893.9881 1.9762.9881s1.9762.44465 1.9762.9881c0 .54346.8893.9881 1.9762.9881 1.2803 0 1.9762.65874 1.9762 1.87049 0 3.37555 2.6329 3.1077 4.556-.46352 1.0022-1.86074 2.358-3.38317 3.0129-3.38317.655 0 1.4474-.77813 1.761-1.72917.782-2.37181 5.9942-8.15185 7.351-8.15185.6077 0 1.105-.46485 1.105-1.03301 0-1.05349 4.4176-5.8837 5.381-5.8837.2918 0 1.8051-1.33394 3.3632-2.9643 1.5581-1.63037 3.3405-2.96432 3.9611-2.96432.6204 0 1.1281-.44464 1.1281-.9881 0-.54345.6194-.9881 1.3764-.9881.7571 0 1.6323-.66697 1.9452-1.48215.3128-.81518 1.2498-1.48215 2.0819-1.48215.8323 0 1.5167-.33349 1.5209-.74108.008-.76804 4.6942-3.21133 6.1593-3.21133.4577 0 1.7869-.8893 2.9536-1.97621 1.1666-1.08691 3.149-1.9762 4.4051-1.9762 1.2562 0 2.2839-.44464 2.2839-.9881 0-.54345 1.53-.9881 3.4-.9881 1.8701 0 3.675-.44465 4.0108-.9881.3358-.54346 2.4186-.98811 4.6283-.98811 4.0086 0 4.0161.0072 3.3612 3.21134-.3611 1.76623-.9348 5.21223-1.2748 7.65779-.7174 5.15904-2.0185 6.38362-8.4439 7.9476-2.8208.68659-4.6935 1.69448-4.6935 2.52602 0 .8171-1.0114 1.3836-2.4703 1.3836-1.3585 0-2.4702.3361-2.4702.74689 0 .41079-1.4451 1.37316-3.2113 2.13859-1.7662.76542-4.6679 2.54138-6.4481 3.94658-6.2636 4.94426-19.5947 18.40569-21.7955 22.00869-2.1383 3.50065-2.1573 3.72441-.4815 5.68159.9595 1.12059 2.332 2.03743 3.0502 2.03743 1.8853 0 5.8097 4.0703 6.4316 6.67105.2927 1.22353.1288 1.97542-.364 1.67086-.4927-.30455-.8958-1.19446-.8958-1.97757 0-1.04987-1.2976-1.42383-4.9405-1.42383-2.7378 0-4.9405.45475-4.9405 1.01994 0 .56097-1.0005 1.42756-2.2233 1.92575l-2.2232.90582 2.2232.65974c1.2228.36286 2.2233 1.05253 2.2233 1.5326 0 .48008 2.077.87286 4.6156.87286 2.7961 0 5.2875.60797 6.3198 1.54222 1.606 1.45338 1.5755 1.68106-.5295 3.95241-1.2286 1.32561-2.9748 2.41018-3.8806 2.41018-.9057 0-1.9028.66697-2.2157 1.48216-.3669.95633-1.8958 1.48216-4.3096 1.48216-2.4139 0-3.9428-.52583-4.3098-1.48216-.3128-.81519-1.4876-1.48216-2.6107-1.48216s-3.0856-.68376-4.361-1.51946c-2.2122-1.44945-2.3494-1.39842-2.9783 1.10746-.3627 1.44481-1.2611 3.22876-1.9967 3.96432-.7355.73556-2.5694 5.23946-4.075 10.00868-1.5058 4.76922-3.057 8.89363-3.4473 9.16535-.9756.67915-4.5346 18.77359-5.2963 26.92578l-.6231 6.66969h5.8355c6.52 0 12.9936 2.2219 12.9936 4.45972 0 .80789.8593 1.46889 1.9095 1.46889 1.0503 0 2.192.88929 2.5369 1.9762.3449 1.08692 1.2643 1.97621 2.0428 1.97621.7785 0 1.4156.66697 1.4156 1.48215 0 .81518.6669 1.48215 1.4821 1.48215.8152 0 1.4822.85934 1.4822 1.90962 0 1.05029.8893 2.19187 1.9762 2.53685 1.0869.34497 1.9762 1.26422 1.9762 2.04278 0 .77856.6346 1.41557 1.4104 1.41557 2.423 0 5.2967 4.76517 6.0126 9.96996.3894 2.83167 1.2837 5.22131 2.0663 5.52164.7589.2912 1.3798 1.14886 1.3798 1.9059 0 .75703.9032 1.37644 2.0072 1.37644 1.1039 0 2.2631.66696 2.576 1.48215.3128.81518 1.1405 1.48215 1.8394 1.48215.6989 0 1.5267.66697 1.8395 1.48216.3718.96894 1.911 1.48215 4.4451 1.48215 3.2767 0 3.9692.36995 4.4766 2.39174.3301 1.31545.3485 3.04791.0407 3.8499-.6684 1.74179-4.7119 2.68739-6.5386 1.52907-.7144-.45305-2.2994-.83056-3.5222-.83887-1.2228-.00832-2.2232-.45978-2.2232-1.00323 0-.54346-.667-.98811-1.4822-.98811-.8152 0-1.4821-.66696-1.4821-1.48215 0-.97887-.9792-1.48215-2.8835-1.48215-3.6795 0-6.1534.94381-5.4513 2.07974.3006.48651-.1416.88456-.9826.88456-1.9881 0-5.5041 3.02573-5.5041 4.73664 0 .73323.5558 1.88712 1.2351 2.56421 1.532 1.52688 7.3005 3.59625 8.0197 2.87695.2915-.29147.8222.63412 1.1792 2.05689.474 1.88832 1.2874 2.58685 3.0125 2.58685 1.2997 0 2.3631.43069 2.3631.95709 0 .52639.6679.70076 1.4843.38749.8165-.3133 2.595-.29086 3.9524.04983 2.0266.50861 2.4681 1.22039 2.4681 3.97815 0 5.43422-.7988 6.48466-4.9311 6.48466-2.9003 0-3.8464-.4401-4.248-1.97621-.5827-2.22794-2.9006-2.60717-4.4588-.72951-1.6453 1.98248.7397 9.62243 3.004 9.62243.9916 0 2.0589.66697 2.3718 1.48215.3128.81519 1.4104 1.48215 2.4392 1.48215 1.0287 0 1.8705.39104 1.8705.86896 0 .47793 1.7786 2.70166 3.9524 4.94164 3.7396 3.85336 5.0618 5.8608 3.0354 4.60845-.5043-.31169-1.1892.29121-1.522 1.3398-.7271 2.29082.3222 7.01509 1.558 7.01509.4845 0 .881.72912.881 1.62026 0 1.90347-2.7668 4.23213-5.0818 4.27694-1.8243.0353-2.823 1.9978-2.823 5.54679 0 1.46521-.5733 2.38944-1.4822 2.38944-.9221 0-1.4821.93321-1.4821 2.47025 0 1.58426-.5556 2.47027-1.5487 2.47027-1.144 0-1.3754.58105-.8853 2.22322.9332 3.12699 3.2879 6.66969 4.4331 6.66969 1.6118 0 1.1445 9.84297-.5479 11.53528-.8321.8322-2.039 3.47935-2.6818 5.88256-1.094 4.09049-1.4819 4.46252-6.0769 5.82708-5.7513 1.70795-8.1533 1.83332-8.9962.46952-.3359-.54345-1.4738-.9881-2.5285-.9881-1.055 0-1.9179.44465-1.9179.9881 0 .54346.4446.9881.9881.9881 1.9669 0 .8672 4.48922-1.5266 6.2318-2.9576 2.15305-11.0041 2.0321-10.5436-.15849.5095-2.42396-.9138-5.19994-3.0852-6.01736-1.6535-.62238-2.4078-.32866-3.3366 1.29911-.66 1.15682-1.2158 3.10375-1.2351 4.32653-.0383 2.43647-.2963 2.49757-4.1267.97715zm-206.374-153.36784c0-.73782.4045-1.48971.8989-1.67087.4945-.18115 1.1169-1.73716 1.3829-3.45779.2662-1.72063 1.7068-11.50283 3.2013-21.73823 2.8292-15.22304 5.434-30.36845 7.945-45.66504 1.7763-10.55682 1.771-10.65746-.5828-11.27301-2.2236-.58149-2.7294-3.66611-.6011-3.66611.7563 0 1.6539-1.11162 1.995-2.47025.3409-1.35864 1.1865-2.47026 1.8789-2.47026 6.6193-33.75394 17.7762-74.52692 18.7488-108.32812-.3167-2.07011-1.3419-3.54279-3.0958-4.44646-4.3512-2.24223-5.5803-3.8151-4.4193-5.65572.5635-.89325 1.6429-1.56428 2.3989-1.49116 2.6593.25718 5.821 1.58928 5.821 2.45257 0 .48007.667.87287 1.4822.87287.8151 0 1.4821-.45989 1.4821-1.02197s.9342-7.07776 2.0761-14.4793c1.8909-12.25648 1.935-13.53634.494-14.34272-.8701-.48695-1.582-1.53025-1.582-2.31843 0-.88688-.9853-1.43305-2.5855-1.43305-2.2759 0-2.5244.31931-2.0755 2.66726.6692 3.50117-.3664 5.87924-4.648 10.67211-2.9185 3.26722-3.6985 3.69547-4.499 2.47026-.5327-.81519-.7263-2.26028-.4304-3.21134.3853-1.23803-.007-1.72917-1.3812-1.72917-1.342 0-2.0976.89153-2.5121 2.9643-.5199 2.59986-1.008 2.96431-3.9701 2.96431-5.0032 0-6.4635-5.54278-2.3909-9.07494 3.1312-2.71564 1.3332-5.16041-4.0889-5.55994-4.7929-.35317-6.9901 1.02386-6.9901 4.38079 0 1.42951-.5803 2.34928-1.4822 2.34928-.8152 0-2.4826 1.00044-3.7054 2.22322-1.8901 1.89014-2.1829 3.11148-1.9542 8.15184.3037 6.69279-1.7747 26.18471-2.792 26.18471-.36538 0-1.19212 4.69012-1.83715 10.42248-.64503 5.73238-1.4205 11.06813-1.72335 11.85723-.46233 1.20496-4.84577 1.43715-27.37054 1.44986-14.75104.00832-27.3397.34569-27.97481.74971-.63511.40402-1.30208 2.27682-1.48216 4.16177-.22589 2.36462-1.01488 3.76788-2.54477 4.52603-1.21956.60436-1.92358 1.39262-1.5645 1.75171.35909.35908-.39012.65288-1.66489.65288-4.72044 0-8.79545 2.27101-10.49263 5.84756-.91097 1.91973-2.2549 4.08902-2.98651 4.82062-.73161.73161-1.33019 2.17208-1.33019 3.20105 0 1.02898-.83815 2.31943-1.86254 2.86767-1.0244.54823-2.14449 2.12014-2.48908 3.49312-.46207 1.84102-1.2782 2.49632-3.10898 2.49632-4.69053.67955-13.88333 64.00574-15.22205 69.5402-.42127-.42128-2.00554 8.89128-5.61897 33.02928l-.63672 4.25332 8.62969-.1902 8.62969-.1902-.60284-2.58098c-1.76609-7.56122-1.81071-9.95434-.19716-10.57351.88542-.33977 1.60984-1.42772 1.60984-2.41767 0-2.52867 2.6673-4.90537 5.50514-4.90537 1.42727 0 2.39967-.57523 2.39967-1.41955 0-.87929 1.22218-1.53738 3.21133-1.72917 2.51054-.24207 3.53478-1.00577 4.69349-3.49958 2.04582-4.4031 4.94051-4.34179 4.94051.10465 0 3.45721 2.10819 6.20129 3.90913 5.08824.56725-.35058 1.03138-1.68643 1.03138-2.96855 0-4.23026 1.02337-5.45706 4.55218-5.45706 3.17285 0 3.35264.18545 3.35264 3.45835 0 2.41536-.44701 3.45836-1.48216 3.45836-.81518 0-1.48215.66697-1.48215 1.48216 0 .81518-.4152 1.48215-.92268 1.48215-.50746 0-.72108 1.11161-.47472 2.47025.36284 2.00094.04874 2.47026-1.65329 2.47026-1.51011 0-1.93252.4397-1.50148 1.56297.32987.85963.59976 1.97124.59976 2.47025 0 .499 1.58802.90729 3.52894.90729 4.28949 0 6.29136 1.82452 7.03591 6.41256.53084 3.27127.78019 3.46845 4.38597 3.46845 2.10271 0 3.82312-.44464 3.82312-.9881 0-.54345-.44465-.9881-.9881-.9881-.54346 0-.98811-.66697-.98811-1.48215 0-.81518-.66696-1.48215-1.48215-1.48215-.81518 0-1.48215-.47089-1.48215-1.04642 0-.57553-.44464-.77161-.9881-.43574-.58804.36342-.98811-.81316-.98811-2.90599 0-2.32965.45983-3.51667 1.36228-3.51667.74924 0 1.91482-1.33393 2.59013-2.96431 1.14758-2.7705 3.95241-4.17291 3.95241-1.9762 0 .54345 1.31379.9881 2.91953.9881 2.5543 0 3.0007.43266 3.56833 3.45836.35683 1.9021 1.04395 3.45836 1.52692 3.45836.48297 0 .87813 1.11161.87813 2.47025 0 1.35865-.44464 2.47026-.9881 2.47026-.54345 0-.9881.637-.9881 1.41556 0 .77857-.91376 1.70559-2.0306 2.06005-1.11682.35447-1.85926 1.16256-1.64987 1.79578.49297 1.49075 15.53769 2.16737 15.53769.69878 0-.56632 1.77859-1.02967 3.95242-1.02967 3.55717 0 3.95241.24703 3.95241 2.47026 0 1.35864.39642 2.47026.88099 2.47026.48457 0 1.15994-1.11162 1.50093-2.47026.45137-1.79811 1.28196-2.47026 3.05264-2.47026 1.75546 0 2.60118-.67183 3.03841-2.4137.36876-1.46943 1.43918-2.53247 2.73606-2.71728 1.67356-.23848 2.19528-1.08565 2.43352-3.95101.24584-2.9575.85827-3.89203 3.23742-4.9405 2.11-.92981 3.2153-2.33405 3.9343-4.99847.8539-3.16402 1.4052-3.70538 3.7732-3.70538 3.9557 0 6.7135 3.26525 5.2194 6.17965-1.5509 3.02525-3.377 5.8206-4.8574 7.4356-.6793.74109-1.2351 2.36733-1.2351 3.61386 0 2.99088-3.599 7.47344-6.00035 7.47344-1.99775 0-2.3003.78316-1.30469 3.37754.43328 1.12914 2.01029 1.58462 5.68154 1.64098 2.795.04291 4.5261.30228 3.8467.57639-.6793.27411-1.2351 1.57295-1.2351 2.8863 0 1.31335.5558 2.39472 1.2351 2.40304.8234.01008.7411.33441-.247.97298-1.3174.85141-1.3174.96285 0 1.00302 1.1686.03562 1.1164.25823-.2471 1.05232-.9509.55393-1.7291 1.87436-1.7291 2.93426 0 1.05991-.4446 1.9271-.9881 1.9271-1.0752 0-1.4049 13.08724-.3562 14.13594.902.90194 2.3324-.17786 2.3324-1.76063zm-104.18866-64.96457c-.84599-1.20783-1.53818-3.3711-1.53818-4.80725 0-3.02941 3.41593-7.81821 5.57686-7.81821 1.71517 0 4.30416 2.33497 4.30416 3.88182 0 .58229.44464 1.05869.9881 1.05869s.98811 1.11161.98811 2.47025-.44465 2.47025-.98811 2.47025-.9881.66697-.9881 1.48216-.66697 1.48216-1.48215 1.48216c-.81518 0-1.48215.44464-1.48215.9881 0 1.85498-3.8367.9933-5.37854-1.20797zm46.53634-1.30986c-2.80807-2.72715-3.60993-4.27922-3.60993-6.98729 0-3.41171 1.78117-6.30452 3.88183-6.30452.58228 0 1.05868-.43957 1.05868-.9768 0-2.31233 3.54055-4.95181 6.64225-4.95181 1.78133 0 3.23877-.44465 3.23877-.9881 0-.54346-.43618-.9881-.96928-.9881-1.56244 0-2.19207-4.29359-1.06453-7.25926.94167-2.47679 1.43777-2.70689 5.24233-2.43169l4.20225.30398.29861 4.63111c.24578 3.81165-.05369 4.81965-1.69238 5.69666-2.10059 1.12419-1.82589 3.99971.3821 3.99971.68593 0 1.52275 1.66742 1.8596 3.70538.88844 5.37501.77009 9.13994-.2873 9.13994-.50683 0-1.23247.97972-1.61251 2.17715-1.18429 3.73134-3.01521 4.73957-8.60699 4.73957-4.79518 0-5.73009-.36567-8.9635-3.50593zm-10.44115-3.25104c-1.06309-1.9864-.37733-6.08836 1.01785-6.08836.48007 0 .87286.66698.87286 1.48216 0 .81518.44465 1.48215.98811 1.48215.54345 0 .9881 1.11161.9881 2.47025 0 2.9282-2.42982 3.33903-3.86692.6538zm67.83217-1.73851c-1.8489-1.849 4.0104-8.30226 7.5384-8.30226 3.441 0 3.42 2.4984-.0512 6.12157-2.4448 2.5518-6.0624 3.60546-7.4872 2.18069zm-67.34475-12.89952c-.99252-2.58645 1.29108-8.24806 3.32684-8.24806 2.35889 0 3.55501 6.51982 1.56179 8.51304-1.84866 1.84866-4.1249 1.72528-4.88863-.26498zm62.66555 72.17653c0-.75704-.8893-1.37644-1.97622-1.37644-1.8602 0-2.68674 1.92436-1.38551 3.22559.96152.96157 3.36173-.35866 3.36173-1.84915zm74.0925.35275c-.0083-1.22278-.3417-2.71058-.7411-3.30622-1.6131-2.40652-9.1248-2.65427-9.1248-.30097 0 2.15755 4.4694 5.83041 7.0949 5.83041 2.2351 0 2.7831-.43973 2.771-2.22322zm-11.068-16.1317c-1.2454-2.73346-3.2425-3.13624-4.1267-.83225-.8037 2.09453-.8212 2.02689.987 3.83512 2.3892 2.38921 4.6232.25273 3.1397-3.00287zm-15.8426-3.01801c1.3076-.35045 2.2232-1.36214 2.2232-2.45676 0-1.02352.4446-1.86096.9881-1.86096.5434 0 .9881-1.28208.9881-2.84907 0-3.53292-2.5875-4.43671-7.6674-2.67804-4.3316 1.49961-5.6796 3.39364-4.8287 6.78401.783 3.11963 3.8522 4.2519 8.2967 3.06082zm-165.33816-8.40127c.17508-.1996.53248-2.69729.79425-5.55044.40913-4.45921.2337-5.18754-1.24949-5.18754-.94899 0-1.98138-.66697-2.2942-1.48215-.6949-1.81087-2.60698-1.96712-2.60698-.21304 0 .69801-1.33393 2.05708-2.96431 3.02017-2.32446 1.3731-2.9643 2.44282-2.9643 4.95594 0 4.52693 1.65923 5.83129 6.7185 5.28156 2.33653-.25389 4.39146-.62491 4.56653-.8245zm31.74709-115.7138c1.12518-8.31461 1.37139-15.49373.54877-16.00213-.97293-.60131-3.05251 5.22448-3.0632 8.58136-.00303.95104-.45016 1.72918-.99362 1.72918-1.44992 0-1.2191 7.65542.24703 8.19302 1.42683.52317 3.01675-.69642 3.26102-2.50143zm-6.24305-19.52502c.67879-1.08692 2.16766-1.97621 3.30859-1.97621 3.1108 0 5.22733-6.88959 3.44036-11.19879-.71359-1.72077-1.50153-4.47845-1.75097-6.12817-.55926-3.69886 2.88668-14.27186 5.04518-15.47981.87162-.4878 1.58476-1.30944 1.58476-1.82589 0-2.02404-3.16253-.77084-6.35774 2.51936-1.84719 1.90209-4.02551 3.45835-4.84071 3.45835-.8152 0-1.63848.46886-1.82949 1.04191-.19102.57306-1.22853 1.16911-2.30557 1.32457-1.1314.1633-2.0916 1.18363-2.27402 2.41645-.1944 1.31371-1.02644 2.13379-2.16492 2.13379-1.01704 0-2.12396.44464-2.45984.9881-.33588.54345-1.60713.9881-2.825.9881-1.21788 0-2.74789.53357-3.40005 1.18572-1.7595 1.7595-1.53413 13.14624.29643 14.9768.81519.81518 1.48216 1.95856 1.48216 2.54084 0 .58227.8893 1.05867 1.97621 1.05867s1.9762.44465 1.9762.9881c0 .54346.86304.98811 1.91788.98811s2.1927.44464 2.52857.98811c1.0599 1.71494 5.36309 1.07573 6.65197-.98811zm69.92595-11.85722c0-.54346.81795-.98811 1.81761-.98811 1.78807 0 4.111-3.65544 4.111-6.46915 0-.78961.42448-1.43566.94333-1.43566 1.37179 0 2.34665-6.35285 1.59214-10.37507l-.64879-3.45835h-6.40893c-4.78529 0-6.55299.37548-6.97766 1.48215-.31282.81518-1.11064 1.48215-1.77295 1.48215-4.30545 0-8.27183 10.92154-5.1134 14.07995.87369.87369 1.58852 2.28725 1.58852 3.14125 0 .87827.83308 1.55273 1.91788 1.55273 1.05484 0 2.19269.44465 2.52857.98811.33588.54345 1.91838.9881 3.51667.9881 1.59831 0 2.90601-.44465 2.90601-.9881zm-52.78113-28.65496c2.13785 0 1.66623-2.66415-.5754-3.25035-2.45498-.64199-3.3099.61737-2.38023 3.50622.40316 1.25279.8957 1.67802 1.13423.97926.23187-.67933 1.05151-1.23513 1.8214-1.23513zm210.8774.9881c0-.54345 1.0853-.9881 2.4119-.9881 1.3266 0 2.6868-.44464 3.0226-.9881.3359-.54345 1.9184-.9881 3.5167-.9881s2.906-.44465 2.906-.9881c0-.54347.863-.98811 1.9179-.98811 1.0547 0 2.1927-.44465 2.5285-.9881.3359-.54346 1.4738-.9881 2.5286-.9881 1.0549 0 1.9179-.55843 1.9179-1.24095s1.4451-1.87542 3.2113-2.65089c1.7663-.77546 4.3902-2.66259 5.831-4.19361 1.4409-1.53102 2.9177-2.78367 3.2819-2.78367.3643 0 1.3487-.68648 2.1877-1.52549 1.3753-1.37526 1.3532-1.71586-.2236-3.45836-.9621-1.06308-2.4585-1.93341-3.3253-1.93407-2.4774-.0019-6.9137-4.36052-8.1682-8.02516-.6283-1.83524-1.5672-3.61821-2.0867-3.96215-1.458-.9656-1.0102-8.44604.7124-11.89925 1.9286-3.86583 1.9634-5.75529.1064-5.75529-2.1389 0-2.9404-6.09098-1.3742-10.44261 1.6457-4.57228 5.4195-6.35513 13.452-6.35513 6.1133 0 11.0774 1.65854 11.0902 3.70538.0042.67933.9172 1.23514 2.0288 1.23514 1.1117 0 3.0982 1.07711 4.4146 2.39358 2.2838 2.28378 6.1352 4.1387 6.9342 3.33967 1.1168-1.11674 2.5974-15.07071 2.0128-18.96913-.5412-3.60867-1.0786-4.54996-2.598-4.54996-1.4697 0-1.9157-.68997-1.9157-2.96431 0-1.63037-.4446-2.9643-.9881-2.9643-.5434 0-.9881-.88929-.9881-1.9762 0-1.08692.4447-1.97622.9881-1.97622.5435 0 .9881-.56.9881-1.24445 0-.68446.8893-1.79986 1.9762-2.47864 1.087-.67879 1.9827-2.00852 1.9906-2.95495.0281-3.37239-4.3405-15.06019-5.6291-15.06019-.7161 0-1.302-.82437-1.302-1.83192s-1.1115-3.03138-2.4702-4.49737c-1.3586-1.466-2.4703-3.08719-2.4703-3.60264s-.6669-.93719-1.4821-.93719c-.8152 0-1.4822-.37474-1.4822-.83276 0-.45801-2.0009-1.86186-4.4464-3.11966-2.4456-1.25779-4.4465-2.60741-4.4465-2.99917 0-.39175-2.6933-1.7195-5.985-2.95053-4.3878-1.64091-8.2712-2.26639-14.5513-2.3437l-8.5663-.10546c-6.8348 46.26162-17.4949 91.79993-24.1854 138.08725-.061 1.51665.9628 1.72917 8.3294 1.72917 4.9405 0 8.3989-.40686 8.3989-.9881zm44.8702-101.28044c-.8335-3.32153.2889-7.41077 2.0343-7.41077.7779 0 1.8459-.77145 2.3737-1.71433.8663-1.54825 1.1653-1.45253 3.0851.98811 1.1691 1.48633 2.7604 2.70242 3.5361 2.70242.833 0 1.4104.97823 1.4104 2.38944 0 4.77895-.8691 5.51538-6.5095 5.51538-4.84 0-5.3649-.21868-5.9301-2.47025zm-18.1915-6.23497c-3.0375-1.66217-3.4938-2.42001-3.7489-6.22761-.4229-6.3119 1.1988-7.99532 7.6536-7.94531 2.8999.02246 5.7421.51045 6.3162 1.08442.5738.57397 2.0143 1.04358 3.2009 1.04358 2.9778 0 4.9826 6.75476 2.2973 7.74013-.4937.18115-.8976.85232-.8976 1.4915 0 3.65561-9.8615 5.52745-14.8215 2.81329zM935.44758 339.52577c0-.54346-1.00045-1.13019-2.22323-1.30384-1.52975-.21727-2.22322.18944-2.22322 1.30384 0 1.11441.69347 1.52112 2.22322 1.30385 1.22278-.17365 2.22323-.76039 2.22323-1.30385zm59.80164-9.41179c.9545-1.10057 2.28341-3.3238 2.95304-4.94052.66963-1.61671 1.7194-2.94294 2.33284-2.94718 1.0403-.00719 3.5855-4.3499 3.5855-6.11789 0-.43511-1.6081-.79111-3.5736-.79111-3.0871 0-3.50329-.26902-3.05686-1.9762.30927-1.18265.03033-1.97622-.69464-1.97622-1.97651 0-5.52015-4.76216-5.52015-7.41827 0-1.3545.35532-2.46274.78949-2.46274.43437 0 1.35242-1.55626 2.04024-3.45836.68782-1.90209 1.88868-3.45836 2.66868-3.45836.78001 0 1.41822-.44464 1.41822-.9881s1.06409-.9881 2.36452-.9881c1.3005 0 2.6204-.66697 2.9333-1.48215.3128-.81519 1.472-1.48215 2.5759-1.48215 1.6831 0 2.0073-.63839 2.0073-3.95242 0-2.17382-.4446-3.9524-.9881-3.9524-.5434 0-.9881-.88929-.9881-1.9762 0-1.31747-.6587-1.9762-1.9762-1.9762-1.0869 0-1.9762-.64489-1.9762-1.43306 0-.78818-.6384-1.79033-1.4187-2.22702-.78033-.43667-1.65006-2.06957-1.93275-3.62868-.64197-3.54034-.77378-3.6644-4.75021-4.47114-2.6084-.52918-3.32409-1.19872-3.57408-3.34381-.17202-1.47518-.67497-2.68213-1.11783-2.68213-.44288 0-1.31388-2.02019-1.9356-4.48931-.62171-2.46912-1.56387-4.22147-2.09349-3.89409-.52972.32737-.9631.12432-.9631-.45121s-.57765-1.04642-1.28364-1.04642c-2.77183 0-5.07035-12.84323-2.57461-14.3857 1.10925-.68552 5.68258 1.24817 7.14477 3.02096.52973.6422.99225.55602 1.31744-.24545.27568-.67932 1.3535-1.23513 2.39506-1.23513 1.36131 0 1.8938-.69453 1.8938-2.47025 0-1.35864-.44465-2.47025-.9881-2.47025-1.51615 0-1.17249-6.87345.42349-8.46945 2.10369-2.10363 3.41382-1.72021 4.15044 1.21462.58645 2.33677.79108 2.44567 1.85695.9881.65876-.90095 1.60686-1.63809 2.10696-1.63809.5 0 2.1125-2.33439 3.5832-5.18754 1.4707-2.85314 2.68-4.76906 2.6872-4.2576.0074.51147.7083.06682 1.5575-.98811 1.0953-1.36041 1.6939-1.55895 2.0586-.6829.5912 1.41974 4.1489 1.61476 6.1649.33795.87-.55095 1.1434-1.71584.7499-3.1962-1.4665-5.51801.1509-5.27253-36.64174-5.56044l-34.1024-.26685-.47982 2.24305c-.26391 1.23368-1.46233 8.4681-2.66318 16.07648-1.20084 7.60839-2.46956 14.05576-2.81939 14.32748-.58576.45501-1.51079 5.87621-5.64819 33.10142-.82589 5.43456-1.81005 10.10334-2.18703 10.37507-.37697.27173-1.96613 8.94232-3.53145 19.26799-1.56532 10.32566-3.14291 18.99625-3.50577 19.26798-.9339.69936-2.13707 10.73755-1.42508 11.88957.36204.58579 13.81478.95576 34.75301.95576 33.07354 0 34.21758-.06377 35.89776-2.00103zm-19.78351-103.30241c0-.85399-.66696-2.2197-1.48216-3.03488-2.17636-2.17637-1.81235-5.05302.99461-7.85999 2.11233-2.11233 3.22766-2.43283 7.58015-2.17831 4.66494.27281 5.18636.54883 6.07032 3.21334.68959 2.07886.64097 3.02354-.16937 3.29366-.62497.20834-1.13632 1.02266-1.13632 1.80961s-.65007 1.68026-1.4445 1.98514c-.79453.30488-1.71377 1.40253-2.04281 2.43924-.7888 2.48514-8.36992 2.78603-8.36992.33219zm48.23089 1.29437c.2011-1.04399-.2789-1.71784-1.2236-1.71784-.8551 0-1.5547.18596-1.5547.41324s-.2872 1.16167-.6382 2.07643c-.4803 1.25171-.1775 1.57446 1.2238 1.30458 1.0241-.19722 2.0109-1.13161 2.1927-2.07641zm22.4184 1.24647c1.1444-1.85193-.5019-2.97623-2.5162-1.71829-1.0617.66305-1.9303 1.54325-1.9303 1.95598 0 1.11084 3.7365.91111 4.4465-.23769zm26.1846-19.38462c0-1.39523-.43-2.20449-.9881-1.85957-.5435.33588-.9881 1.72229-.9881 3.08093 0 1.39523.43 2.20449.9881 1.85957.5435-.33587.9881-1.72229.9881-3.08093zm-72.87249-18.55064c.95109-.72195 1.72919-1.76498 1.72919-2.31784 0-.55286.6669-1.55874 1.4821-2.23529 1.6023-1.32983 2.0649-6.91671.5727-6.91671-.5004 0-1.2026 1.33394-1.5608 2.96431-.4315 1.96465-1.2553 2.9643-2.44304 2.9643-1.88658 0-2.99148 1.85463-2.99148 5.02133 0 2.2089.81302 2.34053 3.21133.5199zm31.37229-9.89518c0-1.89127-.4044-2.27203-1.9762-1.86096-1.0938.28603-1.9762 1.34779-1.9762 2.37775 0 1.20222.6995 1.86096 1.9762 1.86096 1.4286 0 1.9762-.65874 1.9762-2.37775zm-4.9405-5.03302c0-.81518-.4447-1.48215-.9881-1.48215-.5435 0-.9881.66697-.9881 1.48215 0 .81519.4446 1.48215.9881 1.48215.5434 0 .9881-.66696.9881-1.48215zm-22.44-4.53518c.1142-1.30984-.237-2.60386-.7805-2.87558-.5544-.27722-1.1255 1.24061-1.3011 3.45836-.2282 2.88107-.0167 3.66052.7804 2.87557.6014-.59225 1.1869-2.14851 1.3012-3.45835zm172.6314-2.87558c0-1.09789-.6587-1.97621-1.4821-1.97621-1.5043 0-2.0269 2.09024-.8234 3.29368 1.2527 1.2527 2.3055.65107 2.3055-1.31747zm-470.45747 533.5724c-1.96868-1.04033-3.82765-2.84076-4.13105-4.00097-.55885-2.13709 2.11449-8.77272 3.55234-8.8174.43032-.01337 1.73694-.9136 2.9036-2.00052 2.2492-2.09545 10.64149-2.8747 10.64149-.9881 0 .54346.61877.9881 1.37503.9881 1.69958 0 2.89267 4.36234 1.98223 7.24777-1.27622 4.04472-8.00201 9.62388-11.46004 9.50629-.7063-.02401-2.89493-.89484-4.8636-1.93517zm280.00094-14.84967c-1.31398-.52818-2.22324-1.74046-2.22324-2.96428 0-1.7409.51145-2.02134 3.21134-1.76103 2.67588.258 3.2634.76273 3.52396 3.02691.33448 2.90688-.61568 3.26454-4.51206 1.6984zm-358.71052-20.72697c-1.23901-2.16964-2.63016-3.94479-3.09146-3.94479-1.77163 0-3.17626-5.48017-2.11804-8.26353.84265-2.2163.59732-3.54402-1.37339-7.43303-2.10768-4.15931-2.3331-5.62474-1.85478-12.0579.55033-7.40165-.87171-15.72203-2.68705-15.72203-.52251 0-.95003-1.23578-.95003-2.74617 0-1.5955-.81281-3.33202-1.93985-4.14434-1.06691-.76899-2.21386-2.64573-2.54875-4.17054-.33492-1.52481-.99007-2.77238-1.45591-2.77238-.46585 0-.98632-1.44509-1.15662-3.21133-.30752-3.18941-.34614-3.21132-5.65835-3.21132-3.39881 0-5.5001-.45029-5.76393-1.23514-.22836-.67931-1.04512-1.23513-1.81501-1.23513-.76991 0-1.39982-.52079-1.39982-1.15731 0-.63653-.72325-1.95653-1.60725-2.93333-1.36305-1.50615-1.43812-2.44773-.49405-6.19694 2.05169-8.14803 4.26715-7.49825-25.56555-7.49825-18.31282 0-26.67875.33199-26.67875 1.05869 0 2.41984-3.00891 3.97058-7.27563 3.74972-5.59608-.28969-6.80746-1.26331-9.05602-7.27866-1.01573-2.71728-2.13654-5.16284-2.49067-5.43457-1.44618-1.10965-2.91593-4.98692-2.91593-7.69241 0-4.14306 1.93743-9.10532 3.55502-9.10532.76202 0 1.38549-.44465 1.38549-.9881 0-.54346.84173-.9881 1.87049-.9881 1.02877 0 2.10252-.60466 2.38611-1.34369.28692-.74768 2.73621-1.63826 5.52183-2.0078l5.0062-.66409-.62641-6.14405c-.34452-3.37922-.92097-6.36638-1.28099-6.63811-.36002-.27172-1.91498-10.49858-3.45546-22.72634s-3.08654-22.45462-3.43568-22.72635c-.34915-.27172-1.64886-8.71999-2.88826-18.77393-3.16018-25.63518-4.22667-32.60736-4.98772-32.60736-.36386 0-1.94387 2.55671-3.51114 5.68158l-75.93452 134.62889H249.02534l75.51667-428.83624h230.98038v2.41194c0 1.32657.3703 2.6408.82289 2.92052.45259.27972 1.39581 5.64879 2.09605 11.9313 1.13555 10.18814 2.66846 14.88507 3.77478 11.56614.50934-1.52804 4.6398-1.48719 7.28795.07209 5.27957 3.10872 8.74467 7.90241 8.74467 12.0976 0 1.49747.42249 2.33242.9997 1.97567.55555-.34334 1.26894.7283 1.60568 2.41194.33328 1.6664.94746 3.0298 1.36482 3.0298 1.99922 0 1.90601 3.84051-.19746 8.13647-1.61414 3.2966-2.88878 4.68266-4.31619 4.69349-1.11408.00845-2.52064.5104-3.12566 1.11541-.60504.60504-2.9172.92678-5.13814.71497-4.86745-.46418-4.72945-1.68872-2.07815 18.44107 1.07368 8.15184 1.96123 15.59967 1.97232 16.55071.04455 3.8201 2.6751 1.2748 5.90001-5.70881 1.87528-4.06095 3.68204-7.38354 4.01502-7.38354.33297 0 1.21604-1.55626 1.96236-3.45836.74632-1.9021 1.7186-3.45835 2.16063-3.45835.44202 0 .80368-.82127.80368-1.82502 0-1.00376.93335-2.89349 2.07412-4.19943 1.14077-1.30594 3.19998-4.59765 4.57604-7.31493 1.37606-2.71728 2.84497-5.16283 3.26425-5.43456.41929-.27173 1.89277-3.05077 3.2744-6.17564 1.38163-3.12487 2.98119-5.68158 3.55454-5.68158.57337 0 1.03945-.77813 1.03574-1.72919-.00683-1.74528-5.53949-6.17563-7.71219-6.17563-2.26074 0-1.14132-3.47644 1.74132-5.40776 1.60029-1.07218 3.14265-2.85076 3.42746-3.95241.67938-2.62783 4.87-4.47326 10.1579-4.47326 3.02414 0 4.24947-.40703 4.24947-1.41157 0-.77637.68295-2.09452 1.51766-2.92923.8347-.83471 2.9265-4.5348 4.64843-8.22242 1.72194-3.68761 3.9292-7.56674 4.90502-8.62026.97582-1.05352 1.77422-2.4093 1.77422-3.01283 0-1.16875 5.45314-3.47054 8.22199-3.47054.91246 0 1.65903-.44465 1.65903-.9881 0-.54346.66697-.9881 1.48215-.9881 1.01067 0 1.48644-1.02155 1.49564-3.21133.01972-4.69394 1.01519-7.65779 2.57201-7.65779 1.56572 0 1.86622-3.52719.37881-4.44647-3.00997-1.86026.80427-12.33363 4.49586-12.34502 1.11408-.00343 2.57028-.55092 3.23599-1.21663.95512-.95511 1.61915-.95511 3.14853 0 1.06597.66571 2.61113 1.21038 3.43369 1.21038.82255 0 1.49556.44465 1.49556.9881 0 1.74687 3.46937 1.05299 4.94051-.9881.78341-1.08691 1.99318-1.9762 2.68839-1.9762.69521 0 1.26402-.66697 1.26402-1.48216 0-.82341.87831-1.48215 1.9762-1.48215 1.08691 0 1.97621-.40925 1.97621-.90946 0-.5002 2.89019-1.21896 6.42265-1.59725 3.53247-.3783 6.42267-1.08066 6.42267-1.56081 0-.48014 7.33666-.87298 16.30368-.87298 14.33391 0 16.30369.19234 16.30369 1.59211 0 1.27192.66801 1.4668 3.32151.969 2.36113-.44296 3.68177-.18905 4.56745.87814.68526.82569 1.85845 1.50125 2.60709 1.50125s1.36117.66288 1.36117 1.47308c0 .81018 1.56522 2.4776 3.47826 3.70538 1.91303 1.22776 3.73983 3.23276 4.05952 4.45553.3197 1.22278.97771 2.22324 1.46225 2.22324.48454 0 .88099.66697.88099 1.48215 0 .81518.85397 1.48215 1.89768 1.48215 1.31998 0 2.10314.93534 2.57253 3.07245.37115 1.68984 1.39459 3.91306 2.2743 4.9405 1.81564 2.12051 5.11271 2.51004 5.11271.60405 0-.69521.8893-1.90498 1.97621-2.68838 2.36405-1.70392 2.4626-2.61907.49405-4.58763-1.69997-1.69996-1.94084-3.31719-.49405-3.31719.54345 0 .9881-.66697.9881-1.48215 0-1.84073 6.91525-2.07649 8.6953-.29644.92222.92223 1.18572.92223 1.18572 0 0-1.84613 3.64354-1.39347 4.37426.54346 2.23189 5.91604 5.76378 8.24241 7.12563 4.69348.34819-.90736 1.84631-1.48215 3.86308-1.48215 1.81188 0 3.56914-.44464 3.90501-.9881.33588-.54345 1.47374-.9881 2.52857-.9881 1.05484 0 1.9179-.66697 1.9179-1.48215 0-.81519-.34717-1.48216-.77148-1.48216-.42431 0-1.33112-1.22277-2.01514-2.71728-2.64263-5.77382-3.66819-7.16374-5.28593-7.16374-1.94572 0-3.65144-4.1615-1.9396-4.73212.61558-.20519 1.11923-.97038 1.11923-1.70043 0-.73005.72922-1.47112 1.62047-1.64685.96445-.19014 1.74456-1.48858 1.92699-3.20733.56134-5.288994 2.43031-8.475307 4.97128-8.475307 1.2927 0 2.35038.558426 2.35038 1.240948 0 .682512 1.38252 1.852908 3.07228 2.600872 2.61097 1.155724 3.20218 1.154844 3.93728-.00582 1.34206-2.119005 1.06541-2.847897-1.08096-2.847897-1.31746 0-1.9762-.658739-1.9762-1.976205 0-1.097889-.65874-1.976204-1.48215-1.976204-.81837 0-1.48215-.876091-1.48215-1.956214 0-2.023564 2.8716-10.017308 3.91171-10.88911.32418-.271729 1.06268-1.596546 1.6411-2.944031l1.05167-2.449968 1.27105 2.449968c1.48496 2.862314 5.90769 6.809703 7.68708 6.860896 1.3074.037617 1.63691-2.70819.63754-5.31253-.32869-.856516-.99566-1.31128-1.48215-1.010601-.48652.30068-.88458.075797-.88458-.499733s-.5558-1.056301-1.23513-1.068384c-.67931-.012085-2.27181-.819463-3.53887-1.794166-2.29916-1.768654-2.30049-1.783416-.67096-7.38879.93015-3.199612 2.19883-5.616598 2.94816-5.616598.72346 0 1.78039-1.333938 2.34874-2.964307.56835-1.630367 1.50114-2.964305 2.07287-2.964305.57173 0 1.0395-1.137858 1.0395-2.528572 0-1.434102.42769-2.264246.9881-1.917887.56301.347961.9881-.506698.9881-1.986618 0-2.128302.40144-2.540281 2.22323-2.281538 1.22278.173659 2.66215 1.316202 3.19861 2.538978.53647 1.222777 1.37674 2.22323 1.86728 2.22323 1.738 0 3.51706 3.505449 3.51033 6.916712-.00999 5.067146-3.32148 25.922529-4.00719 25.236826-.32205-.322042-.88293 1.982705-1.24642 5.121678-.36348 3.138962-1.58704 11.544232-2.719 18.678377-1.81062 11.41131-2.26917 12.91597-3.81312 12.51221-2.17608-.56905-3.03937.70184-2.32705 3.42578.33198 1.26951 1.08308 1.87236 1.92855 1.54792.91762-.35213 1.38478.17094 1.38478 1.55052 0 1.14506-.3596 2.08193-.7991 2.08193-.43952 0-1.35001 4.11297-2.02331 9.13994-.67331 5.02697-1.46064 10.36272-1.74965 11.85722l-.52547 2.71728h33.67397c26.27677 0 33.67551.27133 33.6809 1.23513.01717 3.06358-3.31205 24.01374-3.88625 24.45552-.35317.27173-1.43133 6.05213-2.39589 12.84533-.96457 6.7932-1.96845 13.24056-2.23086 14.32747-.46652 1.93235-1.21729 1.9721-33.82222 1.79106-18.33981-.10182-33.80044.1205-34.35693.49405-7.10578 35.60179-13.59946 71.10404-19.21743 106.90016-3.36563 21.03186-3.31503 19.21001-.57429 20.67681 2.66715 1.42742 3.69739 3.91622 2.89357 6.99005-.6332 2.42135-2.01146 2.50968-4.46825.28631-1.41484-1.2804-2.04935-1.39534-2.61855-.47434-.4132.66855-1.77185 8.20985-3.01925 16.75845-14.66226 73.00348-24.29363 147.99096-39.21454 220.82106-.46854 1.6076-3.13953 1.72918-37.98526 1.72918-36.27936 0-37.4813-.06073-37.4813-1.89387 0-1.04161.375-2.04207.83333-2.22322 4.85675-23.23405 9.60549-46.75224 10.65287-70.4846l.39096-14.82154 3.08529-2.65152c2.07373-1.7822 2.87917-3.18866 2.45664-4.28976-.34575-.90102.01141-4.15429.79371-7.22949 16.15373-74.47047 23.58759-151.58534 41.17475-225.44395 1.71778 0 .86299-3.82675-.98588-4.41356-1.17223-.37205-2.11864-1.90601-2.53052-4.10157-.48671-2.59437-1.0491-3.35717-2.16066-2.93062-.8265.31715-1.68866.57663-1.91595.57663-.22727 0-.41323.69322-.41323 1.54047 0 .84726.44464 1.26566.9881.9298.54345-.33588.9881.30484.9881 1.42383 0 1.14973-.64458 2.03452-1.48215 2.03452-.81519 0-1.48215.44464-1.48215.9881s-.44465.9881-.98811.9881c-.54345 0-.9881-.88929-.9881-1.9762 0-1.44922-.65874-1.9762-2.47025-1.9762-1.35865 0-2.50052.33348-2.5375.74107-.03699.40759-.35786 3.63127-.71304 7.16374-.35517 3.53246-.58837 11.20445-.51819 17.04887.12542 10.44554.08718 10.63635-2.24907 11.22272-5.12132 1.28536-6.74512-2.22314-4.28932-9.26786.85154-2.44272.7181-3.66728-.68905-6.32308-.95982-1.81153-1.76852-3.91067-1.79714-4.66477-.08975-2.36568-3.12257-3.63919-4.98521-2.09334-1.21711 1.01011-1.47714 2.23224-1.00755 4.73537.46234 2.46451.17771 3.87693-1.05602 5.24018-1.39839 1.5452-1.59253 3.14142-1.12843 9.27797.61532 8.13577-.57634 14.34802-2.75228 14.34802-1.73921 0-3.76599 6.81645-3.86807 13.00898-.04179 2.53557-.40947 4.94407-.81707 5.35222-.40758.40816-.74107 2.58528-.74107 4.83806 0 3.44502-.49259 4.46013-3.09955 6.38754-2.77933 2.05485-3.19271 2.1251-4.00151.67987-.49607-.88644-1.60241-1.61172-2.45852-1.61172-1.21636 0-1.42159-.67486-.939-3.08781.33965-1.69831.61756-3.92154.61756-4.94052 0-1.01898.66697-1.85269 1.48215-1.85269 1.02928 0 1.48216-1.03515 1.48216-3.38777 0-1.86329.66697-4.05475 1.48215-4.86993.95974-.95975 1.48215-3.40614 1.48215-6.9408 0-5.03705 1.42369-10.24876 3.14403-11.5094.39268-.28775.83913-5.21788.99208-10.95581.23085-8.66007-.00097-10.71171-1.36437-12.07512-.90337-.90335-2.11888-1.64247-2.70116-1.64247-1.28152 0-1.28476-.63587-.04691-9.19725 1.21988-8.43704.30938-10.56479-4.52088-10.56479-2.94996 0-3.67145.48627-5.06857 3.41604-.89595 1.87883-1.92578 3.23261-2.28852 3.00843-.36275-.22418-1.67343 2.68505-2.91263 6.46498-1.23921 3.77992-2.64773 6.87259-3.13006 6.87259-.48232 0-.87694.68557-.87694 1.52347 0 .83791-.84411 2.42951-1.87578 3.53689-1.0317 1.10738-2.16081 3.91402-2.50916 6.23698-.4052 2.70207-1.50923 4.98511-3.06472 6.33759-1.33725 1.16272-2.43136 3.13967-2.43136 4.39321 0 1.25354-.47265 2.75182-1.05035 3.32951-.57768.57769-1.08999 2.4452-1.13846 4.15003-.04847 1.70483-.49136 3.09969-.98419 3.09969-.49282 0-.62124.44464-.28536.9881.3557.57552-.63688.9881-2.37718.9881-1.96625 0-3.34577-.66877-4.03463-1.95593-1.02405-1.91344-.41792-6.9358.83734-6.93819.34868-.00066 1.87503-1.06858 3.39189-2.37313 2.51692-2.16464 6.62904-11.3518 6.62904-14.81042 0-.78347.43799-1.57271.97333-1.75387.53533-.18115 1.38555-2.53957 1.88937-5.24093.50383-2.70137 1.39977-5.07281 1.99098-5.26987.59121-.19709 1.07493-.96802 1.07493-1.71321 0-.74521 1.11162-2.46651 2.47026-3.82515 3.13886-3.13887 3.10016-3.54819-.33544-3.54819-2.03388 0-3.11533.67954-3.93123 2.47025-.61904 1.35864-1.69348 2.47025-2.38766 2.47025-.69417 0-1.85259 1.33395-2.57426 2.96432-1.51059 3.41265-3.35587 3.7446-6.18164 1.112-1.86354-1.73615-1.88391-1.95661-.3249-3.5156.91482-.91483 1.8869-3.64707 2.16018-6.07166.67106-5.95347-1.57839-5.11935-4.80641 1.7823-1.30283 2.78549-2.81343 5.5421-3.35689 6.12577-.54346.58367-2.49807 3.95143-4.34357 7.4839-1.84551 3.53246-3.6755 6.64498-4.06664 6.91671-.39113.27173-1.96599 3.15896-3.49971 6.41607-1.53369 3.25709-3.4832 6.67127-4.33223 7.58705-.84903.9158-2.61106 4.36477-3.91562 7.6644-1.30457 3.29963-2.76547 5.99933-3.24645 5.99933-.48098 0-1.71474 1.96022-2.7417 4.35601-1.02697 2.39582-2.45627 4.7302-3.17623 5.18754-.71995.45734-2.64294 3.68511-4.27331 7.17283-1.63037 3.48773-3.40896 6.84286-3.95241 7.45586-2.24079 2.5275-4.44646 7.79928-4.44646 10.62748 0 4.94992 3.19979 28.89234 3.93277 29.42691.37258.27173 1.40482 6.27444 2.29386 13.33938.88905 7.06493 2.37162 18.84804 3.29463 26.1847.923 7.33666 1.98611 13.5617 2.36246 13.83343.37635.27173 1.94417 10.49858 3.48405 22.72634 1.53989 12.22776 3.0984 22.45462 3.46336 22.72635.36495.27173.98673 3.12047 1.38174 6.33054.96649 7.8544 1.30203 8.49098 4.47552 8.49098 2.11142 0 3.01994.67897 3.96657 2.96431.67531 1.63037 1.84088 2.9643 2.59013 2.9643.74925 0 1.36227.44465 1.36227.98811 0 .54345.88083.9881 1.95738.9881 1.22384 0 2.17321.85991 2.53327 2.29454.36509 1.45462 1.80707 2.73974 3.93926 3.51076 2.6308.9513 3.58434 2.01184 4.37794 4.86919 2.85665 10.2855-1.04002 22.84221-7.46726 24.06262-1.26983.24113-1.97039 1.31913-2.15318 3.31326-.60209 6.56854-1.09197 7.4699-3.70361 6.81442-2.85679-.71702-3.39842 1.47264-.96595 3.9051 1.79615 1.79615 1.85836 3.02392.28119 5.54938-.94257 1.50928-.94257 2.63769 0 5.24428.66053 1.82668 1.20096 5.40173 1.20096 7.94456 0 2.54283.40933 4.62333.90959 4.62333 1.23722 0 2.28428 5.18941 2.2755 11.27779-.00399 2.76423.43896 5.86749.98433 6.8961.54536 1.02861 1.07825 5.91972 1.1842 10.86912.19955 9.3231 2.29159 21.35019 3.71371 21.35019.44753 0 .81369 1.95116.81369 4.33591 0 2.38478 1.11162 8.17189 2.47026 12.86027 1.71698 5.92497 2.47025 10.93023 2.47025 16.41421 0 4.60119.41187 7.88989.98811 7.88989.54345 0 .98864.77813.9893 1.72918.00067.95104 1.11228 3.02111 2.47026 4.60014 2.88876 3.35902 2.94752 3.92333.9869 9.48031-.81519 2.31048-1.48216 5.70123-1.48216 7.535 0 2.80113-.35541 3.3329-2.22323 3.32652-1.55411-.00534-2.90123-1.19487-4.47596-3.95242zM416.82833 524.96871c29.80693-51.20114 59.59355-102.93908 89.05803-153.8599 4.22735-4.60271 3.09658-9.17773 1.33615-23.10972-6.72574-37.01564-10.67136-74.58721-16.95338-111.72997-1.31698-8.72211-6.21176-62.56429-11.63399-57.14713-1.59745 8.38803-1.86495 17.2431-4.89331 25.03382-.46398.63153-15.70208.9881-42.22623.9881h-41.50029l-22.90845 126.9711h72.80761c-1.72615 15.37708-5.99065 30.89087-8.89292 46.35997-1.70895 6.54563 2.37813 6.00944-37.52547 6.00944h-36.32594c-7.2114 42.17633-13.25271 84.55564-22.01128 126.47704-1.20186 4.66439-2.78229 13.66928-2.08313 14.36843.77123.77124 82.58285.41842 83.7526-.36118zM640.2348 228.11728c1.43311-1.8329 3.24225-7.65779 2.37842-7.65779-.4111 0-1.66796 2.0009-2.79302 4.44646-1.93105 4.19749-1.70789 5.92592.4146 3.21133zm168.61222-115.16105c.26795-.43355.11674-1.38763-.33601-2.12019-1.11203-1.79929-4.11852-.56041-3.37051 1.38889.61741 1.60894 2.88733 2.0568 3.70652.7313zm-9.65179-10.65573c-.32988-.85964-.59976-1.97125-.59976-2.470265 0-.499008-.66697-.907282-1.48216-.907282-1.80422 0-1.91601 1.566827-.24702 3.462477 1.66862 1.89522 3.0692 1.84414 2.32894-.08493zm14.70943-27.83307c-.39154-.951048-.92757-2.476549-1.19119-3.39001-.63592-2.203457-3.24888-3.177676-3.24888-1.211314 0 1.764286 3.06842 6.254102 4.30515 6.299446.46572.017085.52645-.747073.13492-1.698122zm-5.07085-8.645892c.34645-.902839.00156-1.482153-.88239-1.482153-.79813 0-1.45114.666969-1.45114 1.482153s.39707 1.482153.88239 1.482153c.48531 0 1.13831-.666969 1.45114-1.482153zM1000.4152 642.71272c-.6793-.27412-1.23512-1.56448-1.23512-2.86747 0-1.68827.69375-2.54321 2.41412-2.97499 2.9307-.73556 4.5026.1041 4.5026 2.40515 0 3.12226-2.5857 4.68654-5.6816 3.43731zm275.849-.25136c-.2287-.22644-.4156-1.22689-.4156-2.22324 0-1.25144-.7302-1.81151-2.3621-1.81151-1.9679 0-2.4302-.58232-2.7695-3.48857-.224-1.91871-.1985-3.69729.0567-3.9524.2551-.25511 2.3905-.46385 4.7456-.46385 3.1473 0 4.2817.39272 4.2817 1.48215 0 .81519.6555 1.48215 1.4568 1.48215 1.983 0 4.4959 5.12936 3.8056 7.76852-.472 1.8056-1.1757 2.10147-4.4721 1.88058-2.1515-.14417-4.0987-.44739-4.3271-.67383zm-11.0628-3.05853c-1.6266-2.60458-1.5238-3.94052.3032-3.94052 1.9118 0 2.8677 2.37425 1.7556 4.36115-.7333 1.3106-1.0134 1.25339-2.0588-.42063zm-427.08186-9.16552c-4.06855-2.048-4.00507-11.57274.07714-11.57274 1.10863 0 1.74089-.44464 1.40501-.9881-.33587-.54346-.13979-.98811.43574-.98811s1.04642.44465 1.04642.98811 1.26502.9881 2.81115.9881c5.58681 0 7.75662 5.50908 4.03385 10.24182-2.26934 2.88498-5.77663 3.36085-9.80931 1.33092zm441.43446-3.39539c-1.5129-.22482-2.7173-1.03165-2.7173-1.82031 0-.77909-.667-1.41653-1.4822-1.41653-.8151 0-1.4821-.49182-1.4821-1.09292s-1.1116-1.96731-2.4703-3.03603c-2.8158-2.215-3.1304-4.24485-.9897-6.38564 2.3306-2.33058 5.7424-1.25289 7.4124 2.34137.8813 1.89678 2.226 3.19861 3.3171 3.21132 1.221.01424 1.6446.51723 1.2661 1.50354-.3533.92078.0058 1.48215.9481 1.48215 1.0633 0 1.4232.78962 1.204 2.64109-.3408 2.87903-.9239 3.17861-5.0061 2.57196zm-432.78589-10.89463c-.19853-.40759-.47441-2.12717-.61308-3.82128-.27893-3.4079 1.55786-4.48928 6.13811-3.61372 1.78624.34146 2.69318 1.30051 3.13586 3.31603.34253 1.55959.34129 3.29112-.00277 3.84783-.71658 1.15943-8.11262 1.39105-8.65812.27114zm183.91089-3.46264c-1.4248-.56605-3.3349-2.28914-4.2445-3.8291-1.4318-2.42371-1.4868-3.36661-.4094-7.01755 1.6478-5.58393 3.0541-6.84812 8.2723-7.43629 3.4327-.38691 4.5043-.14721 4.989 1.11594.3394.88477 1.2367 1.60867 1.9937 1.60867.757 0 2.247.87054 3.311 1.93454 2.2644 2.26441 2.029 7.73634-.4094 9.51939-.8388.61337-1.5251 1.46182-1.5251 1.88546 0 2.94331-6.9251 4.22622-11.9776 2.21894zm265.9198-2.713c-1.1184-2.08985.1611-5.92861 1.9762-5.92861 1.6796 0 3.2013 3.95838 2.0533 5.34161-.5764.69459-.7556 1.55545-.3979 1.91304.3575.35759-.0752.65017-.9619.65017-.8867 0-2.088-.88929-2.6697-1.97621zM82.815934 152.03344c.490896-1.61104 3.362749-1.72919 42.031176-1.72919 17.38598.31053 34.96071-.86956 52.05007 2.82742 63.59876 12.37513 84.54176 67.81752 99.00118 128.52918.80219 4.40589-4.17168.95204 1.12136 7.96578 18.53884 153.0914-56.32376 284.49775-183.055583 288.60239-1.965146.50131-22.359551.91147-45.320903.91147H6.8953223C32.459489 436.83376 57.55074 294.40723 82.815934 152.03344zm58.268616 66.3351L88.923592 512.21208c94.588458 64.36494 176.843458-305.58606 52.160958-293.84354zm601.69733 353.15035c-2.32053-.61242-5.44874-3.98189-5.44874-5.86896 0-.73203-.88929-1.33096-1.9762-1.33096-2.19627 0-2.6595-1.49265-.74107-2.38792.9881-.46111.9881-.69167 0-1.15278-3.44027-1.60546 1.79207-11.28084 6.10054-11.28084 2.98 0 5.64073-2.04855 7.054-5.43102 1.30245-3.11718 5.92778-6.4262 8.98254-6.4262.73168 0 1.33033-.48453 1.33033-1.07675 0-1.71176 4.23618-4.78297 6.64692-4.81899 1.23136-.0184 2.91328-1.12078 3.81902-2.50312.90904-1.38739 2.56499-2.47026 3.77757-2.47026 1.18744 0 2.5814-.39072 3.09768-.86825.51629-.47755 2.61193-1.16575 4.65699-1.52935 2.8671-.50976 3.85212-.3123 4.30296.86258.32158.83801.98275 1.27765 1.46925.97698.48651-.30068.88458.55411.88458 1.89953 0 3.04521-1.13976 3.46965-7.62803 2.84062-5.11038-.49544-5.1989-.45649-9.63399 4.23877C767.0143 537.79832 765 540.30469 765 540.7617c0 .457-.57475.83092-1.27722.83092s-1.81408 2.00729-2.47025 4.46064c-1.40766 5.26306-1.52995 8.38468-.32845 8.38468.47552 0 1.14055 1.37979 1.47783 3.06621 1.13045 5.65228-5.06032 13.7216-10.54517 13.74501-1.73823.00742-4.04972.18766-5.13663.40052-1.08691.21287-2.85912.15401-3.93823-.13079zm506.61012-53.2087c-.4753-.8493-1.6689-1.66229-2.6524-1.80665-4.4252-.64949-8.6457-7.96703-7.6373-13.24187.2381-1.24595 1.9787-3.85698 3.8679-5.8023 3.2281-3.32421 3.7086-3.49939 7.9886-2.91276 2.5047.34331 4.9943 1.06457 5.5325 1.6028.5382.53824 2.0014.97862 3.2513.97862 1.25 0 2.2726.50407 2.2726 1.12016s1.0742 2.06119 2.3873 3.21134c3.4619 3.03262 3.8573 9.94295.6276 10.96804-1.0591.33615-2.2354 1.58719-2.6141 2.78007-1.0237 3.2255-3.3747 4.58021-8.0095 4.61531-2.761.0209-4.4396-.48547-5.0145-1.51276zm-26.9008-92.03124c-.8152-.32122-1.8379-1.1858-2.2724-1.92129-.4346-.7355-1.3875-1.33727-2.1175-1.33727-2.5094 0-3.5152-6.52124-1.3412-8.6953.9223-.92223.5824-1.18572-1.5293-1.18572-2.5514 0-7.5612-4.02368-7.5612-6.0729 0-.4641-.6195-.84382-1.3765-.84382-1.8492 0-2.5789-2.20493-2.5608-7.7386.011-3.34239.2789-4.2045.973-3.13051.7075 1.09469.9618 1.14082.973.17643.0204-1.76868 2.4971-4.12885 4.3327-4.12885.8219 0 1.7692-.44464 2.1051-.9881.8184-1.32429 4.4424-1.24587 9.9017.2143 3.3272.88989 4.6428 1.78867 5.0619 3.45835.3286 1.30963 1.3163 2.25597 2.3544 2.25597.9835 0 2.4879.26845 3.343.59656 1.7755.68135 3.4396-2.3919 1.8484-3.41357-.5493-.35275-1.2963-1.59502-1.6597-2.76062-.7888-2.52954 2.1427-9.24391 4.0358-9.24391.7145 0 1.2992-.4764 1.2992-1.05867 0-1.69983 2.6603-3.88183 4.7328-3.88183 1.4852 0 1.8086-.52937 1.4547-2.38065-.2503-1.30937-1.3002-2.60168-2.3331-2.8718-2.7563-.72076-2.687-8.89051.0916-10.83681 1.0835-.75888 1.6763-1.67338 1.3176-2.03222-.3589-.35886-.1337-.65246.5002-.65246 1.7665 0 1.3694-2.72908-.5763-3.96066-1.2383-.78383-1.3785-1.2419-.4941-1.61359.6793-.28548 1.2352-.98606 1.2352-1.55687 0-1.75409 5.3048-5.71173 7.6578-5.713 1.625-.00088 2.2232-.58055 2.2232-2.15428 0-3.37686 2.2401-8.71605 3.6568-8.71605.7061 0 1.2837-.44464 1.2837-.9881 0-.5497 2.6487-.9881 5.9699-.9881 6.8407 0 8.8985 1.35348 10.7404 7.06425 1.5001 4.6506.4754 8.64678-2.508 9.78109-1.2898.49036-2.3451 1.56956-2.3451 2.39819 0 1.71026.01 1.70919-5.6816.60815-3.788-.73281-4.1994-.62274-4.1994 1.12364 0 1.06481.8144 2.149 1.8098 2.40929.9953.2603 2.4404 1.37176 3.2114 2.46992.7708 1.09815 2.1524 2.88102 3.0699 3.96193.9177 1.0809 1.9741 3.37382 2.3474 5.09538.3734 1.72154 1.1788 3.49742 1.7899 3.94638.8071.59309.7733.95335-.1242 1.31747-.6793.27565-1.2351 1.10588-1.2351 1.84495 0 2.16182-4.0971 4.42015-8.0189 4.42015-2.3124 0-3.8329.53718-4.1956 1.48215-.3129.81519-.2095 1.48215.2297 1.48215.984 0 3.0919 4.47697 3.0919 6.56686 0 4.0787-3.338 8.42609-8.0493 10.48324-2.6378 1.15178-4.796 2.45548-4.796 2.8971 0 .44162-.6932.80294-1.5405.80294-.8473 0-1.2656.44466-.9298.98811.3359.54346-.0825.9881-.9298.9881-.8897 0-1.5404.84799-1.5404 2.00721 0 1.10398-.667 2.26316-1.4822 2.57597-.8152.31283-1.4821 1.34731-1.4821 2.29886 0 1.23604-1.1993 1.98613-4.1995 2.62664-3.9376.84068-4.2054 1.11117-4.2942 4.33984-.1466 5.32616-1.3543 7.88803-3.7258 7.90321-1.1594.00742-2.9973.20504-4.0842.43915-1.0869.23411-2.6432.16283-3.4583-.15838zm111.3289-51.50183c-3.25-.37225-8.5022-5.65575-8.5216-8.5726-.0074-1.08691 1.261-3.42129 2.8185-5.18753 2.359-2.67535 3.5326-3.21133 7.032-3.21133 3.0698 0 4.697.57259 6.0455 2.1274 3.0517 3.5187 2.2146 8.16189-1.602 8.88579-1.0806.20497-2.1137 1.1457-2.2956 2.0905-.245 1.27239.3285 1.71784 2.2119 1.71784 1.3985 0 2.5427.39418 2.5427.87595 0 1.04786-4.3403 1.71963-8.2314 1.27398zm-109.3032-7.52475c-.6493-.78231-1.0372-2.67206-.8621-4.19943.275-2.39755.8001-2.81746 3.843-3.07292 2.9804-.25021 3.7056.10168 4.6981 2.2797 1.6267 3.57026-.0096 6.41506-3.6899 6.41506-1.5447 0-3.3398-.64008-3.9891-1.42241zm52.9142-4.34384c-.2806-.45416-.1658-2.12158.2553-3.70538 1.0899-4.09953 4.4196-4.3867 6.0215-.51932.6732 1.62523.9325 3.42645.5765 4.0027-.766 1.23941-6.1174 1.41277-6.8533.222zm-631.74441-6.74537c-1.38781-.56-1.72209-7.25041-.36227-7.25041.75966 0 1.49022-1.62908 1.89905-4.23473.15608-.99467 2.81739-3.67009 3.65075-3.67009 1.51887 0 3.20856-2.81224 3.87385-6.44746.86775-4.74145 3.05488-8.37407 5.04185-8.37407 1.13904 0 1.45937 1.42524 1.45937 6.49324 0 6.89046-1.20398 9.27391-4.53888 8.98535-1.37397-.1189-1.96884.57691-2.19805 2.57101-.17285 1.50373-.72866 2.47793-1.23513 2.16493-.50648-.31303-.92086.76211-.92086 2.38917 0 6.42047-2.4148 9.08993-6.66968 7.37306zm669.68601-10.21473c0-.54345-.8893-.9881-1.9762-.9881-1.0979 0-1.9762-.65874-1.9762-1.48215 0-.81518-.5981-1.48215-1.329-1.48215-2.0964 0-4.6997-3.47338-5.602-7.47444-.692-3.0679-.4299-4.29556 1.6052-7.51944 1.3378-2.11912 2.7755-3.64084 3.1948-3.38162.4195.25923 1.5775-.61365 2.5733-1.93976 1.6114-2.14577 2.5566-2.41109 8.589-2.41109 4.1614 0 6.7783.40873 6.7783 1.05869 0 1.1077 2.5084 3.9781 3.4231 3.9171 2.6042-.1736 3.4467.23644 3.9877 1.94093.3904 1.2299 1.495 1.9762 2.9252 1.9762 2.3395 0 3.4975 1.64925 3.4975 4.98134 0 2.31353-4.3957 6.61932-8.6459 8.46908-1.7663.7687-3.2114 1.83631-3.2114 2.37247 0 .53617-1.7523.97484-3.8941.97484-2.1417 0-4.1688.44465-4.5047.9881-.3359.54346-1.6961.9881-3.0226.9881-1.3267 0-2.412-.44464-2.412-.9881zm-701.55155-25.1957c-.98003-1.18085-.98025-2.08262-.00112-4.44647.67553-1.63085 1.53657-2.96518 1.91345-2.96518 1.02052 0 4.01554-6.68378 4.01554-8.96121 0-2.5162 2.89908-7.00537 4.06048-6.28758.48401.29914.88002.04207.88002-.57125 0-.61334 1.00046-.97306 2.22324-.7994 1.55318.22058 2.1581.91134 2.00713 2.29195-.59175 5.41152-1.68824 8.56583-3.75149 10.79212-1.24808 1.34671-2.79018 4.02703-3.4269 5.95627-.6367 1.92924-1.56781 3.5077-2.06911 3.5077-.50131 0-.91147.66697-.91147 1.48215 0 1.80549-1.1294 1.90131-2.91165.24703-1.06455-.9881-1.19121-.9881-.63336 0 .96215 1.7042.09719 1.55157-1.39476-.24613zm189.35749-.0009c-.31281-.81518-1.47199-1.48215-2.57596-1.48215-1.10398 0-2.00721-.44464-2.00721-.9881 0-.54345-1.14337-.9881-2.54084-.9881-2.55777 0-5.36398-1.98773-5.36398-3.79949 0-.53698-.4113-1.12455-.91399-1.3057-.5027-.18116-1.05851-.9822-1.23513-1.7801-.24381-1.10141.51161-1.37877 3.13722-1.15186 1.90209.16437 3.88077.70603 4.39706 1.2037.51627.49767 1.87754.90483 3.02501.90483 1.14748 0 2.99189.84369 4.09873 1.87485 1.10681 1.03117 2.85808 2.03526 3.89169 2.23132 1.30146.24687 1.97449 1.3414 2.18893 3.55972.28609 2.95974.08756 3.20324-2.61157 3.20324-1.68511 0-3.16187-.62717-3.48996-1.48216zm234.53746-119.38252c0-2.22127 2.5799-3.80933 5.6218-3.46054 2.0121.23072 2.7771.86273 2.7771 2.29463 0 1.61855-.7601 2.03119-4.1995 2.28005-3.1308.22651-4.1994-.05701-4.1994-1.11414zM818.3575 46.0595c-.62775-1.902096-1.77384-3.458357-2.54688-3.458357-1.82293 0-1.97977-8.495226-.17039-9.229406 1.889-.766491-1.03153-2.512378-5.43457-3.248781-3.29809-.551597-3.70538-.938084-3.70538-3.516051 0-1.67927.41521-2.639724.9881-2.285648.56647.350095.9881-.539158.9881-2.083976 0-1.482064.49029-5.510121 1.08953-8.951235l1.08955-6.2565727h8.8986c8.73034 0 8.88833.0420339 8.35552 2.2232294-.29868 1.2227763-1.53173 9.2264013-2.74007 17.7858353-1.20836 8.559432-2.56844 15.562605-3.02241 15.562605-.45396 0-.8254 1.556261-.8254 3.458357s-.41015 3.458357-.91146 3.458357-1.42509-1.556261-2.05284-3.458357z"/></svg>