<svg xmlns="http://www.w3.org/2000/svg" viewBox="4.052951335906982 2.4210000038146973 260.0680236816406 155.3579864501953"><path d="M173.652 2.421h.456c.404.223.885.615.68 1.14-.306.406-.758.68-1.025 1.113-2.062 3.666-3.536 7.625-5.57 11.303-.17.336-.331.674-.49 1.013.478.44.94.9 1.359 1.401 1.505.251 3.1.476 4.393 1.345 1.174 1.04 1.508 2.697 1.674 4.186.141 2.1.195 4.243-.239 6.313-.285 1.338-1.198 2.482-2.396 3.127-.39.708-.797 1.473-1.535 1.87-1.566.827-3.38.918-5.115.908-1.883-.025-3.782.1-5.645-.246-2.099-.291-4.285-.643-6.076-1.857-.72-.464-1.16-1.222-1.612-1.927.308 2.002.732 3.985 1.18 5.96 1.706-.3 3.414-.594 5.13-.829 4.31-.619 8.683-.446 13.012-.157.213-.351.294-.874.73-1.025.715-.285 1.481-.404 2.217-.623-.018-.579-.105-1.17.028-1.738.747-.515 1.662-.698 2.518-.953 2.661-.637 5.282-1.443 7.985-1.89 4.273-.636 8.574-1.46 12.915-1.175.34.034.83.125.868.549.328 1.732.135 3.513.326 5.26.418 9.307.812 18.628 1.93 27.883 1.498.02 2.994-.14 4.483-.31 2.743-.192 5.495-.2 8.242-.282.376.007 1.025 0 .949.552.03 3.077-.048 6.158.088 9.233-.02 4.042.165 8.094-.157 12.127-.81.332-1.684.41-2.548.453.097.731.155 1.465.203 2.202-3.037.573-6.11.943-9.183 1.262-5.277.632-10.58 1.003-15.885 1.307-3.32.104-6.586.88-9.915.854-.803-2.014-1.26-4.152-1.545-6.297-2.277.137-4.546.368-6.815.605-4.098.233-8.212-.004-12.276-.564-1.284-.18-2.518.325-3.754.59-3.574.977-7.262 1.407-10.904 2.038-2.249.225-4.498.513-6.755.633-1.342-5.806-1.113-11.837-2.23-17.684a47.874 47.874 0 00-2.247 3.853c-.29.527-.54 1.101-.991 1.515-.489.33-.947-.199-1.357-.41-.34.975-.49 2.066-1.234 2.842-1.453-1.716-2.848-3.479-4.078-5.362-.136 2.018-.287 4.038-.386 6.06-.213 1.696.002 3.454-.536 5.105-.657.064-1.317.086-1.974.09-.17.884-.06 1.861-.434 2.681-1.78.257-3.563-.143-5.34-.247-3.547-.203-7.085-.559-10.63-.78-.934-.072-1.871-.231-2.808-.145-.858.221-1.551.81-2.305 1.248-1.825 1.18-3.897 1.874-5.816 2.87-1.954.993-4.012 1.835-6.196 2.135a54.356 54.356 0 00-1.128-5.923c-.74-3.029-.96-6.166-1.833-9.16-1.202.325-2.385.705-3.58 1.048-.309 3.648.087 7.314.093 10.97-.619.016-1.238.032-1.857.038a21.802 21.802 0 01-.19 2.106 6.916 6.916 0 01-1.514.004c-6.21-.428-12.443-1.039-18.492-2.57-.41-.079-.766-.296-1.1-.535-.665-3.983.292-7.97.557-11.944.064-2.438.57-4.832.772-7.255.691-4.209 1.143-8.456 1.903-12.654.701-3.6 1.497-7.185 2.488-10.716.553-2.083 1.164-4.153 1.592-6.265-1.202.109-2.408.26-3.563.617.136.834.295 1.664.454 2.496-1.536.384-3.125.446-4.687.67-3.756.57-7.535 1.103-11.193 2.16-1.877.559-3.79 1.025-5.603 1.773-.338 1.453-.205 2.966-.082 4.44 3.302-.99 6.668-1.745 9.978-2.712 1.116-.293 2.235-.703 3.405-.637.593 1.256.87 2.63 1.356 3.927 1.108 3.019 1.928 6.13 2.734 9.24.448 1.764 1.141 3.476 1.296 5.305-.627.281-1.264.535-1.911.766.303.713.6 1.435.788 2.192-3.74 1.257-7.601 2.161-11.261 3.656-1.433.61-3 .983-4.273 1.916l-.157.253c-.199 1.346.085 2.697.157 4.042.237 2.552.524 5.102.888 7.643.422 2.363.567 4.761.885 7.139-1.156.315-2.326.576-3.493.844.094.782.235 1.557.345 2.34-2.962.74-5.953 1.484-9.018 1.645-2.874.233-5.742.587-8.628.678-2.396.198-4.797-.193-7.193.03a13.652 13.652 0 01-3.15-.127c-.208-.438-.413-.882-.542-1.35-1.071-4.603-2.422-9.143-3.298-13.792-.894-4.554-1.73-9.122-2.424-13.713-.52-3.465-1.111-6.923-1.356-10.422-.223-3.156-.58-6.305-.633-9.47-.264-4.633-.352-9.272-.495-13.908v-1.914c.058-1.648.1-3.296.153-4.944.102-.824.147-1.706.575-2.436.687-.645 1.73-.585 2.558-.962.163-.798.042-1.775.685-2.384.915-.913 2.127-1.433 3.29-1.948 2.983-1.248 5.966-2.508 9.053-3.479 2.052-.647 4.088-1.346 6.17-1.89 2.592-.616 5.177-1.27 7.796-1.763 5.884-1.11 11.793-2.119 17.746-2.786 3.369-.26 6.76-.834 10.14-.46a7.75 7.75 0 01.412 1.921c.229 2.173.444 4.345.673 6.518.864 5.981 1.47 12 1.785 18.034.7-1.793.97-3.72 1.65-5.517.466-.75 1.55-.285 2.23-.64.294-.785.29-1.778 1.01-2.332 1.374-.372 2.83-.256 4.234-.455 2.47-.086 4.948-.327 7.418-.1 1.41.046 2.808.247 4.217.295 2.844.155 5.643.69 8.461 1.074.388.082.838.142 1.1.48.607.723.948 1.62 1.334 2.472a42.62 42.62 0 003.025-.876c.243-.746.217-1.884 1.155-2.113 2.412-.786 4.95-1.04 7.445-1.44 3.268-.403 6.574-.417 9.858-.21.32.002.629.153.828.406.565.688.957 1.494 1.429 2.243 1.491 2.406 3.093 4.741 4.71 7.063 1.165-2.71 1.775-5.614 2.839-8.361 1.037-.23 2.102-.044 3.149-.15.432-.46.599-1.088.85-1.649 1.156-.02 2.313.016 3.465-.1 2.078-.175 4.152.128 6.23.096 3.28.004 6.518.587 9.77.93-.133-2.092-.012-4.228.663-6.226.278-.792.515-1.694 1.238-2.204.784-.547 1.713-.82 2.591-1.17 1.36-.533 2.804-.899 4.277-.832.42-.499.848-.993 1.298-1.467-1.992-3.628-3.726-7.388-5.523-11.115-.263-.605-.968-1.02-.944-1.726.321-.476.926-.816 1.509-.621.49.195.195.832.344 1.226 1.593 4.04 3.8 7.794 5.559 11.76 1.358-.405 2.791-.41 4.166-.071 2.223-3.869 4.008-7.965 5.947-11.978.384-.684.35-1.616 1.031-2.109z" fill="#010303"></path><path d="M49.487 13.578c3.877-.495 7.766-1.086 11.685-.997.19 1.903.4 3.804.566 5.71.684 5.227 1.453 10.45 1.797 15.714.105 1.092.109 2.19.27 3.278-3.616.676-7.298.915-10.938 1.437-3.396.523-6.733 1.363-10.047 2.257-1.172.382-2.404.62-3.509 1.188-.19.115-.42.215-.518.432-.352 1.043-.23 2.163-.264 3.246-.056 1.87-.082 3.74-.038 5.61.012.371.13.855.539.972.854.058 1.688-.189 2.498-.428 1.762-.537 3.57-.902 5.364-1.314 1.867-.499 3.704-1.112 5.591-1.538.366 1.308.762 2.609 1.26 3.873.885 2.3 1.536 4.679 2.113 7.072.45 1.652.976 3.286 1.435 4.939-4.615 1.581-9.34 2.837-13.872 4.654-.73.302-1.487.53-2.209.852-.701.296-.862 1.148-.87 1.83-.068 6.776 1.053 13.481 1.877 20.188-3.087.508-6.104 1.423-9.23 1.676-2.342.205-4.68.502-7.031.56-3.039.015-6.084.314-9.117.003-1.455-4.864-2.482-9.838-3.553-14.795-.362-1.533-.524-3.109-.967-4.624-.998-3.336-1.097-6.845-1.688-10.26-.163-1.893-.508-3.762-.707-5.65-.35-3.6-.748-7.197-.935-10.81-.295-5.017-.54-10.05-.27-15.074.025-2.683.073-5.368.32-8.041.097-1.033 1.216-1.413 1.994-1.851 7.909-3.97 16.493-6.472 25.207-7.895a157.082 157.082 0 0113.247-2.214z" fill="#00a0d4"></path><path d="M161.76 18.236c1.05-1.202 2.8-1.232 4.257-.984.764.116 1.385.617 1.925 1.14-2.06-.055-4.124-.043-6.182-.156z" fill="#a99a83"></path><path d="M160.13 19.494c2.235-.144 4.478-.331 6.717-.158 1.527.1 3.079.195 4.548.66.81.288 1.708.686 2.074 1.524.868 1.952.665 4.137.68 6.217-.063 1.254-.17 2.669-1.038 3.653-1.867 1.64-4.441 2.173-6.861 2.264-3.055.138-6.18-.079-9.066-1.15-.752-.287-1.588-.569-2.056-1.268-.519-.716-.553-1.632-.603-2.48-.064-1.884-.107-3.793.323-5.642.222-1.045.593-2.197 1.562-2.783 1.124-.648 2.456-.732 3.72-.837z" fill="#a99a83"></path><path d="M161.473 20.379c2.126-.147 4.283-.129 6.383.277 1.073.165 1.789 1.228 1.835 2.265.2 2.569-.032 5.167-.611 7.676-.276 1.057-1.437 1.477-2.4 1.648-3.103.426-6.42.301-9.263-1.126-1.067-.55-1.365-1.881-1.264-2.984.153-1.733-.103-3.536.51-5.2.308-.808.812-1.618 1.644-1.965.997-.416 2.097-.5 3.166-.591z" fill="#010303"></path><path d="M161.157 21.317c2.072-.36 4.199-.307 6.263.083.364.094.822.173 1.019.542.597 1.023.552 2.253.51 3.397-.074 1.765-.114 3.598-.812 5.25-.356.802-1.33.802-2.068.908-1.81.175-3.686.398-5.458-.133-.995-.293-1.994-.623-2.903-1.123-.876-.67-.711-1.93-.743-2.904.163-1.566-.105-3.296.8-4.68.816-1 2.204-1.127 3.392-1.34z" fill="#cfd3d8"></path><path d="M171.112 22.161c.884-.56 2.098.376 1.819 1.377-.115 1.152-2.03 1.218-2.364.183-.189-.557-.032-1.296.545-1.56z" fill="#010303"></path><path d="M171.471 22.684c.23-.07.447.088.67.133.054.128.16.388.215.516l-.26.48c-.315-.072-.622-.146-.932-.22.06-.314-.016-.718.307-.909z" fill="#a99a83"></path><path d="M242.341 24.704c.346-.595.703-1.184 1.083-1.759 1.154-.096 2.068.708 3.105 1.063 2.223.853 4.41 1.81 6.691 2.5 1.503.449 2.93 1.116 4.436 1.558 2.154.651 4.371 1.106 6.465 1.944v.619c-1.342 2.444-2.213 5.13-3.774 7.46-2.187 3.13-4.603 6.092-7.067 9.006a33.326 33.326 0 01-2.914 3.27c-1.523 1.566-3.069 3.12-4.77 4.494-.49.334-.467.977-.558 1.5-.354 4.86-.116 9.74.243 14.594.145 3.011.418 6.012.814 8.998.095.712.119 1.433.059 2.15-.85.302-1.75.383-2.641.469-.069.74.418 1.827-.332 2.321-3.583.977-7.342.822-11.006 1.226-2.48.17-4.964-.026-7.442.143-1.881.01-3.76-.106-5.641-.119-.883.027-1.013-1.055-1.041-1.718-.004-2.48-.115-4.958-.119-7.438.036-2.08-.15-4.154-.12-6.237-.03-3.722.052-7.446.026-11.17-2.237-1.775-4.227-3.855-5.972-6.114-1.84-2.223-3.67-4.49-5-7.064-1.252-2.452-2.22-5.033-3.294-7.561-.35-.991-.852-2.139-.442-3.17.518-.281 1.111-.388 1.654-.613-.1-.982-.47-1.99-.197-2.972.404-.744 1.306-.927 2.018-1.262 2.854-1.264 5.756-2.428 8.716-3.423 3.292-1.085 6.673-1.861 10.003-2.812.764-.23 1.568-.239 2.36-.223.542 1.55.928 3.15 1.48 4.695.77 2.253 1.85 4.416 3.353 6.273.55-.595 1.102-1.194 1.546-1.875.783-1.202 1.758-2.272 2.468-3.522 1.153-2.01 2.188-4.088 3.48-6.013.833.062 1.574.462 2.33.782z" fill="#010303"></path><path d="M241.499 29.624a118.179 118.179 0 002.665-5.009c1.716.905 3.626 1.323 5.416 2.046 4.12 1.663 8.42 2.816 12.604 4.295-1.367 3.23-2.884 6.464-5.18 9.151-.924 1.1-1.676 2.331-2.61 3.42-1.319 1.568-2.589 3.178-3.996 4.667-1.409 1.536-2.99 2.899-4.478 4.354-.55.548-1.221.94-1.863 1.364-.514.246-.466.889-.536 1.363-.304 4.685-.378 9.396-.006 14.079.249 3.903.697 7.79 1.03 11.687-4.624 1.264-9.453 1.133-14.196 1.43-2.774.077-5.564.175-8.321-.204-.456-2.203-.468-4.456-.577-6.693-.144-3.744-.126-7.493-.056-11.237-.006-2.285.225-4.562.17-6.845-2.02-1.811-4.035-3.634-5.846-5.658-1.863-2.076-3.374-4.433-4.908-6.755-1.394-2.068-2.44-4.347-3.346-6.662-.693-1.87-1.292-3.809-1.387-5.81 1.04-.477 2.11-.88 3.188-1.265 1.911-.661 3.72-1.594 5.67-2.152 3.824-1.144 7.564-2.643 11.51-3.332.594 2.26 1.326 4.495 2.391 6.586a16.98 16.98 0 004.229 5.838c.468.386 1.051.758 1.69.643 1.244-1.288 2.32-2.733 3.38-4.176 1.168-1.676 2.428-3.3 3.363-5.125z" fill="#00a0d4"></path><path d="M171.168 25.868c1.033-.535 2.355.596 1.847 1.68-.416 1.049-2.104.788-2.394-.223-.21-.543.012-1.202.547-1.457z" fill="#010303"></path><path d="M171.357 26.943c-.054-.557.894-.673 1.031-.139.241.432-.197.736-.53.9-.188-.227-.577-.407-.501-.761z" fill="#a99a83"></path><path d="M132.893 29.42c2.603-.206 5.22-.13 7.825-.007 3.318.083 6.644.294 9.922.838.227 1.116.549 2.209.75 3.332.395 2.282.966 4.533 1.256 6.834.295 3.197.665 6.393.812 9.603.06 2.42.199 4.837.402 7.249.325 2.812.307 5.647.504 8.47.392 5.174.304 10.37.515 15.553-3.95 1.413-8.142 1.885-12.258 2.569-1.26.178-2.512.412-3.785.486-.964-6.25-1.105-12.595-2.162-18.832-.06-.794-1.132-1.192-1.749-.744-.516.35-.812.927-1.103 1.462-.82 1.636-1.815 3.175-2.675 4.789-.495.846-.913 1.744-1.5 2.534-.277.04-.377-.29-.542-.442-1.863-2.5-3.262-5.302-5.007-7.878-.277-.422-.735-.788-1.272-.674-.554.045-.782.676-.828 1.148-.06 1.148.022 2.297-.002 3.445.04 4.393-.227 8.785-.657 13.156-2.86-.014-5.704-.338-8.56-.462-2.622-.217-5.255-.36-7.862-.73.908-.842 1.996-1.487 2.776-2.466-.364-3.364-.724-6.729-1.176-10.083-.55-3.885-1.524-7.693-2.149-11.564-.95-4.786-2.096-9.539-3.61-14.18-.329-1.328-1.175-2.638-.82-4.05.527-2.256.951-4.54 1.526-6.786.073-.436.539-.561.9-.676 2.193-.649 4.468-.956 6.711-1.384 2.776-.234 5.561-.197 8.343-.11.655-.041.872.72 1.214 1.14 2.044 3.403 4.329 6.645 6.492 9.971.383.607.74 1.26 1.3 1.729.667.522 1.847.197 2.026-.674 1.344-4.236 2.866-8.41 4.443-12.565z" fill="#00a0d4"></path><path d="M71.184 30.538a62.518 62.518 0 0112.234-.08c3.133.211 6.265.496 9.356 1.063.579.145 1.376.03 1.704.653.92 1.455 1.606 3.043 2.195 4.657 1.947 4.608 3.131 9.484 4.421 14.306 1.279 4.445 2.086 9.012 2.864 13.566.328 2.156.69 4.309.933 6.478.297 2.212.647 4.421.786 6.652-.828.98-1.972 1.588-3.027 2.277-2.014 1.302-4.126 2.438-6.174 3.684-2.072 1.324-4.426 2.098-6.709 2.975-.53-1.749-.681-3.582-1.075-5.36-.567-2.587-.893-5.22-1.481-7.803-.07-.408-.328-.777-.728-.916-2.16.277-4.132 1.314-6.268 1.706-.565.105-1.22.3-1.47.874-.15.626-.062 1.28-.064 1.918.103 3.238-.018 6.481.205 9.715-4.914-.136-9.828-.619-14.643-1.614-1.007-.215-2.04-.34-2.993-.75-.062-2.272.318-4.52.484-6.778.254-3.142.358-6.3.857-9.414a372.839 372.839 0 011.72-10.755c.67-4.154 1.728-8.232 2.659-12.332.55-2.659 1.48-5.221 2.118-7.858.597-2.078.967-4.219 1.674-6.263.107-.209.141-.558.422-.6z" fill="#00a0d4"></path><path d="M190.975 31.712c1.67-.13 3.338-.295 5.012-.42.515-.046 1.031.038 1.538.139.217.966.174 1.965.287 2.946.625 7.292.344 14.635 1.176 21.913.24 2.271.518 4.542.715 6.82.03.695.05 1.396.213 2.08.83.381 1.747.19 2.617.102 3.612-.284 7.221-.651 10.847-.635.066 3.107-.093 6.218.12 9.325.053 3.318.16 6.64.093 9.96-6.003.57-11.993 1.281-17.992 1.884-5.26.374-10.503.997-15.777 1.166-.317-1.584-.655-3.166-.904-4.764.544-.297 1.192-.599 1.393-1.242.629-4.82.112-9.68.1-14.52-.008-4.163-.609-8.29-.87-12.441-.456-4.62-1.025-9.235-1.93-13.79-.18-.83-.25-1.808-1.019-2.333-.26-.96-.38-1.95-.428-2.94 2.346-.812 4.806-1.204 7.203-1.825 2.515-.575 5.035-1.16 7.606-1.425z" fill="#00a0d4"></path><path d="M154.286 39.57c4.411-1.216 9.018-1.437 13.57-1.288 2.66.01 5.308.438 7.886 1.081 1.065 4.607 1.49 9.326 1.972 14.019.32 4.12.836 8.224.995 12.356.11 4.735.345 9.486-.155 14.21-4.526 1.179-9.239 1.784-13.918 1.487-1.208-.137-2.424-.059-3.634-.16-1.447-.144-2.876-.427-4.313-.638-.257-4.832-.182-9.674-.528-14.501-.276-5.698-.579-11.396-.981-17.087-.211-3.168-.476-6.331-.894-9.479z" fill="#00a0d4"></path><path d="M81.744 55.452c.028-.404.424-.884.858-.623.482.677.67 1.505.947 2.277.253.808.659 1.644.42 2.508a6.626 6.626 0 01-2.83.804c.018-1.674.33-3.322.605-4.966z" fill="#010303"></path><path d="M167.193 91.689c-.383.01-.767.094-1.14.17-2.35.504-4.675 1.16-7.006 1.745-2.357.746-4.774 1.302-7.055 2.279-.647.26-1.321.59-2.037.558-1.607-.039-3.188-.273-4.8-.243-2.432-.096-4.827.512-7.249.63-.691.055-1.371.126-2.06.195-.003.494.001 1.006 0 1.503-.82.064-1.646.152-2.45.315-.188 1.423.15 2.846.194 4.267.248 2.872.334 5.765-.024 8.63-.185 1.633-.507 3.564-1.988 4.535-.924.283-1.838-.33-2.497-.922-1.254-1.256-2.183-2.81-2.764-4.485-.657-1.84-.797-3.827-1.09-5.746-.296-2.605-.444-5.289.193-7.855.125-.601.506-1.193.291-1.818-.482-.505-1.252-.301-1.867-.267-2.934.438-5.912.458-8.825 1.042-2.626.529-5.103 1.606-7.71 2.207-.11-.398-.228-.792-.339-1.188-3.756-2.125-7.82-3.79-12.098-4.485-1.127-.23-2.248-.476-3.394-.582-6.692-.71-13.309 1.16-19.59 3.273-2.851 1.334-5.708 2.676-8.267 4.533-2.025 1.421-3.793 3.17-5.503 4.946-.7.76-1.752 1.026-2.521 1.697-1.46 1.198-2.875 2.492-3.928 4.073-1.829 2.848-2.745 6.164-3.394 9.456-.897 4.383-.41 8.918.582 13.237.781 3.318 2.499 6.3 4.436 9.067a22.974 22.974 0 003.637 4.073c3.007 2.655 6.197 5.143 9.843 6.862 1.391.677 2.907 1.047 4.364 1.551a53.524 53.524 0 0012.777 2.837h4.849c1.849-.13 3.67-.386 5.503-.655 2.322-.422 4.582-1.1 6.861-1.697a25.3 25.3 0 005.431-2.06c.312-.19.668-.37.849-.704.146-.958.01-1.944 0-2.91.526-.411 1.06-.817 1.6-1.211.094-2.762-.046-5.51.072-8.268.816.961 1.537 2.007 2.522 2.813 1.562 1.31 3.272 2.458 5.043 3.467 3.153 1.433 6.5 2.701 10.013 2.715 2.803.115 5.576-.518 8.218-1.406 1.984-.677 3.913-1.734 5.237-3.394.509-.672 1.337-.924 2.037-1.334 1.935-1.069 3.899-2.18 5.406-3.83 2.973-2.77 5.364-6.18 6.861-9.965.875-2.26 1.963-4.444 2.813-6.715 1.254 1.207 2.266 2.646 3.66 3.709.626.514 1.355.91 1.892 1.527.532.593.295 1.46.34 2.182.023 3.823-.117 7.645.023 11.468.21 3.897.572 7.786 1.019 11.661.058.434.16.853.242 1.285.997.243 2.04.178 3.055.122 2.673-.224 5.358-.345 8.025-.63 3.016-.26 6-.687 9.018-.922 2.384-.356 4.795-.587 7.128-1.212a17.594 17.594 0 00-.17-2.207c.746-.186 1.544-.234 2.231-.606.35-.32.184-.846.194-1.26-.593-4.756-1.345-9.499-1.721-14.28-.201-2.68-.799-5.316-.922-8 5.385-5 10.14-10.722 13.82-17.093 1.638-2.733 3.02-5.627 3.709-8.752-.609-.748-1.53-1.106-2.352-1.552-1.853-.965-3.79-1.732-5.721-2.521-2.352-1.043-4.834-1.721-7.322-2.352-2.207-.563-4.424-1.18-6.692-1.455-.225.49-.387.997-.63 1.48-.098.27-.472.251-.679.12-.573-.23-1.027-.775-1.673-.775-.478.313-.688.85-.945 1.333-1.31 2.73-2.783 5.374-4.194 8.05a19.34 19.34 0 01-1.091 1.817c-1.427-.896-2.54-2.18-3.661-3.418-.993-1.148-2.139-2.156-3.055-3.37-1.286-1.61-2.312-3.408-3.2-5.261a1.989 1.989 0 00-.364-.024zM92.69 118.067c1.88.032 3.752.003 5.625.17 1.007.062 2.058-.005 3.03.314.407.147.421.653.461 1.019.042.832.11 1.647.243 2.473-2.716-.077-5.427-.416-8.146-.267-1.606.163-3.22-.128-4.825.048-1.773.079-3.547.113-5.31.316-.076.568-.044 1.126 0 1.697-.964.094-1.938.153-2.909.145-.112 2.999.36 5.974.315 8.97-1.92-1.157-3.575-2.904-4.218-5.09-.247-1.128.273-2.226.727-3.225 1.081-2.352 3.237-4.062 5.576-5.067 2.957-1.297 6.242-1.53 9.431-1.503z" fill="#010303"></path><path d="M166.113 92.973c.233-.026.597-.217.72.1 1.071 2.054 2.361 4 3.899 5.736 2.337 2.625 4.655 5.36 7.681 7.22.489.295 1.182.884 1.695.315 1.903-1.982 2.972-4.568 4.403-6.88 1.142-2.03 2.002-4.198 3.047-6.276 1.628.18 3.214.605 4.787 1.043 2.527.625 5.027 1.367 7.45 2.323 2.573 1.07 5.194 2.052 7.61 3.457a38.509 38.509 0 01-4.816 9.904c-1.198 2.034-2.657 3.887-4.058 5.78-1.67 2.195-3.497 4.265-5.402 6.257-.727.742-1.383 1.564-2.213 2.199-.422.374-.94.717-1.137 1.268.104 1.252.454 2.472.605 3.72.767 5.386 1.143 10.82 1.89 16.21.138.898.224 1.802.26 2.71-2.424.633-4.926.859-7.39 1.275-2.355.297-4.71.582-7.07.848-3.286.335-6.588.49-9.876.834-.533-4.43-.853-8.888-.845-13.351.012-3.278-.002-6.558.037-9.838-.027-.525.08-1.176-.406-1.532-1.38-1.18-3.005-2.058-4.253-3.39-.945-1.003-2.068-1.841-2.86-2.98-.5-.734-1.055-1.43-1.526-2.181-.118-1.259.043-2.529-.006-3.793.08-3.977-.48-7.925-.988-11.86-.26-1.66-.505-3.334-.961-4.95-.657-.478-1.491-.587-2.255-.802 3.957-1.244 7.967-2.313 11.978-3.366z" fill="#00a0d4"></path><path d="M79.336 94.659c4.337-1.101 8.886-1.72 13.341-1.023 1.28.251 2.577.444 3.829.822 3.167 1.081 6.45 1.998 9.281 3.84.581 2.439.812 4.943.92 7.443.278 3.368.379 6.791-.255 10.127-1.105-.189-2.192-.46-3.28-.727-1.197-.3-2.433-.328-3.651-.484a43.865 43.865 0 00-7.636-.266c-1.752.03-3.525.095-5.221.585-1.602.468-3.22.947-4.695 1.745-2.25 1.324-4.27 3.169-5.475 5.514-1.153 2.247-1.521 5.05-.406 7.382.915 2.083 2.708 3.622 4.631 4.754 2.402 1.332 5.274 1.855 7.98 1.352 1.625-.337 2.87-1.644 3.57-3.093.195-.456.292-1.093-.114-1.463-.92-.303-1.904-.094-2.848-.072-1.319.032-2.637.108-3.955.084.008-2.627-.366-5.241-.266-7.87 3.055-.31 6.13-.225 9.197-.266 2.959-.042 5.909.22 8.861.346.993.123 2.012 0 2.99.221.057.05.168.153.224.205.527 2.167.458 4.422.585 6.637.378 5.147.786 10.296.772 15.461-.017.635.072 1.286-.063 1.915-.555.529-1.254.875-1.907 1.266-5.678 3.198-12.21 4.691-18.691 4.852-1.968.072-3.937-.102-5.883-.39-2.076-.345-4.092-.956-6.14-1.43-3.268-.732-6.3-2.238-9.195-3.884-1.756-1.296-3.607-2.508-5.09-4.128-2.786-2.922-5.043-6.359-6.506-10.127-1.206-3.031-1.747-6.275-2.056-9.507-.08-2.04-.135-4.1.215-6.12.321-2.2 1.057-4.322 1.981-6.336.867-1.892 2.39-3.345 3.694-4.926 1.208-1.473 2.712-2.657 4.046-4.008 1.793-1.768 4.014-3.002 6.166-4.27 3.39-2.053 7.217-3.24 11.05-4.161z" fill="#00a0d4"></path><path d="M113.828 97.93c3.333-.845 6.785-1.058 10.208-1.223-.786 3.622-.504 7.364.016 11.002.237 1.5.545 3 1.06 4.435.743 2.04 2.116 3.881 3.967 5.04 1.409.835 3.155.582 4.634.077 1.371-.436 2.579-1.445 3.106-2.803 1.13-2.756 1.067-5.8 1.037-8.725-.008-2.452-.27-4.892-.32-7.342 1.252-.06 2.474-.351 3.718-.496 3.42-.354 6.878-.368 10.294.04 1.023.129 2.064.223 3.055.527.438.61.436 1.425.63 2.134 1.089 6.594 1.883 13.327 1.103 20.004-.161 1.418-.726 2.745-1.289 4.043-.96 2.203-1.869 4.432-2.956 6.578-.567 1.122-1.123 2.261-1.9 3.256-.984 1.284-2.196 2.364-3.321 3.517-2.314 2.5-5.387 4.104-8.486 5.413-2.381 1.204-5.099 1.4-7.721 1.443-2.587.046-5.192-.3-7.644-1.142-1.77-.599-3.408-1.511-5.085-2.323-2.614-1.236-4.799-3.216-6.692-5.37-1.025-1.202-1.881-2.599-2.18-4.169-.543-2.93-.355-5.96-1.062-8.865-.281-.81-1.347-.66-1.853-1.166-.46-1.324-.47-2.745-.641-4.124.617.129 1.244.211 1.869.296.4-.611.764-1.266.88-1.998.889-5.368.141-10.805-.263-16.179 1.925-.687 3.889-1.264 5.836-1.879z" fill="#00a0d4"></path></svg>