<svg xmlns="http://www.w3.org/2000/svg" viewBox="0 0 235.55 170.61"><g style="line-height:125%;-inkscape-font-specification:'Bryant Pro'"><path fill="#ffffff" d="M6.313 37.011h19.594c1.284 0 2.409-1.092 2.409-2.51 0-1.366-1.125-2.403-2.41-2.403H8.83V2.893C8.83 1.31 7.812.218 6.313.218 4.707.218 3.69 1.42 3.69 2.893v31.443c0 1.474 1.07 2.675 2.623 2.675zM51.65 1.747C51.223.71 50.474.218 49.35.218s-1.874.492-2.302 1.529L32.914 33.9c-.16.382-.268.71-.268 1.091 0 1.256.803 2.457 2.41 2.457 1.23 0 1.926-.655 2.301-1.529l3.587-7.97h16.81l3.586 7.97c.375.874 1.071 1.529 2.302 1.529 1.606 0 2.41-1.201 2.41-2.457 0-.382-.108-.71-.268-1.091zm4.23 21.562H42.818l6.53-15.448zm42.948 4.04c0-6.223-4.764-8.57-13.33-11.3-6.156-1.965-8.78-3.111-8.78-6.332 0-3.548 3.374-5.077 8.62-5.077 3.533 0 6.531 1.146 9.154 2.675a2.02 2.02 0 001.017.273c1.5 0 2.195-1.092 2.195-2.347 0-1.693-2.516-3.003-4.336-3.713C90.798.546 88.068 0 85.284 0 77.254 0 71.58 3.275 71.58 9.826c0 5.131 2.998 8.134 12.527 11.027 6.424 1.965 9.582 3.111 9.582 6.769 0 3.111-2.784 5.459-8.458 5.459-4.39 0-7.12-1.474-10.065-3.385-.642-.382-1.177-.655-1.82-.655-1.231 0-2.195.764-2.195 2.13 0 .927.59 1.8 1.392 2.456 3.105 2.456 7.923 4.04 12.634 4.04 8.94 0 13.651-4.477 13.651-10.318zm34.043-24.183c0-1.42-1.07-2.51-2.462-2.51H105.14c-1.391 0-2.462 1.09-2.462 2.51 0 1.31 1.124 2.402 2.462 2.402h10.118v29.205c0 1.474 1.071 2.675 2.624 2.675 1.499 0 2.516-1.201 2.516-2.675V5.568h10.01c1.339 0 2.463-1.092 2.463-2.402z" style="-inkscape-font-specification:'Bryant Pro Medium'" font-weight="500" font-size="117.432" font-family="Bryant Pro" letter-spacing="0" word-spacing="0"/></g><g style="line-height:125%"><path fill="#ffffff" d="M78.387 85.49c0-1.454-1.14-2.37-2.496-2.37H57.606V71.863h9.875c1.302 0 2.387-.97 2.387-2.37 0-1.346-1.085-2.37-2.387-2.37h-9.875V56.729h17.47c1.357 0 2.497-1.023 2.497-2.37 0-1.346-1.14-2.37-2.496-2.37H55.056c-1.465 0-2.659 1.132-2.659 2.586v30.7c0 1.455 1.085 2.586 2.659 2.586h20.835c1.356 0 2.496-1.023 2.496-2.37zm32.851 0c0-1.454-1.14-2.37-2.496-2.37H90.457V71.863h9.875c1.302 0 2.387-.97 2.387-2.37 0-1.346-1.085-2.37-2.387-2.37h-9.875V56.729h17.471c1.357 0 2.496-1.023 2.496-2.37 0-1.346-1.14-2.37-2.496-2.37h-20.02c-1.466 0-2.66 1.132-2.66 2.586v30.7c0 1.455 1.086 2.586 2.66 2.586h20.834c1.356 0 2.496-1.023 2.496-2.37zm12.07.162v-8.887l7.596-7.38 11.232 17.721c.488.808 1.14 1.185 2.279 1.185 1.356 0 2.387-1.239 2.387-2.37a2.84 2.84 0 00-.434-1.454l-11.774-18.528 10.417-10.126c.543-.485.814-1.131.814-1.885 0-1.347-1.248-2.37-2.55-2.37-.597 0-1.14.161-1.736.754l-18.23 17.666V54.197c0-1.562-1.032-2.64-2.55-2.64-1.628 0-2.66 1.186-2.66 2.64v31.455c0 1.454 1.086 2.639 2.66 2.639 1.518 0 2.55-1.185 2.55-2.64z" style="-inkscape-font-specification:'Bryant Pro Medium'" font-weight="500" font-size="117.432" font-family="Bryant Pro" letter-spacing="0" word-spacing="0"/></g><g style="line-height:125%"><path fill="#ffffff" d="M26.091 53.46c-.342-1.024-.977-1.67-2.101-1.67s-1.76.646-2.102 1.67l-7.917 25.906-8.015-25.853c-.342-1.185-1.026-1.724-2.102-1.724-1.27 0-2.101.916-2.101 2.316 0 .216.049.593.147.916l9.92 31.67c.294.97.88 1.832 2.2 1.832 1.026 0 1.76-.593 2.052-1.562l7.918-25.908 7.917 25.908c.293.97 1.026 1.562 2.053 1.562 1.32 0 1.906-.862 2.199-1.832l9.921-31.67c.098-.323.147-.7.147-.916 0-1.4-.831-2.316-2.102-2.316-1.075 0-1.76.539-2.101 1.724l-8.015 25.853z" style="-inkscape-font-specification:'Bryant Pro Medium'" font-weight="500" font-size="111.451" font-family="Bryant Pro" letter-spacing="0" word-spacing="0"/></g><g style="line-height:125%"><path fill="#ffffff" d="M30.601 106.054c0-1.4-1.085-2.478-2.496-2.478H2.495c-1.41 0-2.495 1.078-2.495 2.478 0 1.293 1.14 2.37 2.496 2.37H12.75v28.816c0 1.454 1.086 2.639 2.66 2.639 1.518 0 2.55-1.185 2.55-2.64v-28.815h10.145c1.357 0 2.496-1.077 2.496-2.37zm38.436 15.458c0-10.126-7.324-18.582-18.339-18.582-11.014 0-18.339 8.456-18.339 18.582 0 10.126 7.325 18.582 18.34 18.582 11.014 0 18.338-8.456 18.338-18.582zm-5.208 0c0 7.38-4.72 13.896-13.13 13.896s-13.13-6.517-13.13-13.896c0-7.379 4.72-13.896 13.13-13.896s13.13 6.517 13.13 13.896z" style="-inkscape-font-specification:'Bryant Pro Medium'" font-weight="500" font-size="117.432" font-family="Bryant Pro" letter-spacing="0" word-spacing="0"/></g><g style="line-height:125%"><path fill="#ffffff" d="M120.885 136.912v-31.455c0-1.562-1.03-2.64-2.55-2.64-1.628 0-2.659 1.186-2.659 2.64v31.455c0 1.454 1.085 2.64 2.659 2.64 1.52 0 2.55-1.186 2.55-2.64zm41.459-4.578v-8.941c0-1.67-1.14-2.64-2.605-2.64h-11.123c-1.302 0-2.387.97-2.387 2.317 0 1.346 1.085 2.37 2.387 2.37h8.627v6.624c-2.333 2.047-5.968 3.232-10.037 3.232-8.573 0-13.13-6.463-13.13-14.112 0-7.648 5.154-13.788 13.021-13.788 3.527 0 6.077 1.077 8.953 3.232.597.43 1.14.646 1.736.646 1.465 0 2.387-1.077 2.387-2.37 0-.7-.325-1.239-.814-1.723-3.092-3.232-7.541-4.579-12.262-4.579-10.526 0-18.284 7.703-18.284 18.582 0 10.611 7.379 18.583 18.393 18.583 6.13 0 11.34-2.209 14.54-5.71.49-.484.598-.97.598-1.723z" style="-inkscape-font-specification:'Bryant Pro Medium'" font-weight="500" font-size="117.432" font-family="Bryant Pro" letter-spacing="0" word-spacing="0"/></g><g style="line-height:125%"><path fill="#ffffff" d="M235.546 105.765c0-1.4-1.085-2.478-2.495-2.478h-25.61c-1.41 0-2.496 1.078-2.496 2.478 0 1.293 1.14 2.37 2.496 2.37h10.255v28.816c0 1.454 1.085 2.639 2.658 2.639 1.52 0 2.55-1.185 2.55-2.64v-28.815h10.147c1.356 0 2.495-1.077 2.495-2.37z" style="-inkscape-font-specification:'Bryant Pro Medium'" font-weight="500" font-size="117.432" font-family="Bryant Pro" letter-spacing="0" word-spacing="0"/></g><g style="line-height:125%"><path fill="#ffffff" d="M105.434 137.295v-31.832c0-1.508-.92-2.477-2.3-2.477s-2.351.97-2.351 2.477v24.723l-19.524-26.177c-.409-.592-1.073-1.023-1.84-1.023-1.482 0-2.402.915-2.402 2.477v31.832c0 1.293.869 2.424 2.3 2.424 1.431 0 2.351-1.077 2.351-2.424V112.52l19.575 26.284c.46.593.971.916 1.84.916 1.533 0 2.351-1.131 2.351-2.424z" style="-inkscape-font-specification:'Bryant Pro Medium'" font-weight="500" font-size="113.974" font-family="Bryant Pro" letter-spacing="0" word-spacing="0"/></g><g style="line-height:125%"><path fill="#ffffff" d="M199.441 137.08v-31.455c0-1.454-.999-2.64-2.523-2.64-1.42 0-2.523 1.132-2.523 2.64v12.819h-18.87v-12.819c0-1.454-1.051-2.64-2.523-2.64-1.472 0-2.523 1.132-2.523 2.64v31.455c0 1.454 1.051 2.64 2.575 2.64 1.472 0 2.47-1.186 2.47-2.64v-13.79h18.871v13.789c0 1.454 1.104 2.64 2.523 2.64 1.472 0 2.523-1.186 2.523-2.64z" style="-inkscape-font-specification:'Bryant Pro Medium'" font-weight="500" font-size="115.584" font-family="Bryant Pro" letter-spacing="0" word-spacing="0"/></g><g style="line-height:125%"><path fill="#ffffff" d="M19.968 162.852v-8.202a.39.39 0 00-.399-.396.39.39 0 00-.398.396v8.202a.39.39 0 00.398.395.39.39 0 00.399-.395zm7.206 0v-7.78h2.87a.356.356 0 100-.712h-6.536a.356.356 0 100 .712h2.869v7.78a.39.39 0 00.398.395.39.39 0 00.399-.395zm6.346 0a.39.39 0 00.399.395.39.39 0 00.398-.395v-3.824h5.38v3.824a.39.39 0 00.399.395.39.39 0 00.398-.395v-8.202a.39.39 0 00-.398-.396.39.39 0 00-.399.396v3.652h-5.38v-3.652a.39.39 0 00-.398-.396.39.39 0 00-.399.396z" style="-inkscape-font-specification:'Bryant Pro'" font-weight="400" font-size="28.75" font-family="Bryant Pro" letter-spacing="3.5" word-spacing="0"/></g><g style="line-height:125%"><path fill="#ffffff" d="M10.835 154.531c-.046-.171-.15-.277-.313-.277s-.267.106-.314.277l-2.181 7.28-2.124-7.28c-.047-.171-.128-.277-.302-.277s-.325.132-.325.356c0 .04.012.106.023.159l2.414 8.228c.047.145.128.25.314.25.174 0 .266-.092.313-.25l2.182-7.305 2.182 7.305c.046.158.139.25.313.25.186 0 .267-.105.313-.25l2.414-8.228a.889.889 0 00.023-.159c0-.224-.15-.356-.324-.356-.175 0-.256.106-.302.277l-2.124 7.28-2.182-7.28z" style="-inkscape-font-specification:'Bryant Pro'" font-size="26.873" font-family="Bryant Pro" font-weight="400" letter-spacing="0" word-spacing="0"/></g><g style="line-height:125%"><path fill="#ffffff" d="M56.262 169.367c-2.368 0-3.576-1.293-4.073-3.456-.071-.352-.26-.564-.64-.564-.402 0-.686.235-.686.682 0 .07.024.235.047.329.616 2.491 2.345 4.254 5.376 4.254 3.86 0 5.612-2.656 5.612-6.158v-9.262c0-.4-.308-.705-.71-.705a.695.695 0 00-.711.705v9.309c0 3.009-1.397 4.866-4.215 4.866zm26.638-6.864c0-4.372-3.173-8.11-7.91-8.11-4.735 0-7.955 3.738-7.955 8.11s3.22 8.11 7.956 8.11c4.736 0 7.909-3.738 7.909-8.11zm-1.421 0c0 3.596-2.415 6.864-6.488 6.864s-6.536-3.268-6.536-6.864c0-3.597 2.463-6.864 6.536-6.864 4.073 0 6.488 3.267 6.488 6.864zm6.691 7.31c0 .4.307.705.71.705.402 0 .71-.305.71-.705v-6.817h9.59v6.817c0 .4.308.705.71.705.403 0 .71-.305.71-.705v-14.62c0-.4-.307-.706-.71-.706a.695.695 0 00-.71.705v6.512h-9.59v-6.512c0-.4-.308-.705-.71-.705a.695.695 0 00-.71.705zm31.303.047v-14.69c0-.376-.26-.682-.663-.682s-.687.282-.687.682v12.787l-10.016-13.163c-.118-.165-.308-.306-.545-.306-.426 0-.71.282-.71.682v14.691c0 .353.284.658.687.658a.66.66 0 00.663-.658v-12.787l10.04 13.14c.142.188.284.305.544.305.45 0 .687-.305.687-.658z" style="-inkscape-font-specification:'Bryant Pro'" font-weight="400" font-size="51.25" font-family="Bryant Pro" letter-spacing="3.8" word-spacing="0"/></g><g style="line-height:125%"><path fill="#ffffff" d="M147.454 162.502c0-4.372-3.173-8.11-7.909-8.11-4.735 0-7.956 3.738-7.956 8.11 0 4.373 3.22 8.11 7.956 8.11 4.736 0 7.91-3.737 7.91-8.11zm-1.42 0c0 3.597-2.416 6.864-6.489 6.864-4.072 0-6.535-3.267-6.535-6.864 0-3.596 2.463-6.863 6.535-6.863 4.073 0 6.489 3.267 6.489 6.863zm8.549 6.558v-13.868c0-.4-.307-.705-.71-.705a.695.695 0 00-.71.705v14.433c0 .4.308.705.71.705h9.188a.634.634 0 100-1.27zm15.957.753v-14.621c0-.4-.308-.705-.71-.705a.695.695 0 00-.71.705v14.621c0 .4.307.705.71.705.402 0 .71-.305.71-.705zm11.78.705c.354 0 .52-.188.638-.446l6.275-14.645a.917.917 0 00.071-.329c0-.353-.307-.611-.663-.611a.612.612 0 00-.592.376l-5.73 13.399-5.73-13.4a.612.612 0 00-.592-.375c-.355 0-.663.258-.663.611 0 .094.023.212.07.33l6.276 14.644c.118.258.284.446.64.446zm13.071-7.639h4.878a.634.634 0 100-1.27h-4.878v-5.665h8.407a.634.634 0 100-1.27h-9.117a.695.695 0 00-.71.706v14.245c0 .4.307.705.71.705h9.14a.634.634 0 100-1.27h-8.43zm26.963-3.855c0-2.492-1.728-4.35-4.854-4.35h-6.796a.71.71 0 00-.71.706v14.433c0 .4.307.705.71.705a.68.68 0 00.71-.705v-6.44h5.85l3.338 6.746c.142.258.308.4.663.4.403 0 .687-.33.687-.683a.761.761 0 00-.095-.329l-3.078-6.252c2.32-.423 3.575-2.092 3.575-4.231zm-1.42 0c0 1.786-1.185 3.079-3.15 3.079h-6.37v-6.159h6.37c1.965 0 3.15 1.293 3.15 3.08z" style="-inkscape-font-specification:'Bryant Pro'" font-weight="400" font-size="51.25" font-family="Bryant Pro" letter-spacing="4.75" word-spacing="1"/></g></svg>